<?xml version="1.0" encoding="UTF-8" standalone="no"?>
<!-- Created with Inkscape (http://www.inkscape.org/) -->

<svg
   xmlns:dc="http://purl.org/dc/elements/1.1/"
   xmlns:cc="http://creativecommons.org/ns#"
   xmlns:rdf="http://www.w3.org/1999/02/22-rdf-syntax-ns#"
   xmlns:svg="http://www.w3.org/2000/svg"
   xmlns="http://www.w3.org/2000/svg"
   xmlns:xlink="http://www.w3.org/1999/xlink"
   version="1.1"
   width="15.69645"
   height="15.959706"
   id="svg3675">
  <defs
     id="defs3677">
    <radialGradient
       cx="153.29065"
       cy="385.15643"
       r="7.1973367"
       fx="153.29065"
       fy="385.15643"
       id="radialGradient3540"
       xlink:href="#linearGradient3542"
       gradientUnits="userSpaceOnUse"
       gradientTransform="matrix(1.1513897,3.4769384e-6,-3.2693719e-6,1.082654,-23.20538,-31.835302)" />
    <linearGradient
       id="linearGradient3542">
      <stop
         id="stop3544"
         style="stop-color:#ae0000;stop-opacity:1"
         offset="0" />
      <stop
         id="stop3546"
         style="stop-color:#ff0000;stop-opacity:1"
         offset="0.64130437" />
      <stop
         id="stop3548"
         style="stop-color:#ffffff;stop-opacity:0"
         offset="1" />
    </linearGradient>
    <radialGradient
       cx="153.29065"
       cy="380.87778"
       r="7.5973368"
       fx="153.29065"
       fy="380.87778"
       id="radialGradient3550"
       xlink:href="#linearGradient3205"
       gradientUnits="userSpaceOnUse"
       gradientTransform="matrix(1.2820532,1.5765511e-6,-1.9353784e-6,1.573852,-43.23538,-220.01382)" />
    <linearGradient
       id="linearGradient3205">
      <stop
         id="stop3207"
         style="stop-color:#fffcfc;stop-opacity:1"
         offset="0" />
      <stop
         id="stop3247"
         style="stop-color:#ebe9e9;stop-opacity:1"
         offset="0.5" />
      <stop
         id="stop3245"
         style="stop-color:#c8c5c5;stop-opacity:1"
         offset="1" />
    </linearGradient>
    <linearGradient
       x1="153.29065"
       y1="425.78394"
       x2="153.29065"
       y2="376.77142"
       id="linearGradient3552"
       xlink:href="#linearGradient3213"
       gradientUnits="userSpaceOnUse" />
    <linearGradient
       id="linearGradient3213">
      <stop
         id="stop3215"
         style="stop-color:#838583;stop-opacity:1"
         offset="0" />
      <stop
         id="stop3217"
         style="stop-color:#ffffff;stop-opacity:1"
         offset="1" />
    </linearGradient>
    <linearGradient
       x1="153.29065"
       y1="425.78394"
       x2="153.29065"
       y2="376.77142"
       id="linearGradient3673"
       xlink:href="#linearGradient3213"
       gradientUnits="userSpaceOnUse" />
  </defs>
  <metadata
     id="metadata3680">
    <rdf:RDF>
      <cc:Work
         rdf:about="">
        <dc:format>image/svg+xml</dc:format>
        <dc:type
           rdf:resource="http://purl.org/dc/dcmitype/StillImage" />
        <dc:title></dc:title>
      </cc:Work>
    </rdf:RDF>
  </metadata>
  <g
     transform="translate(-335.00892,-521.52519)"
     id="layer1">
    <g
       transform="translate(130.43235,81.859561)"
       id="hover-center">
      <path
         d="m 160.48799,385.15643 a 7.1973367,6.9447989 0 1 1 -14.39468,0 7.1973367,6.9447989 0 1 1 14.39468,0 z"
         transform="matrix(1.0904346,0,0,1.1490402,45.271364,5.0852537)"
         id="path3385"
         style="fill:url(#radialGradient3540);fill-opacity:1;fill-rule:evenodd;stroke:none" />
      <path
         d="m 160.48799,385.15643 a 7.1973367,6.9447989 0 1 1 -14.39468,0 7.1973367,6.9447989 0 1 1 14.39468,0 z"
         transform="matrix(0.980715,0,0,1.0163773,62.163222,55.895539)"
         id="path3387"
         style="fill:url(#radialGradient3550);fill-opacity:1;fill-rule:evenodd;stroke:none" />
      <path
         d="m 211.74018,447.86744 -2.69308,2.76214 0.86316,0.96675 2.69308,-2.90025 2.57224,2.81392 0.98401,-0.94948 -2.69308,-2.79666 2.55498,-2.41687 -0.82864,-1.03579 -2.58951,2.5895 -2.69308,-2.55498 -0.86316,1.00128 2.69308,2.52044 z"
         id="path3389"
         style="fill:#f4f4f4;fill-opacity:1;fill-rule:evenodd;stroke:none" />
      <path
         d="m 211.65929,446.64123 -2.69308,2.76214 0.86316,0.96675 2.69308,-2.90025 2.57224,2.81392 0.98401,-0.94948 -2.69308,-2.79666 2.55498,-2.41687 -0.82864,-1.03579 -2.58951,2.5895 -2.69308,-2.55498 -0.86316,1.00128 2.69308,2.52044 z"
         id="path3391"
         style="fill:#c2c2c2;fill-opacity:1;fill-rule:evenodd;stroke:none" />
      <path
         d="m 211.70465,447.22233 -2.69308,2.76214 0.86316,0.96675 2.69308,-2.90025 2.57224,2.81392 0.98401,-0.94948 -2.69308,-2.79666 2.55498,-2.41687 -0.82864,-1.03579 -2.58951,2.5895 -2.69308,-2.55498 -0.86316,1.00128 2.69308,2.52044 z"
         id="path3393"
         style="fill:#eb0000;fill-opacity:0.77375566;fill-rule:evenodd;stroke:none" />
      <path
         d="m 160.48799,385.15643 a 7.1973367,6.9447989 0 1 1 -14.39468,0 7.1973367,6.9447989 0 1 1 14.39468,0 z"
         transform="matrix(0.915052,0,0,0.9483266,72.189072,82.110611)"
         id="path3395"
         style="fill:none;stroke:url(#linearGradient3673);stroke-width:0.88151509;stroke-linecap:butt;stroke-linejoin:miter;stroke-miterlimit:4.80000019;stroke-opacity:1;stroke-dasharray:none" />
    </g>
  </g>
</svg>
