<?xml version="1.0" encoding="UTF-8" standalone="no"?>
<!-- Created with Inkscape (http://www.inkscape.org/) -->

<svg
   xmlns:dc="http://purl.org/dc/elements/1.1/"
   xmlns:cc="http://creativecommons.org/ns#"
   xmlns:rdf="http://www.w3.org/1999/02/22-rdf-syntax-ns#"
   xmlns:svg="http://www.w3.org/2000/svg"
   xmlns="http://www.w3.org/2000/svg"
   xmlns:xlink="http://www.w3.org/1999/xlink"
   version="1.1"
   width="15.69645"
   height="15.959706"
   id="svg3541">
  <defs
     id="defs3543">
    <radialGradient
       cx="153.29065"
       cy="385.15643"
       r="7.1973367"
       fx="153.29065"
       fy="385.15643"
       id="radialGradient3451"
       xlink:href="#linearGradient3235"
       gradientUnits="userSpaceOnUse"
       gradientTransform="matrix(1.1513897,3.4769384e-6,-3.2693719e-6,1.082654,-23.20538,-31.835302)" />
    <linearGradient
       id="linearGradient3235">
      <stop
         id="stop3237"
         style="stop-color:#000000;stop-opacity:1"
         offset="0" />
      <stop
         id="stop3241"
         style="stop-color:#000000;stop-opacity:1"
         offset="0.64130437" />
      <stop
         id="stop3239"
         style="stop-color:#ffffff;stop-opacity:0"
         offset="1" />
    </linearGradient>
    <radialGradient
       cx="153.29066"
       cy="386.86063"
       r="7.5973368"
       fx="153.29066"
       fy="386.86063"
       id="radialGradient3453"
       xlink:href="#linearGradient3205"
       gradientUnits="userSpaceOnUse"
       gradientTransform="matrix(1.2820532,1.5765511e-6,-1.9353784e-6,1.573852,-43.23538,-220.01382)" />
    <linearGradient
       id="linearGradient3205">
      <stop
         id="stop3207"
         style="stop-color:#fffcfc;stop-opacity:1"
         offset="0" />
      <stop
         id="stop3247"
         style="stop-color:#ebe9e9;stop-opacity:1"
         offset="0.5" />
      <stop
         id="stop3245"
         style="stop-color:#c8c5c5;stop-opacity:1"
         offset="1" />
    </linearGradient>
    <linearGradient
       x1="153.29065"
       y1="425.78394"
       x2="153.29065"
       y2="376.77142"
       id="linearGradient3455"
       xlink:href="#linearGradient3213"
       gradientUnits="userSpaceOnUse" />
    <linearGradient
       id="linearGradient3213">
      <stop
         id="stop3215"
         style="stop-color:#838583;stop-opacity:1"
         offset="0" />
      <stop
         id="stop3217"
         style="stop-color:#ffffff;stop-opacity:1"
         offset="1" />
    </linearGradient>
  </defs>
  <metadata
     id="metadata3546">
    <rdf:RDF>
      <cc:Work
         rdf:about="">
        <dc:format>image/svg+xml</dc:format>
        <dc:type
           rdf:resource="http://purl.org/dc/dcmitype/StillImage" />
        <dc:title></dc:title>
      </cc:Work>
    </rdf:RDF>
  </metadata>
  <g
     transform="translate(-360.72321,-498.66804)"
     id="layer1">
    <g
       transform="translate(214.5989,37.56365)"
       id="pressed-center">
      <g
         transform="translate(-0.690534,0)"
         id="g3984">
        <path
           d="m 160.48799,385.15643 a 7.1973367,6.9447989 0 1 1 -14.39468,0 7.1973367,6.9447989 0 1 1 14.39468,0 z"
           transform="matrix(1.0904346,0,0,1.1490402,-12.490362,26.524022)"
           id="path3415"
           style="fill:url(#radialGradient3451);fill-opacity:1;fill-rule:evenodd;stroke:none" />
        <path
           d="m 160.48799,385.15643 a 7.1973367,6.9447989 0 1 1 -14.39468,0 7.1973367,6.9447989 0 1 1 14.39468,0 z"
           transform="matrix(0.980715,0,0,1.0163773,4.4014958,77.334307)"
           id="path3417"
           style="fill:url(#radialGradient3453);fill-opacity:1;fill-rule:evenodd;stroke:none" />
        <path
           d="m 160.48799,385.15643 a 7.1973367,6.9447989 0 1 1 -14.39468,0 7.1973367,6.9447989 0 1 1 14.39468,0 z"
           transform="matrix(0.915052,0,0,0.9483266,14.427346,103.54938)"
           id="path3419"
           style="fill:none;stroke:url(#linearGradient3455);stroke-width:0.88151509;stroke-linecap:butt;stroke-linejoin:miter;stroke-miterlimit:4.80000019;stroke-opacity:1;stroke-dasharray:none" />
      </g>
      <path
         d="m 155.27344,423.26062 a 0.87890625,0.87890625 0 1 1 -1.75782,0 0.87890625,0.87890625 0 1 1 1.75782,0 z"
         transform="matrix(1.2286731,0,0,1.2286731,-35.654134,-50.642997)"
         id="path2947-6-7"
         style="fill:#ffffff;fill-opacity:1;stroke:none" />
      <path
         d="m 155.27344,423.26062 a 0.87890625,0.87890625 0 1 1 -1.75782,0 0.87890625,0.87890625 0 1 1 1.75782,0 z"
         transform="matrix(1.2083347,0,0,1.2083347,-32.517097,-43.14235)"
         id="path2947-64-7"
         style="fill:#cccccc;fill-opacity:1;stroke:none" />
      <path
         d="m 155.27344,423.26062 a 0.87890625,0.87890625 0 1 1 -1.75782,0 0.87890625,0.87890625 0 1 1 1.75782,0 z"
         transform="matrix(1.035459,0,0,1.035459,-5.8139883,30.58132)"
         id="path2947-1"
         style="fill:#4d4d4d;fill-opacity:1;stroke:none" />
    </g>
  </g>
</svg>
