<?xml version="1.0" encoding="UTF-8" standalone="no"?>
<!-- Created with Inkscape (http://www.inkscape.org/) -->

<svg
   xmlns:dc="http://purl.org/dc/elements/1.1/"
   xmlns:cc="http://creativecommons.org/ns#"
   xmlns:rdf="http://www.w3.org/1999/02/22-rdf-syntax-ns#"
   xmlns:svg="http://www.w3.org/2000/svg"
   xmlns="http://www.w3.org/2000/svg"
   xmlns:xlink="http://www.w3.org/1999/xlink"
   version="1.1"
   width="19"
   height="19"
   id="svg4124">
  <defs
     id="defs4126">
    <linearGradient
       x1="627"
       y1="525.36218"
       x2="627"
       y2="536.04968"
       id="linearGradient3297"
       xlink:href="#linearGradient3694"
       gradientUnits="userSpaceOnUse"
       gradientTransform="matrix(1.3023255,0,0,-1.3846142,-515.55814,735.4238)" />
    <linearGradient
       id="linearGradient3694">
      <stop
         id="stop3696"
         style="stop-color:#6f6f6f;stop-opacity:1"
         offset="0" />
      <stop
         id="stop3698"
         style="stop-color:#4f4f4f;stop-opacity:0.57254905"
         offset="1" />
    </linearGradient>
    <linearGradient
       x1="585.0625"
       y1="526.36218"
       x2="585.0625"
       y2="537.36218"
       id="linearGradient3299"
       xlink:href="#linearGradient3684"
       gradientUnits="userSpaceOnUse"
       gradientTransform="matrix(1.3190841,0,0,1.4545441,-525.74658,-774.61704)" />
    <linearGradient
       id="linearGradient3684">
      <stop
         id="stop3686"
         style="stop-color:#222222;stop-opacity:1"
         offset="0" />
      <stop
         id="stop3688"
         style="stop-color:#4f4f4f;stop-opacity:1"
         offset="1" />
    </linearGradient>
    <linearGradient
       x1="585.0625"
       y1="526.36218"
       x2="585.0625"
       y2="537.36218"
       id="linearGradient3301"
       xlink:href="#linearGradient3731"
       gradientUnits="userSpaceOnUse"
       gradientTransform="matrix(1.3160307,0,0,1.4545441,-523.83513,-774.61704)" />
    <linearGradient
       id="linearGradient3731">
      <stop
         id="stop3733"
         style="stop-color:#635b4f;stop-opacity:0.01315789"
         offset="0" />
      <stop
         id="stop3735"
         style="stop-color:#a9986a;stop-opacity:0"
         offset="1" />
    </linearGradient>
    <radialGradient
       cx="580.3125"
       cy="75.687515"
       r="6.6874995"
       fx="580.3125"
       fy="75.687515"
       id="radialGradient3303"
       xlink:href="#linearGradient4197"
       gradientUnits="userSpaceOnUse"
       gradientTransform="matrix(-1.4999959,5.7366323e-6,-7.6488607e-6,-1.9999979,1450.7794,227.05906)" />
    <linearGradient
       id="linearGradient4197">
      <stop
         id="stop4199"
         style="stop-color:#f3ddcc;stop-opacity:1"
         offset="0" />
      <stop
         id="stop4201"
         style="stop-color:#da796e;stop-opacity:1"
         offset="1" />
    </linearGradient>
    <radialGradient
       cx="617"
       cy="89.5"
       r="4"
       fx="617"
       fy="89.5"
       id="radialGradient3305"
       xlink:href="#linearGradient4525"
       gradientUnits="userSpaceOnUse"
       gradientTransform="translate(0,-1.5)" />
    <linearGradient
       id="linearGradient4525">
      <stop
         id="stop4527"
         style="stop-color:#fbc08e;stop-opacity:0.52597404"
         offset="0" />
      <stop
         id="stop4529"
         style="stop-color:#fbc28e;stop-opacity:0"
         offset="1" />
    </linearGradient>
  </defs>
  <metadata
     id="metadata4129">
    <rdf:RDF>
      <cc:Work
         rdf:about="">
        <dc:format>image/svg+xml</dc:format>
        <dc:type
           rdf:resource="http://purl.org/dc/dcmitype/StillImage" />
        <dc:title></dc:title>
      </cc:Work>
    </rdf:RDF>
  </metadata>
  <g
     transform="translate(-259.07143,-483.36218)"
     id="layer1">
    <g
       transform="translate(-22.928571,-509.00002)"
       id="hover-center">
      <path
         d="m 282,8 10,0 c 4.986,0 9,-4.0140053 9,-9 0,-4.9859947 -4.014,-9 -9,-9 l -10,0 0,18 z"
         transform="translate(0,1002.3622)"
         id="path3281"
         style="opacity:0.86266097;fill:url(#linearGradient3297);fill-opacity:1;stroke:none" />
      <path
         d="m 282,7 10,0 c 4.432,0 8,-3.5680026 8,-8 0,-4.4319974 -3.568,-8 -8,-8 l -10,0 0,16 z"
         transform="translate(0,1002.3622)"
         id="path3283"
         style="fill:url(#linearGradient3299);fill-opacity:1;stroke:none" />
      <path
         d="m 282,7 10.15625,0 C 296.49759,7 300,3.432 300,-1 c 0,-4.43199 -3.50241,-8 -7.84375,-8 L 282,-9 l 0,1 10.15625,0 c 3.79867,0 6.875,3.12201 6.875,7 0,3.878 -3.07633,7 -6.875,7 L 282,6 l 0,1 z"
         transform="translate(0,1002.3622)"
         id="path3285"
         style="fill:url(#linearGradient3301);fill-opacity:1;stroke:none" />
      <path
         d="m 587,82.375 a 6.6875,6.6875 0 1 1 -13.375,0 6.6875,6.6875 0 1 1 13.375,0 z"
         transform="matrix(1.0467285,0,0,1.0467293,-316.42963,915.13788)"
         id="path3287"
         style="fill:#612c22;fill-opacity:0.53271024;stroke:none" />
      <path
         d="m 587,82.375 a 6.6875,6.6875 0 1 1 -13.375,0 6.6875,6.6875 0 1 1 13.375,0 z"
         transform="matrix(0.89719644,0,0,0.89719713,-229.65431,927.45559)"
         id="path3289"
         style="fill:url(#radialGradient3303);fill-opacity:1;stroke:none" />
      <path
         d="m 288.25,998.11221 -0.21875,1.40625 1.5625,1.95314 -1.84375,1.875 0.25,1.4219 1.53125,0 1.51563,-1.75 1.73437,1.8437 1.21875,-0.1875 0.20313,-1.3437 -1.79688,-1.8907 1.625,-1.92184 -0.21875,-1.40625 -1.40625,0.3125 -1.375,1.5625 -1.375,-1.5625 -1.40625,-0.3125 z"
         id="path3291"
         style="fill:#fdcbbb;fill-opacity:1;stroke:none" />
      <path
         d="m 621,85.5 a 4,2.5 0 1 1 -8,0 4,2.5 0 1 1 8,0 z"
         transform="matrix(1.25,0,0,1.6,-480.25,866.56221)"
         id="path3293"
         style="fill:url(#radialGradient3305);fill-opacity:1;stroke:none" />
      <path
         d="m 289.0625,998.70596 -0.75,0.46875 2.125,2.28129 -2.125,2.3125 0.6875,0.5 2.03125,-2.1875 2.03125,2.1875 0.6875,-0.5 -2.125,-2.3125 2.125,-2.28129 -0.75,-0.46875 -1.96875,2.12504 -1.96875,-2.12504 z"
         id="path3295"
         style="fill:#611a02;fill-opacity:1;stroke:none" />
    </g>
  </g>
</svg>
