<?xml version="1.0" encoding="UTF-8" standalone="no"?>
<!-- Generator: Adobe Illustrator 13.0.0, SVG Export Plug-In . SVG Version: 6.00 Build 14948)  -->

<svg
   xmlns:xapMM="http://ns.adobe.com/xap/1.0/mm/"
   xmlns:xapG="http://ns.adobe.com/xap/1.0/g/"
   xmlns:stDim="http://ns.adobe.com/xap/1.0/sType/Dimensions#"
   xmlns:xapTPg="http://ns.adobe.com/xap/1.0/t/pg/"
   xmlns:xapGImg="http://ns.adobe.com/xap/1.0/g/img/"
   xmlns:xap="http://ns.adobe.com/xap/1.0/"
   xmlns:i="http://ns.adobe.com/AdobeIllustrator/10.0/"
   xmlns:x="adobe:ns:meta/"
   xmlns:dc="http://purl.org/dc/elements/1.1/"
   xmlns:cc="http://creativecommons.org/ns#"
   xmlns:rdf="http://www.w3.org/1999/02/22-rdf-syntax-ns#"
   xmlns:svg="http://www.w3.org/2000/svg"
   xmlns="http://www.w3.org/2000/svg"
   xmlns:sodipodi="http://sodipodi.sourceforge.net/DTD/sodipodi-0.dtd"
   xmlns:inkscape="http://www.inkscape.org/namespaces/inkscape"
   version="1.1"
   i:viewOrigin="156.5 545.5"
   i:rulerOrigin="0 0"
   i:pageBounds="0 792 612 0"
   x="0px"
   y="0px"
   width="300px"
   height="300px"
   viewBox="0 0 300 300"
   enable-background="new 0 0 300 300"
   xml:space="preserve"
   id="svg2"
   inkscape:version="0.48.3.1 r9886"
   sodipodi:docname="autorun.svg"><defs
   id="defs28">
	

		
	
			
			
			
			
			
			
			
			
		</defs><sodipodi:namedview
   pagecolor="#ffffff"
   bordercolor="#666666"
   borderopacity="1"
   objecttolerance="10"
   gridtolerance="10"
   guidetolerance="10"
   inkscape:pageopacity="0"
   inkscape:pageshadow="2"
   inkscape:window-width="1432"
   inkscape:window-height="727"
   id="namedview26"
   showgrid="false"
   inkscape:zoom="0.78666667"
   inkscape:cx="152.54237"
   inkscape:cy="150"
   inkscape:window-x="0"
   inkscape:window-y="40"
   inkscape:window-maximized="0"
   inkscape:current-layer="svg2" />
<metadata
   id="metadata4"><?xpacket begin="   " id="W5M0MpCehiHzreSzNTczkc9d"?>
<x:xmpmeta
   x:xmptk="Adobe XMP Core 4.1-c036 46.277092, Fri Feb 23 2007 14:17:08        ">
   
<metadata
   id="metadata30"><rdf:RDF>
      <rdf:Description
   rdf:about="">
         <xap:Thumbnails>
            <rdf:Alt>
               <rdf:li
   rdf:parseType="Resource">
                  <xapGImg:width>256</xapGImg:width>
                  <xapGImg:height>200</xapGImg:height>
                  <xapGImg:format>JPEG</xapGImg:format>
                  <xapGImg:image>/9j/4AAQSkZJRgABAgEASABIAAD/7QAsUGhvdG9zaG9wIDMuMAA4QklNA+0AAAAAABAASAAAAAEA
AQBIAAAAAQAB/+4ADkFkb2JlAGTAAAAAAf/bAIQABgQEBAUEBgUFBgkGBQYJCwgGBggLDAoKCwoK
DBAMDAwMDAwQDA4PEA8ODBMTFBQTExwbGxscHx8fHx8fHx8fHwEHBwcNDA0YEBAYGhURFRofHx8f
Hx8fHx8fHx8fHx8fHx8fHx8fHx8fHx8fHx8fHx8fHx8fHx8fHx8fHx8fHx8f/8AAEQgAyAEAAwER
AAIRAQMRAf/EAaIAAAAHAQEBAQEAAAAAAAAAAAQFAwIGAQAHCAkKCwEAAgIDAQEBAQEAAAAAAAAA
AQACAwQFBgcICQoLEAACAQMDAgQCBgcDBAIGAnMBAgMRBAAFIRIxQVEGE2EicYEUMpGhBxWxQiPB
UtHhMxZi8CRygvElQzRTkqKyY3PCNUQnk6OzNhdUZHTD0uIIJoMJChgZhJRFRqS0VtNVKBry4/PE
1OT0ZXWFlaW1xdXl9WZ2hpamtsbW5vY3R1dnd4eXp7fH1+f3OEhYaHiImKi4yNjo+Ck5SVlpeYmZ
qbnJ2en5KjpKWmp6ipqqusra6voRAAICAQIDBQUEBQYECAMDbQEAAhEDBCESMUEFURNhIgZxgZEy
obHwFMHR4SNCFVJicvEzJDRDghaSUyWiY7LCB3PSNeJEgxdUkwgJChgZJjZFGidkdFU38qOzwygp
0+PzhJSktMTU5PRldYWVpbXF1eX1RlZmdoaWprbG1ub2R1dnd4eXp7fH1+f3OEhYaHiImKi4yNjo
+DlJWWl5iZmpucnZ6fkqOkpaanqKmqq6ytrq+v/aAAwDAQACEQMRAD8A9U4q7FXYq7FXYq7FXYq7
FXYqhtS1LT9MsJ9Q1G4jtLG2QyXFzMwSNEHUsx2xV8ofmt/zmFqdzcTaZ+XqC0s0JQ65cRhppe1Y
YXBWNfAuC3suKvnrXPN/mrX52n1vV7zUpX6m5nklFPABiQB7DFUqjkkjcPGxRx0ZSQR26jFWX+W/
zh/M/wAtsh0jzLfRRRmq20spuIPf9zN6ke/+rir3DyJ/zmpfRNHa+d9IW4j2U6lpvwSAd2e3c8W/
2Lr8sVfSnk3z75R856b+kPLepw6hAKeqiErLET+zLE1HQ/6wxVP8VdirsVdirsVdiqjPe2VvLDDP
cRxS3B4wRu6q0hFNkBNWO46YqrYq7FXYq7FXYq7FXYq7FXYq7FXYq7FXYq7FXYq7FXYq07qil3IV
FBLMTQADqScVfDH/ADkf+elx561p9C0Wdk8pabIRGVqv1yZTT13HdAR+7B+Z3OyrxPFXYq7FXYq7
FUy8veZNe8uapFquhX02nahD/d3EDFWoeqt2ZT3Vtjir7D/I3/nKLTvN01v5d82iPTvMclI7S8Qc
ba8foF3r6UreH2WP2aGi4q9/xV2KuxViP5mfmf5Z/Lzy82sa3KWdyY7GwiI9e5lA+zGD2WtWY7KP
cgFV8W/mJ/zkj+ZnnG5lRNQk0TSGqsem6c7RDge0sy0klJHWp4+CjFXl0kskrtJK5eRjVnYkkn3J
xVkHlX8xvPPlS4Wfy/rd3YcSpMKSFoG4moDwvyicezLir6y/I3/nKKy84XVv5b81xx6d5imKx2V3
FVba7fpxoa+lK3YV4selNlxV7/irsVdirsVdirsVdirsVdirsVdirsVdirsVdirwX/nLX80JPLXk
+Pyvpsxj1fzErLO6GjRWK7Snb/fx/dj25Yq+JcVdir0DyT+Q/wCaXnK1W+0fRXXTpBWO+u2W2hcV
pWMyENIPdARiqL81f845fm95btXvLvQnu7OMM0k9g6XXFV3LMkZMgWm9StMVeakEEgihHUYq1irs
VbBIIINCNwRir7P/AOcW/wA85/NNl/g3zFNz17T4eWnXjn4rq2jABV/GWId/2l36gkqvoTFWndUU
u5CooJZiaAAdSTir86fzs/Mm68/+fr/VvUY6XAxtdHhOwS1jYhWpU/FJ9tvc06AYqwLFXYq7FV0c
kkUiyRsUkQhkdSQwYGoII6EYq/Qz8gvzHfz7+XNlqd2/LV7JjY6qdhynhAIkpX/dkbK5/wAokDpi
r0bFXYq7FXYq7FXYq7FXYq7FXYq7FXYq7FXYq/P3/nJjzE+ufnLrzcmMGmtHp1urGvEWyBZAPAGY
u304q8txV9Of84yf8482WsWsHnnzfbCewZuWi6VKKpNwNPrE6EfFHyHwIdm6n4aVVfW6IqKEQBUU
AKoFAAOgAxVvFXjf50/843+WvPkE2qaSkekea93F2g4w3LHfjcoo6n/fgHLx5Yq+JPM3ljXfLGt3
Oia7ZvZalaNxlhk8OzKwqrIw3VlNDiqVYq7FU18reY9R8teYtO17TXKXumzpcQmtAeB3Rv8AJdaq
3scVfppo+p2+raRY6pbVFvf28V1CG68JkDrX6GxVJvzLnmg/LnzVPBX14tHv3ip15rayFafTir8z
8VdirsVdirsVfVP/ADg5e3HLzfZcGa2AsZhJ+yjn11IPu4H/AAuKvqvFXYq7FXYq7FXYq7FXYq7F
XYq7FXYq7FXYq/L3zLqcmreY9V1SRucl/eXF07/zNNKzk/TyxVln5I/lrN+YPn6y0Z1YaXB/pWry
qaFbWMjkoaho0jEIvzr2xV+iVtbW9rbRWttGsNvAixQwoAqoiDiqqBsAAKDFVTFXYq7FWDfmv+UP
lj8x9ENlqcYg1KBWOnarGo9aByNgenOMn7SHr7HfFXwV+YH5d+aPIevyaN5gtjFKPitrlKmC4j7S
QvQch49wdjQ4qxnFVW2t57m4itreMyzzuscMSirM7niqgeJJxV+nXlLSp9I8q6NpM5DT6fY21rKy
9C8EKxtT6VxVGanp1tqWm3enXQLWt7DJbzqNiY5VKMAfk2KvzK81+XNQ8s+ZNS0DUF43em3ElvJt
QNwPwutf2XWjL7HFUpxV2KuxV2Kvt3/nD7yVcaH+XU+uXaGO48x3AniU7f6LADHCaf5TNI3yIxV7
virsVdirsVdirsVdirsVdirsVdirsVdiqWeabqS08savdxsySW9lcSoyHiwKRMwKkdDtir8vsVfb
n/OIXkKPQ/y8fzHcRgaj5jkMisQKraQMUiXpUcm5v13BXwxV7xirsVdirsVdiqS+bfJnljzdpEmk
+YtPiv7J91WQfHG388Ugo6N7qfwxV4NrH/OEflae8eTSfMd5Y2rGq288Ed0V8QHDQbeFR9+Ksm/K
7/nFfyl5I1+LX7vUJdc1K0PKw9WJYYYX3/eemGkLOP2SW260rSir23FXYq8H/wCckvyAl88QL5m8
txqPNFpGEuLY0UXsK/ZHIkASp+yT1G3YYq+LNQ06/wBNvZrHULaW0vbdzHPbTo0ciOpoVZWAIOKo
bFXYq9m/Ij/nHnW/PeowavrUEth5PhYPJOwKPeUNfSgrvxP7UnQdt+ir7qtbW2tLaG1tolhtrdFi
ghjAVERBxVVUbAACgGKqmKuxV2KuxV2KpF53856N5N8uz6/q/qGzgeGIxwhWld55ViUIrMgY1ep3
6AnFU9xV2KuxV2KuxV2KuxVJvOiPJ5O12NBV3067VR4kwOBir81PL2jXeua9p2jWilrrUbmK1hA/
mmcIPurir9OtJ0y00rSrPS7JeFnYQR2tsn8sUKBEH0KoxVFYq7FXYq7FXYq7FXYq7FXYq7FXYqxr
zh+WnkPzjGE8yaJbagy7LcMpjnUAUos8RSUDfoGpirxfzl/zjX/zjz5Xsv0p5g1e+0ayZuEYa7Q8
m68Y0MMkrmnZa4qmf5T+Q/8AnFu7vePlZ7TX9ViJdV1GSSWegB3S2uBGjBaE8li27npir3lEVFCI
AqKAFUCgAHQAYq3irsVdirsVdirsVfKP/OZf5kVu9M8jafJ8VoyanqjDektCLaI7dlYuR7rir6ux
V2KuxV2KuxV2KuxVbLFFLE8UqLJFIpWSNgGVlYUIIOxBGKvin/nFjyCbr85b24uk5QeU1nZuQqPr
Jc28QPaoq7j3XFX2xirsVdirsVdirsVdirsVdirsVdirsVUL69tbCxuL67kENpaRPPcSmpCRxqWd
jSp2UVxV+cf5qfmVrX5g+bbrW9Qdltgxj0yyrVLe3B+FFHTkernu2KsVsr27sbuG8s5ntru3cSQX
ETFJEdTVWVloQQcVfen/ADjl+bz/AJheT2j1Jl/xHo3CDUiNvWRgfSuKdufEhv8AKB6AgYq9ZxV2
KuxV2KuxVjn5h+eNK8j+UNQ8yakQYrRP3EFQrTTttFEle7N9wqe2Kvz90Yav+Yn5o2X6QcT6h5i1
SP625HwgSyjnsK0RErQdgMVfpLirsVdirsVdirsVdirsVeb/AJS+UE0PzJ+Yt6ylLnVPMMkhG1DC
1vFdRnbxN45/trir0jFXYq7FXYq7FXYq7FXYq7FXYq7FXYqwL8+ru4tPyc82S25KyNYPESOvCYiK
T/hHOKvzoxV2KvTv+ccvPJ8o/mrpU0snDTtUb9G34LcV4XBCxu3UfBLwb5VxV+g2KuxV2KuxVD6h
qFjptjPf386Wtlao0txcSsFREUVZmY9AMVfBf/OQf503H5jeZBBYlovK+lsy6ZCagzMdmuZAf2n6
KP2V9ycVZj/zhn5GbUvOd95tuI62mhwmG0Y03u7oFdqg/Yh51/1hir7LxV2KuxV2KuxV2KuxV2Kq
cVtDDJNJGvF7hxJMak8nCLGDv0+GNRtiqpirsVdirsVdirsVdirsVdirsVdirsVSTzz5fHmPybre
g0BbU7G4touWwEkkZWNq/wCS9Dir8yZoZYJnhmUpLExSRG2KspoQfkcVWYq2rMrBlJVlNVYbEEYq
/Rz8mPPkXnj8utJ1wuGvvTFtqa1qVu4AFlrsPt7SD2YYqzfFXYqlfmXzPoPlnR59Z129jsdOtxWS
eU9T2VVFWZj2VRU4q+Hvzy/5yE1v8xLp9M0/1NO8owvWCyNBLcFT8MtyVJ+YQHivud8VeRwwyzSp
DChklkYJHGoJZmY0AAHUk4q/Rn8l/wAv4/In5d6XoZULflPrWqt/NdzgNKOpB4bRgjqFGKs4xV2K
uxV2KuxV2KuxV2KuxV5z+c/516F+WWkwy3EJ1DWb7l+j9MRwhYL9qWVqNwjB2rSpOw70VfMepf8A
OYn5uXN36tqNPsIAfhtorcyCg7M0rux+imKsp8o/85s65DNHF5t0KC7tqBXutNLQzCnVzFK0iOT4
BkGKvoHyJ+dX5b+dwkeh6vH9ff8A6Vlz+4ugfARvTn0/3WWGKs4xV2KuxV2KuxV2KuxV2KuxV8H/
APOUv5dSeVPzJuNSt4iuj+Yy19auBRVnJ/0mKoAFRIedB+ywxV43irsVekfkn+c+sflpr7TIrXeg
3xVdV04EVYLUCWInZZUqadm6HsQq+3vKv5tfl35o0xNQ0nXbRkKhpbeeVIZ4jQErJFIVZaVpXp4E
4qwv8y/+coPy78oRyWum3C+YtaAIW0sXDQI1P923I5Rj5JybsQMVfHn5j/mp5x/MHVfr3mC7LQxs
xs9Oiqttbhu0cdTvTYsase5xViGKvoz/AJxK/J+TWdcXz5rEBGk6TJ/uIRxQT3qn+9HikHWv89P5
Tir7IxV2KuxV2KuxV2KuxV2KuxV2KvgT/nKPX59W/OfWo2Zzb6YsFjbI5+yscSs4UVNAZXdvpxV5
NirsVXI7o6ujFXUhlZTQgjcEEYq94/KP/nK7zT5YeHS/NrS69oI4oLhjyvrda9VkY/vh/kyGvgwx
V9h+VfN3lzzXo0OseX76O/sJukkZ+JG7pIh+JHHdWFcVTfFXYq7FXYq7FXYq7FWFfm9+WWnfmJ5M
udDuCkN8v7/S71hX0blQeJNN+DfZceB8aYq/PDX9B1by/rN3o2r27Wuo2MhiuYG6hh4EbEEbgjYj
FUvxV2KuxV2KuxV6l+Rv5Hax+ZGsiaYPZ+V7Nx+kdQpQuRv6EFftSMOp6KNz2BVfe+j6RpmjaXa6
Vpdulpp9lGsNrbxiioiCgG+59ydz3xVF4q7FXYq7FXYq7FXYq7FXYq7FXwz/AM5deU7rSPzWm1gx
cbHX4IriCRRRTLBGsEy9PtfArH/WrirxHFXYq7FXYqyr8vPzL82eQdbTVfL90Y6kC6spKtb3CA/Y
ljqK+xFGHYjFX3V+UX5z+WPzK0gz2DC01i3UHUNIkYGWLoC6Hb1IqmgcD5gHFXoGKuxV2KuxV2Ku
xV2KvKfz0/IjSPzI0wXVqY7HzVaJSy1AiiSoN/QuOIJKfyt1U+1QVXwv5o8qeYfKusz6Nr9lJYah
bmjxSDZhWgdGHwujU2ZSQcVSnFXYqviilmlSKJGklkIVI0BZmY7AADcnFX0N+UH/ADiVr2tyw6t5
6SXR9HHxppf2b2fwEg/3QnjX4/YfaxV9f6Po+l6LpdtpWlWsdlp1ogjtraFeKIo8B7ncnqTucVRm
KuxV2KuxV2KuxV2KuxV2KuxV2KsP/NP8stD/ADE8qzaHqY9KZT6unX6islvOBQOo25KejL3HvQhV
8BfmF+XXmfyF5gl0XX7f05BVrW6SpguIq7SQuQOQ8R1HQgHFWMYq7FXYq7FU08teZtd8s63ba3od
29lqdo3KGdKd9irKaqysNmVhQjrir7j/ACM/5yD0X8xbVdMvxHp3m2FC01iCRHcKoq0tsWJPuyE8
l9xvir13FXYq7FXYq7FXYq7FWO+dvy98n+dtOFh5l02K+iSvoSmqzQlhQtFKtHT6DQ964q8M1n/n
CLyzPcu+j+Zbuwgb7ENzbx3ZU0/nV7aor7fTiqnpX/OD/l+KZG1XzTdXcIPxx21tHasR7M73NPux
V7J5E/Jr8ufI6q+g6REt8BQ6lcfv7o9QaSvUpWu4TiD4YqzXFXYq7FXYq7FXYq7FXYq7FXYq7FXY
q7FWndI0Z3YIiAszMaAAbkknFXxH/wA5OfnhZed9Tj8t6EscmgaRMzHUCqs9zcCqFonIJWEDYcT8
fU7UxV4RirsVdirsVdiqI0/UL7Tb6C/sLiS1vbV1lt7mFikkbqaqysNwQcVfcf8Azjx+flr5+01d
E1uVIfOFmlXWgRbyJP8Ad0Q6cx/uxB/rDavFV7TirsVdirsVdirsVdirsVdirsVdirsVdirsVdir
sVdirsVdirsVdirsVdir5B/5yY/5yI/S73XkfylP/uKjYxaxqkTf70spo0ELKf7oH7Tft9B8P2lX
zTirsVdirsVdirsVdiqM0jV9S0fU7XVNMuHtNQs5FmtriM0ZHU1BH8R3xV+gP5HfnBpv5k+VluTx
g1+xCxaxZDajkbTR+MclKjwNR2qVXo+KuxV2KuxV2KuxV2KuxV2KuxV2KuxV2KuxV2KuxV2KuxV2
KuxV2Kvkz/nJH/nJH639a8leSrr/AET4odZ1mFv73s9vbuP919ncfa6D4allXy9irsVdirsVZ/8A
lX+S3nH8xtQCaXAbbSIn43msTqRBHTcqvT1JKH7C/TQb4q9b/MT/AJwz1KwsFvfJGoPqkkMY+s6b
ecI5pGVRyaCReKHkang1KfzHFXzbqGn3+m3s9hqFvJaXts5juLadDHJG69VZWAIOKofFXYqzH8pv
zE1DyB53sNftmY2qsIdTtlO01o5HqoR4inJf8oDFX6P21zBdW8VzbuJYJ0WSGRdwyOOSsPYg4qqY
q7FXYq7FXYq7FXYq7FXYq7FXYq7FXYq7FXYq7FXYq7FXYq+TP+ckf+ckfrf1ryV5Kuv9E+KHWdZh
b+97Pb27j/dfZ3H2ug+GpZV8vYq7FXYq7FX0L+Qn/OMV35oEHmXzlHLZ+X6h7TTSDHPeDqGY7GOE
+PVu1Bvir7F0vS9N0rT4NO0y2is7C1QR29rAoSNFHZVWgGKorFXzT/zmnoHlRfLWla48cUPmeS7F
vDKvwyz2qxsZVYAfGI24UJ+zWnfFXyDirsVdir9Kvyqt9Ttvyz8q2+pgLfQ6VZpKorUcYVChq78g
tA3vXFWVYq7FXYq7FXYq7FXYq7FXYq7FXYq7FXYq7FXYq7FXYq4kAEk0A3JPSmKvkb/nIr/nJeTU
Td+TfJNzx001h1XWoj8U/Z4bdh0i7M4+10Hw/aVfMmKuxV2Kpz5U8n+ZfNmrR6T5e0+XUL6Sn7uM
fCik05yOaIijuzEDFX2B+Tf/ADit5e8qmDWfNhj1rzAoDx2tOVlbPWoKqw/fOP5mFB2X9rFXveKu
xV5j+an/ADkF5E8gQzW0twNU8wKD6ej2rBnVu3ryCqwjxr8XgpxV8P8A5hfmF5k8+eY5td16fnM/
wW9slRDbwg1WKJSTRR95O53xVjOKuxV7D/zjb+T9x5683Ralfwn/AAxosiTXzsPhnlU8o7ZfHkd3
8F9yMVfeeKuxV2KuxV2KuxV2KuxV2KuxV2KuxV2KuxV2KuxV2KuJABJNANyT0pir5C/5yQ/5yQOr
G58meTLmmlCsWratEd7k9GggYf7q7Mw+30Hw/aVfNGKuxVfFFJLIsUSNJI5CoigliT0AA64q9/8A
yp/5xI8z+YPQ1Tzi76Fo7UcWQA+vzL4cTVYAfF6t/k98VfWvk/yP5W8naSuleXNPjsLQUL8BWSRh
+3LI1Xdvdjiqe4qwD8x/zx/L7yAjRaxfevqnGsek2gEtydqjkKhYwfF2HtXFXyh+ZX/OUv5h+bhN
ZaZJ/h3RZKr9Ws2P1iRDUUlufhbcHcIFHjXFXjRJJJJqT1OKtYq7FXrn5M/847+aPzBuYtQvFfSf
KqkNJqMi0ecA7pao32if5z8I9ztir7k8s+WdE8saJa6Jolqlnp1mnCGFPxZj1ZmO7MdycVTTFXYq
7FXYq7FXYq7FXYq7FXYq7FXYq7FXYq7FXYq7FXyT/wA5Lf8AORaagLnyR5Nuq2QJi1rV4W2mps1t
Aw6x/wA7j7XQfDXkq+YcVdir0n8rvyD8+fmDJHcWVv8Ao/Qy1JNZu1Kw0HX0V+1Me3w7V6kYq+w/
yv8AyD8g/l9Gk9lbfpDXAP3ms3gV5gSBUQr9mFf9X4vFjir0jFWEfmF+cv5feQomGvakv1+lY9Kt
qTXjVoR+7BHAEGoMhUHxxV8sfmV/zlr568yrNYeXF/w3pLgqXhbneyKafanoPT6f7rAI6cjirwyW
WSWRpZXMkjks7sSWJO5JJ64qsxVUt7e4uJlht4nmmc0SONSzE+AAqTir1Lyb/wA4y/m35mdHbSjo
tkxHK61StvQEV2hoZj/wGKvov8uf+cSfIXlqSG/1928yapEQ4WdRHZKwoRS3q3Ohr/eMQf5cVe4x
xxxRrFEoSNAFRFACqoFAAB0AxVdirsVdirsVdirsVdirsVdirsVdirsVdirsVdirsVdir5U/5yX/
AOcjFdbzyL5OuKg8oNc1eJqdNntoGH3SN/sR3xV8rYqn/k3yJ5r856qul+XNOlv7nYylBSOJSac5
ZGoiL7k4q+tvyp/5xJ8reXRDqfnBo9f1laOLOh+oQsDX7DAGc/644/5PfFXvscccUaxRKEjQBURQ
AqqBQAAdAMVeWfmT/wA5Jflx5IlmsGuG1jW4aq+nWNG9Nx+zNMf3ae43Yfy4q+aPzA/5ys/MrzR6
ttpcq+W9LeoENixNyVqac7ogPWh/3WExV5DFbalqEzNFFNeTuSXZVeVyx3JNKknFWVaL+TH5r60Y
/wBH+VdRZJSBHNNA1vEamlfVn9NKe9aYq9U8q/8AOFvnq/KS+YtUs9FhNecUQa8uBT/JUxxb+0hx
V655Z/5xA/KjSjHLqYvNdnX7YupvShJ9o4BG1PYucVer+XfJnlLy1D6OgaPaaYvHgzW0KRuy1r8b
gc23/mOKpzirsVdirsVdirsVdirsVdirsVdirsVdirsVdirsVdirsVdir5n/AOcl/wDnIldMjuPJ
Pk67/wByjVi1nVITtbrQhreFh/u0/tsPsdPtfZVfI8EE9xOkMEbzTysFjjQFnZmNAFAqSTir6K/K
b/nEPXNYEOree3k0fTT8SaTHQXso6j1CQVgU+G79qL1xV9Y+WvKvl3yxpUelaBp8OnWEX2YYVpU/
zOxqzse7MSTiqa4q7FWNz/ln+XFxIJZ/KmjyyAlg76fas1TuTUx9cVRNt5G8k2pra+X9NgPX91Zw
Judv2UGKp0iKihEAVFACqBQADoAMVbxV2KuxV2KuxV2KuxV2KuxV2KuxV2KuxV2KuxV2KuxV2Kux
V2KuxV2KvmD/AJyH/wCcmhZ/WPKXkS7DXnxRarrcRqIuqtDbN/P/ADSD7P7O+4VeJflj+Q/n78w5
1uLK2NlozN++1q8DLCetfSH2pm/1dq9SMVfY35W/kP5E/LyFJrC3+v65xpLrN0qtNUijCIfZhX2X
fxJxV6NirsVdirsVdirsVdirsVdirsVdirsVdirsVdirsVdirsVdirsVdirsVdirsVdirsVdirsV
fPn5t/mR5187X1z+X35TWst5QmDX/MUJ4W8VdmgjuDRF782rU/ZXFV/5Xf8AOI3lXy80Wo+b5U8w
aqtGW0AIsImB/lajTf7MAf5OKvfoYYYIUhhRYoYlCRxoAqqqigVQNgAMVXYq7FXYq7FXYq7FXYq7
FXYq7FXYq7FXYq7FXYq7FXYq7FXYq7FXYq7FXYq7FXYq7FXYq7FXYq//2Q==</xapGImg:image>
               </rdf:li>
            </rdf:Alt>
         </xap:Thumbnails>
         <xap:CreatorTool>Adobe Illustrator CS3</xap:CreatorTool>
         <xap:ModifyDate>2008-01-04T01:31:08-08:00</xap:ModifyDate>
         <xap:MetadataDate>2008-01-04T01:31:08-08:00</xap:MetadataDate>
      </rdf:Description>
      <rdf:Description
   rdf:about="">
         <xapTPg:MaxPageSize
   rdf:parseType="Resource">
            <stDim:w>612.000000</stDim:w>
            <stDim:h>792.000000</stDim:h>
            <stDim:unit>Points</stDim:unit>
         </xapTPg:MaxPageSize>
         <xapTPg:NPages>1</xapTPg:NPages>
         <xapTPg:HasVisibleTransparency>False</xapTPg:HasVisibleTransparency>
         <xapTPg:HasVisibleOverprint>False</xapTPg:HasVisibleOverprint>
         <xapTPg:PlateNames>
            <rdf:Seq>
               <rdf:li>Cyan</rdf:li>
               <rdf:li>Magenta</rdf:li>
               <rdf:li>Yellow</rdf:li>
               <rdf:li>Black</rdf:li>
            </rdf:Seq>
         </xapTPg:PlateNames>
         <xapTPg:SwatchGroups>
            <rdf:Seq>
               <rdf:li
   rdf:parseType="Resource">
                  <xapG:groupName>Default Swatch Group</xapG:groupName>
                  <xapG:groupType>0</xapG:groupType>
               </rdf:li>
            </rdf:Seq>
         </xapTPg:SwatchGroups>
      </rdf:Description>
      <rdf:Description
   rdf:about="">
         <dc:format>image/svg+xml</dc:format>
      </rdf:Description>
      <rdf:Description
   rdf:about="">
         <xapMM:InstanceID>uuid:57B93884A7BADC11828F907C0EB444D3</xapMM:InstanceID>
      </rdf:Description>
   <cc:Work
   rdf:about=""><dc:format>image/svg+xml</dc:format><dc:type
     rdf:resource="http://purl.org/dc/dcmitype/StillImage" /></cc:Work></rdf:RDF></metadata></x:xmpmeta>
                                                                                                    
                                                                                                    
                                                                                                    
                                                                                                    
                                                                                                    
                                                                                                    
                                                                                                    
                                                                                                    
                                                                                                    
                                                                                                    
                                                                                                    
                                                                                                    
                                                                                                    
                                                                                                    
                                                                                                    
                                                                                                    
                                                                                                    
                                                                                                    
                                                                                                    
                                                                                                    
                           
<?xpacket end="w"?>
	</metadata>
<path
   style="fill:#ff00ff;stroke:#000000;stroke-width:0.10000000000000001;stroke-miterlimit:10;fill-opacity:1"
   inkscape:connector-curvature="0"
   id="path10"
   d="m 108.422,50.727 c 10.115,-4.038 21.298,-1.269 30.866,2.97 10.676,5.017 21.583,12.316 25.963,23.775 1.965,4.676 0.675,10.132 -2.701,13.797 -2.656,2.269 -6.434,1.636 -9.617,1.315 -7.225,-1.551 -11.649,-7.978 -17.263,-12.188 -4.867,-4.284 -10.048,-8.922 -16.636,-10.107 -5.877,-0.971 -10.982,2.918 -14.749,6.952 -5.669,6.993 -9.25,15.397 -12.042,23.882 -1.814,7.4 -5.674,14.461 -5.209,22.271 -0.552,-7.204 -2.607,-14.216 -2.804,-21.455 -0.368,-9.334 0.816,-18.72 3.16,-27.745 4.299,-9.672 10.943,-19.245 21.032,-23.467 z"
   stroke-miterlimit="10" /><path
   inkscape:connector-curvature="0"
   id="path12"
   d="m 108.422,50.727 c 10.115,-4.038 21.298,-1.269 30.866,2.97 10.676,5.017 21.583,12.316 25.963,23.775 1.965,4.676 0.675,10.132 -2.701,13.797 -2.656,2.269 -6.434,1.636 -9.617,1.315 -7.225,-1.551 -11.649,-7.978 -17.263,-12.188 -4.867,-4.284 -10.048,-8.922 -16.636,-10.107 -5.877,-0.971 -10.982,2.918 -14.749,6.952 -5.669,6.993 -9.25,15.397 -12.042,23.882 -1.814,7.4 -5.674,14.461 -5.209,22.271 -0.552,-7.204 -2.607,-14.216 -2.804,-21.455 -0.368,-9.334 0.816,-18.72 3.16,-27.745 4.299,-9.672 10.943,-19.245 21.032,-23.467 z"
   style="fill:#ff00ff;fill-opacity:1" /><path
   style="fill:#ff00ff;stroke:#000000;stroke-width:0.10000000000000001;stroke-miterlimit:10;fill-opacity:1"
   inkscape:connector-curvature="0"
   id="path14"
   d="m 200.646,56.913 c 7.324,-0.85 15.021,2.023 19.936,7.537 3.334,4.104 5.573,9.274 5.537,14.615 -0.646,6.494 -3.914,12.911 -9.367,16.643 -6.428,4.556 -15.215,5.505 -22.448,2.347 C 183.558,93.972 177.3,80.139 182.823,69.69 c 3.108,-7.108 10.273,-11.733 17.823,-12.777 z"
   stroke-miterlimit="10" /><path
   inkscape:connector-curvature="0"
   id="path16"
   d="m 200.646,56.913 c 7.324,-0.85 15.021,2.023 19.936,7.537 3.334,4.104 5.573,9.274 5.537,14.615 -0.646,6.494 -3.914,12.911 -9.367,16.643 -6.428,4.556 -15.215,5.505 -22.448,2.347 C 183.558,93.972 177.3,80.139 182.823,69.69 c 3.108,-7.108 10.273,-11.733 17.823,-12.777 z"
   style="fill:#ff00ff;fill-opacity:1" /><path
   style="fill:#ff00ff;stroke:#000000;stroke-width:0.10000000000000001;stroke-miterlimit:10;fill-opacity:1"
   inkscape:connector-curvature="0"
   id="path18"
   d="m 276.883,94.662 c 0.433,-0.024 0.871,-0.035 1.313,-0.027 -0.184,3.852 0.82,7.701 0.184,11.538 -1.017,6.596 -3.673,12.791 -6.55,18.764 -6.32,14.098 -18.271,25.74 -32.761,31.219 -6.652,2.346 -14.544,2.166 -20.538,-1.839 -9.694,-6.329 -17.318,-15.983 -20.652,-27.126 -2.111,-6.018 -2.184,-13.245 1.445,-18.699 1.815,-2.39 4.266,-5.059 7.545,-4.88 3.388,0.313 6.416,2.348 8.462,5 4.817,6.323 5.825,14.547 9.796,21.298 3.322,4.354 8.694,9.526 14.633,6.979 7.157,-3.026 13.18,-8.173 19,-13.22 7.358,-6.328 12.479,-14.775 16.567,-23.473 0.821,-1.745 1.394,-3.605 1.556,-5.534 z"
   stroke-miterlimit="10" /><path
   inkscape:connector-curvature="0"
   id="path20"
   d="m 276.883,94.662 c 0.433,-0.024 0.871,-0.035 1.313,-0.027 -0.184,3.852 0.82,7.701 0.184,11.538 -1.017,6.596 -3.673,12.791 -6.55,18.764 -6.32,14.098 -18.271,25.74 -32.761,31.219 -6.652,2.346 -14.544,2.166 -20.538,-1.839 -9.694,-6.329 -17.318,-15.983 -20.652,-27.126 -2.111,-6.018 -2.184,-13.245 1.445,-18.699 1.815,-2.39 4.266,-5.059 7.545,-4.88 3.388,0.313 6.416,2.348 8.462,5 4.817,6.323 5.825,14.547 9.796,21.298 3.322,4.354 8.694,9.526 14.633,6.979 7.157,-3.026 13.18,-8.173 19,-13.22 7.358,-6.328 12.479,-14.775 16.567,-23.473 0.821,-1.745 1.394,-3.605 1.556,-5.534 z"
   style="fill:#ff00ff;fill-opacity:1" /><path
   style="fill:#ff00ff;stroke:#000000;stroke-width:0.10000000000000001;stroke-miterlimit:10;fill-opacity:1"
   inkscape:connector-curvature="0"
   id="path22"
   d="m 98.081,135.092 c 4.257,-3.605 10.544,-3.255 15.495,-1.452 4.974,2.115 10.214,3.749 14.755,6.757 7.051,4.518 13.789,9.584 19.817,15.404 6.811,5.506 13.136,11.648 18.556,18.54 4,4.705 8.176,10.202 7.861,16.718 -2.955,9.494 -11.09,16.435 -19.553,21.081 -11.224,5.707 -23.743,7.971 -35.739,11.473 -5.188,1.675 -10.634,2.285 -16.029,2.866 -6.109,0.33 -12.251,1.59 -18.356,0.509 3.912,-2.843 8.648,-4.108 12.948,-6.214 12.347,-5.33 23.968,-12.164 35.998,-18.153 5.096,-2.467 10.087,-5.611 13.001,-10.634 -0.156,-1.104 -0.308,-2.205 -0.455,-3.303 -3.425,-3.467 -7.653,-5.945 -12.011,-8.045 -5.085,4.203 -10.947,7.4 -15.631,12.092 -12.854,9.568 -27.063,17.069 -40.752,25.346 -18.428,10.357 -35.862,22.431 -54.64,32.177 -1.094,0.392 -2.215,0.697 -3.362,0.916 7.211,-7.857 15.608,-14.544 22.708,-22.509 10.246,-10.732 20.492,-21.47 31.182,-31.764 11.29,-10.871 22.263,-22.062 32.726,-33.733 -4.413,-4.08 -10.111,-7.839 -11.452,-14.096 -1.275,-4.732 -0.525,-10.322 2.933,-13.976 z"
   stroke-miterlimit="10" /><path
   inkscape:connector-curvature="0"
   id="path24"
   d="m 98.081,135.092 c 4.257,-3.605 10.544,-3.255 15.495,-1.452 4.974,2.115 10.214,3.749 14.755,6.757 7.051,4.518 13.789,9.584 19.817,15.404 6.811,5.506 13.136,11.648 18.556,18.54 4,4.705 8.176,10.202 7.861,16.718 -2.955,9.494 -11.09,16.435 -19.553,21.081 -11.224,5.707 -23.743,7.971 -35.739,11.473 -5.188,1.675 -10.634,2.285 -16.029,2.866 -6.109,0.33 -12.251,1.59 -18.356,0.509 3.912,-2.843 8.648,-4.108 12.948,-6.214 12.347,-5.33 23.968,-12.164 35.998,-18.153 5.096,-2.467 10.087,-5.611 13.001,-10.634 -0.156,-1.104 -0.308,-2.205 -0.455,-3.303 -3.425,-3.467 -7.653,-5.945 -12.011,-8.045 -5.085,4.203 -10.947,7.4 -15.631,12.092 -12.854,9.568 -27.063,17.069 -40.752,25.346 -18.428,10.357 -35.862,22.431 -54.64,32.177 -1.094,0.392 -2.215,0.697 -3.362,0.916 7.211,-7.857 15.608,-14.544 22.708,-22.509 10.246,-10.732 20.492,-21.47 31.182,-31.764 11.29,-10.871 22.263,-22.062 32.726,-33.733 -4.413,-4.08 -10.111,-7.839 -11.452,-14.096 -1.275,-4.732 -0.525,-10.322 2.933,-13.976 z"
   style="fill:#ff00ff;fill-opacity:1" />
<path
   style="opacity:0;color:#000000;fill:#ff00ff;fill-opacity:1;fill-rule:evenodd;stroke:#000000;stroke-width:1.27118646999999996;stroke-linecap:butt;stroke-linejoin:miter;stroke-miterlimit:4;stroke-opacity:1;stroke-dasharray:none;marker:none;visibility:visible;display:inline;overflow:visible;enable-background:accumulate"
   d="m 19.322034,251.32758 c 0,-0.57592 16.912597,-17.91849 37.583549,-38.53905 20.670952,-20.62056 39.916356,-40.24372 42.767565,-43.60703 l 5.184012,-6.11511 -4.77483,-4.88987 c -5.462265,-5.59387 -7.255046,-13.70235 -4.500116,-20.35334 2.182898,-5.26998 9.259546,-7.44046 16.854226,-5.16936 11.90922,3.56132 20.82394,9.15359 36.49107,22.89112 15.85982,13.9065 23.47499,23.11345 25.57843,30.92502 1.15614,4.29356 0.92805,5.54503 -1.88575,10.34641 -7.04238,12.01692 -18.2435,18.29622 -45.42978,25.46777 -16.8119,4.43486 -43.102602,7.49344 -42.983266,5.00054 0.03004,-0.62734 12.471769,-7.23759 27.648306,-14.68944 17.02932,-8.3616 29.01999,-15.05017 31.31909,-17.47026 l 3.72539,-3.92142 -2.89757,-3.08432 c -1.59365,-1.69637 -4.51167,-3.7529 -6.48447,-4.57006 -3.37943,-1.3998 -4.24942,-0.98291 -15.04026,7.20711 -6.29935,4.78108 -26.223014,17.5371 -44.274816,28.34673 -52.580956,31.48609 -58.88078,34.93388 -58.88078,32.22456 z"
   id="path3007"
   inkscape:connector-curvature="0" /></svg>