<?xml version="1.0" encoding="UTF-8" standalone="no"?>
<!-- Created with Inkscape (http://www.inkscape.org/) -->

<svg
   xmlns:dc="http://purl.org/dc/elements/1.1/"
   xmlns:cc="http://creativecommons.org/ns#"
   xmlns:rdf="http://www.w3.org/1999/02/22-rdf-syntax-ns#"
   xmlns:svg="http://www.w3.org/2000/svg"
   xmlns="http://www.w3.org/2000/svg"
   xmlns:sodipodi="http://sodipodi.sourceforge.net/DTD/sodipodi-0.dtd"
   xmlns:inkscape="http://www.inkscape.org/namespaces/inkscape"
   width="106.29921"
   height="106.29921"
   id="svg2"
   version="1.1"
   inkscape:version="0.48.3.1 r9886"
   sodipodi:docname="bug3.svg">
  <defs
     id="defs4" />
  <sodipodi:namedview
     id="base"
     pagecolor="#ffffff"
     bordercolor="#666666"
     borderopacity="1.0"
     inkscape:pageopacity="0.0"
     inkscape:pageshadow="2"
     inkscape:zoom="5.12"
     inkscape:cx="47.528297"
     inkscape:cy="57.970012"
     inkscape:document-units="px"
     inkscape:current-layer="layer2"
     showgrid="false"
     inkscape:window-width="1104"
     inkscape:window-height="919"
     inkscape:window-x="678"
     inkscape:window-y="0"
     inkscape:window-maximized="0"
     units="cm" />
  <metadata
     id="metadata7">
    <rdf:RDF>
      <cc:Work
         rdf:about="">
        <dc:format>image/svg+xml</dc:format>
        <dc:type
           rdf:resource="http://purl.org/dc/dcmitype/StillImage" />
        <dc:title />
      </cc:Work>
    </rdf:RDF>
  </metadata>
  <g
     inkscape:label="Ebene 1"
     inkscape:groupmode="layer"
     id="layer1"
     style="display:none"
     transform="translate(0,-946.06297)" />
  <g
     inkscape:groupmode="layer"
     id="layer2"
     inkscape:label="svg"
     style="display:inline"
     transform="translate(0,-946.06297)">
    <path
       style="fill:none;stroke:#000000;stroke-width:4.6407423;stroke-miterlimit:4;stroke-opacity:1;stroke-dasharray:none;display:inline"
       d="m 55.38696,975.43143 c -5.49606,0 -9.9375,2.05788 -9.9375,4.625 0,0.57456 0.2794,1.11702 0.6875,1.625 l 18.5625,0 c 0.405,-0.5063 0.6875,-1.05272 0.6875,-1.625 0,-2.56712 -4.50394,-4.625 -10,-4.625 z"
       id="path3811"
       inkscape:connector-curvature="0" />
    <rect
       style="fill:none;stroke:#000000;stroke-width:4.57303381;stroke-miterlimit:4;stroke-opacity:1;stroke-dasharray:none"
       id="rect2996"
       width="41.372627"
       height="42.314045"
       x="34.675934"
       y="982.0329"
       rx="17.613588"
       ry="13.413863" />
    <path
       sodipodi:type="arc"
       style="fill:none;stroke:#000000;stroke-width:2;stroke-miterlimit:4;stroke-opacity:1;stroke-dasharray:none"
       id="path3785"
       sodipodi:cx="286.06256"
       sodipodi:cy="732.1438"
       sodipodi:rx="8.2706242"
       sodipodi:ry="7.5761442"
       d="m 294.33319,732.1438 a 8.2706242,7.5761442 0 1 1 -16.54125,0 8.2706242,7.5761442 0 1 1 16.54125,0 z"
       transform="matrix(2.3804518,0,0,1.3769077,-625.47293,-16.01603)" />
    <rect
       style="fill:#000000;fill-opacity:1;stroke:none;display:inline"
       id="rect3791"
       width="4.4194174"
       height="21.718279"
       x="53.47509"
       y="1002.8721"
       rx="17.613588"
       ry="0" />
    <path
       style="fill:#000000;fill-opacity:1;stroke:#000000;stroke-width:0;stroke-miterlimit:4;stroke-opacity:1;stroke-dasharray:none;display:inline"
       d="m 32.74568,1015.0098 c -0.51048,0.2214 -1.06334,0.3778 -1.62472,0.6693 -1.09452,0.5724 -2.16808,1.1789 -3.28114,1.7246 -1.1651,0.5687 -2.30958,1.1193 -3.4788,1.6817 -1.24746,0.607 -2.21716,0.8913 -3.03668,1.9347 -0.57226,0.8659 -0.53338,1.8441 -0.57024,2.7837 0.0362,0.9848 0.35998,1.9574 0.66856,2.895 0.4653,1.2238 1.12034,2.3421 1.72456,3.5168 0.55906,1.1203 1.23688,2.2434 1.90176,3.3195 0.53396,0.7629 0.9961,1.4682 1.54892,2.2215 0.55228,0.7003 1.17548,1.4067 1.82492,2.0456 0.66302,0.7055 1.403,1.2447 2.45546,1.4752 0.49784,0.078 0.98352,0.043 1.4887,0.01 l 6.36846,-2.3126 c -0.4805,0.046 -0.93344,0.1134 -1.416,0.086 -1.0304,0 -1.67994,-0.3849 -2.28924,-1.0462 -0.6636,-0.5959 -1.2239,-1.2685 -1.7522,-1.9513 -0.59664,-0.7168 -1.06804,-1.5162 -1.64776,-2.243 -0.6703,-1.061 -1.36026,-2.1415 -1.9279,-3.2465 -0.59262,-1.1479 -1.22062,-2.2182 -1.65174,-3.4225 -0.27188,-0.8899 -0.49122,-1.7778 -0.523,-2.7063 0.0234,-0.8414 -0.0798,-1.7428 0.56466,-2.4705 0.81056,-0.769 1.93034,-1.1906 2.95832,-1.716 1.17044,-0.5635 2.41288,-1.0884 3.5777,-1.6603 0.1576,-0.078 0.34184,-0.1274 0.49994,-0.206 -0.8895,-0.3792 -1.69088,-0.8448 -2.38262,-1.3808 z"
       id="path3849"
       inkscape:connector-curvature="0" />
    <path
       inkscape:connector-curvature="0"
       id="path3858"
       d="m 76.372642,1015.0098 c 0.51048,0.2214 1.06334,0.3778 1.62472,0.6693 1.09452,0.5724 2.16808,1.1789 3.28114,1.7246 1.1651,0.5687 2.30958,1.1193 3.4788,1.6818 1.24746,0.6069 2.21716,0.8912 3.03668,1.9347 0.57226,0.8658 0.53338,1.844 0.57024,2.7836 -0.0362,0.9849 -0.35998,1.9574 -0.66856,2.895 -0.4653,1.2238 -1.12034,2.3421 -1.72456,3.5168 -0.55906,1.1204 -1.23688,2.2434 -1.90176,3.3195 -0.53396,0.7629 -0.9961,1.4682 -1.54892,2.2215 -0.55228,0.7004 -1.17548,1.4067 -1.82492,2.0456 -0.66302,0.7055 -1.403,1.2448 -2.45546,1.4752 -0.49784,0.078 -0.98352,0.043 -1.4887,0.01 l -6.36846,-2.3126 c 0.4805,0.046 0.93344,0.1134 1.416,0.086 1.0304,0 1.67994,-0.3849 2.28924,-1.0462 0.6636,-0.5959 1.2239,-1.2685 1.7522,-1.9513 0.59664,-0.7168 1.06804,-1.5162 1.64776,-2.243 0.6703,-1.061 1.36026,-2.1415 1.9279,-3.2465 0.59262,-1.1479 1.22062,-2.2182 1.65174,-3.4224 0.27188,-0.8899 0.49122,-1.7779 0.523,-2.7064 -0.0234,-0.8414 0.0798,-1.7427 -0.56466,-2.4705 -0.81056,-0.769 -1.93034,-1.1906 -2.95832,-1.716 -1.17044,-0.5635 -2.41288,-1.0884 -3.5777,-1.6603 -0.1576,-0.078 -0.34184,-0.1274 -0.49994,-0.206 0.8895,-0.3792 1.69088,-0.8448 2.38262,-1.3808 z"
       style="fill:#000000;fill-opacity:1;stroke:#000000;stroke-width:0;stroke-miterlimit:4;stroke-opacity:1;stroke-dasharray:none;display:inline" />
    <path
       inkscape:connector-curvature="0"
       id="path3860"
       d="m 32.82604,993.14801 c -0.44208,-0.4598 -0.95482,-0.84526 -1.42138,-1.41578 -0.90796,-1.118 -1.78014,-2.27546 -2.71836,-3.36314 -0.98308,-1.1352 -1.95204,-2.23948 -2.94198,-3.36748 -1.05336,-1.21284 -1.94866,-1.90228 -2.37772,-3.57 -0.2436,-1.35 0.196,-2.6593 0.54078,-3.9403 0.43946,-1.31922 1.17388,-2.53122 1.87814,-3.70078 0.98442,-1.50682 2.12372,-2.81148 3.23306,-4.20832 1.04,-1.33754 2.20498,-2.64136 3.33732,-3.88584 0.86806,-0.86262 1.63772,-1.67 2.5215,-2.51364 0.86166,-0.7723 1.79972,-1.53042 2.73762,-2.18908 0.97924,-0.7444 1.9709,-1.2399 3.16248,-1.21984 0.55098,0.0514 1.04344,0.2509 1.556,0.45726 l 5.69824,5.12956 c -0.48224,-0.2137 -0.9272,-0.44708 -1.44174,-0.56168 -1.07632,-0.3187 -1.909,-0.008 -2.81416,0.69268 -0.93514,0.59612 -1.79382,1.32836 -2.62328,2.08448 -0.91464,0.78062 -1.73234,1.7122 -2.63336,2.51156 -1.13186,1.22242 -2.29212,2.4649 -3.33486,3.77914 -1.08626,1.36424 -2.17778,2.6125 -3.11862,4.10372 -0.64654,1.11666 -1.23746,2.24722 -1.64936,3.49166 -0.3187,1.14414 -0.79418,2.32938 -0.41886,3.51556 0.53164,1.2941 1.52746,2.2163 2.3852,3.24982 0.99078,1.12984 2.0724,2.23016 3.05388,3.36966 0.1324,0.155 0.3045,0.27976 0.43732,0.43582 -1.08232,0.23218 -2.108,0.6089 -3.04804,1.11528 z"
       style="fill:#000000;fill-opacity:1;stroke:#000000;stroke-width:0;stroke-miterlimit:4;stroke-opacity:1;stroke-dasharray:none;display:inline" />
    <path
       style="fill:#000000;fill-opacity:1;stroke:#000000;stroke-width:0;stroke-miterlimit:4;stroke-opacity:1;stroke-dasharray:none;display:inline"
       d="m 78.161493,993.14801 c 0.44208,-0.4598 0.95482,-0.84526 1.42138,-1.41578 0.90796,-1.118 1.78014,-2.27546 2.71836,-3.36314 0.98308,-1.1352 1.95204,-2.23948 2.94198,-3.36748 1.05336,-1.21284 1.94866,-1.90228 2.37772,-3.57 0.2436,-1.35 -0.196,-2.6593 -0.54078,-3.9403 -0.43946,-1.31922 -1.17388,-2.53122 -1.87814,-3.70078 -0.98442,-1.50682 -2.12372,-2.81148 -3.23306,-4.20832 -1.04,-1.33754 -2.20498,-2.64136 -3.33732,-3.88584 -0.86806,-0.86262 -1.63772,-1.67 -2.5215,-2.51364 -0.86166,-0.7723 -1.79972,-1.53042 -2.73762,-2.18908 -0.97924,-0.7444 -1.9709,-1.2399 -3.16248,-1.21984 -0.55098,0.0514 -1.04344,0.2509 -1.556,0.45726 l -5.69824,5.12956 c 0.48224,-0.2137 0.9272,-0.44708 1.44174,-0.56168 1.07632,-0.3187 1.909,-0.008 2.81416,0.69268 0.93514,0.59612 1.79382,1.32836 2.62328,2.08448 0.91464,0.78062 1.73234,1.7122 2.63336,2.51156 1.13186,1.22242 2.29212,2.4649 3.33486,3.77914 1.08626,1.36424 2.17778,2.6125 3.11862,4.10372 0.64654,1.11666 1.23746,2.24722 1.64936,3.49166 0.3187,1.14414 0.79418,2.32938 0.41886,3.51556 -0.53164,1.2941 -1.52746,2.2163 -2.3852,3.24982 -0.99078,1.12984 -2.0724,2.23016 -3.05388,3.36966 -0.1324,0.155 -0.3045,0.27976 -0.43732,0.43582 1.08232,0.23218 2.108,0.6089 3.04804,1.11528 z"
       id="path3862"
       inkscape:connector-curvature="0" />
    <path
       inkscape:connector-curvature="0"
       id="path3902"
       d="m 73.66296,999.51712 c 0.89566,0.35048 1.80404,0.68028 2.7102,1.05948 3.17928,1.3303 6.25266,2.8364 9.34526,4.3171 3.43936,1.7611 6.97678,3.4186 10.16864,5.5339 0.85286,0.5622 1.66244,1.2115 2.35996,1.9284 l -5.55056,2.4851 c -0.63986,-0.6861 -1.38538,-1.305 -2.1224,-1.903 -2.8858,-2.2531 -6.1382,-3.9895 -9.39978,-5.7596 -2.51136,-1.2865 -3.28274,-1.7765 -5.93664,-2.9607 -0.23314,-0.104 -0.46424,-0.195 -0.69848,-0.297 l -0.8762,-4.40368 z"
       style="fill:#000000;fill-opacity:1;stroke:#000000;stroke-width:0;stroke-miterlimit:4;stroke-opacity:1;stroke-dasharray:none;display:inline" />
    <path
       style="fill:#000000;fill-opacity:1;stroke:#000000;stroke-width:0;stroke-miterlimit:4;stroke-opacity:1;stroke-dasharray:none;display:inline"
       d="m 34.6756,999.51714 c -0.89566,0.35049 -1.80404,0.68026 -2.7102,1.05936 -3.17928,1.3303 -6.25266,2.8365 -9.34526,4.3171 -3.43936,1.7612 -6.97678,3.4187 -10.16864,5.534 -0.85286,0.5622 -1.66244,1.2115 -2.35996,1.9284 l 5.55056,2.485 c 0.63986,-0.686 1.38538,-1.305 2.1224,-1.903 2.8858,-2.2531 6.1382,-3.9894 9.39978,-5.7596 2.51136,-1.2865 3.28274,-1.7765 5.93664,-2.9607 0.23314,-0.104 0.46424,-0.195 0.69848,-0.297 l 0.8762,-4.40356 z"
       id="path3925"
       inkscape:connector-curvature="0" />
  </g>
</svg>
