<?xml version="1.0" encoding="UTF-8" standalone="no"?>
<!-- Created with Inkscape (http://www.inkscape.org/) -->

<svg
   xmlns:dc="http://purl.org/dc/elements/1.1/"
   xmlns:cc="http://creativecommons.org/ns#"
   xmlns:rdf="http://www.w3.org/1999/02/22-rdf-syntax-ns#"
   xmlns:svg="http://www.w3.org/2000/svg"
   xmlns="http://www.w3.org/2000/svg"
   xmlns:sodipodi="http://sodipodi.sourceforge.net/DTD/sodipodi-0.dtd"
   xmlns:inkscape="http://www.inkscape.org/namespaces/inkscape"
   version="1.0"
   width="256"
   height="256"
   id="svg2"
   inkscape:version="0.48.3.1 r9886"
   sodipodi:docname="destroy4.svg">
  <sodipodi:namedview
     pagecolor="#ffffff"
     bordercolor="#666666"
     borderopacity="1"
     objecttolerance="10"
     gridtolerance="10"
     guidetolerance="10"
     inkscape:pageopacity="0"
     inkscape:pageshadow="2"
     inkscape:window-width="1436"
     inkscape:window-height="839"
     id="namedview41"
     showgrid="false"
     inkscape:zoom="2.390625"
     inkscape:cx="128"
     inkscape:cy="128"
     inkscape:window-x="0"
     inkscape:window-y="37"
     inkscape:window-maximized="0"
     inkscape:current-layer="svg2" />
  <metadata
     id="metadata60">
    <rdf:RDF>
      <cc:Work
         rdf:about="">
        <dc:format>image/svg+xml</dc:format>
        <dc:type
           rdf:resource="http://purl.org/dc/dcmitype/StillImage" />
        <dc:title />
      </cc:Work>
    </rdf:RDF>
  </metadata>
  <defs
     id="defs58" />
  <path
     d="m 162.95579,198.22212 0,0 27.55413,14.32053 c 6.52581,5.68014 4.89458,9.54701 9.4264,13.05203 4.4713,4.10899 7.31137,4.7735 9.96985,0.90662 2.11502,-4.4112 1.6922,-8.82241 2.35713,-13.59591 3.08131,-2.9607 5.61961,-4.47131 8.15747,-7.43199 2.77954,-3.08175 2.65804,-6.1635 -1.6321,-8.33861 -3.56511,-1.45009 -6.94863,-2.17556 -11.23878,-0.90664 -2.71944,0.8461 -5.6196,1.32946 -9.2448,-0.18114 L 168.5754,182.26994 84.057942,152.97092 c -11.365493,-5.55473 -20.807996,-9.69943 -32.045464,-15.8947 -6.109933,-4.87106 -4.144268,-10.3831 -11.536062,-14.86921 -3.247265,-1.62339 -5.597223,-2.34974 -8.203578,2.05102 -1.666374,3.93132 -1.538174,8.11827 -1.794529,12.17762 -2.905429,3.11877 -6.195412,4.9564 -8.588132,8.84462 -3.460902,5.55472 1.794485,7.39192 4.614478,8.07559 8.032615,2.00791 10.938002,-1.62383 18.329709,-0.12845 14.399339,6.70825 28.926268,13.67256 42.812635,20.50882 z"
     id="path4"
     style="fill:#ffffff;stroke:#000000;stroke-width:5.4432435;stroke-linejoin:round"
     inkscape:connector-curvature="0" />
  <path
     d="m 169.11929,173.20585 0,0 41.14962,-19.39624 c 7.79472,-3.08175 8.8825,1.26893 15.77103,0 5.25686,-0.0605 9.60754,-2.11459 9.24524,-7.06925 -2.65892,-3.92827 -5.13668,-6.4056 -9.78913,-10.69576 0.24168,-4.59234 -0.60442,-9.00355 -2.3567,-13.41432 -1.81283,-2.59839 -5.07572,-3.7467 -9.96985,0.90619 -4.9551,3.74626 -3.3844,8.76188 -9.60798,13.95822 -10.15143,5.01518 -19.39624,9.48692 -30.63545,15.046 l -85.56212,29.5481 c -9.909751,5.25686 -18.912876,10.151 -30.272708,14.50167 -9.245241,2.29617 -8.882503,-3.38352 -20.121669,0.36274 -3.202543,2.53785 -3.142102,6.16306 -0.543802,8.88207 3.021306,2.96112 5.136245,4.83447 7.795031,7.43285 0.846098,3.74626 0.966719,6.94863 1.450079,11.41993 1.812819,5.49899 5.800757,5.19677 9.244806,2.53829 1.510608,-1.87334 3.383955,-3.56511 4.531826,-5.6196 1.571138,-2.71901 3.323427,-5.80076 5.438454,-8.33862 l 27.372546,-14.5021 z"
     id="path6"
     style="fill:#ffffff;stroke:#000000;stroke-width:5.4432435;stroke-linejoin:round"
     inkscape:connector-curvature="0" />
  <path
     d="M 72.857053,115.17651 C 64.5241,107.07566 58.700264,93.016868 57.892052,77.835009 57.014601,61.104647 65.825253,44.491831 79.02795,35.020974 93.820073,24.609397 118.55286,21.729883 133.93154,22.506956 c 10.41663,0.0077 33.6201,5.408502 41.81065,11.5082 14.36755,10.446711 22.07257,25.274062 22.60644,42.174242 0.7895,16.975519 -6.36032,29.905172 -15.11523,37.974672"
     id="path8"
     style="fill:#ffffff;stroke:#000000;stroke-width:5.4432435"
     inkscape:connector-curvature="0" />
  <path
     d="m 73.685302,112.31947 c 0,0 -10.072179,30.49523 9.336251,35.69462 l 7.07622,40.78513 c 7.46813,32.10208 67.234937,32.12385 76.031227,0 l 7.07621,-40.78513 c 19.90049,-5.31262 9.79784,-35.70769 9.79784,-35.70769 z"
     id="path10"
     style="fill:#ffffff"
     inkscape:connector-curvature="0" />
  <path
     d="m 73.363928,67.583416 c -3.375682,2.953291 -2.949803,7.392792 -2.341901,14.018312 0.479876,5.033908 3.691825,9.989001 3.860784,14.587892 1.180966,9.7042 -1.687841,19.40842 -3.038201,27.34076 -0.9284,9.11329 1.688277,16.96114 5.063522,19.99891 3.375247,2.99596 7.732019,4.23658 12.309571,5.6331 4.15907,1.08778 6.3159,2.97941 9.46166,5.3248 3.747567,3.97879 4.641557,7.26956 4.557077,11.3202"
     id="path12"
     style="fill:none;stroke:#000000;stroke-width:5.4432435"
     inkscape:connector-curvature="0" />
  <path
     d="m 183.27338,67.33024 c 3.37568,2.953291 2.9498,7.392803 2.3419,14.018312 -0.47988,5.033919 -3.69184,9.989012 -3.86078,14.587903 -1.18098,9.704205 1.68784,19.408415 3.0382,27.340745 0.9284,9.1133 -1.68828,16.96115 -5.06354,19.99891 -3.37524,2.99596 -9.55267,4.60499 -12.30956,5.6331 -3.21238,1.12393 -6.49706,3.16058 -9.46167,5.50595 -3.56641,3.43491 -4.64156,7.08841 -4.55708,11.13907"
     id="path14"
     style="fill:none;stroke:#000000;stroke-width:5.4432435"
     inkscape:connector-curvature="0" />
  <path
     d="m 83.013275,148.00929 c 3.021217,7.31137 6.223588,14.44158 6.525798,21.9341 -1.389553,6.04243 -0.966722,13.17264 0.54389,18.85278 1.93387,7.79472 9.48692,17.03953 17.040397,20.12128 7.73418,2.80958 12.56822,3.53506 21.20861,3.53506"
     id="path16"
     style="fill:none;stroke:#000000;stroke-width:5.4432435"
     inkscape:connector-curvature="0" />
  <path
     d="m 173.19772,148.00928 c -3.02123,7.31136 -6.22359,14.44158 -6.52581,21.9341 1.38955,6.04243 0.96673,13.17264 -0.54388,18.85278 -1.93388,7.79472 -9.57749,16.7678 -17.13097,19.84954 -7.55305,3.08175 -12.38665,3.80679 -21.02747,3.80679"
     id="path18"
     style="fill:none;stroke:#000000;stroke-width:5.4432435"
     inkscape:connector-curvature="0" />
  <path
     d="m 126.59144,125.69287 c -4.22222,3.21064 -5.16151,4.28884 -7.49469,7.84175 -0.84436,1.37126 -2.42116,4.5758 -2.85226,6.72567 -0.43067,2.14943 -0.75335,5.26819 -0.75204,6.91989 0.005,5.59696 1.78669,9.10806 3.73233,8.9857 1.73835,-0.19944 3.95048,-2.01225 7.30265,-6.12952"
     id="path20"
     style="stroke:#000000;stroke-width:0.43545947pt"
     inkscape:connector-curvature="0" />
  <path
     d="m 129.63182,125.78348 c 4.22222,3.21065 5.1615,4.28885 7.4947,7.84176 0.84435,1.37126 2.42115,4.5758 2.85225,6.72568 0.43067,2.14942 0.75335,5.26818 0.75204,6.91988 -0.006,5.59696 -1.78669,9.10807 -3.73232,8.98571 -1.73835,-0.19944 -3.95049,-2.01226 -7.30266,-6.12953"
     id="path22"
     style="stroke:#000000;stroke-width:0.43545947pt"
     inkscape:connector-curvature="0" />
  <path
     d="m 90.701623,101.24181 c 5.86129,-1.02725 11.540977,-1.691759 17.402267,-2.35628 7.6741,-1.933863 11.54142,6.828 9.42639,13.41433 -2.65848,5.86128 -6.40474,10.99752 -10.69489,15.95219 -3.32342,3.74626 -7.282617,4.35241 -11.058047,3.08131 -3.04735,-0.84479 -5.86172,-2.71858 -8.88294,-7.06925 -1.329022,-3.74669 -2.476893,-5.68057 -4.169089,-10.33302 -1.329022,-4.29015 0.738104,-10.7123 7.976309,-12.68928 z"
     id="path24"
     style="stroke:#000000;stroke-width:0.43545947pt"
     inkscape:connector-curvature="0" />
  <path
     d="m 165.63639,101.24181 c -5.86128,-1.02725 -11.54098,-1.691759 -17.40226,-2.35628 -7.67411,-1.933863 -11.54142,6.828 -9.4264,13.41433 2.65848,5.86128 6.40474,10.99752 10.69489,15.95219 3.32343,3.74626 7.28262,4.35241 11.05805,3.08131 3.04736,-0.84479 5.86173,-2.71858 8.88294,-7.06925 1.32902,-3.74669 2.4769,-5.68057 4.16909,-10.33302 1.32902,-4.29015 -0.7381,-10.7123 -7.97631,-12.68928 z"
     id="path26"
     style="stroke:#000000;stroke-width:0.43545947pt"
     inkscape:connector-curvature="0" />
  <path
     d="m 90.595063,151.30616 c 2.47776,5.81077 3.24417,8.01899 5.03086,13.8119 1.52236,5.35136 2.08193,8.61948 3.02252,16.22436"
     id="path28"
     style="fill:none;stroke:#000000;stroke-width:2.72162175"
     inkscape:connector-curvature="0" />
  <path
     d="m 165.43064,150.9857 c -2.47776,5.81078 -3.24418,8.01899 -5.03086,13.81191 -1.52237,5.35136 -2.08194,8.61948 -3.02253,16.22435"
     id="path30"
     style="fill:none;stroke:#000000;stroke-width:2.72162175"
     inkscape:connector-curvature="0" />
  <path
     d="m 101.16976,164.89337 c 6.40908,3.93089 17.48848,4.53705 27.41478,4.35851 11.05806,-0.0562 20.52451,-0.85481 26.74114,-4.61457"
     id="path32"
     style="fill:none;stroke:#000000;stroke-width:2.17729735"
     inkscape:connector-curvature="0" />
  <path
     d="m 103.4128,175.14844 c 7.07099,4.44342 15.38653,5.96928 24.96315,5.60784 9.94677,-0.24211 17.57124,-1.07907 24.38618,-5.73587"
     id="path34"
     style="fill:none;stroke:#000000;stroke-width:2.17729735"
     inkscape:connector-curvature="0" />
  <path
     d="m 98.285703,180.53158 c 7.562637,9.12201 18.118597,10.70578 30.122037,11.02366 12.85434,0.46899 25.7644,-4.63546 29.09697,-11.02322"
     id="path36"
     style="fill:none;stroke:#000000;stroke-width:2.72162175"
     inkscape:connector-curvature="0" />
  <path
     d="m 103.3157,166.86338 -0.18115,17.94616"
     id="path38"
     style="stroke:#000000;stroke-width:2.17729735"
     inkscape:connector-curvature="0" />
  <path
     d="m 109.20703,168.76678 -0.0906,19.21508"
     id="path40"
     style="stroke:#000000;stroke-width:2.17729735"
     inkscape:connector-curvature="0" />
  <path
     d="m 115.73283,169.58239 -0.18115,20.12171"
     id="path42"
     style="stroke:#000000;stroke-width:2.17729735"
     inkscape:connector-curvature="0" />
  <path
     d="m 121.62459,170.0357 -0.091,20.39344"
     id="path44"
     style="stroke:#000000;stroke-width:2.17729735"
     inkscape:connector-curvature="0" />
  <path
     d="m 128.24096,170.21685 0,20.39344"
     id="path46"
     style="stroke:#000000;stroke-width:2.17729735"
     inkscape:connector-curvature="0" />
  <path
     d="m 134.5856,170.12628 0.0905,20.39344"
     id="path48"
     style="stroke:#000000;stroke-width:2.17729735"
     inkscape:connector-curvature="0" />
  <path
     d="m 140.29567,169.58238 0.18115,20.03113"
     id="path50"
     style="stroke:#000000;stroke-width:2.17729735"
     inkscape:connector-curvature="0" />
  <path
     d="m 146.91216,168.49505 0.0905,19.21509"
     id="path52"
     style="stroke:#000000;stroke-width:2.17729735"
     inkscape:connector-curvature="0" />
  <path
     d="m 152.89407,166.13835 0.18158,18.1273"
     id="path54"
     style="stroke:#000000;stroke-width:2.17729735"
     inkscape:connector-curvature="0" />
  <path
     d="m 109.91817,166.41241 c -3.32642,-0.74493 -3.84256,-1.17936 -3.84256,-3.23424 0,-7.14681 -6.886147,-14.0998 -17.449789,-17.61918 -7.234327,-2.41019 -10.299275,-4.60665 -11.953847,-8.56659 -1.713554,-4.10112 -1.705542,-13.25614 0.0195,-22.27106 1.865527,-9.74906 1.725822,-19.081973 -0.38987,-26.045039 -2.731429,-8.989541 -3.1798,-13.788852 -1.586584,-16.982526 1.337496,-2.681074 1.302799,-2.812117 -1.22024,-4.608681 L 70.8979,65.23595 69.273949,67.717495 c -2.254588,3.445211 -1.998764,14.177834 0.524241,21.99373 2.010416,6.22798 2.716545,18.681405 0.999078,17.619945 -1.541696,-0.95282 -5.08375,-8.644278 -7.281556,-15.811677 -2.921864,-9.528662 -2.908505,-22.627638 0.03088,-30.288423 9.138705,-23.817673 30.033561,-35.166208 64.680228,-35.129479 14.40777,0.01529 21.03778,1.058552 34.04467,5.357231 11.35432,3.752507 19.26722,10.158962 25.60572,20.73093 9.37441,15.635576 9.49076,36.616899 0.28079,50.631388 l -2.97087,4.52066 -0.27499,-5.3275 c -0.18055,-3.497941 0.36629,-7.438743 1.59235,-11.475314 3.32935,-10.961159 3.50772,-19.746298 0.48288,-23.783364 -1.22198,-1.630904 -1.38821,-1.63768 -3.65984,-0.149259 -1.84,1.205622 -2.23456,2.003232 -1.73965,3.516777 1.57902,4.829077 1.44566,8.964109 -0.49268,15.276173 -2.89994,9.443423 -3.226,16.903677 -1.22181,27.954537 1.99721,11.01231 1.98889,18.90229 -0.0249,23.58051 -1.69549,3.93886 -3.28903,5.07492 -11.8399,8.44089 -11.3605,4.47197 -16.39041,9.26179 -17.36626,16.53736 l -0.4826,3.59808 -5.61574,0.97795 c -6.7553,1.17639 -29.25361,1.12685 -34.62588,-0.0762 z m 14.08849,-12.80348 2.91554,-3.00808 -0.25181,-12.98694 -0.25181,-12.98694 -3.35398,2.94669 c -4.96422,4.36141 -7.94768,11.3238 -7.94768,18.54728 0,10.55707 3.25648,13.30005 8.88974,7.48799 z m 16.47322,-0.29959 c 1.45235,-4.40067 0.53123,-13.71309 -1.81042,-18.30309 -1.8278,-3.58279 -8.10763,-10.40991 -8.87218,-9.64538 -0.22017,0.22018 -0.35222,6.22401 -0.29343,13.34186 l 0.10692,12.94153 2.71281,2.48637 c 3.93501,3.60657 6.78987,3.31909 8.15632,-0.82129 l 0,0 z m -32.38335,-25.76217 c 5.51249,-5.87155 10.63692,-14.92833 10.63692,-18.79942 0,-4.21868 -2.43541,-8.756962 -5.34636,-9.962716 -3.04528,-1.261389 -22.411487,1.122055 -26.563718,3.269256 -3.182234,1.6456 -5.508651,6.85317 -4.856603,10.87127 0.263959,1.62658 1.829549,5.71453 3.479096,9.08434 3.733138,7.62632 7.188058,10.19553 13.710358,10.19553 4.329617,0 4.794127,-0.24204 8.940307,-4.65826 l 0,0 z m 57.48315,2.06594 c 3.9099,-2.78411 8.7056,-12.86166 8.73517,-18.35591 0.0176,-3.27576 -0.48378,-4.76321 -2.2376,-6.63798 -3.29811,-3.52551 -3.97635,-3.75736 -15.75713,-5.38653 -12.17703,-1.683965 -15.02525,-1.1536 -17.28634,3.21883 -3.27625,6.33557 0.29938,15.82584 9.59703,25.47198 4.33214,4.49451 4.37362,4.51298 9.23523,4.10982 3.08079,-0.25549 5.92824,-1.14889 7.71364,-2.42021 l 0,0 z"
     id="path3037"
     style="opacity:0.95503211;color:#000000;fill:#ff0000;fill-opacity:1;fill-rule:evenodd;stroke:#f10000;stroke-width:2.27117968;stroke-linecap:butt;stroke-linejoin:miter;stroke-miterlimit:4;stroke-opacity:1;stroke-dasharray:none;marker:none;visibility:visible;display:inline;overflow:visible;enable-background:accumulate"
     inkscape:connector-curvature="0" />
  <path
     d="m 66.005307,159.79476 c -20.781767,-10.00644 -20.615608,-9.95909 -33.504659,-9.54664 -4.555384,0.14578 -6.583267,-0.16719 -7.586971,-1.17088 -1.223699,-1.22371 -0.855232,-1.87109 3.45379,-6.06821 4.559161,-4.44076 4.862386,-5.0203 5.530518,-10.57007 0.388787,-3.22945 1.154612,-6.41119 1.701832,-7.07055 1.776313,-2.14033 5.264507,0.46288 8.59117,6.4115 1.712601,3.06243 3.826324,6.20844 4.697164,6.99115 0.870838,0.78272 8.892319,5.02377 17.825509,9.42456 l 16.24216,8.00146 1.640868,5.38971 c 0.902477,2.96435 1.527261,5.91104 1.388411,6.54821 -0.165949,0.76152 -7.012117,-2.09629 -19.979792,-8.34024 l 0,0 z"
     id="path3039"
     style="opacity:0.95503211;color:#000000;fill:#ff0000;fill-opacity:1;fill-rule:evenodd;stroke:#f10000;stroke-width:2.27117968;stroke-linecap:butt;stroke-linejoin:miter;stroke-miterlimit:4;stroke-opacity:1;stroke-dasharray:none;marker:none;visibility:visible;display:inline;overflow:visible;enable-background:accumulate"
     inkscape:connector-curvature="0" />
  <path
     d="m 48.804652,222.89663 c -0.262433,-1.39609 -0.730953,-4.46602 -1.041154,-6.82209 -0.477115,-3.62382 -1.252152,-4.93529 -5.030894,-8.51301 -4.29339,-4.06498 -5.713318,-7.3514 -3.336727,-7.72283 0.621591,-0.0971 5.402189,-0.19887 10.623552,-0.22604 l 9.493386,-0.0494 13.247828,-6.44732 13.247831,-6.44733 1.794228,4.87067 1.794231,4.87068 -9.617265,5.07093 c -16.38554,8.63965 -17.386025,9.38502 -22.351178,16.65181 -5.141426,7.52478 -8.013391,9.07533 -8.823838,4.76393 z"
     id="path3041"
     style="opacity:0.95503211;color:#000000;fill:#ff0000;fill-opacity:1;fill-rule:evenodd;stroke:#f10000;stroke-width:2.27117968;stroke-linecap:butt;stroke-linejoin:miter;stroke-miterlimit:4;stroke-opacity:1;stroke-dasharray:none;marker:none;visibility:visible;display:inline;overflow:visible;enable-background:accumulate"
     inkscape:connector-curvature="0" />
  <path
     d="m 113.01932,207.33018 c -6.98928,-2.30258 -11.66332,-5.51203 -14.919297,-10.24443 -4.98716,-7.2486 -5.77105,-10.17707 -5.99231,-22.38611 -0.11265,-6.21592 -0.48076,-12.72566 -0.81803,-14.46611 -0.41676,-2.15066 -0.0201,-1.57134 1.23803,1.80825 1.01819,2.735 2.44573,8.43103 3.17231,12.65786 1.21194,7.0504 1.60161,7.92756 4.718147,10.62072 4.73292,4.08994 11.49658,6.41385 21.98958,7.55537 7.53416,0.81963 10.15517,0.73704 16.33225,-0.51459 14.09075,-2.85515 20.07229,-7.23696 21.09924,-15.45637 0.71502,-5.72287 3.75573,-17.22327 5.11029,-19.32787 0.66833,-1.03838 0.75292,-0.6943 0.31973,1.30042 -0.324,1.49182 -0.87918,8.61186 -1.23375,15.82232 -0.54447,11.07206 -0.96334,13.72118 -2.69463,17.04235 -3.27167,6.2761 -8.60711,11.3947 -14.80765,14.20589 -5.07027,2.29874 -6.80555,2.58932 -16.95019,2.83838 -9.23794,0.22681 -12.26252,-0.0392 -16.56372,-1.45608 z"
     id="path3043"
     style="opacity:0.95503211;color:#000000;fill:#ff0000;fill-opacity:1;fill-rule:evenodd;stroke:#f10000;stroke-width:2.27117968;stroke-linecap:butt;stroke-linejoin:miter;stroke-miterlimit:4;stroke-opacity:1;stroke-dasharray:none;marker:none;visibility:visible;display:inline;overflow:visible;enable-background:accumulate"
     inkscape:connector-curvature="0" />
  <path
     d="m 170.63469,165.54249 c 1.41847,-8.87057 1.79143,-9.21953 18.65367,-17.45304 16.58972,-8.10046 19.03318,-9.82588 21.85402,-15.43196 2.1277,-4.22854 5.993,-8.58925 7.61345,-8.58925 1.69845,0 2.20616,1.28033 3.14951,7.94228 0.79705,5.62873 1.19848,6.41472 5.50147,10.772 3.98906,4.03938 4.47517,4.90086 3.45741,6.12719 -0.96455,1.1622 -2.96334,1.38824 -10.77282,1.21828 l -9.58855,-0.20867 -20.22812,9.65041 -20.22812,9.65041 0.58808,-3.67765 z"
     id="path3045"
     style="opacity:0.95503211;color:#000000;fill:#ff0000;fill-opacity:1;fill-rule:evenodd;stroke:#f10000;stroke-width:2.27117968;stroke-linecap:butt;stroke-linejoin:miter;stroke-miterlimit:4;stroke-opacity:1;stroke-dasharray:none;marker:none;visibility:visible;display:inline;overflow:visible;enable-background:accumulate"
     inkscape:connector-curvature="0" />
  <path
     d="m 203.00224,223.91189 c -1.11436,-0.78053 -2.99781,-3.3234 -4.18546,-5.65082 -3.0617,-6.00003 -5.76301,-8.1305 -19.05442,-15.02795 -6.46454,-3.35471 -12.09349,-6.4215 -12.50876,-6.81508 -0.41526,-0.39358 -0.11012,-1.96272 0.67811,-3.48698 0.78823,-1.52427 1.43313,-3.60531 1.43313,-4.62456 0,-1.01923 0.1272,-1.85315 0.28266,-1.85315 0.15545,0 6.84979,3.04458 14.8763,6.76574 l 14.59366,6.76574 9.0274,-0.21078 c 12.1257,-0.28313 12.83601,0.49261 6.2723,6.84993 -4.49742,4.356 -5.061,5.32981 -5.6364,9.73919 -1.25001,9.57886 -1.81896,10.32209 -5.77852,7.54872 z"
     id="path3047"
     style="opacity:0.95503211;color:#000000;fill:#ff0000;fill-opacity:1;fill-rule:evenodd;stroke:#f10000;stroke-width:2.27117968;stroke-linecap:butt;stroke-linejoin:miter;stroke-miterlimit:4;stroke-opacity:1;stroke-dasharray:none;marker:none;visibility:visible;display:inline;overflow:visible;enable-background:accumulate"
     inkscape:connector-curvature="0" />
  <path
     d=""
     id="path3049"
     style="opacity:0.95503211;color:#000000;fill:#ff0000;fill-opacity:1;fill-rule:evenodd;stroke:#f10000;stroke-width:2.27117968;stroke-linecap:butt;stroke-linejoin:miter;stroke-miterlimit:4;stroke-opacity:1;stroke-dasharray:none;marker:none;visibility:visible;display:inline;overflow:visible;enable-background:accumulate"
     inkscape:connector-curvature="0" />
  <path
     d="m 88.914043,154.85373 c -0.47135,-1.31442 -0.856963,-2.5164 -0.856919,-2.67107 1.65e-4,-0.58632 1.248479,0.22873 1.561369,1.01945 0.18002,0.45493 0.60118,1.46846 0.93593,2.2523 0.56748,1.32882 0.56157,1.43746 -0.0874,1.60717 -0.55263,0.14451 -0.87253,-0.31027 -1.553,-2.20785 z"
     id="path3051"
     style="opacity:0.95503211;color:#000000;fill:#ff0000;fill-opacity:1;fill-rule:evenodd;stroke:#f10000;stroke-width:0.98305696;stroke-linecap:butt;stroke-linejoin:miter;stroke-miterlimit:4;stroke-opacity:1;stroke-dasharray:none;marker:none;visibility:visible;display:inline;overflow:visible;enable-background:accumulate"
     inkscape:connector-curvature="0" />
  <path
     d="m 118.38638,208.99331 c -3.78015,-0.58117 -9.13151,-2.25137 -11.93695,-3.72558 -4.30443,-2.26191 -9.220527,-7.54737 -11.732997,-12.61452 -2.61804,-5.28006 -3.65752,-12.75522 -2.73888,-19.69594 0.53608,-4.05033 0.38267,-5.61034 -1.25427,-12.75434 -0.25766,-1.12449 -0.37178,-2.14124 -0.25359,-2.25943 1.35721,-1.3572 4.42431,8.33024 6.00898,18.9794 0.66835,4.49131 0.67338,4.50429 2.48347,6.38601 4.024177,4.18346 9.498277,6.94694 16.897377,8.53026 3.48155,0.74501 5.34785,0.87998 12.50613,0.90444 5.68601,0.0195 9.17519,-0.14076 10.76199,-0.49405 9.41769,-2.09675 16.31744,-5.75537 18.99525,-10.0723 0.43899,-0.70768 0.99337,-2.88244 1.3468,-5.28315 0.84182,-5.71826 1.94007,-10.34834 3.77585,-15.91849 1.42148,-4.31307 1.67173,-4.79397 2.49467,-4.79397 l 0.91471,0 -1.17979,4.20695 c -1.2628,4.50293 -1.41208,6.82406 -1.11369,17.31698 0.27178,9.5568 -2.3073,16.4036 -8.51867,22.61496 -3.02519,3.0252 -5.24791,4.52043 -8.88437,5.97654 -6.13401,2.45617 -8.21349,2.80274 -17.61438,2.93558 -4.73526,0.0669 -9.6662,-0.0408 -10.95764,-0.23935 l 0,0 z m 20.9125,-1.97544 c 7.17647,-1.1146 14.88289,-6.29809 19.33455,-13.00477 2.98807,-4.50173 3.51933,-6.78359 4.16108,-17.87289 0.23044,-3.98193 0.49531,-7.85624 0.58859,-8.60957 0.40879,-3.30135 -0.63868,0.31581 -1.88946,6.52477 -0.73621,3.65462 -1.64722,7.24774 -2.02446,7.98471 -2.91416,5.69305 -9.00176,9.00399 -21.31992,11.59548 -7.36576,1.54961 -21.80917,0.2941 -29.68564,-2.58045 -5.53981,-2.02179 -10.225877,-5.39613 -11.760187,-8.46827 -0.48399,-0.96911 -1.43868,-4.44109 -2.12153,-7.7155 l -1.24155,-5.95349 -0.12141,2.53496 c -0.22375,4.67179 0.63811,14.28526 1.51661,16.9167 0.82975,2.48541 3.4776,7.11453 5.600727,9.79151 3.47318,4.37921 11.78895,8.50259 18.76093,9.30259 3.405,0.39071 16.70554,0.0972 20.20167,-0.44578 l 0,0 z"
     id="path3053"
     style="opacity:0.95503211;color:#000000;fill:#ff0000;fill-opacity:1;fill-rule:evenodd;stroke:#f10000;stroke-width:0.98305696;stroke-linecap:butt;stroke-linejoin:miter;stroke-miterlimit:4;stroke-opacity:1;stroke-dasharray:none;marker:none;visibility:visible;display:inline;overflow:visible;enable-background:accumulate"
     inkscape:connector-curvature="0" />
  <path
     d="m 165.54337,155.26169 c 0,-0.79915 1.03207,-2.70807 1.64006,-3.03345 1.11431,-0.59636 1.2166,-0.26891 0.48623,1.5565 -0.43806,1.09479 -0.88409,1.61422 -1.38609,1.61422 -0.40711,0 -0.7402,-0.0618 -0.7402,-0.13727 z"
     id="path3055"
     style="opacity:0.95503211;color:#000000;fill:#ff0000;fill-opacity:1;fill-rule:evenodd;stroke:#f10000;stroke-width:0.98305696;stroke-linecap:butt;stroke-linejoin:miter;stroke-miterlimit:4;stroke-opacity:1;stroke-dasharray:none;marker:none;visibility:visible;display:inline;overflow:visible;enable-background:accumulate"
     inkscape:connector-curvature="0" />
</svg>
