<?xml version="1.0" encoding="UTF-8" standalone="no"?>
<!-- Created with Inkscape (http://www.inkscape.org/) -->

<svg
   xmlns:i="http://ns.adobe.com/AdobeIllustrator/10.0/"
   xmlns:dc="http://purl.org/dc/elements/1.1/"
   xmlns:cc="http://creativecommons.org/ns#"
   xmlns:rdf="http://www.w3.org/1999/02/22-rdf-syntax-ns#"
   xmlns:svg="http://www.w3.org/2000/svg"
   xmlns="http://www.w3.org/2000/svg"
   xmlns:xlink="http://www.w3.org/1999/xlink"
   xmlns:sodipodi="http://sodipodi.sourceforge.net/DTD/sodipodi-0.dtd"
   xmlns:inkscape="http://www.inkscape.org/namespaces/inkscape"
   width="256"
   height="256"
   id="svg2"
   sodipodi:version="0.32"
   inkscape:version="0.48.1 r9760"
   sodipodi:docname="usbviewer.svg"
   inkscape:output_extension="org.inkscape.output.svg.inkscape"
   version="1.0"
   sodipodi:modified="true">
  <defs
     id="defs4">
    <linearGradient
       id="linearGradient5284">
      <stop
         style="stop-color:#0000ff;stop-opacity:1;"
         offset="0"
         id="stop5286" />
      <stop
         id="stop5294"
         offset="0.34375"
         style="stop-color:#60a0ff;stop-opacity:1;" />
      <stop
         id="stop5292"
         offset="0.6875"
         style="stop-color:#60c6ff;stop-opacity:1;" />
      <stop
         style="stop-color:#1f4eff;stop-opacity:1;"
         offset="1"
         id="stop5288" />
    </linearGradient>
    <linearGradient
       id="linearGradient5272">
      <stop
         style="stop-color:#000000;stop-opacity:0.19607843;"
         offset="0"
         id="stop5274" />
      <stop
         id="stop5280"
         offset="0.04174711"
         style="stop-color:#000000;stop-opacity:0.59200001;" />
      <stop
         style="stop-color:#000000;stop-opacity:0.48800001;"
         offset="0.16072118"
         id="stop5282" />
      <stop
         style="stop-color:#000000;stop-opacity:0.25600001;"
         offset="1"
         id="stop5276" />
    </linearGradient>
    <linearGradient
       id="linearGradient5218">
      <stop
         style="stop-color:#686868;stop-opacity:1;"
         offset="0"
         id="stop5220" />
      <stop
         style="stop-color:#c0c0c0;stop-opacity:1;"
         offset="1"
         id="stop5222" />
    </linearGradient>
    <linearGradient
       id="linearGradient5722">
      <stop
         style="stop-color:#ffffff;stop-opacity:1;"
         offset="0"
         id="stop5724" />
      <stop
         style="stop-color:#000000;stop-opacity:0;"
         offset="1"
         id="stop5726" />
    </linearGradient>
    <linearGradient
       inkscape:collect="always"
       id="linearGradient4691">
      <stop
         style="stop-color:#ffffff;stop-opacity:1;"
         offset="0"
         id="stop4693" />
      <stop
         style="stop-color:#ffffff;stop-opacity:0;"
         offset="1"
         id="stop4695" />
    </linearGradient>
    <linearGradient
       id="linearGradient4627">
      <stop
         style="stop-color:#595959;stop-opacity:1;"
         offset="0"
         id="stop4629" />
      <stop
         id="stop4635"
         offset="0.21621622"
         style="stop-color:#b6b6b6;stop-opacity:1;" />
      <stop
         style="stop-color:#d3d3d3;stop-opacity:0;"
         offset="1"
         id="stop4637" />
    </linearGradient>
    <style
       type="text/css"
       id="style1576">
   
    .fil0 {fill:#1F1A17}
   
  </style>
    <linearGradient
       inkscape:collect="always"
       xlink:href="#linearGradient5722"
       id="linearGradient4666"
       gradientUnits="userSpaceOnUse"
       gradientTransform="matrix(0.79058182,0,0,0.68369136,-165.72136,-327.6393)"
       x1="371.01865"
       y1="629.42511"
       x2="371.83505"
       y2="576.66998" />
    <linearGradient
       inkscape:collect="always"
       xlink:href="#linearGradient4691"
       id="linearGradient4670"
       gradientUnits="userSpaceOnUse"
       gradientTransform="matrix(0.84436401,0,0,0.84436401,-185.67555,-424.87007)"
       x1="382.19507"
       y1="567.11572"
       x2="382.1564"
       y2="585.36609" />
    <linearGradient
       inkscape:collect="always"
       xlink:href="#linearGradient4627"
       id="linearGradient4688"
       gradientUnits="userSpaceOnUse"
       gradientTransform="matrix(0.84436401,0,0,0.84436401,-185.67555,-424.87007)"
       x1="489.08478"
       y1="452.43445"
       x2="419.1091"
       y2="462.2132" />
    <linearGradient
       inkscape:collect="always"
       xlink:href="#linearGradient4627"
       id="linearGradient4692"
       gradientUnits="userSpaceOnUse"
       gradientTransform="matrix(0.84436401,0,0,0.84436401,-185.67555,-424.87007)"
       x1="234.83728"
       y1="445.91528"
       x2="419.1091"
       y2="462.2132" />
    <linearGradient
       inkscape:collect="always"
       xlink:href="#linearGradient5218"
       id="linearGradient5224"
       x1="133.07576"
       y1="111.46899"
       x2="142.24234"
       y2="161.43263"
       gradientUnits="userSpaceOnUse" />
    <linearGradient
       inkscape:collect="always"
       xlink:href="#linearGradient5218"
       id="linearGradient5226"
       gradientUnits="userSpaceOnUse"
       x1="133.07576"
       y1="111.46899"
       x2="142.24234"
       y2="161.43263" />
    <linearGradient
       inkscape:collect="always"
       xlink:href="#linearGradient5218"
       id="linearGradient5262"
       gradientUnits="userSpaceOnUse"
       x1="133.07576"
       y1="111.46899"
       x2="142.24234"
       y2="161.43263" />
    <linearGradient
       inkscape:collect="always"
       xlink:href="#linearGradient5272"
       id="linearGradient5278"
       x1="211.4454"
       y1="120.86094"
       x2="211.73878"
       y2="-125.19128"
       gradientUnits="userSpaceOnUse" />
    <linearGradient
       inkscape:collect="always"
       xlink:href="#linearGradient5284"
       id="linearGradient5290"
       x1="126.44487"
       y1="65.555679"
       x2="126.44487"
       y2="98.657051"
       gradientUnits="userSpaceOnUse" />
    <linearGradient
       inkscape:collect="always"
       xlink:href="#linearGradient5722"
       id="linearGradient5298"
       gradientUnits="userSpaceOnUse"
       gradientTransform="matrix(0.79058182,0,0,0.68369136,-165.72136,-327.6393)"
       x1="371.01865"
       y1="629.42511"
       x2="371.83505"
       y2="576.66998" />
  </defs>
  <sodipodi:namedview
     id="base"
     pagecolor="#ffffff"
     bordercolor="#666666"
     borderopacity="1.0"
     gridtolerance="10000"
     guidetolerance="10"
     objecttolerance="10"
     inkscape:pageopacity="0.0"
     inkscape:pageshadow="2"
     inkscape:zoom="0.64085911"
     inkscape:cx="-86.064324"
     inkscape:cy="411.49446"
     inkscape:document-units="px"
     inkscape:current-layer="layer1"
     inkscape:window-width="1920"
     inkscape:window-height="1149"
     inkscape:window-x="0"
     inkscape:window-y="27"
     width="128px"
     height="128px"
     showgrid="false"
     inkscape:window-maximized="1" />
  <metadata
     id="metadata7">
    <rdf:RDF>
      <cc:Work
         rdf:about="">
        <dc:format>image/svg+xml</dc:format>
        <dc:type
           rdf:resource="http://purl.org/dc/dcmitype/StillImage" />
      </cc:Work>
    </rdf:RDF>
  </metadata>
  <g
     inkscape:label="Layer 1"
     inkscape:groupmode="layer"
     id="layer1"
     transform="translate(0,128)">
    <path
       transform="translate(-60,0)"
       style="opacity:0.46058091;fill:url(#linearGradient5278);fill-opacity:1;fill-rule:evenodd;stroke:none"
       d="m 96.889944,-109.46487 0,0.0312 c -0.279305,7.5e-4 -0.694912,0.002 -0.65625,0 -0.08332,-0.002 -0.16668,-0.002 -0.25,0 0.09442,-0.009 -1.654054,0.30613 -1.5625,0.28125 0.09155,-0.0249 -1.554888,0.57102 -1.46875,0.53125 0.08614,-0.0398 -1.453319,0.8348 -1.375,0.78125 0.07832,-0.0536 -1.287066,1.06583 -1.21875,1 0.06832,-0.0658 -1.087658,1.26378 -1.03125,1.1875 0.05641,-0.0763 -0.855427,1.39711 -0.8125,1.3125 0.04293,-0.0846 -0.621999,1.55932 -0.59375,1.46875 0.02825,-0.0906 -0.356532,1.62526 -0.34375,1.53125 L 64.15625,55.5 l 0,0.0625 c -0.260629,0.769645 -0.5625,1.77663 -0.5625,3.28125 -4.69e-4,0.04167 -4.69e-4,0.08333 0,0.125 -0.0013,-0.05263 0.08273,0.704396 0.09375,0.875 l -0.03125,0 5.03125,45.65625 0,0.15625 0.03125,0.25 c 0.05153,0.6584 0.221744,1.30732 0.5,1.90625 1.1773,5.51917 5.606656,10.5625 12.125,10.5625 l 212.53125,0 c 6.53853,0 10.92192,-5.07151 12.09375,-10.5625 0.27826,-0.59893 0.44847,-1.24785 0.5,-1.90625 l 0.0312,-0.25 0,-0.15625 5.03125,-45.65625 -0.0312,0 c 0.011,-0.170604 0.095,-0.927626 0.0937,-0.875 4.7e-4,-0.04167 4.7e-4,-0.08333 0,-0.125 0,-1.530503 -0.33345,-2.866287 -0.71875,-4.0625 l -23.69807,-156.15237 c 0.0142,0.1005 -0.40682,-1.72138 -0.375,-1.625 0.0318,0.0964 -0.73596,-1.62043 -0.6875,-1.53125 0.0485,0.0892 -0.9698,-1.48539 -0.90625,-1.40625 0.0636,0.0791 -1.26412,-1.28532 -1.1875,-1.21875 0.0766,0.0666 -1.43099,-1.02063 -1.34375,-0.96875 0.0872,0.0519 -1.62633,-0.78553 -1.53125,-0.75 0.0951,0.0355 -1.69363,-0.45555 -1.59375,-0.4375 0.0999,0.0181 -1.789,-0.15624 -1.6875,-0.15625 l -180.974486,0 z"
       id="path5269"
       inkscape:connector-curvature="0"
       sodipodi:nodetypes="ccccccccccccccccccccccsscccccccccccccccccccc" />
    <path
       sodipodi:type="inkscape:offset"
       inkscape:radius="3.8493037"
       inkscape:original="M 95.3125 -102.90625 L 73.46875 56.84375 C 73.17707 57.43078 73 58.10789 73 58.84375 L 78.0625 105.0625 C 78.0625 107.23349 79.5346 108.96875 81.34375 108.96875 L 293.875 108.96875 C 295.68415 108.96875 297.125 107.23349 297.125 105.0625 L 302.1875 58.84375 C 302.1875 58.02964 301.97642 57.28149 301.625 56.65625 L 279.09375 -102.90625 L 95.3125 -102.90625 z "
       style="opacity:0.5;fill:#000000;fill-opacity:1;fill-rule:evenodd;stroke:none"
       id="path5265"
       d="m 94.9375,-106.75 a 3.8496887,3.8496887 0 0 0 -3.4375,3.3125 l -21.84375,159.75 0.09375,0 c -0.268115,0.813158 -0.59375,1.610201 -0.59375,2.53125 A 3.8496887,3.8496887 0 0 0 69.1875,59.25 l 5.03125,45.8125 0.03125,0.40625 0.03125,0 c 0.192558,3.76434 2.942308,7.34375 7.0625,7.34375 l 212.53125,0 c 4.11859,0 6.83881,-3.61171 7.03125,-7.34375 l 0.0312,0 0.0312,-0.40625 L 306,59.25 a 3.8496887,3.8496887 0 0 0 0.0312,-0.40625 c 0,-1.077261 -0.25487,-2.08702 -0.625,-3.03125 l -22.5,-159.25 a 3.8496887,3.8496887 0 0 0 -3.8125,-3.3125 l -183.78125,0 a 3.8496887,3.8496887 0 0 0 -0.375,0 z"
       transform="translate(-60,0)" />
    <path
       inkscape:connector-curvature="0"
       style="fill:#ffffff;fill-opacity:1;fill-rule:evenodd;stroke:none"
       d="m 35.327398,-102.89212 183.762072,0 22.79433,161.36696 -228.638494,0 22.082092,-161.36696 z"
       id="path4749"
       sodipodi:nodetypes="ccccc" />
    <path
       inkscape:connector-curvature="0"
       style="fill:url(#linearGradient4692);fill-opacity:1;fill-rule:evenodd;stroke:none"
       d="m 35.327398,-102.89212 183.762072,0 22.79433,161.36696 -228.638494,0 22.082092,-161.36696 z"
       id="rect2298"
       sodipodi:nodetypes="ccccc" />
    <path
       inkscape:connector-curvature="0"
       sodipodi:nodetypes="ccccc"
       id="path4641"
       d="m 35.327398,-102.89212 183.762072,0 22.79433,161.36696 -228.638494,0 22.082092,-161.36696 z"
       style="fill:url(#linearGradient4688);fill-opacity:1;fill-rule:evenodd;stroke:none" />
    <path
       inkscape:connector-curvature="0"
       style="fill:#000000;fill-opacity:1;fill-rule:evenodd;stroke:none"
       d="m 16.272594,54.933199 222.653276,0 c 1.80915,0 3.26561,1.747761 3.26561,3.918731 l -5.06618,46.20184 c 0,2.17099 -1.45646,3.91873 -3.26561,3.91873 l -212.520911,0 c -1.809151,0 -3.265611,-1.74774 -3.265611,-3.91873 L 13.006983,58.85193 c 0,-2.17097 1.45646,-3.918731 3.265611,-3.918731 z"
       id="rect2296"
       sodipodi:nodetypes="ccccccccc" />
    <path
       inkscape:connector-curvature="0"
       sodipodi:nodetypes="ccccccccc"
       id="path2309"
       d="m 28.93216,64.915454 197.33417,0 c 1.60341,0 2.89424,1.124575 2.89424,2.521465 l -3.15109,31.545462 c 0,1.396899 -1.29083,2.521459 -2.89425,2.521459 l -190.69723,0 c -1.60343,0 -2.89426,-1.12456 -2.89426,-2.521459 L 26.03791,67.436919 c 0,-1.39689 1.29083,-2.521465 2.89425,-2.521465 z"
       style="fill:url(#linearGradient5290);fill-opacity:1;fill-rule:evenodd;stroke:none" />
    <path
       inkscape:connector-curvature="0"
       sodipodi:nodetypes="ccccccccc"
       id="path4689"
       d="m 16.27259,54.933199 222.65328,0 c 1.80915,0 3.26561,1.747761 3.26561,3.918731 l -5.06618,46.20184 c 0,2.17099 -1.45646,3.91873 -3.26561,3.91873 l -212.52091,0 c -1.80915,0 -3.26561,-1.74774 -3.26561,-3.91873 L 13.00698,58.85193 c 0,-2.17097 1.45646,-3.918731 3.26561,-3.918731 z"
       style="fill:none;stroke:url(#linearGradient4670);stroke-width:1.90235209;stroke-linecap:round;stroke-linejoin:round;stroke-miterlimit:4;stroke-opacity:1;stroke-dasharray:none" />
    <path
       inkscape:connector-curvature="0"
       style="fill:none;stroke:url(#linearGradient4666);stroke-width:1.74142087;stroke-linecap:round;stroke-linejoin:round;stroke-miterlimit:4;stroke-opacity:1;stroke-dasharray:none"
       d="m 28.62133,65.439306 197.95583,0 c 1.60846,0 2.90336,1.078229 2.90336,2.417548 l -3.16101,30.245397 c 0,1.339332 -1.2949,2.417549 -2.90338,2.417549 l -191.29798,0 c -1.60848,0 -2.90337,-1.078217 -2.90337,-2.417549 L 25.71796,67.856854 c 0,-1.339319 1.2949,-2.417548 2.90337,-2.417548 z"
       id="path5720"
       sodipodi:nodetypes="ccccccccc" />
    <g
       transform="matrix(1.8808221,0,0,1.8808221,-136.24523,-282.50214)"
       inkscape:label="Layer 1"
       id="g5214"
       style="fill:#1a1a1a">
      <path
         style="fill:#1a1a1a;fill-opacity:1;fill-rule:evenodd"
         i:knockout="Off"
         clip-rule="evenodd"
         d="m 130.44105,113.954 9.96145,-10.55585 10.21454,10.47968 -7.38176,0.028 -0.10558,25.5808 c 0.60017,-0.2012 1.2313,-0.39731 1.88002,-0.59887 4.20608,-1.30709 9.51118,-2.95643 9.7072,-10.22415 l -5.17826,0 0,-8.95534 14.90973,0 0,8.95534 -4.61875,0 c -0.20269,9.1303 -7.05526,11.25969 -12.48415,12.94658 -1.96073,0.60907 -3.64839,1.13395 -4.23278,2.06998 l -0.0546,13.37086 c 3.74307,0.61272 6.48058,2.66266 6.48058,5.11025 0,2.93421 -3.93301,5.29689 -8.81877,5.29689 -4.88516,0 -8.81876,-2.36268 -8.81876,-5.29689 0,-2.28283 2.38007,-4.21977 5.73716,-4.96736 l 0.034,-8.3109 c -1.74348,-0.58794 -3.4105,-0.98561 -4.93856,-1.35047 -6.76154,-1.61474 -11.35115,-2.7126 -11.44339,-12.17458 -3.649,-0.62694 -6.33007,-2.63313 -6.33007,-5.05559 0,-2.8963 3.93362,-5.25896 8.75565,-5.25896 4.82205,0 8.75565,2.36266 8.75565,5.25896 0,2.36486 -2.55484,4.33352 -6.07094,5.00857 0.0704,7.43428 3.36197,8.22196 8.20949,9.37925 0.97642,0.23328 2.00383,0.47821 3.07613,0.77054 l 0.12986,-31.53486 -7.37505,0.0281 z"
         id="path5216"
         inkscape:connector-curvature="0" />
    </g>
    <g
       id="g3751"
       inkscape:label="Layer 1"
       transform="matrix(1.8808221,0,0,1.8808221,-136.24523,-280.30505)"
       style="fill:url(#linearGradient5224);fill-opacity:1">
      <path
         inkscape:connector-curvature="0"
         id="path6020"
         d="m 130.44105,113.954 9.96145,-10.55585 10.21454,10.47968 -7.38176,0.028 -0.10558,25.5808 c 0.60017,-0.2012 1.2313,-0.39731 1.88002,-0.59887 4.20608,-1.30709 9.51118,-2.95643 9.7072,-10.22415 l -5.17826,0 0,-8.95534 14.90973,0 0,8.95534 -4.61875,0 c -0.20269,9.1303 -7.05526,11.25969 -12.48415,12.94658 -1.96073,0.60907 -3.64839,1.13395 -4.23278,2.06998 l -0.0546,13.37086 c 3.74307,0.61272 6.48058,2.66266 6.48058,5.11025 0,2.93421 -3.93301,5.29689 -8.81877,5.29689 -4.88516,0 -8.81876,-2.36268 -8.81876,-5.29689 0,-2.28283 2.38007,-4.21977 5.73716,-4.96736 l 0.034,-8.3109 c -1.74348,-0.58794 -3.4105,-0.98561 -4.93856,-1.35047 -6.76154,-1.61474 -11.35115,-2.7126 -11.44339,-12.17458 -3.649,-0.62694 -6.33007,-2.63313 -6.33007,-5.05559 0,-2.8963 3.93362,-5.25896 8.75565,-5.25896 4.82205,0 8.75565,2.36266 8.75565,5.25896 0,2.36486 -2.55484,4.33352 -6.07094,5.00857 0.0704,7.43428 3.36197,8.22196 8.20949,9.37925 0.97642,0.23328 2.00383,0.47821 3.07613,0.77054 l 0.12986,-31.53486 -7.37505,0.0281 z"
         clip-rule="evenodd"
         i:knockout="Off"
         style="fill:url(#linearGradient5226);fill-opacity:1;fill-rule:evenodd" />
    </g>
    <path
       sodipodi:type="inkscape:offset"
       inkscape:radius="1.4245038"
       inkscape:original="M 28.625 65.4375 C 27.01653 65.4375 25.71875 66.504431 25.71875 67.84375 L 29.21875 98.09375 C 29.21875 99.433082 30.51652 100.53125 32.125 100.53125 L 223.40625 100.53125 C 225.01473 100.53125 226.3125 99.433082 226.3125 98.09375 L 229.46875 67.84375 C 229.46875 66.504431 228.17096 65.4375 226.5625 65.4375 L 28.625 65.4375 z "
       style="opacity:0.50622409;fill:none;stroke:#0051ff;stroke-width:3;stroke-linecap:round;stroke-linejoin:round;stroke-miterlimit:4;stroke-opacity:1;stroke-dasharray:none"
       id="path5300"
       d="m 28.625,64 c -2.238405,0 -4.34375,1.584216 -4.34375,3.84375 A 1.4246463,1.4246463 0 0 0 24.3125,68 l 3.46875,30.09375 c 0,0.05598 0.02873,0.101095 0.03125,0.15625 0.09908,2.17124 2.111555,3.71875 4.3125,3.71875 l 191.28125,0 c 2.20094,0 4.21342,-1.54751 4.3125,-3.71875 4.8e-4,-0.01053 -3.9e-4,-0.02069 0,-0.03125 L 227.75,98.09375 230.875,68 a 1.4246463,1.4246463 0 0 0 0.0312,-0.15625 C 230.90625,65.584209 228.8009,64 226.5625,64 L 28.625,64 z" />
    <path
       d="m 28.625,61.0625 c -3.540963,0 -7.28125,2.618926 -7.28125,6.78125 a 4.3704822,4.3704822 0 0 0 0.03125,0.5 l 3.5,30.25 0.0625,0 c 0.30328,3.84861 3.748675,6.3125 7.1875,6.3125 l 191.28125,0 c 3.44835,0 6.90123,-2.47654 7.1875,-6.34375 l 0.0625,0 3.15625,-30.25 a 4.3704822,4.3704822 0 0 0 0.0312,-0.46875 c 0,-4.162346 -3.74028,-6.78125 -7.28125,-6.78125 l -197.9375,0 z"
       id="path5304"
       style="opacity:0.3;fill:none;stroke:#0083ff;stroke-width:3;stroke-linecap:round;stroke-linejoin:round;stroke-miterlimit:4;stroke-opacity:1;stroke-dasharray:none"
       inkscape:original="M 28.625 65.4375 C 27.01653 65.4375 25.71875 66.504431 25.71875 67.84375 L 29.21875 98.09375 C 29.21875 99.433082 30.51652 100.53125 32.125 100.53125 L 223.40625 100.53125 C 225.01473 100.53125 226.3125 99.433082 226.3125 98.09375 L 229.46875 67.84375 C 229.46875 66.504431 228.17096 65.4375 226.5625 65.4375 L 28.625 65.4375 z "
       inkscape:radius="4.3700452"
       sodipodi:type="inkscape:offset" />
  </g>
</svg>
