<?xml version="1.0" encoding="UTF-8" standalone="no"?>
<!-- Created with Inkscape (http://www.inkscape.org/) -->

<svg
   xmlns:dc="http://purl.org/dc/elements/1.1/"
   xmlns:cc="http://creativecommons.org/ns#"
   xmlns:rdf="http://www.w3.org/1999/02/22-rdf-syntax-ns#"
   xmlns:svg="http://www.w3.org/2000/svg"
   xmlns="http://www.w3.org/2000/svg"
   version="1.1"
   width="128.008"
   height="128"
   viewBox="0 0 128.008 128"
   id="svg2"
   xml:space="preserve"
   style="overflow:visible"><metadata
   id="metadata89"><rdf:RDF><cc:Work
       rdf:about=""><dc:format>image/svg+xml</dc:format><dc:type
         rdf:resource="http://purl.org/dc/dcmitype/StillImage" /><dc:title></dc:title></cc:Work></rdf:RDF></metadata><defs
   id="defs87" />
	<path
   d="m 102.16109,44.574542 c -0.35153,0.144366 -0.58121,0.487469 -0.58121,0.867133 0,0 0,8.736016 0,10.311854 -1.798942,0 -33.747795,0 -33.747795,0 -0.518404,0 -0.937439,0.419974 -0.937439,0.937441 v 15.842756 c 0,0.518406 0.419035,0.937442 0.937439,0.937442 0,0 31.948853,0 33.747795,0 0,1.575839 0,10.311853 0,10.311853 0,0.373102 0.22217,0.712455 0.56622,0.860571 0.34403,0.148115 0.74151,0.07875 1.0143,-0.177176 l 19.60747,-18.468529 c 0.18281,-0.174365 0.29062,-0.413412 0.29436,-0.666522 0.005,-0.252172 -0.0928,-0.494968 -0.26998,-0.674957 L 103.18478,44.783592 c -0.26717,-0.270921 -0.6712,-0.353415 -1.02369,-0.20905 z"
   id="path4"
   style="opacity:0.2" />
	<path
   d="m 101.80581,43.706472 c 0,0 0,0 0,0 -0.70683,0.289669 -1.16337,0.971189 -1.16337,1.735203 0,0 0,7.824822 0,9.374412 -1.782067,0 -32.810355,0 -32.810355,0 -1.033995,0 -1.874878,0.840885 -1.874878,1.874883 v 15.842756 c 0,1.034935 0.840883,1.874883 1.874878,1.874883 0,0 31.028288,0 32.810355,0 0,1.548652 0,9.374412 0,9.374412 0,0.749016 0.44435,1.424911 1.13149,1.721142 0.68527,0.296232 1.48116,0.157491 2.02675,-0.354353 0.002,-9.38e-4 19.60934,-18.470404 19.60934,-18.470404 0.36654,-0.345916 0.58028,-0.830573 0.58965,-1.331167 0.01,-0.501531 -0.18749,-0.994625 -0.53996,-1.350852 L 103.85224,44.125508 c -0.53716,-0.543715 -1.3396,-0.707769 -2.04643,-0.419036 z"
   id="path6"
   style="opacity:0.2" />
	<linearGradient
   x1="108.8496"
   y1="44.700199"
   x2="79.279297"
   y2="82.0364"
   id="XMLID_10_"
   gradientUnits="userSpaceOnUse"
   gradientTransform="matrix(0.93743883,0,0,0.93744122,4.0000001,4.1942619)">
		<stop
   id="stop9"
   style="stop-color:#55b205;stop-opacity:1"
   offset="0" />
		<stop
   id="stop11"
   style="stop-color:#479109;stop-opacity:1"
   offset="0.81999999" />
		<stop
   id="stop13"
   style="stop-color:#44890a;stop-opacity:1"
   offset="1" />
	</linearGradient>
	<path
   d="m 102.16109,43.637101 c -0.35153,0.144366 -0.58121,0.487469 -0.58121,0.867133 0,0 0,8.736015 0,10.311853 -1.798942,0 -33.747795,0 -33.747795,0 -0.518404,0 -0.937439,0.419974 -0.937439,0.937442 v 15.842757 c 0,0.518404 0.419035,0.93744 0.937439,0.93744 0,0 31.948853,0 33.747795,0 0,1.575839 0,10.311853 0,10.311853 0,0.373102 0.22217,0.712455 0.56622,0.860572 0.34403,0.148115 0.74151,0.07875 1.0143,-0.177177 l 19.60747,-18.469466 c 0.18281,-0.173427 0.29062,-0.412475 0.29436,-0.665583 0.005,-0.252172 -0.0928,-0.495907 -0.26998,-0.675895 L 103.18478,43.845213 c -0.26717,-0.269983 -0.6712,-0.352478 -1.02369,-0.208112 z"
   id="path15"
   style="fill:url(#XMLID_10_)" />
	
		<linearGradient
   x1="588.5498"
   y1="51.591301"
   x2="565.7616"
   y2="91.470703"
   id="XMLID_11_"
   gradientUnits="userSpaceOnUse"
   gradientTransform="matrix(-1,0,0,1,676.1953,0)">
		<stop
   id="stop18"
   style="stop-color:#5baa07;stop-opacity:1"
   offset="0" />
		<stop
   id="stop20"
   style="stop-color:#73cb09;stop-opacity:1"
   offset="0.83890003" />
		<stop
   id="stop22"
   style="stop-color:#78d209;stop-opacity:1"
   offset="1" />
	</linearGradient>
	<polygon
   points="68.092,71.9 68.092,55 105.092,55 105.092,43 126.008,64.199 105.092,83.9 105.092,71.9 "
   transform="matrix(0.93743883,0,0,0.93744122,4.0000001,4.1942619)"
   id="polygon24"
   style="fill:url(#XMLID_11_)" />
	<linearGradient
   x1="77.152298"
   y1="76.716797"
   x2="136.1207"
   y2="72.192596"
   id="XMLID_12_"
   gradientUnits="userSpaceOnUse"
   gradientTransform="matrix(0.93743883,0,0,0.93744122,4.0000001,4.1942619)">
		<stop
   id="stop27"
   style="stop-color:#75cc09;stop-opacity:1"
   offset="0" />
		<stop
   id="stop29"
   style="stop-color:#78d209;stop-opacity:1"
   offset="1" />
	</linearGradient>
	<path
   d="M 102.51732,70.658844 H 67.832085 v 0.937442 h 34.685235 v -0.937442 z m 19.12751,-6.767388 -19.12751,18.016682 v 0.937441 l 19.60747,-18.469467 -0.47996,-0.484656 z"
   id="path31"
   style="fill:url(#XMLID_12_)" />
	<linearGradient
   x1="71.976601"
   y1="49.313999"
   x2="121.4751"
   y2="67.721497"
   id="XMLID_13_"
   gradientUnits="userSpaceOnUse"
   gradientTransform="matrix(0.93743883,0,0,0.93744122,4.0000001,4.1942619)">
		<stop
   id="stop34"
   style="stop-color:#8dc257;stop-opacity:1"
   offset="0" />
		<stop
   id="stop36"
   style="stop-color:#8ec357;stop-opacity:1"
   offset="1" />
	</linearGradient>
	<path
   d="m 90.865894,60.616973 c 12.347006,-1.677081 24.643396,-2.94544 24.643396,-2.94544 L 102.51732,44.504234 V 55.753529 H 67.832085 v 10.780574 c 0,0 10.686802,-4.23911 23.033809,-5.91713 z"
   id="path38"
   style="fill:url(#XMLID_13_)" />
	<path
   d="M 4.0000001,64.190499 C 4.0000001,90.552284 25.447663,112 51.809381,112 c 18.823771,0 35.954528,-11.1443 43.641526,-28.390406 0.259672,-0.580276 0.20905,-1.247734 -0.13874,-1.783013 -0.347791,-0.536215 -0.935564,-0.854946 -1.573023,-0.854946 h -17.30512 c -0.584025,0 -1.141801,0.277482 -1.494277,0.741517 -5.488706,7.223921 -14.135641,11.538025 -23.130366,11.538025 -16.02458,0 -29.060604,-13.036057 -29.060604,-29.060678 0,-16.023682 13.036024,-29.060678 29.060604,-29.060678 9.384699,0 18.250058,4.610337 23.713452,12.332039 0.350602,0.495908 0.92244,0.792139 1.530838,0.792139 h 17.047325 c 0.629958,0 1.214921,-0.313105 1.562711,-0.83901 0.348726,-0.527779 0.40966,-1.187739 0.164051,-1.767076 -7.408579,-17.504841 -25.09805,-29.266915 -44.018377,-29.266915 -26.361718,0 -47.8093809,21.44678 -47.8093809,47.809501 z"
   id="path40"
   style="opacity:0.2" />
	<path
   d="m 4.937439,64.190499 c 0,25.845255 21.026753,46.872061 46.871942,46.872061 18.45442,0 35.248637,-10.92494 42.785645,-27.834504 0.130304,-0.290607 0.103119,-0.625273 -0.06937,-0.892444 -0.173427,-0.265296 -0.46872,-0.426536 -0.786513,-0.426536 h -17.30512 c -0.293418,0 -0.569026,0.136866 -0.746201,0.370289 -5.665881,7.456408 -14.593111,11.909253 -23.878442,11.909253 -16.541109,0 -29.998043,-13.456968 -29.998043,-29.998119 0,-16.54115 13.456934,-29.998118 29.998043,-29.998118 9.68843,0 18.839707,4.758452 24.478402,12.728577 0.176239,0.248422 0.46122,0.3956 0.765888,0.3956 h 17.047325 c 0.314042,0 0.60746,-0.15749 0.781824,-0.419974 0.173426,-0.261547 0.204362,-0.5934 0.08156,-0.883069 -7.264218,-17.163612 -24.606836,-28.695076 -43.155,-28.695076 -25.845189,0 -46.871942,21.026806 -46.871942,46.87206 z"
   id="path42"
   style="opacity:0.2" />
	<linearGradient
   x1="57.883801"
   y1="114.4971"
   x2="43.883701"
   y2="20.663601"
   id="XMLID_14_"
   gradientUnits="userSpaceOnUse"
   gradientTransform="matrix(0.93743883,0,0,0.93744122,4.0000001,4.1942619)">
		<stop
   id="stop45"
   style="stop-color:#55b205;stop-opacity:1"
   offset="0" />
		<stop
   id="stop47"
   style="stop-color:#479109;stop-opacity:1"
   offset="0.81999999" />
		<stop
   id="stop49"
   style="stop-color:#44890a;stop-opacity:1"
   offset="1" />
	</linearGradient>
	<path
   d="m 4.937439,63.253058 c 0,25.845254 21.026753,46.872062 46.871942,46.872062 18.45442,0 35.248637,-10.924941 42.785645,-27.834505 0.130304,-0.290608 0.103119,-0.625274 -0.06937,-0.892444 -0.173426,-0.265296 -0.468719,-0.426536 -0.786512,-0.426536 h -17.30512 c -0.293418,0 -0.569026,0.136866 -0.746201,0.370289 -5.665881,7.456408 -14.593111,11.909253 -23.878442,11.909253 -16.541109,0 -29.998043,-13.456968 -29.998043,-29.998119 0,-16.54115 13.456934,-29.998118 29.998043,-29.998118 9.68843,0 18.839707,4.758451 24.478402,12.728577 0.176239,0.248421 0.46122,0.3956 0.765888,0.3956 h 17.047325 c 0.314042,0 0.60746,-0.157491 0.781824,-0.419973 0.173426,-0.261547 0.204362,-0.593401 0.08156,-0.883071 -7.264218,-17.163611 -24.606836,-28.695075 -43.155,-28.695075 -25.845189,0 -46.871942,21.026806 -46.871942,46.87206 z"
   id="path51"
   style="fill:url(#XMLID_14_)" />
	<linearGradient
   x1="49.616199"
   y1="60.9067"
   x2="54.116199"
   y2="111.6567"
   id="XMLID_15_"
   gradientUnits="userSpaceOnUse"
   gradientTransform="matrix(0.93743883,0,0,0.93744122,4.0000001,4.1942619)">
		<stop
   id="stop54"
   style="stop-color:#5baa07;stop-opacity:1"
   offset="0" />
		<stop
   id="stop56"
   style="stop-color:#73cb09;stop-opacity:1"
   offset="0.83890003" />
		<stop
   id="stop58"
   style="stop-color:#78d209;stop-opacity:1"
   offset="1" />
	</linearGradient>
	<path
   d="m 5.8748778,63.253058 c 0,25.328725 20.6058432,45.934612 45.9345032,45.934612 18.237872,0 34.525871,-10.670883 41.929763,-27.279532 -2.423279,0 -16.533609,0 -17.30512,0 -5.841182,7.688893 -14.996209,12.28048 -24.624643,12.28048 -17.057637,0 -30.935482,-13.87788 -30.935482,-30.93556 0,-17.057681 13.877845,-30.935559 30.935482,-30.935559 10.045594,0 19.431232,4.908441 25.24429,13.124176 0.802448,0 14.670917,0 17.047325,0 -7.139535,-16.868317 -23.94125,-28.123236 -42.291615,-28.123236 -25.32866,0 -45.9345032,20.605895 -45.9345032,45.934619 z"
   id="path60"
   style="fill:url(#XMLID_15_)" />
	<linearGradient
   x1="50.9897"
   y1="84.453102"
   x2="58.3228"
   y2="113.6201"
   id="XMLID_16_"
   gradientUnits="userSpaceOnUse"
   gradientTransform="matrix(0.93743883,0,0,0.93744122,4.0000001,4.1942619)">
		<stop
   id="stop63"
   style="stop-color:#75cc09;stop-opacity:1"
   offset="0" />
		<stop
   id="stop65"
   style="stop-color:#7ddb09;stop-opacity:1"
   offset="1" />
	</linearGradient>
	<path
   d="m 51.809381,108.25023 c -25.171171,0 -45.669208,-20.353718 -45.9223165,-45.465893 -0.00187,0.156553 -0.012187,0.312168 -0.012187,0.468721 0,25.328725 20.6058425,45.934612 45.9345025,45.934612 18.237873,0 34.525872,-10.670883 41.929764,-27.279532 H 93.300423 C 85.708106,97.977756 69.7004,108.25023 51.809381,108.25023 z"
   id="path67"
   style="fill:url(#XMLID_16_)" />
	<linearGradient
   x1="18.6621"
   y1="34.936001"
   x2="45.912102"
   y2="57.9361"
   id="XMLID_17_"
   gradientUnits="userSpaceOnUse"
   gradientTransform="matrix(0.93743883,0,0,0.93744122,4.0000001,4.1942619)">
		<stop
   id="stop70"
   style="stop-color:#8dc257;stop-opacity:1"
   offset="0" />
		<stop
   id="stop72"
   style="stop-color:#8ec357;stop-opacity:1"
   offset="1" />
	</linearGradient>
	<path
   d="M 15.054279,90.77352 C 9.2927798,83.098689 5.8748778,73.566787 5.8748778,63.253058 c 0,-25.328724 20.6058432,-45.934619 45.9345032,-45.934619 18.350365,0 35.15208,11.254919 42.290677,28.123236 -2.37547,0 -16.243939,0 -17.047325,0 -5.81212,-8.215735 -15.197758,-13.124176 -25.243352,-13.124176 -17.057637,0 -30.935482,13.877878 -30.935482,30.935559 0,7.7817 2.52171,14.46753 7.260464,20.090303 L 15.054279,90.77352 z"
   id="path74"
   style="fill:url(#XMLID_17_)" />
	<linearGradient
   x1="48.951199"
   y1="51.4897"
   x2="46.118198"
   y2="-6.5092001"
   id="XMLID_18_"
   gradientUnits="userSpaceOnUse"
   gradientTransform="matrix(0.93743883,0,0,0.93744122,4.0000001,4.1942619)">
		<stop
   id="stop77"
   style="stop-color:#8dc257;stop-opacity:1"
   offset="0" />
		<stop
   id="stop79"
   style="stop-color:#a9d878;stop-opacity:1"
   offset="0.80199999" />
		<stop
   id="stop81"
   style="stop-color:#b0de81;stop-opacity:1"
   offset="1" />
	</linearGradient>
	<path
   d="m 51.809381,17.318439 c -25.32866,0 -45.9345032,20.605895 -45.9345032,45.934619 0,0.173427 0.00938,0.34404 0.011249,0.51653 C 6.1139247,38.635852 26.622273,18.25588 51.809381,18.25588 c 18.007262,0 34.51556,10.841508 41.873517,27.185795 h 0.41716 C 86.961461,28.573358 70.159746,17.318439 51.809381,17.318439 z"
   id="path83"
   style="fill:url(#XMLID_18_)" />
</svg>