<?xml version="1.0" encoding="UTF-8" standalone="no"?>
<!-- Created with Inkscape (http://www.inkscape.org/) -->

<svg
   xmlns:dc="http://purl.org/dc/elements/1.1/"
   xmlns:cc="http://creativecommons.org/ns#"
   xmlns:rdf="http://www.w3.org/1999/02/22-rdf-syntax-ns#"
   xmlns:svg="http://www.w3.org/2000/svg"
   xmlns="http://www.w3.org/2000/svg"
   xmlns:xlink="http://www.w3.org/1999/xlink"
   xmlns:sodipodi="http://sodipodi.sourceforge.net/DTD/sodipodi-0.dtd"
   xmlns:inkscape="http://www.inkscape.org/namespaces/inkscape"
   version="1.1"
   width="256"
   height="256"
   id="svg11300"
   inkscape:version="0.48.3.1 r9886"
   sodipodi:docname="media-flash.svg">
  <sodipodi:namedview
     pagecolor="#ffffff"
     bordercolor="#666666"
     borderopacity="1"
     objecttolerance="10"
     gridtolerance="10"
     guidetolerance="10"
     inkscape:pageopacity="0"
     inkscape:pageshadow="2"
     inkscape:window-width="1436"
     inkscape:window-height="839"
     id="namedview28"
     showgrid="false"
     inkscape:zoom="0.921875"
     inkscape:cx="-45.559322"
     inkscape:cy="128"
     inkscape:window-x="0"
     inkscape:window-y="37"
     inkscape:window-maximized="0"
     inkscape:current-layer="svg11300" />
  <metadata
     id="metadata34">
    <rdf:RDF>
      <cc:Work
         rdf:about="">
        <dc:format>image/svg+xml</dc:format>
        <dc:type
           rdf:resource="http://purl.org/dc/dcmitype/StillImage" />
        <dc:title />
      </cc:Work>
    </rdf:RDF>
  </metadata>
  <defs
     id="defs3">
    <linearGradient
       id="linearGradient3659">
      <stop
         id="stop3661"
         style="stop-color:#aa1e1e;stop-opacity:1"
         offset="0" />
      <stop
         id="stop3663"
         style="stop-color:#e35d5d;stop-opacity:1"
         offset="1" />
    </linearGradient>
    <linearGradient
       id="linearGradient6247">
      <stop
         id="stop6249"
         style="stop-color:#ffffff;stop-opacity:1"
         offset="0" />
      <stop
         id="stop6251"
         style="stop-color:#ffffff;stop-opacity:0"
         offset="1" />
    </linearGradient>
    <linearGradient
       id="linearGradient6235">
      <stop
         id="stop6237"
         style="stop-color:#505050;stop-opacity:1"
         offset="0" />
      <stop
         id="stop6239"
         style="stop-color:#1e1e1e;stop-opacity:1"
         offset="1" />
    </linearGradient>
    <linearGradient
       id="linearGradient6125">
      <stop
         id="stop6127"
         style="stop-color:#000000;stop-opacity:1"
         offset="0" />
      <stop
         id="stop6129"
         style="stop-color:#000000;stop-opacity:0"
         offset="1" />
    </linearGradient>
    <linearGradient
       x1="24"
       y1="42"
       x2="24"
       y2="9"
       id="linearGradient2854"
       xlink:href="#linearGradient3659"
       gradientUnits="userSpaceOnUse"
       gradientTransform="matrix(5.2502644,0,0,5.2502644,0.65939784,2.6384556)" />
    <radialGradient
       cx="10.388194"
       cy="11.314219"
       r="17.09375"
       fx="10.388194"
       fy="11.314219"
       id="radialGradient2857"
       xlink:href="#linearGradient6247"
       gradientUnits="userSpaceOnUse"
       gradientTransform="matrix(12.302776,0.96047418,-0.65070934,8.3349782,-65.241194,-53.517235)" />
    <radialGradient
       cx="15.047399"
       cy="18.977098"
       r="18.094328"
       fx="15.047399"
       fy="18.977098"
       id="radialGradient2860"
       xlink:href="#linearGradient6235"
       gradientUnits="userSpaceOnUse"
       gradientTransform="matrix(15.491704,0.36016222,-0.10854822,4.6689983,-152.58289,8.9462138)" />
    <radialGradient
       cx="24.218407"
       cy="45.25996"
       r="21.38998"
       fx="24.218407"
       fy="45.25996"
       id="radialGradient2863"
       xlink:href="#linearGradient6125"
       gradientUnits="userSpaceOnUse"
       gradientTransform="matrix(5.7503563,0,0,0.91482805,-12.264458,194.02672)" />
  </defs>
  <path
     d="m 42.661513,21.138603 c -3.631319,6.29e-4 -7.650162,4.119882 -7.654886,7.751175 l -0.05809,44.664525 5.292075,0 -0.492213,62.999867 -5.145199,0.11813 -0.32814,91.72754 c -0.0137,3.8258 4.560641,7.83576 8.386461,7.83576 l 168.008439,0 c 3.70792,0 7.89073,-4.12787 7.89546,-7.83576 l 0.16408,-128.576574 -5.43439,0 0,-20.643935 5.58857,-0.147532 0.14108,-31.930743 c 0,-2.789205 -2.27398,-5.21052 -2.27398,-5.21052 0,0 -16.02061,-18.481719 -16.02061,-18.481719 -1.31257,-1.312566 -2.5296,-2.13208 -5.97508,-2.296151 l -152.093574,0.02593 z"
     id="path6230"
     style="color:#000000;fill:url(#radialGradient2860);fill-opacity:1;fill-rule:evenodd;stroke:#141414;stroke-width:5.25026464;stroke-linecap:butt;stroke-linejoin:miter;stroke-miterlimit:4;stroke-opacity:1;stroke-dasharray:none;stroke-dashoffset:0.8015976;marker:none;visibility:visible;display:inline;overflow:visible"
     inkscape:connector-curvature="0" />
  <path
     d="m 42.661513,26.428717 c 0.150032,0 -0.765002,0.272488 -1.476636,0.984424 -0.711635,0.711884 -0.984615,1.622489 -0.984426,1.476637 l 0,39.376984 a 5.2507895,5.2507895 0 0 1 5.250265,5.250264 L 44.958504,136.5202 a 5.2507895,5.2507895 0 0 1 -5.086194,5.25027 l -0.328141,86.62937 c 6.35e-4,-0.17746 0.161235,0.71701 0.984424,1.47663 0.82319,0.7596 2.072466,1.14849 2.13292,1.14849 l 168.008447,0 c -0.11304,0 0.89749,-0.24099 1.64072,-0.98441 0.74322,-0.74355 0.98456,-1.74903 0.98442,-1.64071 l 0.16407,-123.38122 -0.16407,0 a 5.2507895,5.2507895 0 0 1 -5.25026,-5.250264 l 0,-20.508853 a 5.2507895,5.2507895 0 0 1 5.08618,-5.250265 l 0.49222,0 0.16407,-26.907605 c 0,0.09346 -0.82035,-1.640708 -0.82035,-1.640708 a 5.2507895,5.2507895 0 0 1 -0.16408,-0.16407 L 196.88803,27.249071 c -0.88282,-0.882833 -0.52903,-0.788853 -2.13293,-0.820354 -0.21872,-0.0043 -0.008,0.01576 -0.32814,0 l -151.765447,0 z"
     id="path6243"
     style="opacity:0.2;color:#000000;fill:none;stroke:url(#radialGradient2857);stroke-width:5.25026464;stroke-linecap:butt;stroke-linejoin:miter;stroke-miterlimit:4;stroke-opacity:1;stroke-dasharray:none;stroke-dashoffset:0.8015976;marker:none;visibility:visible;display:inline;overflow:visible"
     inkscape:connector-curvature="0" />
  <rect
     width="136.50688"
     height="173.25873"
     x="58.412308"
     y="49.890835"
     id="rect3657"
     style="fill:url(#linearGradient2854);fill-opacity:1;stroke:none" />
  <rect
     width="136.50688"
     height="36.75185"
     x="58.412308"
     y="49.890835"
     id="rect3669"
     style="opacity:0.2;fill:#141414;fill-opacity:1;stroke:none" />
  <path
     d="m 132.08772,174.45304 c -1.19056,-1.12434 -2.7228,-2.00622 -4.59675,-2.6456 -1.874,-0.63933 -3.65978,-0.95901 -5.35737,-0.95906 -2.18264,5e-5 -3.91331,0.50717 -5.19201,1.5212 -1.27872,1.0142 -1.91808,2.35906 -1.91806,4.03457 -2e-5,1.78583 0.49605,3.24094 1.48815,4.36527 0.99209,1.10236 3.13062,2.49131 6.41562,4.16683 4.36522,2.2488 7.3746,4.29913 9.02813,6.15106 1.67554,1.85192 2.51331,4.29913 2.51333,7.34155 -2e-5,4.16686 -1.54329,7.58411 -4.6298,10.25176 -3.06453,2.64562 -7.30854,3.96842 -12.73202,3.96842 -1.85193,0 -3.84716,-0.27563 -5.98568,-0.82676 -2.1165,-0.52913 -3.80308,-1.20154 -5.05974,-2.01726 l 0,-9.55726 c 1.49918,1.49916 3.27394,2.67868 5.32429,3.53846 2.07239,0.83779 3.97943,1.2567 5.72113,1.2567 2.51332,0 4.39831,-0.48512 5.65499,-1.4551 1.25665,-0.97003 1.88499,-2.42516 1.88501,-4.36528 -2e-5,-1.54321 -0.62836,-2.82197 -1.88501,-3.8361 -1.25668,-1.0362 -3.5275,-2.41413 -6.81245,-4.13376 -3.52748,-1.91807 -6.129,-3.84717 -7.80455,-5.78731 -1.65351,-1.96212 -2.48025,-4.72897 -2.48025,-8.30061 0,-4.07862 1.49917,-7.41868 4.49754,-10.02024 2.99834,-2.6235 6.90062,-3.93528 11.70682,-3.93533 4.14477,5e-5 7.55099,0.5843 10.21868,1.7527 l 0,9.49115 m 10.68165,-10.18561 16.60121,0 c 8.02499,6e-5 14.04374,1.92911 18.0563,5.78727 4.03451,3.8582 6.05179,9.63443 6.05183,17.32875 -4e-5,7.42976 -2.27085,13.3383 -6.81245,17.72557 -4.51962,4.38734 -10.6486,6.581 -18.38699,6.581 l -15.5099,0 0,-47.42259 m 9.22656,40.11407 6.08491,0 c 4.98254,0 8.89585,-1.48814 11.7399,-4.46446 2.86605,-2.97632 4.29909,-7.04391 4.29911,-12.20288 -2e-5,-5.00461 -1.38896,-8.89583 -4.16682,-11.67374 -2.77793,-2.77787 -6.64713,-4.16682 -11.60762,-4.16687 l -6.34948,0 0,32.50795"
     id="text6275"
     style="font-size:12.89985371px;font-style:normal;font-variant:normal;font-weight:bold;font-stretch:normal;text-align:start;line-height:100%;writing-mode:lr-tb;text-anchor:start;fill:#ffffff;fill-opacity:1;stroke:none;font-family:Segoe"
     inkscape:connector-curvature="0" />
  <path
     d="m 145.63685,159.92101 -1.76691,0 0,-9.88023 c -2e-5,-0.14437 0.0421,-0.59196 0.12621,-1.34322 l -0.0362,0 c -0.12024,0.59501 -0.23743,1.02469 -0.35157,1.28915 l -4.41725,9.9343 -0.86542,0 -4.40824,-9.84416 c -0.10817,-0.22838 -0.23139,-0.68814 -0.36962,-1.37929 l -0.0362,0 c 0.0483,0.46884 0.0721,0.96159 0.0722,1.47842 l 0,9.74503 -1.66774,0 0,-12.92721 2.35287,0 4.28204,9.47452 c 0.12621,0.30661 0.20433,0.56498 0.23436,0.77531 l 0.054,0 c 0.0483,-0.18639 0.14722,-0.451 0.29748,-0.79332 l 4.19189,-9.45651 2.30779,0 0,12.92721 m 17.12813,0 -1.76689,0 0,-9.88023 c -1e-5,-0.14437 0.0421,-0.59196 0.12621,-1.34322 l -0.0362,0 c -0.12023,0.59501 -0.23742,1.02469 -0.35156,1.28915 l -4.41725,9.9343 -0.86542,0 -4.40826,-9.84416 c -0.10815,-0.22838 -0.23137,-0.68814 -0.36961,-1.37929 l -0.0362,0 c 0.0483,0.46884 0.0722,0.96159 0.0722,1.47842 l 0,9.74503 -1.66774,0 0,-12.92721 2.35286,0 4.28205,9.47452 c 0.12621,0.30661 0.20434,0.56498 0.23437,0.77531 l 0.0541,0 c 0.0483,-0.18639 0.14722,-0.451 0.29748,-0.79332 l 4.19189,-9.45651 2.30779,0 0,12.92721 m 12.21506,-0.59497 c -0.98497,0.54692 -2.20797,0.82035 -3.66837,0.82035 -1.833,0 -3.30243,-0.59197 -4.40824,-1.7759 -1.0998,-1.18399 -1.64971,-2.74053 -1.64971,-4.66969 0,-2.04933 0.63105,-3.71409 1.89311,-4.99421 1.26808,-1.2861 2.83967,-1.92915 4.71476,-1.92915 1.26807,0 2.30778,0.18323 3.11912,0.5499 l 0,1.90212 c -0.95557,-0.56492 -2.0013,-0.84739 -3.13716,-0.84739 -1.40632,0 -2.5512,0.47463 -3.43464,1.42434 -0.88346,0.94353 -1.32518,2.21163 -1.32518,3.80424 0,1.50851 0.40868,2.71046 1.22602,3.60594 0.81733,0.88944 1.90212,1.33419 3.25434,1.33419 1.31014,0 2.44901,-0.31239 3.41662,-0.93752 l 0,1.71278"
     id="text6280"
     style="font-size:10px;font-style:normal;font-variant:normal;font-weight:normal;font-stretch:normal;line-height:100%;writing-mode:lr-tb;text-anchor:start;fill:#ffffff;fill-opacity:1;stroke:none;font-family:Segoe"
     inkscape:connector-curvature="0" />
</svg>
