<?xml version="1.0" encoding="UTF-8" standalone="no"?>
<svg
   xmlns:dc="http://purl.org/dc/elements/1.1/"
   xmlns:cc="http://creativecommons.org/ns#"
   xmlns:rdf="http://www.w3.org/1999/02/22-rdf-syntax-ns#"
   xmlns:svg="http://www.w3.org/2000/svg"
   xmlns="http://www.w3.org/2000/svg"
   xmlns:sodipodi="http://sodipodi.sourceforge.net/DTD/sodipodi-0.dtd"
   xmlns:inkscape="http://www.inkscape.org/namespaces/inkscape"
   version="1.1"
   width="128"
   height="128"
   viewBox="0 0 128 128"
   style="overflow:visible;enable-background:new 0 0 128 128;"
   xml:space="preserve"
   id="svg2"
   inkscape:version="0.48.3.1 r9886"
   sodipodi:docname="media-floppy.svg"><metadata
   id="metadata156"><rdf:RDF><cc:Work
       rdf:about=""><dc:format>image/svg+xml</dc:format><dc:type
         rdf:resource="http://purl.org/dc/dcmitype/StillImage" /></cc:Work></rdf:RDF></metadata><defs
   id="defs154" /><sodipodi:namedview
   pagecolor="#ffffff"
   bordercolor="#666666"
   borderopacity="1"
   objecttolerance="10"
   gridtolerance="10"
   guidetolerance="10"
   inkscape:pageopacity="0"
   inkscape:pageshadow="2"
   inkscape:window-width="1436"
   inkscape:window-height="839"
   id="namedview152"
   showgrid="false"
   inkscape:zoom="1.84375"
   inkscape:cx="-22.779661"
   inkscape:cy="55.864407"
   inkscape:window-x="0"
   inkscape:window-y="37"
   inkscape:window-maximized="0"
   inkscape:current-layer="svg2" />
<path
   style="opacity:0.2;fill:#3d3d3d"
   d="m 102.40082,11.972773 c -1.1532,0 -1.49132,0.746558 -1.85918,1.773524 -1.381316,0 -72.482788,0 -73.17164,0 -0.622132,-1.048606 -1.291148,-1.773524 -2.568771,-1.773524 H 13.44959 c -1.956557,0 -3.5479506,1.591393 -3.5479506,3.547951 V 116.62243 c 0,1.95476 1.5913936,3.54705 3.5479506,3.54705 h 101.98803 c 1.46696,0 2.66074,-1.19377 2.66074,-2.66074 V 22.614822 c 0,-1.22082 -0.65099,-2.791475 -1.51476,-3.655246 l -5.47205,-5.47295 c -0.86376,-0.862869 -2.43442,-1.513853 -3.65524,-1.513853 h -5.05549 z"
   id="path4"
   inkscape:connector-curvature="0" />
<path
   style="opacity:0.2;fill:#3d3d3d"
   d="m 103.04008,9.2831829 c -1.17123,0 -1.51566,0.7582791 -1.88984,1.8032791 -1.405653,0 -73.690978,0 -74.391552,0 C 26.126639,10.020723 25.445902,9.2831829 24.147541,9.2831829 H 12.606557 C 10.617541,9.2831829 9,10.900723 9,12.88974 v 102.78687 c 0,1.98902 1.617541,3.60656 3.606557,3.60656 H 116.29508 c 1.49131,0 2.70492,-1.21361 2.70492,-2.70582 V 20.101953 c 0,-1.240656 -0.66181,-2.838361 -1.5391,-3.716557 l -5.56401,-5.564017 c -0.87821,-0.8772951 -2.475,-1.5390981 -3.71657,-1.5390981 h -5.14024 z"
   id="path6"
   inkscape:connector-curvature="0" />
<path
   style="opacity:0.6;fill:#3d3d3d"
   d="m 103.04008,8.3662149 c -1.17123,0 -1.51566,0.759181 -1.88984,1.8032791 -1.405653,0 -73.690978,0 -74.391552,0 C 26.126639,9.1028549 25.445902,8.3662149 24.147541,8.3662149 H 12.606557 C 10.617541,8.3662149 9,9.9837569 9,11.972773 V 114.75964 c 0,1.98812 1.617541,3.60656 3.606557,3.60656 H 116.29508 c 1.49131,0 2.70492,-1.21361 2.70492,-2.70491 V 19.185888 c 0,-1.240656 -0.66181,-2.838361 -1.5391,-3.715656 l -5.56492,-5.5640171 c -0.8773,-0.878196 -2.47409,-1.54 -3.71566,-1.54 h -5.14024 z"
   id="path8"
   inkscape:connector-curvature="0" />
<linearGradient
   id="XMLID_17_"
   gradientUnits="userSpaceOnUse"
   x1="18.3169"
   y1="9.7632"
   x2="111.817"
   y2="126.2631"
   gradientTransform="matrix(0.90163932,0,0,0.90163932,6.2950821,6.5629369)">
	<stop
   offset="0"
   style="stop-color:#EDECF5"
   id="stop11" />
	<stop
   offset="1"
   style="stop-color:#D2D2DC"
   id="stop13" />
</linearGradient>
<path
   style="fill:url(#XMLID_17_)"
   d="m 116.82344,16.106789 -5.56492,-5.564016 c -0.70057,-0.7014761 -2.08549,-1.2749181 -3.0782,-1.2749181 h -5.14024 c -0.9918,0 -1.17123,0.8114751 -1.17123,1.8032781 H 26.234836 C 25.859754,10.025231 25.31877,9.2678549 24.148442,9.2678549 H 12.606557 c -1.487704,0 -2.7049176,1.2172131 -2.7049176,2.7049181 V 114.75964 c 0,1.48771 1.2172126,2.70492 2.7049176,2.70492 H 116.29508 c 0.99181,0 1.80328,-0.81147 1.80328,-1.80327 V 19.185888 c 0,-0.992705 -0.57434,-2.377623 -1.27492,-3.079099 z"
   id="path15"
   inkscape:connector-curvature="0" />
<linearGradient
   id="XMLID_18_"
   gradientUnits="userSpaceOnUse"
   x1="6.8672"
   y1="3.7847"
   x2="115.0378"
   y2="123.7556"
   gradientTransform="matrix(0.90163932,0,0,0.90163932,6.2950821,6.5629369)">
	<stop
   offset="0"
   style="stop-color:#D9D8E1"
   id="stop18" />
	<stop
   offset="1"
   style="stop-color:#BEBFC9"
   id="stop20" />
</linearGradient>
<path
   style="fill:url(#XMLID_18_)"
   d="m 103.04008,11.071133 -0.14606,0.01894 c -0.006,0.009 -0.12353,0.155983 -0.12353,0.882705 0,0.497705 -0.40304,0.901639 -0.90164,0.901639 H 26.234836 c -0.380492,0 -0.72041,-0.238934 -0.848442,-0.597787 -0.363362,-1.013442 -0.715902,-1.205492 -1.237952,-1.205492 H 12.606557 c -0.994508,0 -1.803278,0.809672 -1.803278,1.803279 V 114.75964 c 0,0.99542 0.80877,1.80328 1.803278,1.80328 H 116.29508 c 0.49681,0 0.90163,-0.40483 0.90163,-0.90163 V 20.087526 c 0,-0.74836 -0.48147,-1.911474 -1.01073,-2.440737 l -5.56492,-5.564016 c -0.52836,-0.529262 -1.69238,-1.01164 -2.44074,-1.01164 h -5.14024 z"
   id="path22"
   inkscape:connector-curvature="0" />
<polygon
   style="fill:#e1e1e8"
   points="22,51 21,53 104,53 106,51 "
   id="polygon24"
   transform="matrix(0.90163932,0,0,0.90163932,6.2950821,6.5629369)" />
<linearGradient
   id="XMLID_19_"
   gradientUnits="userSpaceOnUse"
   x1="63"
   y1="-10"
   x2="63"
   y2="67"
   gradientTransform="matrix(0.90163932,0,0,0.90163932,6.2950821,6.5629369)">
	<stop
   offset="0"
   style="stop-color:#D9D8E1"
   id="stop27" />
	<stop
   offset="1"
   style="stop-color:#C6C7D1"
   id="stop29" />
</linearGradient>
<rect
   x="26.131147"
   y="12.874412"
   style="fill:url(#XMLID_19_)"
   width="73.934425"
   height="39.672131"
   id="rect31" />
<path
   style="opacity:0.5;fill:#3d3d3d"
   d="m 48.67213,8.3662149 c -0.497705,0 -0.901639,0.403935 -0.901639,0.90164 V 52.546543 c 0,0.497705 0.403934,0.901639 0.901639,0.901639 h 51.39345 c 0.4977,0 0.90163,-0.403934 0.90163,-0.901639 V 9.2678549 c 0,-0.497705 -0.40393,-0.90164 -0.90163,-0.90164 H 48.67213 z M 88.344261,15.579331 V 46.235067 H 73.918031 V 15.579331 h 14.42623 z"
   id="path33"
   inkscape:connector-curvature="0" />
<linearGradient
   id="XMLID_20_"
   gradientUnits="userSpaceOnUse"
   x1="49.2505"
   y1="0.7505"
   x2="100.2505"
   y2="51.7505"
   gradientTransform="matrix(0.90163932,0,0,0.90163932,6.2950821,6.5629369)">
	<stop
   offset="0.1517"
   style="stop-color:#8B8BA0"
   id="stop36" />
	<stop
   offset="0.216"
   style="stop-color:#ADACBD"
   id="stop38" />
	<stop
   offset="0.2969"
   style="stop-color:#D1CFDD"
   id="stop40" />
	<stop
   offset="0.3626"
   style="stop-color:#E8E5F0"
   id="stop42" />
	<stop
   offset="0.4045"
   style="stop-color:#F0EDF7"
   id="stop44" />
	<stop
   offset="0.466"
   style="stop-color:#E7E4EE"
   id="stop46" />
	<stop
   offset="0.566"
   style="stop-color:#CFCDD7"
   id="stop48" />
	<stop
   offset="0.6067"
   style="stop-color:#C3C2CC"
   id="stop50" />
	<stop
   offset="1"
   style="stop-color:#D1D0DB"
   id="stop52" />
</linearGradient>
<path
   style="fill:url(#XMLID_20_)"
   d="M 48.67213,9.2678549 V 52.546543 h 51.39345 V 9.2678549 H 48.67213 z M 89.2459,47.136707 H 73.016392 V 14.677691 H 89.2459 v 32.459016 z"
   id="path54"
   inkscape:connector-curvature="0" />
<path
   style="fill:#c3c3d4"
   d="m 102.77049,114.75964 c 0,0.99271 -0.81147,1.80328 -1.80328,1.80328 H 27.032786 c -0.991803,0 -1.803278,-0.81057 -1.803278,-1.80328 V 59.759657 c 0,-0.991803 0.811475,-1.803279 1.803278,-1.803279 h 73.934424 c 0.99181,0 1.80328,0.811476 1.80328,1.803279 v 54.999983 z"
   id="path56"
   inkscape:connector-curvature="0" />
<linearGradient
   id="XMLID_21_"
   gradientUnits="userSpaceOnUse"
   x1="29.1641"
   y1="58.708"
   x2="97.3431"
   y2="108.2079"
   gradientTransform="matrix(0.90163932,0,0,0.90163932,6.2950821,6.5629369)">
	<stop
   offset="0.0056"
   style="stop-color:#FAFAFD"
   id="stop59" />
	<stop
   offset="1"
   style="stop-color:#FAFAFD"
   id="stop61" />
</linearGradient>
<rect
   x="26.131147"
   y="57.956379"
   style="fill:url(#XMLID_21_)"
   width="75.737701"
   height="48.688522"
   id="rect63" />
<radialGradient
   id="XMLID_22_"
   cx="41"
   cy="104"
   r="65.7345"
   gradientUnits="userSpaceOnUse"
   gradientTransform="matrix(0.90163932,0,0,0.90163932,6.2950821,6.5629369)">
	<stop
   offset="0.0056"
   style="stop-color:#90618D"
   id="stop66" />
	<stop
   offset="1"
   style="stop-color:#633E69"
   id="stop68" />
</radialGradient>
<rect
   x="26.131147"
   y="106.6449"
   style="fill:url(#XMLID_22_)"
   width="75.737701"
   height="10.819673"
   id="rect70" />
<linearGradient
   id="XMLID_23_"
   gradientUnits="userSpaceOnUse"
   x1="85"
   y1="50.5"
   x2="53"
   y2="50.5"
   gradientTransform="matrix(0.90163932,0,0,0.90163932,6.2950821,6.5629369)">
	<stop
   offset="0.0056"
   style="stop-color:#F5F5F5"
   id="stop73" />
	<stop
   offset="1"
   style="stop-color:#E4E2EC"
   id="stop75" />
</linearGradient>
<rect
   x="48.672131"
   y="51.644905"
   style="fill:url(#XMLID_23_)"
   width="51.39344"
   height="0.90163934"
   id="rect77" />
<linearGradient
   id="XMLID_24_"
   gradientUnits="userSpaceOnUse"
   x1="69"
   y1="4"
   x2="104"
   y2="4"
   gradientTransform="matrix(0.90163932,0,0,0.90163932,6.2950821,6.5629369)">
	<stop
   offset="0.0056"
   style="stop-color:#C5C5D5"
   id="stop80" />
	<stop
   offset="0.6685"
   style="stop-color:#FFFFFF"
   id="stop82" />
	<stop
   offset="1"
   style="stop-color:#CDCDDC"
   id="stop84" />
</linearGradient>
<rect
   x="48.672131"
   y="9.2678537"
   style="fill:url(#XMLID_24_)"
   width="51.39344"
   height="1.8032787"
   id="rect86" />
<linearGradient
   id="XMLID_25_"
   gradientUnits="userSpaceOnUse"
   x1="86"
   y1="8.5"
   x2="75.8947"
   y2="8.5">
	<stop
   offset="0.0056"
   style="stop-color:#FFFFFF"
   id="stop89" />
	<stop
   offset="1"
   style="stop-color:#E4E2EC"
   id="stop91" />
</linearGradient>
<polygon
   style="fill:url(#XMLID_25_)"
   points="91,8 92,9 74,9 75,8 "
   id="polygon93"
   transform="matrix(0.90163932,0,0,0.90163932,6.2950821,6.5629369)" />
<polygon
   style="fill:#e3e3f7"
   points="75,46 74,45 92,45 91,46 "
   id="polygon95"
   transform="matrix(0.90163932,0,0,0.90163932,6.2950821,6.5629369)" />
<linearGradient
   id="XMLID_26_"
   gradientUnits="userSpaceOnUse"
   x1="28"
   y1="69.5"
   x2="100"
   y2="69.5"
   gradientTransform="matrix(0.90163932,0,0,0.90163932,6.2950821,6.5629369)">
	<stop
   offset="0.0056"
   style="stop-color:#D9D8DB"
   id="stop98" />
	<stop
   offset="1"
   style="stop-color:#D4D4D9"
   id="stop100" />
</linearGradient>
<rect
   x="31.540983"
   y="68.776054"
   style="fill:url(#XMLID_26_)"
   width="64.91803"
   height="0.90163934"
   id="rect102" />
<linearGradient
   id="XMLID_27_"
   gradientUnits="userSpaceOnUse"
   x1="28"
   y1="79.5"
   x2="100"
   y2="79.5"
   gradientTransform="matrix(0.90163932,0,0,0.90163932,6.2950821,6.5629369)">
	<stop
   offset="0.0056"
   style="stop-color:#D9D8DB"
   id="stop105" />
	<stop
   offset="1"
   style="stop-color:#D4D4D9"
   id="stop107" />
</linearGradient>
<rect
   x="31.540983"
   y="77.79245"
   style="fill:url(#XMLID_27_)"
   width="64.91803"
   height="0.90163934"
   id="rect109" />
<linearGradient
   id="XMLID_28_"
   gradientUnits="userSpaceOnUse"
   x1="28"
   y1="89.5"
   x2="100"
   y2="89.5"
   gradientTransform="matrix(0.90163932,0,0,0.90163932,6.2950821,6.5629369)">
	<stop
   offset="0.0056"
   style="stop-color:#D9D8DB"
   id="stop112" />
	<stop
   offset="1"
   style="stop-color:#D4D4D9"
   id="stop114" />
</linearGradient>
<rect
   x="31.540983"
   y="86.808838"
   style="fill:url(#XMLID_28_)"
   width="64.91803"
   height="0.90163934"
   id="rect116" />
<linearGradient
   id="XMLID_29_"
   gradientUnits="userSpaceOnUse"
   x1="28"
   y1="99.5"
   x2="100"
   y2="99.5"
   gradientTransform="matrix(0.90163932,0,0,0.90163932,6.2950821,6.5629369)">
	<stop
   offset="0.0056"
   style="stop-color:#D9D8DB"
   id="stop119" />
	<stop
   offset="1"
   style="stop-color:#D4D4D9"
   id="stop121" />
</linearGradient>
<rect
   x="31.540983"
   y="95.825233"
   style="fill:url(#XMLID_29_)"
   width="64.91803"
   height="0.90163934"
   id="rect123" />
<linearGradient
   id="XMLID_30_"
   gradientUnits="userSpaceOnUse"
   x1="27"
   y1="122.5"
   x2="102.5"
   y2="122.5"
   gradientTransform="matrix(0.90163932,0,0,0.90163932,6.2950821,6.5629369)">
	<stop
   offset="0.0056"
   style="stop-color:#A16D9C"
   id="stop126" />
	<stop
   offset="1"
   style="stop-color:#9D689E"
   id="stop128" />
</linearGradient>
<rect
   x="26.131147"
   y="116.56293"
   style="fill:url(#XMLID_30_)"
   width="75.737701"
   height="0.90163934"
   id="rect130" />
<polygon
   style="fill:#adadb8"
   points="21,52.01 21,5 22,6 22,51 "
   id="polygon132"
   transform="matrix(0.90163932,0,0,0.90163932,6.2950821,6.5629369)" />
<polygon
   style="fill:#dadae0"
   points="105,5 105,52 106,51 106,5 "
   id="polygon134"
   transform="matrix(0.90163932,0,0,0.90163932,6.2950821,6.5629369)" />
<path
   style="fill:#d9d8db"
   d="m 20.721311,109.3498 c 0,0.99181 -0.811475,1.80329 -1.803279,1.80329 h -1.803278 c -0.991804,0 -1.803278,-0.81148 -1.803278,-1.80329 v -3.60655 c 0,-0.9918 0.811474,-1.80327 1.803278,-1.80327 h 1.803278 c 0.991804,0 1.803279,0.81147 1.803279,1.80327 v 3.60655 z"
   id="path136"
   inkscape:connector-curvature="0" />
<linearGradient
   id="XMLID_31_"
   gradientUnits="userSpaceOnUse"
   x1="13"
   y1="115"
   x2="13"
   y2="110"
   gradientTransform="matrix(0.90163932,0,0,0.90163932,6.2950821,6.5629369)">
	<stop
   offset="0.1798"
   style="stop-color:#7F7F7F"
   id="stop139" />
	<stop
   offset="1"
   style="stop-color:#3F3F3F"
   id="stop141" />
</linearGradient>
<rect
   x="15.311476"
   y="104.84162"
   style="fill:url(#XMLID_31_)"
   width="5.4098363"
   height="5.4098363"
   id="rect143" />
<linearGradient
   id="XMLID_32_"
   gradientUnits="userSpaceOnUse"
   x1="47.5"
   y1="5"
   x2="47.5"
   y2="55.9999"
   gradientTransform="matrix(0.90163932,0,0,0.90163932,6.2950821,6.5629369)">
	<stop
   offset="0.0056"
   style="stop-color:#ACACBA"
   id="stop146" />
	<stop
   offset="0.9775"
   style="stop-color:#EDEDED"
   id="stop148" />
</linearGradient>
<rect
   x="48.672131"
   y="11.071133"
   style="fill:url(#XMLID_32_)"
   width="0.90163934"
   height="40.573769"
   id="rect150" />
</svg>