<?xml version="1.0" encoding="UTF-8"?>
<svg xmlns="http://www.w3.org/2000/svg" xmlns:xlink="http://www.w3.org/1999/xlink" contentScriptType="text/ecmascript" zoomAndPan="magnify" baseProfile="tiny" contentStyleType="text/css" version="1.1" width="44px" preserveAspectRatio="xMidYMid meet" viewBox="0 0 44 44" height="44px" x="0px" y="0px">
    <g>
        <path d="M 36.544 19.304 C 36.600998 19.02 35.257 17.883001 34.989 17.616001 C 34.169 16.795002 33.347 15.975001 32.527 15.155001 C 37.319 14.851001 37.839 9.298 35.272 6.245001 C 33.889 4.601001 31.723 3.4850008 29.541 3.7360008 C 27.114 4.0160007 25.847 5.824001 25.439 8.065001 C 24.592 7.2180004 23.744999 6.3710003 22.897999 5.5230007 C 21.418999 4.0430007 19.200998 3.5780005 17.328 4.6080008 C 16.318998 5.1630006 15.495999 6.1870008 14.689999 6.9910007 C 13.609999 8.069 12.530998 9.147 11.451999 10.225 C 11.224998 10.452001 10.996999 10.679001 10.769999 10.906 C 10.682999 10.993 11.219998 12.146 11.299998 12.348001 C 12.094998 14.346001 14.3169985 15.375 16.331999 15.601001 C 17.752998 15.792001 15.482999 18.913 14.035999 18.607 C 13.664 18.528 13.775 17.967001 13.733999 17.675001 C 13.535999 16.454 13.058 15.261002 12.231999 14.329001 C 11.7 13.728002 11.058 13.291001 10.309999 13.011002 C 10.1449995 12.949001 9.191 12.489001 9.075 12.605001 C 8.252 13.428001 7.429 14.250002 6.606 15.073002 C 4.465 17.214003 1.1269999 19.620003 2.538 23.091002 C 3.2600002 24.865002 5.3170004 26.376001 6.629 27.689001 C 8.883 29.944 11.1380005 32.199 13.393 34.454002 C 14.7 35.761 16.064 37.600002 17.7 38.530003 C 19.467001 39.534004 21.743 39.236004 23.189001 37.791004 C 23.595001 37.385006 24.002 36.978004 24.408 36.572002 C 28.19 32.793003 31.971 29.012003 35.753002 25.232002 C 37.364 23.623 37.844 21.296 36.544 19.304 " fill-opacity="0.2" stroke-opacity="0.2"/>
        <path d="M 35.285 19.238 C 35.009 19.514 34.733 19.791 34.457 20.067001 C 34.693 19.830002 35.440002 19.392002 35.149002 19.101002 C 34.675003 18.629002 34.203003 18.156002 33.730003 17.684002 C 32.751003 16.705002 31.771004 15.726002 30.792004 14.747002 C 31.509003 14.269002 32.264004 14.310001 33.061005 14.142002 C 34.059006 13.931002 34.942005 13.327003 35.455006 12.439002 C 36.538006 10.561002 35.769005 8.198002 34.411007 6.687002 C 33.034008 5.155002 30.740007 4.1310024 28.707006 4.898002 C 27.711006 5.274002 26.937006 6.082002 26.591007 7.088002 C 26.285007 7.979002 26.367006 8.962002 25.821007 9.774002 C 24.972008 8.925002 24.124006 8.077002 23.275007 7.228002 C 22.122007 6.0740023 21.037006 4.846002 19.220007 4.999002 C 17.705008 5.126002 16.792007 6.219002 15.797007 7.212002 C 14.723006 8.285002 13.649007 9.358002 12.5750065 10.431002 C 12.336006 10.670002 12.098006 10.908002 11.859007 11.146002 C 11.707006 11.298002 12.495007 12.601002 12.599007 12.737001 C 13.172007 13.492002 14.005007 14.018002 14.892007 14.328001 C 15.892007 14.678001 17.524006 14.458001 17.708008 15.830001 C 17.869007 17.033 17.033009 18.239 16.101007 18.909 C 15.319008 19.471 13.773007 20.03 13.074007 19.034 C 12.708007 18.512001 12.779007 17.485 12.589007 16.877 C 12.275007 15.872001 11.689008 14.918001 10.813007 14.309001 C 10.685007 14.220001 9.472008 13.534001 9.348007 13.659001 C 9.073008 13.934001 8.797008 14.210001 8.522007 14.485002 C 7.4340067 15.573002 6.347007 16.660002 5.259007 17.748001 C 4.220007 18.787 3.139007 19.754002 3.1420069 21.37 C 3.1390069 22.653 3.8340068 23.567001 4.683007 24.416 C 8.577007 28.310001 12.471006 32.203 16.366007 36.097 C 16.708008 36.44 17.040007 36.799 17.396008 37.127 C 18.852007 38.586998 21.174007 38.481 22.600008 37.056 C 24.100008 35.556 25.601007 34.057 27.101007 32.557 C 29.235008 30.424 31.368008 28.291 33.501007 26.159 C 34.064007 25.596 34.627007 25.034 35.190006 24.471 C 36.622 23.034 36.759 20.711 35.285 19.238 " fill-opacity="0.4" stroke-opacity="0.4"/>
        <linearGradient x1="256.2998" gradientTransform="matrix(0.7071 0.7071 0.7071 -0.7071 -311.3517 -33.5288)" y1="199.9023" x2="290.2511" gradientUnits="userSpaceOnUse" y2="199.9023" xlink:type="simple" xlink:actuate="onLoad" id="SVGID_1_" xlink:show="other">
            <stop stop-color="#ffffff" offset="0"/>
            <stop stop-color="#b2b2b2" offset="1"/>
        </linearGradient>
        <path fill="url(#SVGID_1_)" d="M 34.457 19.128 C 32.757 17.428 31.057001 15.728001 29.356 14.028 C 29.025002 13.698 29.543001 13.316 29.834002 13.068 C 30.210001 12.747 30.658 12.519 31.125002 12.36 C 31.843002 12.113 32.618004 12.198999 33.313004 11.905 C 35.864002 10.826 34.647003 7.4739995 33.111004 6.106 C 31.522003 4.689 28.152004 4.107 27.603004 6.888 C 27.499004 7.413 26.594004 11.267 25.505005 10.1779995 C 24.481005 9.153999 23.457005 8.129999 22.434006 7.1049995 C 21.475006 6.1459994 20.535006 4.9349995 18.992006 5.2779994 C 17.846006 5.5319996 16.915007 6.8119993 16.126007 7.6019993 C 15.1860075 8.541999 14.245007 9.481999 13.304007 10.422999 C 13.065006 10.662 13.662006 11.264999 13.841006 11.438999 C 14.686007 12.257999 15.7850065 12.400999 16.887007 12.615999 C 19.671007 13.157 19.081007 16.539 17.670006 18.123999 C 16.301006 19.661999 12.947006 20.874998 11.870006 18.324999 C 11.412005 17.239998 11.610005 16.093998 10.880006 15.068998 C 10.751006 14.887999 9.859006 13.869998 9.599006 14.130999 C 8.683005 15.046999 7.7660055 15.963999 6.8500056 16.88 C 6.0790057 17.651 4.8120055 18.564999 4.446006 19.637999 C 3.7390058 21.703999 6.3890057 23.529999 7.649006 24.789999 C 9.892006 27.032999 12.135006 29.275 14.378006 31.519 C 15.653006 32.794 16.879005 34.162 18.223005 35.364998 C 20.345005 37.489 22.513004 34.553997 23.910006 33.156998 C 26.420006 30.647997 28.930006 28.137997 31.438005 25.629997 C 32.908 24.156 36.759 21.432 34.457 19.128 "/>
        <g stroke-opacity="0.3" fill-opacity="0.3">
            <path fill="#ffffff" d="M 32.514 17.186 C 31.653 16.325 30.792 15.464001 29.931 14.603001 C 29.75 14.422001 29.107 13.990001 29.262 13.735001 C 29.789999 12.865001 30.778 12.406 31.737 12.189001 C 32.926 11.920001 34.053 11.934001 34.593 10.609001 C 35.034 9.524001 34.712997 8.264001 34.12 7.302001 C 33.043 5.5560007 30.081 3.792001 28.272999 5.601001 C 27.39 6.486001 27.586998 7.854001 27.092999 8.936001 C 27.017998 9.101001 26.012 10.685 25.741999 10.415001 C 24.859999 9.533001 23.977999 8.651001 23.095999 7.769001 C 22.321999 6.995001 21.401999 5.720001 20.324999 5.352001 C 18.748 4.814001 17.749998 5.978001 16.765 6.9620013 C 15.717999 8.009002 14.669999 9.056002 13.622999 10.104001 C 13.320999 10.405001 13.141999 10.433001 13.3689995 10.835001 C 13.792 11.584001 14.566999 12.050001 15.365999 12.309001 C 16.497 12.676001 17.741 12.536001 18.476 13.655001 C 19.104 14.612 18.962 15.868001 18.503 16.862001 C 17.615 18.784002 14.842 20.760002 12.747 19.384 C 11.57 18.611 11.818 17.338001 11.426 16.172 C 11.153999 15.360001 10.657 14.574001 9.870999 14.178001 C 9.349999 13.916001 7.9219995 15.806002 7.551999 16.176 C 6.7139993 17.014 5.875999 17.852001 5.038999 18.689001 C 3.4779992 20.250002 4.727999 21.868 5.920999 23.062 C 6.250999 23.392 6.579999 23.722 6.908999 24.051 C 7.254999 24.398 7.787999 23.929 8.194999 23.762001 C 9.7179985 23.134 11.265999 22.566002 12.825998 22.039001 C 15.964998 20.979002 19.157997 20.081001 22.372997 19.283 C 24.763998 18.69 27.167997 18.153002 29.582996 17.673 C 30.381 17.514 31.7 16.987 32.514 17.186 "/>
        </g>
        <path fill="#ffffff" d="M 34.457 22.607 C 35.791 21.271 35.030003 19.701 33.927002 18.598 C 32.86 17.531 31.792002 16.463 30.724003 15.3949995 C 30.309002 14.98 29.895002 14.566 29.480003 14.150999 C 29.086004 13.756999 29.258003 13.617999 29.688004 13.200999 C 30.547003 12.365999 31.607004 12.266999 32.720005 12.075999 C 33.935005 11.867999 34.740005 10.865 34.791004 9.655999 C 34.892006 7.281999 32.614006 4.9569993 30.269005 4.8769994 C 29.223005 4.8409996 28.214005 5.3369994 27.779005 6.3229995 C 27.283005 7.4469995 27.442005 8.671999 26.633005 9.697 C 26.431005 9.952999 25.936005 10.608 25.628006 10.299999 C 25.198006 9.870999 24.770006 9.441999 24.341005 9.013 C 23.362005 8.033999 22.383005 7.0539994 21.403006 6.075 C 18.915005 3.5859997 16.249006 7.4769998 14.614006 9.1119995 C 14.211006 9.514999 13.808006 9.917999 13.406006 10.32 C 13.076006 10.65 13.438005 11.007 13.721005 11.316 C 15.194006 12.922 18.306005 12.005 18.835005 14.534 C 19.331005 16.907 17.139006 19.348 14.894005 19.748001 C 13.899005 19.925001 12.811005 19.684002 12.173005 18.849 C 11.388005 17.823002 11.697005 16.37 10.999005 15.249001 C 10.914005 15.111001 9.879005 13.848001 9.642005 14.085001 C 9.3390045 14.388001 9.036005 14.691001 8.733005 14.994001 C 7.6660047 16.061 6.5990047 17.128002 5.531005 18.196001 C 4.434005 19.293001 3.720005 20.86 5.035005 22.174002 C 5.4330053 22.572002 5.831005 22.970001 6.229005 23.367002 C 8.311005 25.449003 10.392005 27.531002 12.474005 29.612003 C 14.267005 31.405003 16.060005 33.199005 17.853004 34.992004 C 18.708004 35.847004 19.790005 36.427006 21.013004 35.847004 C 21.627005 35.556004 22.121004 34.941006 22.595005 34.467003 C 26.549 30.515 30.503 26.561 34.457 22.607 M 21.412 35.073 C 19.515001 36.960003 17.342001 33.901 16.125 32.684002 C 13.894 30.453003 11.662001 28.221003 9.43 25.990002 C 8.063001 24.624002 6.6970005 23.257002 5.3300004 21.890001 C 4.1010003 20.661001 4.9690003 19.336002 5.9340005 18.371002 C 6.9970007 17.308002 8.06 16.245003 9.124001 15.182002 C 9.417001 14.889002 9.6050005 14.446002 9.987 14.729002 C 11.108001 15.560002 11.0390005 16.837002 11.345 18.045002 C 12.095 21.008001 15.72 20.465002 17.498001 18.873001 C 19.223001 17.330002 20.385002 13.807001 17.746 12.479001 C 16.720001 11.962001 15.517 12.128001 14.523001 11.4660015 C 14.385001 11.3740015 13.590001 10.7160015 13.710001 10.595001 C 13.820001 10.485002 13.931001 10.3740015 14.041001 10.264001 C 15.075002 9.2300005 16.108002 8.1970005 17.142002 7.163001 C 18.118002 6.187001 19.313002 4.948001 20.763002 6.0480013 C 21.651003 6.721001 22.404003 7.661001 23.189003 8.446001 C 24.020002 9.277001 24.851004 10.107001 25.681004 10.938002 C 25.954004 11.211001 27.169004 9.667002 27.305004 9.423001 C 27.904003 8.342001 27.684004 6.7750015 28.560003 5.892001 C 30.577003 3.880001 33.833004 6.731001 34.300003 8.795001 C 34.540005 9.860001 34.233 11.0720005 33.152004 11.529001 C 32.146004 11.954001 31.071005 11.793001 30.068005 12.399001 C 29.835005 12.540001 28.440004 13.696001 28.702005 13.958001 C 28.990005 14.246001 29.278006 14.534001 29.566006 14.822001 C 30.652006 15.908001 31.739006 16.995 32.826004 18.081001 C 33.589005 18.844002 34.764004 19.687 34.764004 20.87 C 34.764004 21.827002 34.098003 22.386002 33.488003 22.996 C 32.667004 23.817 31.845003 24.639 31.024002 25.460001 C 27.821 28.664 24.616 31.869 21.412 35.073 "/>
    </g>
    <g>
        <path d="M 36.534 39.688 L 26.1 39.688 C 24.51 39.714 23.371 38.979 22.854 38.119 L 22.854 38.119 C 22.33 37.272 22.296 36.454998 22.292 36.104 L 22.292 36.104 C 22.292 36.055 22.292 36.016 22.294 35.985 L 22.294 35.985 L 22.282001 25.389 C 22.279001 25.35 22.276001 25.293 22.276001 25.225 L 22.276001 25.225 C 22.282001 24.871 22.315 24.055 22.846 23.209 L 22.846 23.209 C 23.362001 22.35 24.502 21.618 26.086 21.644 L 26.086 21.644 L 36.52 21.644 C 38.104 21.618 39.245 22.348999 39.760002 23.206999 L 39.760002 23.206999 C 40.289 24.050999 40.323 24.866999 40.327003 25.224998 L 40.327003 25.224998 C 40.327003 25.310999 40.325005 25.369999 40.325005 25.331 L 40.325005 25.331 L 40.337006 35.976997 C 40.339005 36.003998 40.341007 36.045998 40.341007 36.106 L 40.341007 36.106 C 40.333008 36.459 40.301006 37.275997 39.77601 38.122997 L 39.77601 38.122997 C 39.26601 38.968998 38.161007 39.69 36.62001 39.69 L 36.62001 39.69 C 36.591 39.689 36.563 39.689 36.534 39.688 L 36.534 39.688 z M 24.256 25.271 L 24.268 36.049 L 24.264 36.099 L 24.264 36.103 C 24.26 36.251 24.307 36.734 24.524 37.06 L 24.524 37.06 C 24.753 37.373 25.024 37.687 26.102 37.711002 L 26.102 37.711002 L 36.537 37.711002 C 37.61 37.687004 37.879997 37.373 38.106 37.062004 L 38.106 37.062004 C 38.325 36.739002 38.371998 36.255005 38.367 36.105003 L 38.367 36.105003 C 38.367 36.054005 38.364002 36.047005 38.364002 36.047005 L 38.364002 36.047005 L 39.352 35.998005 L 38.364002 35.998005 L 38.354004 25.286005 C 38.352005 25.286005 38.354004 25.272005 38.354004 25.223005 L 38.354004 25.223005 C 38.358006 25.069006 38.311005 24.591005 38.093002 24.270006 L 38.093002 24.270006 C 37.866 23.957006 37.596 23.647007 36.520004 23.621006 L 36.520004 23.621006 L 26.086 23.621006 C 25.009 23.647005 24.738 23.962006 24.509 24.272007 L 24.509 24.272007 C 24.292002 24.593006 24.247002 25.075006 24.251001 25.223007 L 24.251001 25.223007 L 24.251001 25.223007 L 24.256 25.271 L 24.256 25.271 z " fill-opacity="0.2" stroke-opacity="0.2"/>
        <path d="M 39.352 36.0 L 39.339 25.335 C 39.339 25.335 39.548 22.634998 36.522 22.634998 L 26.088 22.634998 C 23.063 22.634998 23.269999 25.335 23.269999 25.335 L 23.281 36.0 C 23.281 36.0 23.077 38.702 26.099 38.702 L 36.534 38.702 C 39.559 38.702 39.352 36.0 39.352 36.0 z " fill-opacity="0.4" stroke-opacity="0.4"/>
        <linearGradient x1="620.8193" gradientTransform="matrix(1 0 0 1 -589.5078 -1667.625)" y1="1689.2373" x2="620.8193" gradientUnits="userSpaceOnUse" y2="1712.8318" xlink:type="simple" xlink:actuate="onLoad" id="SVGID_2_" xlink:show="other">
            <stop stop-color="#3f6bff" offset="0"/>
            <stop stop-color="#003da1" offset="1"/>
        </linearGradient>
        <path fill="url(#SVGID_2_)" d="M 39.352 35.012 L 39.339 24.348001 C 39.339 24.348001 39.548 21.647001 36.522 21.647001 L 26.088 21.647001 C 23.063 21.647001 23.269999 24.348001 23.269999 24.348001 L 23.283998 35.012 C 23.283998 35.012 23.079998 37.714 26.099998 37.714 L 36.537 37.714 C 39.559 37.714 39.352 35.012 39.352 35.012 z "/>
        <linearGradient x1="233.3086" gradientTransform="matrix(1 0 0 1 -202.002 -879.0039)" y1="901.1318" x2="233.3086" gradientUnits="userSpaceOnUse" y2="908.791" xlink:type="simple" xlink:actuate="onLoad" id="SVGID_3_" xlink:show="other">
            <stop stop-color="#c9ebff" offset="0"/>
            <stop stop-color="#00abe3" offset="1"/>
        </linearGradient>
        <path fill="url(#SVGID_3_)" d="M 38.818 29.788 L 38.806 24.623001 C 38.806 24.623001 38.998 22.129002 36.173 22.129002 L 26.43 22.129002 C 23.604 22.129002 23.797 24.623001 23.797 24.623001 L 23.809 29.788002 L 38.818 29.788002 z " fill-opacity="0.8" stroke-opacity="0.8"/>
    </g>
</svg>
