<?xml version="1.0" encoding="UTF-8" standalone="no"?>
<!-- Created with Inkscape (http://www.inkscape.org/) -->

<svg
   xmlns:dc="http://purl.org/dc/elements/1.1/"
   xmlns:cc="http://creativecommons.org/ns#"
   xmlns:rdf="http://www.w3.org/1999/02/22-rdf-syntax-ns#"
   xmlns:svg="http://www.w3.org/2000/svg"
   xmlns="http://www.w3.org/2000/svg"
   xmlns:xlink="http://www.w3.org/1999/xlink"
   xmlns:sodipodi="http://sodipodi.sourceforge.net/DTD/sodipodi-0.dtd"
   xmlns:inkscape="http://www.inkscape.org/namespaces/inkscape"
   width="256"
   height="256"
   id="svg2"
   sodipodi:version="0.32"
   inkscape:version="0.48.2 r9819"
   version="1.0"
   sodipodi:docname="stock_network.svg"
   inkscape:output_extension="org.inkscape.output.svg.inkscape"
   sodipodi:modified="TRUE">
  <defs
     id="defs4">
    <linearGradient
       inkscape:collect="always"
       id="linearGradient24698">
      <stop
         style="stop-color:#ffffff;stop-opacity:1;"
         offset="0"
         id="stop24700" />
      <stop
         style="stop-color:#ffffff;stop-opacity:0;"
         offset="1"
         id="stop24702" />
    </linearGradient>
    <linearGradient
       id="linearGradient21776">
      <stop
         style="stop-color:#000000;stop-opacity:1;"
         offset="0"
         id="stop21778" />
      <stop
         id="stop21784"
         offset="0.5"
         style="stop-color:#373737;stop-opacity:1;" />
      <stop
         style="stop-color:#545454;stop-opacity:1;"
         offset="1"
         id="stop21780" />
    </linearGradient>
    <linearGradient
       id="linearGradient20799">
      <stop
         style="stop-color:#5f5f5f;stop-opacity:1;"
         offset="0"
         id="stop20801" />
      <stop
         style="stop-color:#a0a0a0;stop-opacity:1;"
         offset="1"
         id="stop20803" />
    </linearGradient>
    <linearGradient
       id="linearGradient19818">
      <stop
         style="stop-color:#b3b3b3;stop-opacity:1;"
         offset="0"
         id="stop19820" />
      <stop
         style="stop-color:#e0e0e0;stop-opacity:1;"
         offset="1"
         id="stop19822" />
    </linearGradient>
    <linearGradient
       id="linearGradient16886">
      <stop
         style="stop-color:#676767;stop-opacity:1;"
         offset="0"
         id="stop16888" />
      <stop
         id="stop16894"
         offset="0.28460741"
         style="stop-color:#616161;stop-opacity:1;" />
      <stop
         style="stop-color:#bbbbbb;stop-opacity:1;"
         offset="0.5122323"
         id="stop16896" />
      <stop
         style="stop-color:#ffffff;stop-opacity:1;"
         offset="1"
         id="stop16890" />
    </linearGradient>
    <linearGradient
       id="linearGradient10994">
      <stop
         style="stop-color:#b0b0b0;stop-opacity:0;"
         offset="0"
         id="stop10996" />
      <stop
         id="stop11002"
         offset="0.46590909"
         style="stop-color:#ffffff;stop-opacity:1;" />
      <stop
         style="stop-color:#949494;stop-opacity:1;"
         offset="0.93181819"
         id="stop11004" />
      <stop
         style="stop-color:#949494;stop-opacity:0;"
         offset="1"
         id="stop10998" />
    </linearGradient>
    <linearGradient
       id="linearGradient6129">
      <stop
         style="stop-color:#747474;stop-opacity:1;"
         offset="0"
         id="stop6131" />
      <stop
         id="stop6137"
         offset="0.5"
         style="stop-color:#eaeaea;stop-opacity:1;" />
      <stop
         style="stop-color:#c4c4c4;stop-opacity:1;"
         offset="0.75"
         id="stop6139" />
      <stop
         style="stop-color:#ffffff;stop-opacity:1;"
         offset="1"
         id="stop6133" />
    </linearGradient>
    <linearGradient
       inkscape:collect="always"
       xlink:href="#linearGradient19818"
       id="linearGradient17515"
       gradientUnits="userSpaceOnUse"
       gradientTransform="matrix(0.75573552,0,0,0.75573552,32.297066,25.961138)"
       x1="107.91725"
       y1="96.608521"
       x2="65.772636"
       y2="16.110321" />
    <linearGradient
       inkscape:collect="always"
       xlink:href="#linearGradient6129"
       id="linearGradient17517"
       gradientUnits="userSpaceOnUse"
       gradientTransform="matrix(0.75573552,0,0,0.75573552,32.297066,25.961138)"
       x1="64.418236"
       y1="90.553123"
       x2="73.781937"
       y2="129.62103" />
    <linearGradient
       inkscape:collect="always"
       xlink:href="#linearGradient10994"
       id="linearGradient17519"
       gradientUnits="userSpaceOnUse"
       gradientTransform="matrix(0.75573552,0,0,0.75573552,32.297066,25.961138)"
       x1="99.311035"
       y1="117.01833"
       x2="100.79892"
       y2="122.07417" />
    <linearGradient
       inkscape:collect="always"
       xlink:href="#linearGradient16886"
       id="linearGradient17521"
       gradientUnits="userSpaceOnUse"
       gradientTransform="matrix(0.80200632,0,0,0.80200632,29.376605,21.617859)"
       x1="55.532738"
       y1="92.655975"
       x2="53.538322"
       y2="108.63219" />
    <linearGradient
       inkscape:collect="always"
       xlink:href="#linearGradient10994"
       id="linearGradient17523"
       gradientUnits="userSpaceOnUse"
       gradientTransform="matrix(0.75573552,0,0,0.75573552,32.297066,25.961138)"
       x1="13.125309"
       y1="108.18014"
       x2="7.2367773"
       y2="108.4483" />
    <linearGradient
       inkscape:collect="always"
       xlink:href="#linearGradient20799"
       id="linearGradient17525"
       gradientUnits="userSpaceOnUse"
       gradientTransform="matrix(0.75573552,0,0,0.75573552,32.297066,25.961138)"
       x1="57.706955"
       y1="88.513283"
       x2="51.685875"
       y2="63.940647" />
    <linearGradient
       inkscape:collect="always"
       xlink:href="#linearGradient21776"
       id="linearGradient17527"
       gradientUnits="userSpaceOnUse"
       gradientTransform="matrix(0.75573552,0,0,0.75573552,32.297066,25.961138)"
       x1="58.222721"
       y1="11.919148"
       x2="50.957073"
       y2="111.56588" />
    <linearGradient
       inkscape:collect="always"
       xlink:href="#linearGradient24698"
       id="linearGradient17529"
       gradientUnits="userSpaceOnUse"
       gradientTransform="matrix(0.75573552,0,0,0.75573552,32.297066,25.961138)"
       x1="18.649942"
       y1="-36.574295"
       x2="55.255104"
       y2="49.461922" />
    <linearGradient
       inkscape:collect="always"
       xlink:href="#linearGradient19818"
       id="linearGradient17531"
       gradientUnits="userSpaceOnUse"
       gradientTransform="matrix(0.75573552,0,0,0.75573552,32.297066,25.961138)"
       x1="107.91725"
       y1="96.608521"
       x2="65.772636"
       y2="16.110321" />
    <linearGradient
       inkscape:collect="always"
       xlink:href="#linearGradient6129"
       id="linearGradient17533"
       gradientUnits="userSpaceOnUse"
       gradientTransform="matrix(0.75573552,0,0,0.75573552,32.297066,25.961138)"
       x1="64.418236"
       y1="90.553123"
       x2="73.781937"
       y2="129.62103" />
    <linearGradient
       inkscape:collect="always"
       xlink:href="#linearGradient10994"
       id="linearGradient17535"
       gradientUnits="userSpaceOnUse"
       gradientTransform="matrix(0.75573552,0,0,0.75573552,32.297066,25.961138)"
       x1="99.311035"
       y1="117.01833"
       x2="100.79892"
       y2="122.07417" />
    <linearGradient
       inkscape:collect="always"
       xlink:href="#linearGradient16886"
       id="linearGradient17537"
       gradientUnits="userSpaceOnUse"
       gradientTransform="matrix(0.80200632,0,0,0.80200632,29.376605,21.617859)"
       x1="55.532738"
       y1="92.655975"
       x2="53.538322"
       y2="108.63219" />
    <linearGradient
       inkscape:collect="always"
       xlink:href="#linearGradient10994"
       id="linearGradient17539"
       gradientUnits="userSpaceOnUse"
       gradientTransform="matrix(0.75573552,0,0,0.75573552,32.297066,25.961138)"
       x1="13.125309"
       y1="108.18014"
       x2="7.2367773"
       y2="108.4483" />
    <linearGradient
       inkscape:collect="always"
       xlink:href="#linearGradient20799"
       id="linearGradient17541"
       gradientUnits="userSpaceOnUse"
       gradientTransform="matrix(0.75573552,0,0,0.75573552,32.297066,25.961138)"
       x1="57.706955"
       y1="88.513283"
       x2="51.685875"
       y2="63.940647" />
    <linearGradient
       inkscape:collect="always"
       xlink:href="#linearGradient21776"
       id="linearGradient17543"
       gradientUnits="userSpaceOnUse"
       gradientTransform="matrix(0.75573552,0,0,0.75573552,32.297066,25.961138)"
       x1="58.222721"
       y1="11.919148"
       x2="50.957073"
       y2="111.56588" />
    <linearGradient
       inkscape:collect="always"
       xlink:href="#linearGradient24698"
       id="linearGradient17545"
       gradientUnits="userSpaceOnUse"
       gradientTransform="matrix(0.75573552,0,0,0.75573552,32.297066,25.961138)"
       x1="18.649942"
       y1="-36.574295"
       x2="55.255104"
       y2="49.461922" />
  </defs>
  <sodipodi:namedview
     id="base"
     pagecolor="#ffffff"
     bordercolor="#666666"
     borderopacity="1.0"
     gridtolerance="10000"
     guidetolerance="10"
     objecttolerance="10"
     inkscape:pageopacity="0.0"
     inkscape:pageshadow="2"
     inkscape:zoom="1.0725342"
     inkscape:cx="202.74674"
     inkscape:cy="217.73528"
     inkscape:document-units="px"
     inkscape:current-layer="layer1"
     showguides="true"
     inkscape:guide-bbox="true"
     width="128px"
     height="128px"
     inkscape:window-width="1680"
     inkscape:window-height="1002"
     inkscape:window-x="38"
     inkscape:window-y="24"
     showgrid="false"
     inkscape:window-maximized="0" />
  <metadata
     id="metadata7">
    <rdf:RDF>
      <cc:Work
         rdf:about="">
        <dc:format>image/svg+xml</dc:format>
        <dc:type
           rdf:resource="http://purl.org/dc/dcmitype/StillImage" />
        <dc:title></dc:title>
      </cc:Work>
    </rdf:RDF>
  </metadata>
  <g
     inkscape:label="Layer 1"
     inkscape:groupmode="layer"
     id="layer1"
     transform="translate(0,128)">
    <g
       id="g17547">
      <g
         transform="matrix(2.012625,-9.9403783e-4,9.9403783e-4,2.012625,-62.16134,-160.84544)"
         id="g17483">
        <path
           sodipodi:nodetypes="ccccccc"
           id="path17485"
           d="m 34.746228,95.082404 86.078272,9.643706 2.39697,-0.57444 3.6087,-72.935974 -2.36556,-0.580559 -86.611969,-0.641801 -3.106413,65.089068 z"
           style="fill:url(#linearGradient17515);fill-opacity:1;fill-rule:evenodd;stroke:#dcdcdc;stroke-width:1.57595146;stroke-linecap:round;stroke-linejoin:round;stroke-miterlimit:4;stroke-opacity:0.70792081;stroke-dasharray:none"
           inkscape:connector-curvature="0" />
        <path
           sodipodi:nodetypes="ccccccccc"
           id="path17487"
           d="m 38.200573,113.85336 30.8461,-1.89758 c 4.084371,2.63127 9.918742,2.71473 13.869648,2.19673 l 14.899735,8.0209 14.975314,-4.48417 -27.035054,-11.87443 -14.799886,-1.61873 -33.082585,3.72529 0.326728,5.93199 z"
           style="opacity:0.69724767;fill:#000000;fill-opacity:1;fill-rule:evenodd;stroke:none"
           inkscape:connector-curvature="0" />
        <path
           sodipodi:nodetypes="cccccccccccccc"
           id="path17489"
           d="m 38.324599,108.01925 0.36774,4.54152 30.77052,-1.82987 c 4.084371,2.63128 9.632148,2.57144 13.583054,2.05344 l 14.899736,8.30749 15.408221,-4.50901 c 0.0541,-1.09668 0.17063,-2.06835 -1.52573,-2.91498 l -17.939061,-7.50928 c -0.441892,-0.2131 -0.79067,-0.43467 -0.843182,-0.96945 l -0.06591,-1.61759 -11.975839,-1.74285 -10.598344,2.20188 -28.350751,1.02623 c -2.306241,0.11228 -3.799787,1.28731 -3.73046,2.96247 z"
           style="fill:url(#linearGradient17517);fill-opacity:1;fill-rule:evenodd;stroke:#c3c3c3;stroke-width:0.27955699px;stroke-linecap:round;stroke-linejoin:round;stroke-opacity:1"
           inkscape:connector-curvature="0" />
        <path
           sodipodi:nodetypes="ccccc"
           id="path17491"
           d="m 97.946628,121.13219 c 0.0083,-1.80292 -0.926274,-2.91113 -2.456277,-3.74643 l 15.382749,-4.06898 c 2.26605,0.62027 2.67129,1.78638 2.50589,3.37427 l -15.432362,4.44114 z"
           style="fill:url(#linearGradient17519);fill-opacity:1;fill-rule:evenodd;stroke:none"
           inkscape:connector-curvature="0" />
        <path
           sodipodi:nodetypes="ccccc"
           id="path17493"
           d="M 73.788364,84.024451 71.314086,106.89965 86.6571,109.11288 89.076328,84.618176 73.788364,84.024451 z"
           style="fill:url(#linearGradient17521);fill-opacity:1;fill-rule:evenodd;stroke:none"
           inkscape:connector-curvature="0" />
        <path
           sodipodi:nodetypes="ccccc"
           id="path17495"
           d="m 86.868124,109.2252 1.316128,-1.10671 0.669178,-8.184555 -1.356294,0.602495 -0.629012,8.68877 z"
           style="fill:#909090;fill-opacity:1;fill-rule:evenodd;stroke:none"
           inkscape:connector-curvature="0" />
        <path
           sodipodi:nodetypes="cc"
           id="path17497"
           d="m 87.497136,100.53643 -0.687115,8.57256"
           style="fill:none;stroke:#eaeaea;stroke-width:0.40100318;stroke-linecap:round;stroke-linejoin:round;stroke-miterlimit:4;stroke-opacity:1;stroke-dasharray:none"
           inkscape:connector-curvature="0" />
        <path
           style="fill:#0066ff;fill-rule:evenodd;stroke:#000000;stroke-width:0.24998674px;stroke-linecap:butt;stroke-linejoin:miter;stroke-opacity:1"
           d="m 37.08163,91.779336 81.8447,8.344904 3.3994,-65.386404 -82.332183,-1.782803 -2.911917,58.824303 z"
           id="path17499"
           sodipodi:nodetypes="ccccc"
           inkscape:connector-curvature="0" />
        <path
           style="fill:#a2a2a2;fill-opacity:1;fill-rule:evenodd;stroke:none"
           d="m 38.760057,112.62849 30.702802,-1.89759 c 4.084371,2.63128 9.632148,2.57144 13.583054,2.05344 l 14.899736,8.30749 c 0.160177,-1.45642 -0.830852,-2.70969 -2.363623,-3.62438 L 83.306562,111.0383 c -5.045147,0.3728 -9.61627,0.33929 -13.510213,-2.33522 l -27.064111,1.43253 c -2.204393,0.0409 -3.799325,0.82673 -3.972181,2.49288 z"
           id="path17501"
           sodipodi:nodetypes="ccccccccc"
           inkscape:connector-curvature="0" />
        <path
           sodipodi:nodetypes="ccccc"
           id="path17503"
           d="m 38.602134,112.61076 c 0.567218,-1.98227 2.334548,-2.44203 4.280999,-2.48979 l -0.806045,-5.06913 c -1.385205,0.006 -3.791401,0.83589 -3.761547,2.84803 l 0.286593,4.71089 z"
           style="fill:url(#linearGradient17523);fill-opacity:1;fill-rule:evenodd;stroke:none"
           inkscape:connector-curvature="0" />
        <path
           id="path17505"
           d="m 97.945649,121.09183 c 0.160177,-1.45642 -0.830852,-2.70969 -2.363623,-3.62438 L 83.306562,111.0383 c -5.045147,0.3728 -9.61627,0.33929 -13.510213,-2.33522 l -27.064111,1.43253 c -2.204393,0.0409 -3.799325,0.82673 -3.972181,2.49288"
           style="fill:none;stroke:#ffffff;stroke-width:0.27962214;stroke-linecap:round;stroke-linejoin:round;stroke-miterlimit:4;stroke-opacity:1;stroke-dasharray:none"
           inkscape:connector-curvature="0" />
        <path
           style="fill:url(#linearGradient17525);fill-opacity:1;fill-rule:evenodd;stroke:none"
           d="m 35.164033,94.446379 85.522737,9.708981 3.61814,-72.816395 -86.002564,-0.646827 -3.138313,63.754241 z"
           id="path17507"
           sodipodi:nodetypes="ccccc"
           inkscape:connector-curvature="0" />
        <path
           sodipodi:nodetypes="ccccc"
           id="path17509"
           d="M 36.818292,92.681196 118.50994,101.34541 121.66717,33.695257 39.660056,32.6591 36.818292,92.681196 z"
           style="fill:url(#linearGradient17527);fill-opacity:1;fill-rule:evenodd;stroke:none"
           inkscape:connector-curvature="0" />
        <path
           style="fill:#0043cc;fill-opacity:1;fill-rule:evenodd;stroke:none"
           d="m 37.527418,92.122527 80.842032,8.520393 3.15724,-66.385674 -81.451783,-1.186614 -2.547489,59.051895 z"
           id="path17511"
           sodipodi:nodetypes="ccccc"
           inkscape:connector-curvature="0" />
        <path
           id="path17513"
           d="M 40.066972,33.069775 37.681681,88.096767 120.71812,51.112961 121.52109,34.250612 40.066972,33.069775 z"
           style="fill:url(#linearGradient17529);fill-opacity:1;fill-rule:evenodd;stroke:none"
           inkscape:connector-curvature="0" />
      </g>
      <g
         transform="matrix(2.0126253,0,0,2.0126253,-6.3576708,-135.71589)"
         id="g17466">
        <path
           inkscape:connector-curvature="0"
           style="fill:url(#linearGradient17531);fill-opacity:1;fill-rule:evenodd;stroke:#dcdcdc;stroke-width:1.57595146;stroke-linecap:round;stroke-linejoin:round;stroke-miterlimit:4;stroke-opacity:0.70792081;stroke-dasharray:none"
           d="m 34.746228,95.082404 86.078272,9.643706 2.39697,-0.57444 3.6087,-72.935974 -2.36556,-0.580559 -86.611969,-0.641801 -3.106413,65.089068 z"
           id="path3222"
           sodipodi:nodetypes="ccccccc" />
        <path
           inkscape:connector-curvature="0"
           style="opacity:0.69724767;fill:#000000;fill-opacity:1;fill-rule:evenodd;stroke:none"
           d="m 38.200573,113.85336 30.8461,-1.89758 c 4.084371,2.63127 9.918742,2.71473 13.869648,2.19673 l 14.899735,8.0209 14.975314,-4.48417 -27.035054,-11.87443 -14.799886,-1.61873 -33.082585,3.72529 0.326728,5.93199 z"
           id="path13931"
           sodipodi:nodetypes="ccccccccc" />
        <path
           inkscape:connector-curvature="0"
           style="fill:url(#linearGradient17533);fill-opacity:1;fill-rule:evenodd;stroke:#c3c3c3;stroke-width:0.27955699px;stroke-linecap:round;stroke-linejoin:round;stroke-opacity:1"
           d="m 38.324599,108.01925 0.36774,4.54152 30.77052,-1.82987 c 4.084371,2.63128 9.632148,2.57144 13.583054,2.05344 l 14.899736,8.30749 15.408221,-4.50901 c 0.0541,-1.09668 0.17063,-2.06835 -1.52573,-2.91498 l -17.939061,-7.50928 c -0.441892,-0.2131 -0.79067,-0.43467 -0.843182,-0.96945 l -0.06591,-1.61759 -11.975839,-1.74285 -10.598344,2.20188 -28.350751,1.02623 c -2.306241,0.11228 -3.799787,1.28731 -3.73046,2.96247 z"
           id="path2376"
           sodipodi:nodetypes="cccccccccccccc" />
        <path
           inkscape:connector-curvature="0"
           style="fill:url(#linearGradient17535);fill-opacity:1;fill-rule:evenodd;stroke:none"
           d="m 97.946628,121.13219 c 0.0083,-1.80292 -0.926274,-2.91113 -2.456277,-3.74643 l 15.382749,-4.06898 c 2.26605,0.62027 2.67129,1.78638 2.50589,3.37427 l -15.432362,4.44114 z"
           id="path9054"
           sodipodi:nodetypes="ccccc" />
        <path
           inkscape:connector-curvature="0"
           style="fill:url(#linearGradient17537);fill-opacity:1;fill-rule:evenodd;stroke:none"
           d="M 73.788364,84.024451 71.314086,106.89965 86.6571,109.11288 89.076328,84.618176 73.788364,84.024451 z"
           id="path2374"
           sodipodi:nodetypes="ccccc" />
        <path
           inkscape:connector-curvature="0"
           style="fill:#909090;fill-opacity:1;fill-rule:evenodd;stroke:none"
           d="m 86.868124,109.2252 1.316128,-1.10671 0.669178,-8.184555 -1.356294,0.602495 -0.629012,8.68877 z"
           id="path14938"
           sodipodi:nodetypes="ccccc" />
        <path
           inkscape:connector-curvature="0"
           style="fill:none;stroke:#eaeaea;stroke-width:0.40100318;stroke-linecap:round;stroke-linejoin:round;stroke-miterlimit:4;stroke-opacity:1;stroke-dasharray:none"
           d="m 87.497136,100.53643 -0.687115,8.57256"
           id="path18837"
           sodipodi:nodetypes="cc" />
        <path
           inkscape:connector-curvature="0"
           sodipodi:nodetypes="ccccc"
           id="path2380"
           d="m 37.08163,91.779336 81.8447,8.344904 3.3994,-65.386404 -82.332183,-1.782803 -2.911917,58.824303 z"
           style="fill:#0066ff;fill-rule:evenodd;stroke:#000000;stroke-width:0.24998674px;stroke-linecap:butt;stroke-linejoin:miter;stroke-opacity:1" />
        <path
           inkscape:connector-curvature="0"
           sodipodi:nodetypes="ccccccccc"
           id="path2243"
           d="m 38.760057,112.62849 30.702802,-1.89759 c 4.084371,2.63128 9.632148,2.57144 13.583054,2.05344 l 14.899736,8.30749 c 0.160177,-1.45642 -0.830852,-2.70969 -2.363623,-3.62438 L 83.306562,111.0383 c -5.045147,0.3728 -9.61627,0.33929 -13.510213,-2.33522 l -27.064111,1.43253 c -2.204393,0.0409 -3.799325,0.82673 -3.972181,2.49288 z"
           style="fill:#a2a2a2;fill-opacity:1;fill-rule:evenodd;stroke:none" />
        <path
           inkscape:connector-curvature="0"
           style="fill:url(#linearGradient17539);fill-opacity:1;fill-rule:evenodd;stroke:none"
           d="m 38.602134,112.61076 c 0.567218,-1.98227 2.334548,-2.44203 4.280999,-2.48979 l -0.806045,-5.06913 c -1.385205,0.006 -3.791401,0.83589 -3.761547,2.84803 l 0.286593,4.71089 z"
           id="path11983"
           sodipodi:nodetypes="ccccc" />
        <path
           inkscape:connector-curvature="0"
           style="fill:none;stroke:#ffffff;stroke-width:0.27962214;stroke-linecap:round;stroke-linejoin:round;stroke-miterlimit:4;stroke-opacity:1;stroke-dasharray:none"
           d="m 97.945649,121.09183 c 0.160177,-1.45642 -0.830852,-2.70969 -2.363623,-3.62438 L 83.306562,111.0383 c -5.045147,0.3728 -9.61627,0.33929 -13.510213,-2.33522 l -27.064111,1.43253 c -2.204393,0.0409 -3.799325,0.82673 -3.972181,2.49288"
           id="path2249" />
        <path
           inkscape:connector-curvature="0"
           sodipodi:nodetypes="ccccc"
           id="path18847"
           d="m 35.164033,94.446379 85.522737,9.708981 3.61814,-72.816395 -86.002564,-0.646827 -3.138313,63.754241 z"
           style="fill:url(#linearGradient17541);fill-opacity:1;fill-rule:evenodd;stroke:none" />
        <path
           inkscape:connector-curvature="0"
           style="fill:url(#linearGradient17543);fill-opacity:1;fill-rule:evenodd;stroke:none"
           d="M 36.818292,92.681196 118.50994,101.34541 121.66717,33.695257 39.660056,32.6591 36.818292,92.681196 z"
           id="path19826"
           sodipodi:nodetypes="ccccc" />
        <path
           inkscape:connector-curvature="0"
           sodipodi:nodetypes="ccccc"
           id="path19828"
           d="m 37.527418,92.122527 80.842032,8.520393 3.15724,-66.385674 -81.451783,-1.186614 -2.547489,59.051895 z"
           style="fill:#0051ff;fill-opacity:1;fill-rule:evenodd;stroke:none" />
        <path
           inkscape:connector-curvature="0"
           style="fill:url(#linearGradient17545);fill-opacity:1;fill-rule:evenodd;stroke:none"
           d="M 40.066972,33.069775 37.681681,88.096767 120.71812,51.112961 121.52109,34.250612 40.066972,33.069775 z"
           id="path23724" />
      </g>
    </g>
  </g>
</svg>
