<?xml version="1.0" encoding="UTF-8" standalone="no"?>
<!-- Created with Inkscape (http://www.inkscape.org/) -->

<svg
   xmlns:dc="http://purl.org/dc/elements/1.1/"
   xmlns:cc="http://creativecommons.org/ns#"
   xmlns:rdf="http://www.w3.org/1999/02/22-rdf-syntax-ns#"
   xmlns:svg="http://www.w3.org/2000/svg"
   xmlns="http://www.w3.org/2000/svg"
   xmlns:xlink="http://www.w3.org/1999/xlink"
   version="1.1"
   width="260"
   height="260"
   id="svg2">
  <metadata
     id="metadata25">
    <rdf:RDF>
      <cc:Work
         rdf:about="">
        <dc:format>image/svg+xml</dc:format>
        <dc:type
           rdf:resource="http://purl.org/dc/dcmitype/StillImage" />
        <dc:title></dc:title>
      </cc:Work>
    </rdf:RDF>
  </metadata>
  <defs
     id="defs4">
    <rect
       width="150"
       height="150"
       x="0"
       y="0"
       id="small"
       style="fill:#000000;stroke:#000000;stroke-width:13" />
  </defs>
  <g
     transform="matrix(0.22,0,0,0.22,20,20)"
     id="background">
    <rect
       width="1000"
       height="1000"
       x="0"
       y="0"
       id="white"
       style="fill:#ffffff" />
  </g>
  <rect
     width="165"
     height="165"
     x="47.5"
     y="47.5"
     id="big"
     style="fill-opacity:0;stroke:#000000;stroke-width:2.8599999" />
  <use
     transform="matrix(0.22,0,0,0.22,31,31)"
     id="use11"
     x="0"
     y="0"
     width="1000"
     height="1000"
     xlink:href="#small" />
  <use
     transform="matrix(0.22,0,0,0.22,196,31)"
     id="use13"
     x="0"
     y="0"
     width="1000"
     height="1000"
     xlink:href="#small" />
  <use
     transform="matrix(0.22,0,0,0.22,31,196)"
     id="use15"
     x="0"
     y="0"
     width="1000"
     height="1000"
     xlink:href="#small" />
  <use
     transform="matrix(0.22,0,0,0.22,196,196)"
     id="use17"
     x="0"
     y="0"
     width="1000"
     height="1000"
     xlink:href="#small" />
</svg>
