<?xml version="1.0" encoding="UTF-8" standalone="no"?>
<!-- Created with Inkscape (http://www.inkscape.org/) -->

<svg
   xmlns:dc="http://purl.org/dc/elements/1.1/"
   xmlns:cc="http://creativecommons.org/ns#"
   xmlns:rdf="http://www.w3.org/1999/02/22-rdf-syntax-ns#"
   xmlns:svg="http://www.w3.org/2000/svg"
   xmlns="http://www.w3.org/2000/svg"
   xmlns:xlink="http://www.w3.org/1999/xlink"
   xmlns:sodipodi="http://sodipodi.sourceforge.net/DTD/sodipodi-0.dtd"
   xmlns:inkscape="http://www.inkscape.org/namespaces/inkscape"
   inkscape:output_extension="org.inkscape.output.svg.inkscape"
   sodipodi:docname="question2.svg"
   inkscape:version="0.48.3.1 r9886"
   sodipodi:version="0.32"
   id="svg2"
   height="256"
   width="256"
   version="1.0"
   inkscape:export-filename="C:\Users\Zach\unknown.png"
   inkscape:export-xdpi="90"
   inkscape:export-ydpi="90">
  <metadata
     id="metadata16464">
    <rdf:RDF>
      <cc:Work
         rdf:about="">
        <dc:format>image/svg+xml</dc:format>
        <dc:type
           rdf:resource="http://purl.org/dc/dcmitype/StillImage" />
        <dc:title />
      </cc:Work>
    </rdf:RDF>
  </metadata>
  <sodipodi:namedview
     inkscape:window-height="727"
     inkscape:window-width="1432"
     inkscape:pageshadow="2"
     inkscape:pageopacity="0.0"
     guidetolerance="10.0"
     gridtolerance="10.0"
     objecttolerance="10.0"
     borderopacity="1.0"
     bordercolor="#666666"
     pagecolor="#ffffff"
     id="base"
     showgrid="false"
     inkscape:zoom="2.1171875"
     inkscape:cx="121.5741"
     inkscape:cy="128"
     inkscape:window-x="0"
     inkscape:window-y="40"
     inkscape:current-layer="g3087"
     inkscape:window-maximized="0"
     fit-margin-top="0"
     fit-margin-left="0"
     fit-margin-right="0"
     fit-margin-bottom="0" />
  <defs
     id="defs4">
    <linearGradient
       id="linearGradient5682">
      <stop
         id="stop5684"
         offset="0"
         style="stop-color:#8e8e8e;stop-opacity:1;" />
      <stop
         id="stop5686"
         offset="1"
         style="stop-color:#616161;stop-opacity:1;" />
    </linearGradient>
    <linearGradient
       id="linearGradient3900">
      <stop
         style="stop-color:#ffffff;stop-opacity:1;"
         offset="0"
         id="stop3902" />
      <stop
         id="stop5778"
         offset="0.33333334"
         style="stop-color:#ffffff;stop-opacity:0.72972971;" />
      <stop
         style="stop-color:#ffffff;stop-opacity:0;"
         offset="1"
         id="stop3904" />
    </linearGradient>
    <radialGradient
       inkscape:collect="always"
       xlink:href="#linearGradient5682"
       id="radialGradient6063"
       gradientUnits="userSpaceOnUse"
       gradientTransform="matrix(0.92334468,-3.0395864e-8,3.2918685e-8,1,-8.4430004,-3.3478726e-6)"
       cx="-110.14237"
       cy="75.703133"
       fx="-110.14237"
       fy="75.703133"
       r="93.730293" />
    <linearGradient
       inkscape:collect="always"
       xlink:href="#linearGradient3900"
       id="linearGradient3063"
       gradientUnits="userSpaceOnUse"
       gradientTransform="matrix(0.93474202,0,0,0.93474202,10.838447,-1.6906316)"
       x1="141.41411"
       y1="148.37509"
       x2="65.075523"
       y2="-81.892136" />
    <radialGradient
       inkscape:collect="always"
       xlink:href="#linearGradient5682"
       id="radialGradient4009"
       gradientUnits="userSpaceOnUse"
       gradientTransform="matrix(0.92334468,-3.0395864e-8,3.2918685e-8,1,-8.4430004,-3.3478726e-6)"
       cx="-110.14237"
       cy="75.703133"
       fx="-110.14237"
       fy="75.703133"
       r="93.730293" />
    <linearGradient
       inkscape:collect="always"
       xlink:href="#linearGradient3900"
       id="linearGradient4011"
       gradientUnits="userSpaceOnUse"
       gradientTransform="matrix(1.1086475,0,0,1.1086475,324.20957,-25.81912)"
       x1="141.41411"
       y1="148.37509"
       x2="65.075523"
       y2="-81.892136" />
  </defs>
  <g
     style="display:inline"
     id="layer4"
     transform="matrix(0.84313727,0,0,0.84313727,-2386.8684,-1483.3623)" />
  <g
     style="display:inline"
     id="layer5"
     transform="matrix(0.84313727,0,0,0.84313727,-2386.8684,-1483.3623)" />
  <g
     id="g3087">
    <path
       inkscape:export-ydpi="90"
       inkscape:export-xdpi="90"
       inkscape:export-filename="C:\Users\Zach\test8.png"
       transform="matrix(1.1469078,0,0,1.1469078,255.02409,40.357223)"
       d="m -20.023239,76.416588 a 90.730293,90.730293 0 1 1 -181.460591,0 90.730293,90.730293 0 1 1 181.460591,0 z"
       sodipodi:ry="90.730293"
       sodipodi:rx="90.730293"
       sodipodi:cy="76.416588"
       sodipodi:cx="-110.75353"
       id="path5972"
       style="fill:url(#radialGradient6063);fill-opacity:1;stroke:#555555;stroke-width:6;stroke-linecap:round;stroke-linejoin:round;stroke-miterlimit:4;stroke-opacity:1;stroke-dasharray:none"
       sodipodi:type="arc" />
    <path
       sodipodi:type="arc"
       style="fill:#ffffff;fill-opacity:1;stroke:none"
       id="path5974"
       sodipodi:cx="-110.75353"
       sodipodi:cy="76.416588"
       sodipodi:rx="90.730293"
       sodipodi:ry="90.730293"
       d="m -20.023239,76.416588 a 90.730293,90.730293 0 1 1 -181.460591,0 90.730293,90.730293 0 1 1 181.460591,0 z"
       transform="matrix(0.88406812,0,0,0.88406812,225.91368,60.44254)"
       inkscape:export-filename="C:\Users\Zach\test8.png"
       inkscape:export-xdpi="90"
       inkscape:export-ydpi="90" />
    <path
       inkscape:connector-curvature="0"
       id="path4150"
       style="font-size:223.28926086px;font-style:normal;font-variant:normal;font-weight:normal;font-stretch:normal;text-align:center;line-height:125%;letter-spacing:0px;word-spacing:0px;writing-mode:lr-tb;text-anchor:middle;fill:#555555;fill-opacity:1;stroke:none;font-family:Franklin Gothic Demi;-inkscape-font-specification:Franklin Gothic Demi"
       d="m 113.53608,155.94536 0,-3.49317 c -3e-5,-11.15357 0.87326,-18.18587 2.61987,-21.0969 1.74656,-2.91092 6.35814,-7.12418 13.83479,-12.63978 3.92212,-2.88025 6.64923,-5.56141 8.18138,-8.04347 1.53203,-2.48191 2.29808,-5.56141 2.29814,-9.23852 -6e-5,-4.534907 -1.44022,-8.104683 -4.3205,-10.709329 -2.88038,-2.604458 -6.37356,-3.906729 -10.47951,-3.906844 -10.84724,1.15e-4 -16.94497,7.660576 -18.29319,22.981393 l -25.187589,-3.58509 c 1.89979,-13.850016 6.971011,-24.329515 15.213679,-31.438534 8.24263,-7.108786 18.30846,-10.663237 30.19754,-10.663364 12.1341,1.27e-4 22.30719,3.493295 30.51928,10.479508 8.21192,6.986457 12.31794,15.841947 12.318,26.56648 -6e-5,13.29863 -6.83319,24.42162 -20.49938,33.36897 -5.94458,3.92222 -9.54499,6.9864 -10.80125,9.19256 -1.25638,2.20625 -1.88453,6.28161 -1.88448,12.22609 z m 28.31307,35.94289 -28.86462,0 0,-27.76152 28.86462,0 z" />
    <path
       inkscape:connector-curvature="0"
       style="opacity:0.23999999;fill:url(#linearGradient3063);fill-opacity:1;stroke:none"
       d="m 130.49609,20.50005 c -57.470284,0 -104.077647,46.607364 -104.077647,104.07775 0,9.29628 1.218342,18.29804 3.505285,26.87382 3.375727,0.93559 7.144415,2.67439 11.333746,5.4332 C 79.505434,182.07246 186.18931,161.8568 227.24187,86.194938 211.96483,47.723013 174.40914,20.50005 130.49609,20.50005 z"
       id="path5980"
       inkscape:export-filename="C:\Users\Zach\test8.png"
       inkscape:export-xdpi="90"
       inkscape:export-ydpi="90" />
  </g>
</svg>
