<?xml version="1.0" encoding="UTF-8" standalone="no"?>
<!-- Created with Inkscape (http://www.inkscape.org/) -->

<svg
   xmlns:dc="http://purl.org/dc/elements/1.1/"
   xmlns:cc="http://creativecommons.org/ns#"
   xmlns:rdf="http://www.w3.org/1999/02/22-rdf-syntax-ns#"
   xmlns:svg="http://www.w3.org/2000/svg"
   xmlns="http://www.w3.org/2000/svg"
   xmlns:xlink="http://www.w3.org/1999/xlink"
   xmlns:sodipodi="http://sodipodi.sourceforge.net/DTD/sodipodi-0.dtd"
   xmlns:inkscape="http://www.inkscape.org/namespaces/inkscape"
   version="1.1"
   width="128"
   height="128"
   viewBox="0 0 128 128"
   id="svg2"
   xml:space="preserve"
   style="overflow:visible"
   inkscape:version="0.48.3.1 r9886"
   sodipodi:docname="restart.svg"><sodipodi:namedview
   pagecolor="#ffffff"
   bordercolor="#666666"
   borderopacity="1"
   objecttolerance="10"
   gridtolerance="10"
   guidetolerance="10"
   inkscape:pageopacity="0"
   inkscape:pageshadow="2"
   inkscape:window-width="1432"
   inkscape:window-height="727"
   id="namedview3701"
   showgrid="false"
   inkscape:zoom="4.234375"
   inkscape:cx="64"
   inkscape:cy="64"
   inkscape:window-x="0"
   inkscape:window-y="40"
   inkscape:window-maximized="0"
   inkscape:current-layer="svg2" /><metadata
   id="metadata94"><rdf:RDF><cc:Work
       rdf:about=""><dc:format>image/svg+xml</dc:format><dc:type
         rdf:resource="http://purl.org/dc/dcmitype/StillImage" /><dc:title /></cc:Work></rdf:RDF></metadata><defs
   id="defs92"><linearGradient
     inkscape:collect="always"
     xlink:href="#XMLID_9_"
     id="linearGradient3703"
     gradientUnits="userSpaceOnUse"
     x1="65.098602"
     y1="67.5"
     x2="121"
     y2="67.5"
     gradientTransform="matrix(0.92105263,0,0,0.92105,2.6315789,3.7898)" /><linearGradient
     inkscape:collect="always"
     xlink:href="#XMLID_10_"
     id="linearGradient3705"
     gradientUnits="userSpaceOnUse"
     x1="98.113297"
     y1="117.6191"
     x2="74.4431"
     y2="-4.7357998"
     gradientTransform="matrix(0.92105263,0,0,0.92105,2.6315789,3.7898)" /><linearGradient
     inkscape:collect="always"
     xlink:href="#XMLID_9_"
     id="linearGradient3722"
     gradientUnits="userSpaceOnUse"
     gradientTransform="matrix(0.92105263,0,0,0.92105,2.6315789,3.7898)"
     x1="65.098602"
     y1="67.5"
     x2="121"
     y2="67.5" /><linearGradient
     inkscape:collect="always"
     xlink:href="#XMLID_10_"
     id="linearGradient3724"
     gradientUnits="userSpaceOnUse"
     gradientTransform="matrix(0.92105263,0,0,0.92105,2.6315789,3.7898)"
     x1="98.113297"
     y1="117.6191"
     x2="74.4431"
     y2="-4.7357998" /><linearGradient
     inkscape:collect="always"
     xlink:href="#XMLID_11_"
     id="linearGradient3726"
     gradientUnits="userSpaceOnUse"
     gradientTransform="matrix(0.92105263,0,0,0.92105,2.6315789,3.7898)"
     x1="78.251999"
     y1="10.0327"
     x2="105.918"
     y2="49.3657" /><linearGradient
     inkscape:collect="always"
     xlink:href="#XMLID_13_"
     id="linearGradient3728"
     gradientUnits="userSpaceOnUse"
     gradientTransform="matrix(0.92105263,0,0,0.92105,2.6315789,3.7898)"
     x1="33.144501"
     y1="0.1035"
     x2="46.144501"
     y2="114.1035" /><linearGradient
     inkscape:collect="always"
     xlink:href="#XMLID_14_"
     id="linearGradient3730"
     gradientUnits="userSpaceOnUse"
     gradientTransform="matrix(0.92105263,0,0,0.92105,2.6315789,3.7898)"
     x1="36.951199"
     y1="114"
     x2="36.951199"
     y2="6.7495999" /><linearGradient
     inkscape:collect="always"
     xlink:href="#XMLID_16_"
     id="linearGradient3732"
     gradientUnits="userSpaceOnUse"
     gradientTransform="matrix(0.92105263,0,0,0.92105,2.6315789,3.7898)"
     x1="81.547897"
     y1="-17.315399"
     x2="-3.4521"
     y2="59.434601" /></defs>
	
	
	
	<linearGradient
   x1="65.098602"
   y1="67.5"
   x2="121"
   y2="67.5"
   id="XMLID_9_"
   gradientUnits="userSpaceOnUse">
		
		
		<stop
   id="stop15"
   style="stop-color:#868600;stop-opacity:1"
   offset="0" />
		<stop
   id="stop17"
   style="stop-color:#868600;stop-opacity:1"
   offset="1" />
	</linearGradient>
	
	<linearGradient
   x1="98.113297"
   y1="117.6191"
   x2="74.4431"
   y2="-4.7357998"
   id="XMLID_10_"
   gradientUnits="userSpaceOnUse">
		<stop
   id="stop22"
   style="stop-color:#868600;stop-opacity:1"
   offset="0" />
		<stop
   id="stop24"
   style="stop-color:#b5b500;stop-opacity:1"
   offset="0.5072" />
		<stop
   id="stop26"
   style="stop-color:#dddd00;stop-opacity:1"
   offset="1" />
	</linearGradient>
	
	
	<linearGradient
   x1="78.251999"
   y1="10.0327"
   x2="105.918"
   y2="49.3657"
   id="XMLID_11_"
   gradientUnits="userSpaceOnUse"
   gradientTransform="matrix(0.92105263,0,0,0.92105,2.6315789,3.7898)">
		<stop
   id="stop33"
   style="stop-color:#dddd00;stop-opacity:1"
   offset="0" />
		<stop
   id="stop35"
   style="stop-color:#b5b50a;stop-opacity:1"
   offset="1" />
	</linearGradient>
	
	<linearGradient
   x1="-6.25"
   y1="26.976601"
   x2="116.7498"
   y2="26.976601"
   id="XMLID_12_"
   gradientUnits="userSpaceOnUse">
		<stop
   id="stop40"
   style="stop-color:#90a5c4;stop-opacity:1"
   offset="0" />
		<stop
   id="stop42"
   style="stop-color:#d0e0fb;stop-opacity:1"
   offset="0.47189999" />
		<stop
   id="stop44"
   style="stop-color:#acbad5;stop-opacity:1"
   offset="0.81190002" />
		<stop
   id="stop46"
   style="stop-color:#9daac5;stop-opacity:1"
   offset="1" />
	</linearGradient>
	
	
	<linearGradient
   x1="33.144501"
   y1="0.1035"
   x2="46.144501"
   y2="114.1035"
   id="XMLID_13_"
   gradientUnits="userSpaceOnUse"
   gradientTransform="matrix(0.92105263,0,0,0.92105,2.6315789,3.7898)">
		
		
		<stop
   id="stop57"
   style="stop-color:#868600;stop-opacity:1"
   offset="0" />
		<stop
   id="stop59"
   style="stop-color:#868600;stop-opacity:1"
   offset="1" />
	</linearGradient>
	
	<linearGradient
   x1="36.951199"
   y1="114"
   x2="36.951199"
   y2="6.7495999"
   id="XMLID_14_"
   xlink:href="#XMLID_9_"
   gradientUnits="userSpaceOnUse"
   gradientTransform="matrix(0.92105263,0,0,0.92105,2.6315789,3.7898)">
		<stop
   id="stop64"
   style="stop-color:#868600;stop-opacity:1"
   offset="0" />
		<stop
   id="stop66"
   style="stop-color:#b5b500;stop-opacity:1"
   offset="0.5072" />
		<stop
   id="stop68"
   style="stop-color:#dddd00;stop-opacity:1"
   offset="1" />
	</linearGradient>
	
	
	<linearGradient
   x1="53.439499"
   y1="2.8052001"
   x2="12.9391"
   y2="80.305801"
   id="XMLID_15_"
   xlink:href="#XMLID_10_"
   gradientUnits="userSpaceOnUse"
   gradientTransform="translate(-9.220339,138.30508)">
		<stop
   id="stop75"
   style="stop-color:#dddd00;stop-opacity:1"
   offset="0" />
		<stop
   id="stop77"
   style="stop-color:#b5b500;stop-opacity:1"
   offset="1" />
	</linearGradient>
	
	<linearGradient
   x1="81.547897"
   y1="-17.315399"
   x2="-3.4521"
   y2="59.434601"
   id="XMLID_16_"
   gradientUnits="userSpaceOnUse"
   gradientTransform="matrix(0.92105263,0,0,0.92105,2.6315789,3.7898)">
		<stop
   id="stop82"
   style="stop-color:#d0e0fb;stop-opacity:1"
   offset="0" />
		<stop
   id="stop84"
   style="stop-color:#acbad5;stop-opacity:1"
   offset="0.64380002" />
		<stop
   id="stop86"
   style="stop-color:#9daac5;stop-opacity:1"
   offset="1" />
	</linearGradient>
	<g
   id="g3707"
   transform="matrix(0.95238095,0,0,0.95238224,4.4761905,4.1188957)"><path
     inkscape:connector-curvature="0"
     style="opacity:0.2"
     id="path4"
     d="m 72.631579,16.684501 c -0.509342,0 -0.921053,0.41263 -0.921053,0.921049 v 31.3157 c 0,0.372105 0.224737,0.708286 0.56829,0.851051 0.344473,0.142762 0.740526,0.06356 1.003947,-0.199868 0,0 8.105263,-8.10524 9.129474,-9.129448 8.292237,6.091824 13.245657,15.72877 13.245657,25.978215 0,17.775344 -14.370262,32.23676 -32.145657,32.23676 -0.509343,0 -0.921053,0.41169 -0.921053,0.92104 v 16.57891 c 0,0.50932 0.41171,0.92104 0.921053,0.92104 27.932762,0 50.566713,-22.72507 50.566713,-50.65775 0,-14.990089 -6.93646,-29.503995 -18.550003,-39.094888 1.190922,-1.190918 9.069613,-9.06958 9.069613,-9.06958 0.17591,-0.17592 0.26986,-0.411709 0.26986,-0.651182 0,-0.118816 -0.023,-0.238551 -0.07,-0.352762 -0.14183,-0.343552 -0.47893,-0.568287 -0.85105,-0.568287 H 72.631579 z" /><path
     inkscape:connector-curvature="0"
     style="opacity:0.2"
     id="path6"
     d="m 52.368421,108.7895 c 0.509342,0 0.921052,-0.41171 0.921052,-0.92106 V 76.55275 c 0,-0.372104 -0.224736,-0.709208 -0.568289,-0.851051 -0.344473,-0.141841 -0.740526,-0.06263 -1.003947,0.199868 0,0 -8.105263,8.10524 -9.129474,9.129448 C 34.295526,78.939191 29.342106,69.303165 29.342106,59.0528 c 0,-17.775344 14.370262,-32.236749 32.145657,-32.236749 0.509343,0 0.921053,-0.41263 0.921053,-0.921051 V 9.3161 c 0,-0.508419 -0.41171,-0.92105 -0.921053,-0.92105 -27.932762,0 -50.56671,22.725066 -50.56671,50.65775 0,14.990089 6.936448,29.503995 18.55,39.09489 -1.190922,1.19091 -9.069606,9.06958 -9.069606,9.06958 -0.175921,0.17592 -0.269868,0.41171 -0.269868,0.65117 0,0.11883 0.02303,0.23856 0.06999,0.35278 0.141844,0.34355 0.478948,0.56828 0.851054,0.56828 h 31.31579 z" /><path
     inkscape:connector-curvature="0"
     style="opacity:0.2"
     id="path8"
     d="m 72.631579,15.76345 c -1.015921,0 -1.842105,0.826182 -1.842105,1.8421 v 31.3157 c 0,0.747892 0.445789,1.415654 1.136579,1.702101 0.690788,0.286446 1.478288,0.128946 2.007895,-0.398814 0,0 6.535789,-6.534852 8.538158,-8.537213 7.677895,5.941693 12.264737,15.112588 12.264737,24.733876 0,17.267845 -14.007369,31.3157 -31.224606,31.3157 -1.015921,0 -1.842106,0.82527 -1.842106,1.8421 v 16.57891 c 0,1.01683 0.826185,1.84209 1.842106,1.84209 C 91.902764,118 115,94.86231 115,66.4212 115,51.59598 108.21461,37.0701 96.857106,27.301443 c 1.15776,-1.157759 8.392634,-8.393529 8.392634,-8.393529 0.34816,-0.348156 0.53974,-0.810523 0.53974,-1.302364 l -0.13816,-0.70184 c -0.28737,-0.693551 -0.95513,-1.14026 -1.70395,-1.14026 H 72.631579 z" /><path
     inkscape:connector-curvature="0"
     style="fill:url(#linearGradient3722)"
     id="path19"
     d="m 72.631579,15.76345 c -0.509342,0 -0.921053,0.412631 -0.921053,0.921051 v 31.3157 c 0,0.372103 0.224737,0.708287 0.56829,0.85105 0.344473,0.142762 0.740526,0.06356 1.003947,-0.199869 0,0 8.105263,-8.105239 9.129474,-9.129447 8.292237,6.091824 13.245657,15.72877 13.245657,25.978215 0,17.775343 -14.370262,32.23675 -32.145657,32.23675 -0.509343,0 -0.921053,0.41171 -0.921053,0.92106 v 16.57889 c 0,0.50935 0.41171,0.92106 0.921053,0.92106 27.932762,0 50.566713,-22.725079 50.566713,-50.65776 0,-14.990088 -6.93646,-29.503995 -18.550003,-39.094889 1.190922,-1.190917 9.069613,-9.069579 9.069613,-9.069579 0.17591,-0.17592 0.26986,-0.411709 0.26986,-0.651181 0,-0.118816 -0.023,-0.238553 -0.07,-0.352763 -0.14183,-0.343551 -0.47893,-0.568288 -0.85105,-0.568288 H 72.631579 z" /><path
     inkscape:connector-curvature="0"
     style="fill:url(#linearGradient3724)"
     id="path28"
     d="m 94.188816,26.443026 9.758554,-9.758525 H 72.631579 v 31.3157 l 9.708816,-9.708789 c 8.783157,6.13972 14.238552,16.303506 14.238552,27.208738 0,18.283764 -14.783816,33.15781 -33.06671,33.15781 v 16.57889 c 27.425264,0 49.645663,-22.312437 49.645663,-49.7367 0,-15.35114 -7.19527,-29.736099 -18.969084,-39.057124 z" /><path
     inkscape:connector-curvature="0"
     style="fill:#868600;fill-opacity:1"
     id="path30"
     d="M 113.14501,65.072783 C 112.87882,92.269548 90.77171,114.3158 63.512237,114.3158 v 0.92105 c 27.425264,0 49.645663,-22.312437 49.645663,-49.7367 0,-0.142762 -0.0111,-0.284605 -0.0129,-0.427367 z" /><path
     inkscape:connector-curvature="0"
     style="fill:url(#linearGradient3726)"
     id="path37"
     d="m 106.34947,40.466933 c -3.12789,-5.35867 -7.245,-10.132471 -12.160654,-14.024828 l 9.758554,-9.757604 H 72.631579 v 31.3157 l 9.708816,-9.708789 c 2.592764,1.812627 4.311448,3.08736 6.269604,5.51801 l 17.739471,-3.342489 z" /><path
     inkscape:connector-curvature="0"
     style="fill:none"
     id="path48"
     d="m 94.691711,26.860261 -0.502895,0.502892 c 4.666976,3.695253 8.604474,8.193662 11.668814,13.224437 l 0.49184,-0.121578 C 103.33026,35.295237 99.382634,30.675251 94.691711,26.860261 z m 9.255659,-10.17576 H 72.631579 v 0.921049 h 30.394741 l 0.92105,-0.921049 z" /><path
     inkscape:connector-curvature="0"
     style="opacity:0.2"
     id="path50"
     d="m 10,59.0528 c 0,14.82522 6.785395,29.351101 18.142894,39.11975 -1.157763,1.15868 -8.392631,8.39354 -8.392631,8.39354 -0.348158,0.34816 -0.539737,0.81051 -0.539737,1.30235 l 0.138158,0.70185 c 0.287369,0.69446 0.956053,1.14025 1.703947,1.14025 h 31.31579 c 1.015921,0 1.842105,-0.82525 1.842105,-1.8421 V 76.55275 c 0,-0.74697 -0.445789,-1.415654 -1.136579,-1.702101 -0.690788,-0.286446 -1.478288,-0.129867 -2.007895,0.399736 0,0 -6.535789,6.53485 -8.538158,8.537212 C 34.849999,77.844062 30.263157,68.673167 30.263157,59.0528 c 0,-17.267845 14.007369,-31.315701 31.224606,-31.315701 1.015921,0 1.842106,-0.826182 1.842106,-1.842099 V 9.3161 c 0,-1.015918 -0.826185,-1.8421 -1.842106,-1.8421 C 33.097236,7.474 10,30.612619 10,59.0528 z" /><path
     inkscape:connector-curvature="0"
     style="fill:url(#linearGradient3728)"
     id="path61"
     d="m 52.368421,107.86844 c 0.509342,0 0.921052,-0.4117 0.921052,-0.92105 V 75.6317 c 0,-0.372104 -0.224736,-0.709208 -0.568289,-0.85105 -0.344473,-0.141842 -0.740526,-0.06262 -1.003947,0.199867 0,0 -8.105263,8.10524 -9.129474,9.129449 C 34.295526,78.01814 29.342106,68.382116 29.342106,58.13175 c 0,-17.775344 14.370262,-32.23675 32.145657,-32.23675 0.509343,0 0.921053,-0.41263 0.921053,-0.92105 V 8.39505 c 0,-0.508419 -0.41171,-0.92105 -0.921053,-0.92105 -27.932762,0 -50.56671,22.725067 -50.56671,50.65775 0,14.990089 6.936448,29.503995 18.55,39.09489 -1.190922,1.19092 -9.069606,9.06958 -9.069606,9.06958 -0.175921,0.17591 -0.269868,0.41171 -0.269868,0.65117 0,0.11883 0.02303,0.23855 0.06999,0.35277 0.141844,0.34356 0.478948,0.56828 0.851054,0.56828 h 31.31579 z" /><path
     inkscape:connector-curvature="0"
     style="fill:url(#linearGradient3730);fill-opacity:1"
     id="path70"
     d="m 30.811184,97.18888 -9.758553,9.75851 h 31.31579 V 75.6317 l -9.708816,9.708788 C 33.876448,79.200768 28.421053,69.036982 28.421053,58.13175 c 0,-18.283764 14.783816,-33.1578 33.06671,-33.1578 V 8.39505 c -27.425264,0 -49.645658,22.311516 -49.645658,49.7367 0,15.35022 7.195263,29.7361 18.969079,39.05713 z" /><path
     inkscape:connector-curvature="0"
     style="fill:#868600;fill-opacity:1"
     id="path72"
     d="m 30.310132,96.76888 0.501052,-0.50106 C 19.146974,87.033379 11.986711,72.827102 11.855,57.638068 c -0.0018,0.165788 -0.0129,0.327894 -0.0129,0.493682 0,15.127326 6.997237,29.30689 18.468026,38.63713 z m -9.257501,10.17851 h 31.31579 v -0.92105 H 21.973684 l -0.921053,0.92105 z" /><path
     inkscape:connector-curvature="0"
     style="fill:url(#linearGradient3732)"
     id="path88"
     d="m 11.842105,58.13175 c 0,0.177764 0.0083,0.354604 0.01013,0.533289 C 12.061316,31.418537 34.193289,9.3161 61.487762,9.3161 V 8.39505 c -27.425264,0 -49.645657,22.311516 -49.645657,49.7367 z" /></g>
</svg>