<?xml version="1.0" encoding="UTF-8" standalone="no"?>
<!-- Created with Inkscape (http://www.inkscape.org/) -->

<svg
   xmlns:dc="http://purl.org/dc/elements/1.1/"
   xmlns:cc="http://creativecommons.org/ns#"
   xmlns:rdf="http://www.w3.org/1999/02/22-rdf-syntax-ns#"
   xmlns:svg="http://www.w3.org/2000/svg"
   xmlns="http://www.w3.org/2000/svg"
   xmlns:xlink="http://www.w3.org/1999/xlink"
   xmlns:sodipodi="http://sodipodi.sourceforge.net/DTD/sodipodi-0.dtd"
   xmlns:inkscape="http://www.inkscape.org/namespaces/inkscape"
   width="256"
   height="256"
   id="svg2"
   sodipodi:version="0.32"
   inkscape:version="0.48.2 r9819"
   version="1.0"
   sodipodi:docname="screensaver.svg"
   inkscape:output_extension="org.inkscape.output.svg.inkscape"
   sodipodi:modified="TRUE">
  <defs
     id="defs4">
    <linearGradient
       id="linearGradient4417">
      <stop
         style="stop-color:#000000;stop-opacity:1;"
         offset="0"
         id="stop4419" />
      <stop
         style="stop-color:#000000;stop-opacity:1;"
         offset="1"
         id="stop4421" />
    </linearGradient>
    <linearGradient
       id="linearGradient4397">
      <stop
         style="stop-color:#ff00ba;stop-opacity:1;"
         offset="0"
         id="stop4399" />
      <stop
         id="stop4405"
         offset="0.27826267"
         style="stop-color:#ff0000;stop-opacity:1;" />
      <stop
         style="stop-color:#ffff00;stop-opacity:1;"
         offset="0.53058398"
         id="stop4407" />
      <stop
         id="stop4409"
         offset="0.73563385"
         style="stop-color:#00ff00;stop-opacity:1;" />
      <stop
         style="stop-color:#0000ff;stop-opacity:1;"
         offset="1"
         id="stop4401" />
    </linearGradient>
    <linearGradient
       inkscape:collect="always"
       id="linearGradient3593">
      <stop
         style="stop-color:#ffffff;stop-opacity:1;"
         offset="0"
         id="stop3595" />
      <stop
         style="stop-color:#ffffff;stop-opacity:0;"
         offset="1"
         id="stop3597" />
    </linearGradient>
    <linearGradient
       id="linearGradient20799">
      <stop
         style="stop-color:#5f5f5f;stop-opacity:1;"
         offset="0"
         id="stop20801" />
      <stop
         style="stop-color:#a0a0a0;stop-opacity:1;"
         offset="1"
         id="stop20803" />
    </linearGradient>
    <linearGradient
       id="linearGradient19818">
      <stop
         style="stop-color:#b3b3b3;stop-opacity:1;"
         offset="0"
         id="stop19820" />
      <stop
         style="stop-color:#e0e0e0;stop-opacity:1;"
         offset="1"
         id="stop19822" />
    </linearGradient>
    <linearGradient
       id="linearGradient16886">
      <stop
         style="stop-color:#676767;stop-opacity:1;"
         offset="0"
         id="stop16888" />
      <stop
         id="stop16894"
         offset="0.28460741"
         style="stop-color:#616161;stop-opacity:1;" />
      <stop
         style="stop-color:#bbbbbb;stop-opacity:1;"
         offset="0.5122323"
         id="stop16896" />
      <stop
         style="stop-color:#ffffff;stop-opacity:1;"
         offset="1"
         id="stop16890" />
    </linearGradient>
    <linearGradient
       id="linearGradient10994">
      <stop
         style="stop-color:#b0b0b0;stop-opacity:0;"
         offset="0"
         id="stop10996" />
      <stop
         id="stop11002"
         offset="0.46590909"
         style="stop-color:#ffffff;stop-opacity:1;" />
      <stop
         style="stop-color:#949494;stop-opacity:1;"
         offset="0.93181819"
         id="stop11004" />
      <stop
         style="stop-color:#949494;stop-opacity:0;"
         offset="1"
         id="stop10998" />
    </linearGradient>
    <linearGradient
       id="linearGradient6129">
      <stop
         style="stop-color:#747474;stop-opacity:1;"
         offset="0"
         id="stop6131" />
      <stop
         id="stop6137"
         offset="0.5"
         style="stop-color:#eaeaea;stop-opacity:1;" />
      <stop
         style="stop-color:#c4c4c4;stop-opacity:1;"
         offset="0.75"
         id="stop6139" />
      <stop
         style="stop-color:#ffffff;stop-opacity:1;"
         offset="1"
         id="stop6133" />
    </linearGradient>
    <linearGradient
       inkscape:collect="always"
       xlink:href="#linearGradient20799"
       id="linearGradient2651"
       gradientUnits="userSpaceOnUse"
       gradientTransform="matrix(1.9639091,0,0,1.9639091,0.2482376,-125.61345)"
       x1="57.706955"
       y1="88.513283"
       x2="51.685875"
       y2="63.940647" />
    <linearGradient
       inkscape:collect="always"
       xlink:href="#linearGradient10994"
       id="linearGradient2655"
       gradientUnits="userSpaceOnUse"
       gradientTransform="matrix(1.9639091,0,0,1.9639091,0.2482376,-125.61345)"
       x1="13.125309"
       y1="108.18014"
       x2="7.2367773"
       y2="108.4483" />
    <linearGradient
       inkscape:collect="always"
       xlink:href="#linearGradient16886"
       id="linearGradient2662"
       gradientUnits="userSpaceOnUse"
       gradientTransform="matrix(2.0841519,0,0,2.0841519,-7.3410849,-136.90021)"
       x1="55.532738"
       y1="92.655975"
       x2="53.538322"
       y2="108.63219" />
    <linearGradient
       inkscape:collect="always"
       xlink:href="#linearGradient10994"
       id="linearGradient2665"
       gradientUnits="userSpaceOnUse"
       gradientTransform="matrix(1.9639091,0,0,1.9639091,0.2482376,-125.61345)"
       x1="99.311035"
       y1="117.01833"
       x2="100.79892"
       y2="122.07417" />
    <linearGradient
       inkscape:collect="always"
       xlink:href="#linearGradient6129"
       id="linearGradient2668"
       gradientUnits="userSpaceOnUse"
       gradientTransform="matrix(1.9639092,0,0,1.9639092,0.2482379,-125.61345)"
       x1="64.418236"
       y1="90.553123"
       x2="73.781937"
       y2="129.62103" />
    <linearGradient
       inkscape:collect="always"
       xlink:href="#linearGradient19818"
       id="linearGradient2672"
       gradientUnits="userSpaceOnUse"
       gradientTransform="matrix(1.9639092,0,0,1.9639092,0.2482379,-125.61345)"
       x1="107.91725"
       y1="96.608521"
       x2="65.772636"
       y2="16.110321" />
    <linearGradient
       inkscape:collect="always"
       xlink:href="#linearGradient3593"
       id="linearGradient3460"
       gradientUnits="userSpaceOnUse"
       gradientTransform="translate(0,40)"
       x1="46.712444"
       y1="-37.22842"
       x2="62.484375"
       y2="46.712749" />
    <linearGradient
       inkscape:collect="always"
       xlink:href="#linearGradient4397"
       id="linearGradient4413"
       gradientUnits="userSpaceOnUse"
       gradientTransform="matrix(0.80332873,1.1965573,-1.4855559,0.8741078,194.60006,-143.06304)"
       x1="13.881632"
       y1="53.202236"
       x2="88.891167"
       y2="70.603264" />
    <linearGradient
       inkscape:collect="always"
       xlink:href="#linearGradient4397"
       id="linearGradient4415"
       gradientUnits="userSpaceOnUse"
       gradientTransform="matrix(1.9806541,0,0,1.9806541,-3.6783581,-128.35419)"
       x1="13.881632"
       y1="53.202236"
       x2="88.891167"
       y2="70.603264" />
    <linearGradient
       inkscape:collect="always"
       xlink:href="#linearGradient4417"
       id="linearGradient4423"
       x1="56.109356"
       y1="42.13549"
       x2="55.575397"
       y2="93.030891"
       gradientUnits="userSpaceOnUse"
       gradientTransform="matrix(1.980654,0,0,1.980654,-0.5451398,-126.78757)" />
  </defs>
  <sodipodi:namedview
     id="base"
     pagecolor="#ffffff"
     bordercolor="#666666"
     borderopacity="1.0"
     gridtolerance="10000"
     guidetolerance="10"
     objecttolerance="10"
     inkscape:pageopacity="0.0"
     inkscape:pageshadow="2"
     inkscape:zoom="0.74721485"
     inkscape:cx="47.926351"
     inkscape:cy="218.26077"
     inkscape:document-units="px"
     inkscape:current-layer="layer1"
     showguides="true"
     inkscape:guide-bbox="true"
     width="128px"
     height="128px"
     inkscape:window-width="1055"
     inkscape:window-height="694"
     inkscape:window-x="398"
     inkscape:window-y="152"
     showgrid="false"
     inkscape:window-maximized="0" />
  <metadata
     id="metadata7">
    <rdf:RDF>
      <cc:Work
         rdf:about="">
        <dc:format>image/svg+xml</dc:format>
        <dc:type
           rdf:resource="http://purl.org/dc/dcmitype/StillImage" />
      </cc:Work>
    </rdf:RDF>
  </metadata>
  <g
     inkscape:label="Layer 1"
     inkscape:groupmode="layer"
     id="layer1"
     transform="translate(0,128)">
    <g
       id="g3985">
      <path
         inkscape:connector-curvature="0"
         style="fill:url(#linearGradient2672);fill-opacity:1;fill-rule:evenodd;stroke:#dcdcdc;stroke-width:4.09538174;stroke-linecap:round;stroke-linejoin:round;stroke-miterlimit:4;stroke-opacity:0.70792081;stroke-dasharray:none"
         d="M 6.6128086,54.010088 230.30207,79.070922 236.531,77.578147 245.90883,-111.95857 239.76151,-113.46726 14.685359,-115.13509 6.6128086,54.010088 z"
         id="path8090"
         sodipodi:nodetypes="ccccccc" />
      <path
         inkscape:connector-curvature="0"
         style="opacity:0.65086209;fill:#000000;fill-opacity:1;fill-rule:evenodd;stroke:none"
         d="m 15.58952,102.78966 80.158913,-4.931198 c 10.613947,6.837818 25.775557,7.054698 36.042677,5.708588 l 38.71953,20.8437 38.91594,-11.6529 -70.25525,-30.857744 -38.46007,-4.206553 -85.970799,9.680789 0.849059,15.415318 z"
         id="path8092"
         sodipodi:nodetypes="ccccccccc" />
      <path
         inkscape:connector-curvature="0"
         style="fill:url(#linearGradient2668);fill-opacity:1;fill-rule:evenodd;stroke:#c3c3c3;stroke-width:0.72647703px;stroke-linecap:round;stroke-linejoin:round;stroke-opacity:1"
         d="m 15.911823,87.628696 0.955635,11.801934 79.962508,-4.755223 c 10.613934,6.837843 25.030804,6.682333 35.297904,5.336223 l 38.71954,21.58845 40.04092,-11.71746 c 0.14042,-2.8499 0.4434,-5.37497 -3.96487,-7.57505 L 160.30571,82.793385 c -1.14833,-0.553765 -2.05468,-1.129563 -2.19115,-2.519272 l -0.17127,-4.203595 -31.12129,-4.529082 -27.54162,5.72197 -73.674317,2.666827 c -5.993166,0.291768 -9.874403,3.345287 -9.694245,7.698463 z"
         id="path8094"
         sodipodi:nodetypes="cccccccccccccc" />
      <path
         inkscape:connector-curvature="0"
         style="fill:url(#linearGradient2665);fill-opacity:1;fill-rule:evenodd;stroke:none"
         d="m 170.84995,121.70496 c 0.0215,-4.68519 -2.40708,-7.56508 -6.38306,-9.73576 l 39.97473,-10.57392 c 5.88872,1.61187 6.94181,4.6422 6.51196,8.76861 l -40.10363,11.54107 z"
         id="path8096"
         sodipodi:nodetypes="ccccc" />
      <path
         inkscape:connector-curvature="0"
         style="fill:url(#linearGradient2662);fill-opacity:1;fill-rule:evenodd;stroke:none"
         d="m 108.07053,25.274089 -6.42984,59.445146 39.87148,5.75146 6.28678,-63.653708 -39.72842,-1.542898 z"
         id="path8098"
         sodipodi:nodetypes="ccccc" />
      <path
         inkscape:connector-curvature="0"
         style="fill:#909090;fill-opacity:1;fill-rule:evenodd;stroke:none"
         d="m 142.06054,90.762566 3.42019,-2.875947 1.73898,-21.268996 -3.52457,1.565689 -1.6346,22.579254 z"
         id="path8100"
         sodipodi:nodetypes="ccccc" />
      <path
         inkscape:connector-curvature="0"
         style="fill:none;stroke:#eaeaea;stroke-width:1.04207599;stroke-linecap:round;stroke-linejoin:round;stroke-miterlimit:4;stroke-opacity:1;stroke-dasharray:none"
         d="M 143.69514,68.183312 141.90956,90.4606"
         id="path8102"
         sodipodi:nodetypes="cc" />
      <path
         inkscape:connector-curvature="0"
         sodipodi:nodetypes="ccccc"
         id="path8104"
         d="M 12.681753,45.426496 225.36932,67.11216 234.20326,-102.80568 20.248872,-107.4386 12.681753,45.426496 z"
         style="fill:#0066ff;fill-rule:evenodd;stroke:#000000;stroke-width:0.64963359px;stroke-linecap:butt;stroke-linejoin:miter;stroke-opacity:1" />
      <path
         inkscape:connector-curvature="0"
         sodipodi:nodetypes="ccccccccc"
         id="path8106"
         d="m 17.043434,99.6066 79.786532,-4.931193 c 10.613934,6.837843 25.030804,6.682333 35.297904,5.336223 l 38.71954,21.58845 c 0.41624,-3.78476 -2.15911,-7.04161 -6.14229,-9.41859 l -31.8999,-16.707242 c -13.11069,0.968779 -24.98954,0.881684 -35.108626,-6.068467 l -70.330759,3.72268 c -5.728496,0.106366 -9.873203,2.148376 -10.322401,6.478139 z"
         style="fill:#a2a2a2;fill-opacity:1;fill-rule:evenodd;stroke:none" />
      <path
         inkscape:connector-curvature="0"
         style="fill:url(#linearGradient2655);fill-opacity:1;fill-rule:evenodd;stroke:none"
         d="m 16.633046,99.56053 c 1.474015,-5.151259 6.066724,-6.346008 11.124915,-6.470113 L 25.663312,79.917376 c -3.599694,0.01583 -9.852608,2.172228 -9.775029,7.40111 l 0.744763,12.242044 z"
         id="path8108"
         sodipodi:nodetypes="ccccc" />
      <path
         inkscape:connector-curvature="0"
         style="fill:none;stroke:#ffffff;stroke-width:0.72664636;stroke-linecap:round;stroke-linejoin:round;stroke-miterlimit:4;stroke-opacity:1;stroke-dasharray:none"
         d="m 170.84741,121.60008 c 0.41624,-3.78476 -2.15911,-7.04161 -6.14229,-9.41859 l -31.8999,-16.707242 c -13.11069,0.968779 -24.98954,0.881684 -35.108626,-6.068467 l -70.330759,3.72268 c -5.728496,0.106366 -9.873203,2.148376 -10.322401,6.478139"
         id="path8110" />
      <path
         inkscape:connector-curvature="0"
         sodipodi:nodetypes="ccccc"
         id="path8112"
         d="M 7.6985461,52.357263 229.94414,77.587736 239.34649,-111.63824 15.853994,-113.31913 7.6985461,52.357263 z"
         style="fill:url(#linearGradient2651);fill-opacity:1;fill-rule:evenodd;stroke:none" />
      <path
         inkscape:connector-curvature="0"
         style="fill:url(#linearGradient4423);fill-opacity:1;fill-rule:evenodd;stroke:none"
         d="M 11.997423,47.770131 224.28728,70.285585 232.49187,-105.51501 19.382239,-108.20763 11.997423,47.770131 z"
         id="path8114"
         sodipodi:nodetypes="ccccc" />
      <path
         inkscape:connector-curvature="0"
         id="path3885"
         d="m 99.55668,-16.303115 c 3.88915,1.685928 -0.63452,5.772202 -3.148222,6.091568 -6.811964,0.8654594 -10.624833,-6.285152 -9.779815,-11.695812 1.511537,-9.678403 12.947597,-14.665208 22.372697,-12.670458 13.83172,2.927377 20.36674,17.282773 16.41141,29.4831928 C 120.14093,11.166613 100.36493,19.040123 83.815575,14.15472 62.989899,8.006945 53.495523,-14.234762 60.772569,-33.115851 c 8.813474,-22.867526 37.195974,-33.696492 60.821661,-25.828235 27.84204,9.272469 40.32735,39.518191 29.6746,65.0579512 C 138.9698,35.600527 101.90982,49.40322 71.222687,38.520992 36.354026,26.155914 20.866309,-12.134561 34.916494,-44.32434 50.67868,-80.436405 96.445332,-97.220722 134.18712,-83.310355 c 41.90052,15.443141 60.39625,61.797286 42.93778,100.63271"
         style="fill:none;stroke:url(#linearGradient4415);stroke-width:9.90326977;stroke-linecap:round;stroke-linejoin:round;stroke-miterlimit:4;stroke-opacity:1;stroke-dasharray:none" />
      <path
         inkscape:connector-curvature="0"
         style="fill:none;stroke:url(#linearGradient4413);stroke-width:7.87360859;stroke-linecap:round;stroke-linejoin:round;stroke-miterlimit:4;stroke-opacity:1;stroke-dasharray:none"
         d="m 152.42892,-31.245751 c 0.31288,3.093548 -4.5867,2.164073 -5.84577,0.78643 -3.41196,-3.733315 0.40479,-9.192488 4.80568,-11.069832 7.87218,-3.358148 16.25078,1.349837 18.57735,7.924077 3.41434,9.647972 -4.70214,19.931285 -15.4571,22.926113 -14.33464,3.9916239 -28.26094,-4.480736 -31.30895,-16.634608 -3.83559,-15.29441 8.99562,-30.845944 26.10855,-34.782377 20.72603,-4.767541 40.3597,7.599883 44.04053,25.345133 4.33772,20.912147 -13.28368,41.8029268 -36.75998,46.638646 -27.1043,5.583014 -52.48783,-10.714302 -56.77213,-34.055654 -4.86806,-26.52193 17.56944,-52.776865 47.41141,-58.494915 33.47819,-6.41479 64.62939,13.826563 69.50374,42.766173 5.41146,32.1284441 -21.85406,63.759275 -58.06284,70.351177"
         id="path4411" />
      <path
         transform="matrix(1.980654,0,0,1.980654,-0.5451398,-126.78757)"
         d="M 14.53125,11.65625 A 2.7967303,2.7967303 0 0 0 12,14.25 L 9.5,54.4375 a 2.7967303,2.7967303 0 0 0 2.75,2.96875 C 49.306388,57.902027 82.279605,42.845283 112.875,31.125 a 2.7967303,2.7967303 0 0 0 1.78125,-2.4375 l 0.8125,-12.625 a 2.7967303,2.7967303 0 0 0 -2.75,-2.96875 L 14.8125,11.65625 a 2.7967303,2.7967303 0 0 0 -0.28125,0 z"
         id="path3458"
         style="opacity:0.65573772;fill:url(#linearGradient3460);fill-opacity:1;fill-rule:evenodd;stroke:none"
         inkscape:original="M 14.78125 14.4375 L 12.28125 54.625 C 48.552383 55.110271 81.163288 40.264841 111.875 28.5 L 112.6875 15.875 L 14.78125 14.4375 z "
         inkscape:radius="2.7964506"
         sodipodi:type="inkscape:offset" />
    </g>
  </g>
</svg>
