<?xml version="1.0" encoding="UTF-8" standalone="no"?>
<!-- Created with Inkscape (http://www.inkscape.org/) -->

<svg
   xmlns:dc="http://purl.org/dc/elements/1.1/"
   xmlns:cc="http://creativecommons.org/ns#"
   xmlns:rdf="http://www.w3.org/1999/02/22-rdf-syntax-ns#"
   xmlns:svg="http://www.w3.org/2000/svg"
   xmlns="http://www.w3.org/2000/svg"
   xmlns:sodipodi="http://sodipodi.sourceforge.net/DTD/sodipodi-0.dtd"
   xmlns:inkscape="http://www.inkscape.org/namespaces/inkscape"
   version="1.0"
   width="256"
   height="256"
   id="svg1931"
   inkscape:version="0.48.4 r9939"
   sodipodi:docname="stop.svg">
  <sodipodi:namedview
     pagecolor="#ffffff"
     bordercolor="#666666"
     borderopacity="1"
     objecttolerance="10"
     gridtolerance="10"
     guidetolerance="10"
     inkscape:pageopacity="0"
     inkscape:pageshadow="2"
     inkscape:window-width="1235"
     inkscape:window-height="891"
     id="namedview11"
     showgrid="false"
     inkscape:zoom="2.6328125"
     inkscape:cx="128"
     inkscape:cy="128"
     inkscape:window-x="0"
     inkscape:window-y="0"
     inkscape:window-maximized="0"
     inkscape:current-layer="svg1931" />
  <metadata
     id="metadata12">
    <rdf:RDF>
      <cc:Work
         rdf:about="">
        <dc:format>image/svg+xml</dc:format>
        <dc:type
           rdf:resource="http://purl.org/dc/dcmitype/StillImage" />
        <dc:title />
      </cc:Work>
    </rdf:RDF>
  </metadata>
  <defs
     id="defs1933" />
  <path
     d="m 85.129292,241.94567 -0.682632,0 -1.194593,-0.17068 -1.365285,-0.34132 -1.194603,-0.3413 -1.194625,-0.51194 -1.023942,-0.68262 -1.023959,-0.85334 -60.925132,-60.92515 -0.853291,-1.02396 -0.682634,-1.02392 -0.511979,-1.19462 -0.68263,-2.38922 -0.170658,-1.36528 0,-86.182567 0.170658,-1.194612 0.341316,-1.365271 0.341314,-1.194615 0.511979,-1.02395 0.682634,-1.194609 0.853291,-1.023944 0.511979,-0.338479 60.071836,-60.07184 0.341317,-0.511973 2.047901,-1.365273 1.194625,-0.682633 1.194603,-0.341316 1.365285,-0.341319 1.194593,-0.170661 86.18268,0 1.19463,0.170661 1.36528,0.341319 1.19459,0.341316 1.02392,0.682633 1.19461,0.68264 1.02396,0.682633 0.34133,0.511973 60.07182,60.07184 0.512,0.338479 0.85331,1.023944 0.68262,1.194609 0.51197,1.02395 0.3413,1.194615 0.33848,1.365271 0.1707,1.194612 0,86.182567 -0.1707,1.36528 -0.67978,2.38922 -0.51197,1.19462 -0.68262,1.02392 -0.85331,1.02396 -60.92515,60.92515 -1.02396,0.85334 -1.19461,0.68262 -1.02392,0.51194 -1.19459,0.3413 -1.36528,0.34132 -1.19463,0.17068 -85.500048,0"
     id="path32"
     style="fill:#fffefe;fill-rule:evenodd;stroke:none"
     inkscape:connector-curvature="0" />
  <path
     d="m 85.129292,241.94567 -0.682632,0 m 0,0 -1.194593,-0.17068 m 0,0 -1.365285,-0.34132 m 0,0 -1.194603,-0.3413 m 0,0 -1.194625,-0.51194 m 0,0 -1.023942,-0.68262 m 0,0 -1.023959,-0.85334 m 0,0 -0.341317,-0.34132 -60.071836,-60.07182 -0.511979,-0.51201 m 0,0 -0.853291,-1.02396 m 0,0 -0.682634,-1.02392 m 0,0 -0.511979,-1.19462 m 0,0 -0.341314,-1.19458 -0.341316,-1.19464 m 0,0 -0.170658,-1.36528 m 0,0 0,-0.68262 0,-84.817321 0,-0.682626 m 0,0 0.170658,-1.194612 m 0,0 0.341316,-1.365271 m 0,0 0.341314,-1.194615 m 0,0 0.511979,-1.02395 m 0,0 0.682634,-1.194609 m 0,0 0.853291,-1.023944 m 0,0 0.511979,-0.341326 m 0,0 60.071836,-60.071834 m 0,0 0.341317,-0.511981 m 0,0 1.023959,-0.68263 1.023942,-0.682635 m 0,0 1.194625,-0.682637 m 0,0 1.194603,-0.341313 m 0,0 1.365285,-0.341324 m 0,0 1.194593,-0.170657 m 0,0 0.682632,0 84.817428,0 0.68262,0 m 0,0 1.19463,0.170657 m 0,0 1.36528,0.341324 m 0,0 1.19459,0.341313 m 0,0 1.02392,0.682637 m 0,0 1.19461,0.682635 m 0,0 1.02396,0.68263 m 0,0 0.34133,0.511981 m 0,0 60.07182,60.071834 m 0,0 0.512,0.341326 m 0,0 0.85331,1.023944 m 0,0 0.68262,1.194609 m 0,0 0.51197,1.02395 m 0,0 0.3413,1.194615 m 0,0 0.34132,1.365271 m 0,0 0.17067,1.194612 m 0,0 0,0.682626 0,84.817321 0,0.68262 m 0,0 -0.17067,1.36528 m 0,0 -0.34132,1.19464 -0.3413,1.19458 m 0,0 -0.51197,1.19462 m 0,0 -0.68262,1.02392 m 0,0 -0.85331,1.02396 m 0,0 -0.512,0.51201 -60.07182,60.07182 -0.34133,0.34132 m 0,0 -1.02396,0.85334 m 0,0 -1.19461,0.68262 m 0,0 -1.02392,0.51194 m 0,0 -1.19459,0.3413 m 0,0 -1.36528,0.34132 m 0,0 -1.19463,0.17068 m 0,0 -0.68262,0 m 0,0 -84.817428,0"
     id="path34"
     style="stroke:#000000;stroke-width:0.17065866;stroke-miterlimit:4;stroke-opacity:1;stroke-dasharray:none"
     inkscape:connector-curvature="0" />
  <path
     d="m 85.129292,230.51152 -60.071838,-60.07182 0,-84.817321 60.071838,-60.071833 84.817428,0 60.07181,60.071833 0,84.817321 -60.07181,60.07182 -84.817428,0"
     id="path36"
     style="fill:#cc0000;fill-opacity:1;fill-rule:evenodd;stroke:none"
     inkscape:connector-curvature="0" />
  <path
     d="m 33.435893,146.17349 12.126035,0 c -1.466759,8.49438 3.980774,15.35355 12.677217,12.30977 3.059078,-1.4453 5.196951,-4.13452 5.304121,-7.48756 -0.193076,0.21823 1.94701,-13.1083 -5.12039,-17.13198 C 48.336221,129.90443 38.552714,127.62313 35.089443,116.22586 33.11437,109.4922 33.445079,97.130432 38.764001,91.606353 53.140703,75.468924 78.118507,86.780432 75.50957,109.42797 l -12.309766,0 c 0.220471,-4.8168 0.428698,-9.575298 -4.409467,-12.126052 -2.905964,-1.580062 -7.459352,-1.23098 -9.737581,1.286076 -3.576563,3.356036 -2.856968,8.696466 -2.572185,13.044656 1.332021,7.81151 12.285263,7.83602 17.270411,11.20746 7.523661,3.93786 11.49217,10.27648 11.758588,18.7402 0.468513,11.63911 0.431767,19.75071 -9.921309,26.82424 -16.290532,8.72405 -34.537768,-2.74366 -32.152368,-22.23106 z m 61.181396,24.43581 0,-74.226024 -14.514513,0 0,-11.57486 41.338804,0 0,11.57486 -14.51446,0 0,74.226024 -12.309831,0 z m 33.071041,-19.84258 0,-47.40179 0.18374,-2.57218 0.73489,-2.388485 0.91871,-2.388447 1.28604,-2.388463 c 2.85695,-4.933091 9.30887,-8.919985 14.882,-9.370115 12.48427,-1.573941 22.99044,7.888046 23.33342,20.39375 l 0,46.11573 -0.18374,1.28604 -0.18374,2.57223 -0.73488,2.57221 -0.91863,2.38842 -1.28615,2.20473 c -2.81404,4.84738 -9.33946,9.03022 -14.88195,9.37012 -11.86269,1.79139 -23.71619,-8.25856 -23.14971,-20.39375 z m 12.12605,0 0,-46.48315 0.18374,-1.10236 0.18371,-1.10243 0.55119,-0.91859 0.36746,-0.91864 c 1.99954,-2.504819 2.86006,-3.206041 6.06301,-3.858274 5.05256,-0.597116 9.53859,3.123318 9.55385,8.267714 l 0,46.66691 -0.18373,0.9186 -0.18372,1.10237 -0.36747,0.91868 -0.55115,0.9186 c -1.72708,2.49565 -3.08355,3.23668 -6.06303,3.85828 -4.93306,0.77472 -9.51709,-3.33768 -9.55386,-8.26771 z m 41.33875,19.84258 0,-85.800884 c 17.00405,-1.638233 38.64717,-2.152674 39.869,19.842574 2.4313,21.39203 -4.6361,34.21014 -27.55922,32.33609 l 0,33.62222 -12.30978,0 z m 12.30978,-74.226024 c 7.35834,-0.652232 15.29842,-0.814533 16.16804,8.267714 0.98298,15.58628 0.87273,22.48522 -16.16804,20.76128 l 0,-29.028994"
     id="path38"
     style="fill:#fffefe;fill-rule:evenodd;stroke:#ffffff;stroke-width:3.05235744;stroke-linejoin:miter;stroke-miterlimit:4;stroke-opacity:1;stroke-dasharray:none"
     inkscape:connector-curvature="0" />
</svg>
