<?xml version="1.0" encoding="UTF-8" standalone="no"?>
<!-- Created with Inkscape (http://www.inkscape.org/) -->

<svg
   xmlns:dc="http://purl.org/dc/elements/1.1/"
   xmlns:cc="http://creativecommons.org/ns#"
   xmlns:rdf="http://www.w3.org/1999/02/22-rdf-syntax-ns#"
   xmlns:svg="http://www.w3.org/2000/svg"
   xmlns="http://www.w3.org/2000/svg"
   xmlns:xlink="http://www.w3.org/1999/xlink"
   version="1.1"
   width="128"
   height="128"
   viewBox="0 0 128 128"
   id="svg2"
   xml:space="preserve"
   style="overflow:visible"><metadata
   id="metadata63"><rdf:RDF><cc:Work
       rdf:about=""><dc:format>image/svg+xml</dc:format><dc:type
         rdf:resource="http://purl.org/dc/dcmitype/StillImage" /><dc:title></dc:title></cc:Work></rdf:RDF></metadata><defs
   id="defs61"><linearGradient
     x1="66.785202"
     y1="136.1797"
     x2="60.785099"
     y2="-7.0716"
     id="linearGradient3054"
     xlink:href="#XMLID_6_"
     gradientUnits="userSpaceOnUse" /><linearGradient
     x1="63.798801"
     y1="124.5"
     x2="63.798801"
     y2="51.5"
     id="linearGradient3056"
     xlink:href="#XMLID_7_"
     gradientUnits="userSpaceOnUse" /><linearGradient
     x1="22.0308"
     y1="44.658199"
     x2="130.2798"
     y2="61.4081"
     id="linearGradient3058"
     xlink:href="#XMLID_8_"
     gradientUnits="userSpaceOnUse" /><linearGradient
     x1="68.4375"
     y1="136.10941"
     x2="62.4375"
     y2="-7.1408"
     id="linearGradient3060"
     xlink:href="#XMLID_9_"
     gradientUnits="userSpaceOnUse" /><linearGradient
     x1="57.709999"
     y1="3.7095001"
     x2="81.459503"
     y2="88.707901"
     id="linearGradient3062"
     xlink:href="#XMLID_10_"
     gradientUnits="userSpaceOnUse" /></defs>
	
	
	<linearGradient
   x1="66.785202"
   y1="136.1797"
   x2="60.785099"
   y2="-7.0716"
   id="XMLID_6_"
   gradientUnits="userSpaceOnUse">
		<stop
   id="stop9"
   style="stop-color:#ef6401;stop-opacity:1"
   offset="0" />
		<stop
   id="stop11"
   style="stop-color:#ea5d04;stop-opacity:1"
   offset="0.47909999" />
		<stop
   id="stop13"
   style="stop-color:#e04f0a;stop-opacity:1"
   offset="1" />
	</linearGradient>
	
	<linearGradient
   x1="63.798801"
   y1="124.5"
   x2="63.798801"
   y2="51.5"
   id="XMLID_7_"
   gradientUnits="userSpaceOnUse">
		<stop
   id="stop18"
   style="stop-color:#fcb500;stop-opacity:1"
   offset="0" />
		<stop
   id="stop20"
   style="stop-color:#f99401;stop-opacity:1"
   offset="0.46059999" />
		<stop
   id="stop22"
   style="stop-color:#f56803;stop-opacity:1"
   offset="1" />
	</linearGradient>
	
	
	<linearGradient
   x1="22.0308"
   y1="44.658199"
   x2="130.2798"
   y2="61.4081"
   id="XMLID_8_"
   gradientUnits="userSpaceOnUse">
		<stop
   id="stop29"
   style="stop-color:#f8a265;stop-opacity:1"
   offset="0" />
		<stop
   id="stop31"
   style="stop-color:#f69132;stop-opacity:1"
   offset="1" />
	</linearGradient>
	
	
	
	
	<linearGradient
   x1="68.4375"
   y1="136.10941"
   x2="62.4375"
   y2="-7.1408"
   id="XMLID_9_"
   gradientUnits="userSpaceOnUse">
		<stop
   id="stop42"
   style="stop-color:#ef6401;stop-opacity:1"
   offset="0" />
		<stop
   id="stop44"
   style="stop-color:#ea5d04;stop-opacity:1"
   offset="0.47909999" />
		<stop
   id="stop46"
   style="stop-color:#e04f0a;stop-opacity:1"
   offset="1" />
	</linearGradient>
	
	<linearGradient
   x1="57.709999"
   y1="3.7095001"
   x2="81.459503"
   y2="88.707901"
   id="XMLID_10_"
   gradientUnits="userSpaceOnUse">
		<stop
   id="stop51"
   style="stop-color:#f8a265;stop-opacity:1"
   offset="0" />
		<stop
   id="stop53"
   style="stop-color:#f69132;stop-opacity:1"
   offset="1" />
	</linearGradient>
	
	<g
   transform="matrix(0.59895373,0.59895373,-0.59895459,0.59895459,65.310621,-13.739513)"
   id="g3040"><path
     d="M 83.228,8.611 C 82.963,8.799 82.805,9.103 82.805,9.427 V 27.95 c 0,0.371 0.205,0.711 0.533,0.885 13.857,7.314 22.467,21.556 22.467,37.165 0,23.159 -18.842,42 -42.006,42 -23.158,0 -42,-18.841 -42,-42 0,-15.609 8.609,-29.851 22.467,-37.164 0.328,-0.174 0.533,-0.514 0.533,-0.885 V 9.428 C 44.799,9.104 44.641,8.799 44.376,8.612 44.111,8.425 43.772,8.378 43.465,8.486 19.142,17.085 2.799,40.198 2.799,66 c 0,33.636 27.364,61 61,61 33.642,0 61.006,-27.364 61.006,-61 0,-25.802 -16.343,-48.915 -40.666,-57.515 -0.307,-0.108 -0.647,-0.061 -0.911,0.126 z"
     id="path4"
     style="opacity:0.2" /><path
     d="M 43.132,7.543 C 18.409,16.283 1.799,39.775 1.799,66 c 0,34.187 27.813,62 62,62 34.193,0 62.006,-27.813 62.006,-62 0,-26.225 -16.61,-49.717 -41.333,-58.457 C 83.862,7.326 83.18,7.42 82.651,7.795 l 0,0 c -0.529,0.374 -0.846,0.984 -0.846,1.633 v 18.523 c 0,0.743 0.408,1.42 1.064,1.769 13.531,7.14 21.936,21.042 21.936,36.28 0,22.607 -18.393,41 -41.006,41 -22.607,0 -41,-18.393 -41,-41 0,-15.238 8.404,-29.14 21.934,-36.279 0.658,-0.35 1.066,-1.026 1.066,-1.77 V 9.428 C 45.799,8.78 45.483,8.169 44.953,7.795 44.425,7.421 43.744,7.326 43.132,7.543 z"
     id="path6"
     style="opacity:0.2" /><path
     d="M 83.228,7.611 C 82.963,7.799 82.805,8.103 82.805,8.427 V 26.95 c 0,0.371 0.205,0.711 0.533,0.885 13.857,7.314 22.467,21.556 22.467,37.165 0,23.159 -18.842,42 -42.006,42 -23.158,0 -42,-18.841 -42,-42 0,-15.609 8.609,-29.851 22.467,-37.164 0.328,-0.174 0.533,-0.514 0.533,-0.885 V 8.428 C 44.799,8.104 44.641,7.799 44.376,7.612 44.111,7.425 43.772,7.378 43.465,7.486 19.142,16.085 2.799,39.198 2.799,65 c 0,33.636 27.364,61 61,61 33.642,0 61.006,-27.364 61.006,-61 0,-25.802 -16.343,-48.915 -40.666,-57.515 -0.307,-0.108 -0.647,-0.061 -0.911,0.126 z"
     id="path15"
     style="fill:url(#linearGradient3054)" /><path
     d="m 83.805,8.428 v 18.523 c 13.662,7.211 23,21.557 23,38.049 0,23.71 -19.289,43 -43.006,43 -23.711,0 -43,-19.29 -43,-43 0,-16.492 9.338,-30.838 23,-38.049 V 8.428 c -23.301,8.238 -40,30.45 -40,56.572 0,33.137 26.863,60 60,60 33.143,0 60.006,-26.863 60.006,-60 0,-26.122 -16.7,-48.334 -40,-56.572 z"
     id="path24"
     style="fill:url(#linearGradient3056)" /><path
     d="M 63.799,124 C 30.829,124 4.082,97.406 3.812,64.5 3.811,64.668 3.799,64.832 3.799,65 c 0,33.137 26.863,60 60,60 33.143,0 60.006,-26.863 60.006,-60 0,-0.168 -0.012,-0.332 -0.013,-0.5 C 123.521,97.406 96.774,124 63.799,124 z"
     id="path26"
     style="fill:#fcbe1e" /><path
     d="m 122.283,51.562 c -0.1,-0.43 -0.2,-0.859 -0.308,-1.286 -0.096,-0.379 -0.196,-0.756 -0.299,-1.132 -0.112,-0.411 -0.229,-0.821 -0.351,-1.229 -0.113,-0.382 -0.229,-0.763 -0.35,-1.142 -0.125,-0.395 -0.258,-0.786 -0.391,-1.177 -0.131,-0.384 -0.263,-0.767 -0.401,-1.146 -0.137,-0.375 -0.281,-0.746 -0.425,-1.117 -0.15,-0.389 -0.299,-0.777 -0.457,-1.161 -0.144,-0.348 -0.297,-0.691 -0.446,-1.036 -0.173,-0.398 -0.343,-0.799 -0.524,-1.193 -0.133,-0.288 -0.275,-0.571 -0.412,-0.857 -0.79,-1.646 -1.65,-3.25 -2.582,-4.808 -0.104,-0.175 -0.204,-0.354 -0.311,-0.527 -0.285,-0.466 -0.582,-0.923 -0.879,-1.38 -0.133,-0.204 -0.262,-0.41 -0.396,-0.613 -0.299,-0.447 -0.607,-0.887 -0.917,-1.326 -0.143,-0.201 -0.284,-0.404 -0.429,-0.604 -0.318,-0.438 -0.645,-0.871 -0.974,-1.3 -0.144,-0.188 -0.288,-0.377 -0.435,-0.563 -0.344,-0.437 -0.693,-0.867 -1.048,-1.294 -0.138,-0.165 -0.276,-0.33 -0.415,-0.494 -0.375,-0.439 -0.754,-0.875 -1.14,-1.304 -0.12,-0.134 -0.243,-0.265 -0.364,-0.397 -0.414,-0.452 -0.833,-0.9 -1.262,-1.339 -0.081,-0.084 -0.164,-0.165 -0.246,-0.248 -4.182,-4.238 -8.986,-7.859 -14.269,-10.71 -0.024,-0.013 -0.048,-0.026 -0.072,-0.039 -0.649,-0.35 -1.308,-0.688 -1.971,-1.014 -0.026,-0.012 -0.052,-0.024 -0.077,-0.037 -0.673,-0.329 -1.354,-0.647 -2.041,-0.952 0,0 0,0 -10e-4,0 C 86.689,9.515 85.258,8.946 83.802,8.431 v 18.523 c 9.35,4.935 16.669,13.213 20.361,23.23 10.738,0.648 18.158,2.067 18.274,2.09 -0.048,-0.24 -0.1,-0.476 -0.154,-0.712 z M 41.433,9.325 c -0.605,0.243 -1.206,0.495 -1.802,0.758 -0.13,0.057 -0.259,0.117 -0.389,0.175 -1.926,0.866 -3.799,1.83 -5.612,2.887 -0.099,0.058 -0.2,0.113 -0.3,0.172 -0.543,0.321 -1.08,0.653 -1.613,0.991 -0.173,0.11 -0.346,0.221 -0.518,0.333 -0.52,0.337 -1.036,0.679 -1.545,1.031 -0.133,0.093 -0.264,0.189 -0.397,0.283 -1.615,1.139 -3.17,2.356 -4.663,3.646 -0.189,0.163 -0.38,0.325 -0.567,0.491 -0.415,0.368 -0.823,0.742 -1.228,1.121 -0.217,0.202 -0.43,0.407 -0.643,0.613 -0.391,0.376 -0.779,0.754 -1.16,1.141 -0.195,0.2 -0.387,0.406 -0.58,0.608 -0.682,0.715 -1.347,1.446 -1.994,2.193 -0.213,0.246 -0.43,0.488 -0.639,0.738 -0.308,0.367 -0.605,0.742 -0.904,1.117 -0.243,0.305 -0.485,0.609 -0.723,0.919 -0.28,0.366 -0.557,0.735 -0.829,1.107 -0.249,0.341 -0.492,0.687 -0.733,1.032 -0.25,0.356 -0.501,0.711 -0.742,1.073 -0.336,0.504 -0.66,1.017 -0.982,1.531 -0.277,0.444 -0.547,0.895 -0.813,1.347 -0.273,0.466 -0.546,0.932 -0.808,1.405 -0.188,0.339 -0.367,0.682 -0.548,1.024 -0.234,0.445 -0.465,0.894 -0.688,1.345 -0.168,0.34 -0.336,0.681 -0.498,1.023 -0.24,0.511 -0.471,1.026 -0.697,1.544 -0.125,0.287 -0.257,0.57 -0.378,0.86 -0.329,0.785 -0.643,1.578 -0.938,2.38 -0.093,0.252 -0.176,0.508 -0.266,0.762 -0.21,0.591 -0.414,1.186 -0.605,1.785 -0.103,0.321 -0.198,0.64 -0.294,0.96 -0.17,0.565 -0.331,1.135 -0.485,1.708 -0.082,0.308 -0.166,0.615 -0.244,0.926 -0.176,0.699 -0.337,1.404 -0.488,2.113 -0.037,0.177 -0.08,0.351 -0.117,0.527 -0.179,0.881 -0.336,1.771 -0.476,2.665 -0.04,0.261 -0.073,0.522 -0.11,0.784 -0.094,0.655 -0.178,1.313 -0.25,1.975 -0.035,0.315 -0.066,0.633 -0.096,0.95 C 4.01,60.015 3.962,60.667 3.923,61.32 3.905,61.609 3.884,61.896 3.871,62.186 3.826,63.12 3.799,64.057 3.799,65 c 0,8.284 1.68,16.176 4.715,23.354 0,0.001 4.107,-6.075 13.408,-13.625 C 21.195,71.6 20.799,68.346 20.799,65 c 0,-16.492 9.338,-30.838 23,-38.049 V 8.428 c -0.634,0.225 -1.261,0.463 -1.885,0.708 -0.16,0.062 -0.321,0.125 -0.481,0.189 z"
     id="path33"
     style="fill:url(#linearGradient3058)" /><path
     d="m 4.118,58.891 c -0.005,0.053 -0.011,0.106 -0.017,0.16 -0.09,0.908 -0.158,1.824 -0.208,2.745 -0.006,0.106 -0.015,0.211 -0.019,0.317 -0.049,0.974 -0.074,1.952 -0.074,2.938 0,0.17 0.011,0.338 0.012,0.508 0.23,-25.886 16.851,-47.85 39.986,-56.031 v -1 C 22.368,16.104 6.523,35.5 4.118,58.891 z m 119.611,3.222 c -0.004,-0.106 -0.013,-0.211 -0.019,-0.317 -0.05,-0.921 -0.118,-1.837 -0.208,-2.745 -0.006,-0.054 -0.012,-0.107 -0.017,-0.16 C 121.08,35.5 105.235,16.104 83.805,8.528 v 0.999 c 23.136,8.182 39.756,30.146 39.986,56.031 0.001,-0.17 0.012,-0.338 0.012,-0.508 0,-0.985 -0.026,-1.963 -0.074,-2.937 z"
     id="path35"
     style="fill:#ffbe8f" /><path
     d="m 55.799,1 c -2.205,0 -4,1.794 -4,4 v 43 c 0,2.206 1.795,4 4,4 h 16.006 c 2.205,0 4,-1.794 4,-4 V 5 c 0,-2.206 -1.795,-4 -4,-4 H 55.799 z"
     id="path37"
     style="opacity:0.2" /><path
     d="m 55.799,2 c -1.654,0 -3,1.346 -3,3 v 43 c 0,1.654 1.346,3 3,3 h 16.006 c 1.654,0 3,-1.346 3,-3 V 5 c 0,-1.654 -1.346,-3 -3,-3 H 55.799 z"
     id="path39"
     style="opacity:0.2" /><path
     d="m 55.799,1 c -1.654,0 -3,1.346 -3,3 v 43 c 0,1.654 1.346,3 3,3 h 16.006 c 1.654,0 3,-1.346 3,-3 V 4 c 0,-1.654 -1.346,-3 -3,-3 H 55.799 z"
     id="path48"
     style="fill:url(#linearGradient3060)" /><path
     d="m 73.805,47 c 0,1.1 -0.9,2 -2,2 H 55.799 c -1.1,0 -2,-0.9 -2,-2 V 4 c 0,-1.1 0.9,-2 2,-2 h 16.006 c 1.1,0 2,0.9 2,2 v 43 z"
     id="path55"
     style="fill:url(#linearGradient3062)" /><path
     d="M 71.805,2 H 55.799 c -1.1,0 -2,0.9 -2,2 v 1 c 0,-1.1 0.9,-2 2,-2 h 16.006 c 1.1,0 2,0.9 2,2 V 4 c 0,-1.1 -0.901,-2 -2,-2 z"
     id="path57"
     style="fill:#ffbe8f" /></g>
</svg>