<?xml version="1.0" encoding="UTF-8" standalone="no"?>
<!-- Created with Inkscape (http://www.inkscape.org/) -->

<svg
   xmlns:dc="http://purl.org/dc/elements/1.1/"
   xmlns:cc="http://creativecommons.org/ns#"
   xmlns:rdf="http://www.w3.org/1999/02/22-rdf-syntax-ns#"
   xmlns:svg="http://www.w3.org/2000/svg"
   xmlns="http://www.w3.org/2000/svg"
   xmlns:sodipodi="http://sodipodi.sourceforge.net/DTD/sodipodi-0.dtd"
   xmlns:inkscape="http://www.inkscape.org/namespaces/inkscape"
   version="1.1"
   width="9070.8662"
   height="9070.8662"
   id="svg2"
   inkscape:version="0.48.3.1 r9886"
   sodipodi:docname="tint.svg">
  <sodipodi:namedview
     pagecolor="#ffffff"
     bordercolor="#666666"
     borderopacity="1"
     objecttolerance="10"
     gridtolerance="10"
     guidetolerance="10"
     inkscape:pageopacity="0"
     inkscape:pageshadow="2"
     inkscape:window-width="1432"
     inkscape:window-height="727"
     id="namedview8"
     showgrid="false"
     inkscape:zoom="0.026017361"
     inkscape:cx="4535.4331"
     inkscape:cy="4535.4331"
     inkscape:window-x="0"
     inkscape:window-y="40"
     inkscape:window-maximized="0"
     inkscape:current-layer="svg2" />
  <defs
     id="defs4" />
  <metadata
     id="metadata7">
    <rdf:RDF>
      <cc:Work
         rdf:about="">
        <dc:format>image/svg+xml</dc:format>
        <dc:type
           rdf:resource="http://purl.org/dc/dcmitype/StillImage" />
        <dc:title />
      </cc:Work>
    </rdf:RDF>
  </metadata>
  <g
     transform="matrix(0.91985294,0,0,0.91985294,416.5669,7809.2741)"
     id="layer1">
    <rect
       width="7609.9121"
       height="7609.9121"
       x="-266.81332"
       y="681.79712"
       transform="matrix(0,-1,1,0,0,0)"
       id="rect2985"
       style="fill:#cccccc;fill-opacity:1;fill-rule:evenodd;stroke:none" />
    <path
       d="m 681.79713,-7342.611 c 0,4.1139 1.05945,7.8081 1.18905,11.8905 -0.39687,0 -0.79188,0 -1.18905,0 l 0,737.2103 c 12.72185,0 25.65969,-1.1173 38.04956,-2.3798 -0.19059,4.6967 -1.18905,9.5248 -1.18905,14.2686 0,20.4302 2.52234,40.0036 5.94525,59.4524 -13.97441,-1.8399 -28.32858,-3.5635 -42.80576,-3.5635 l 0,648.0297 c 29.2603,0 57.46189,-4.6151 84.42247,-11.8905 -5.07027,22.0314 -8.32335,45.3938 -8.32335,68.9648 0,39.2997 7.84207,76.0954 21.40288,110.5814 -30.36884,-10.9603 -63.35414,-16.6466 -97.502,-16.6466 l 0,573.1215 c 55.91677,0 108.10364,-17.4841 152.19824,-45.1839 -24.69304,40.4737 -39.23861,88.2387 -39.23861,139.1189 0,147.5116 120.02459,266.3469 267.53594,266.3469 147.5114,0 267.536,-118.8353 267.536,-266.3469 0,-50.8802 -14.5456,-98.6452 -39.2386,-139.1189 44.0946,27.6998 96.2815,45.1839 152.1982,45.1839 55.9166,0 108.1038,-17.4841 152.1983,-45.1839 -24.693,40.4737 -39.2386,88.2387 -39.2386,139.1189 0,147.5116 120.0245,266.3469 267.5359,266.3469 147.5114,0 267.536,-118.8353 267.536,-266.3469 0,-50.8802 -14.5457,-98.6452 -39.2386,-139.1189 44.0945,27.6998 96.2816,45.1839 152.1982,45.1839 55.9167,0 108.1036,-17.4841 152.1982,-45.1839 -24.693,40.4737 -39.2386,88.2387 -39.2386,139.1189 0,147.5116 120.0246,266.3469 267.536,266.3469 147.5114,0 267.5359,-118.8353 267.5359,-266.3469 0,-50.8802 -14.5455,-98.6452 -39.2386,-139.1189 44.0948,27.6998 96.2815,45.1839 152.1983,45.1839 55.9166,0 108.1037,-17.4841 152.1982,-45.1839 -24.693,40.4737 -39.2386,88.2387 -39.2386,139.1189 0,147.5116 120.0244,266.3469 267.536,266.3469 147.5113,0 267.5359,-118.8353 267.5359,-266.3469 0,-50.8802 -14.5455,-98.6452 -39.2386,-139.1189 44.0945,27.6998 96.2815,45.1839 152.1983,45.1839 55.9166,0 108.1037,-17.4841 152.1982,-45.1839 -24.693,40.4737 -39.2386,88.2387 -39.2386,139.1189 0,147.5116 120.0244,266.3469 267.536,266.3469 147.5116,0 267.5362,-118.8353 267.5362,-266.3469 0,-50.8802 -14.5457,-98.6452 -39.2388,-139.1189 44.0946,27.6998 96.2816,45.1839 152.1982,45.1839 55.9166,0 108.1037,-17.4841 152.1983,-45.1839 -24.6932,40.4737 -39.2385,88.2387 -39.2385,139.1189 0,147.5116 120.0246,266.3469 267.5358,266.3469 147.5112,0 267.5358,-118.8353 267.5358,-266.3469 0,-50.8802 -14.5453,-98.6452 -39.2384,-139.1189 44.0946,27.6998 96.2816,45.1839 152.1982,45.1839 55.9166,0 108.1037,-17.4841 152.1983,-45.1839 -24.6932,40.4737 -39.2388,88.2387 -39.2388,139.1189 0,147.5116 120.0249,266.3469 267.5361,266.3469 147.5113,0 267.5358,-118.8353 267.5358,-266.3469 0,-50.8802 -14.5456,-98.6452 -39.2384,-139.1189 44.0942,27.6998 96.2816,45.1839 152.1982,45.1839 55.9163,0 108.1037,-17.4841 152.1983,-45.1839 -24.6932,40.4737 -39.2388,88.2387 -39.2388,139.1189 0,147.5116 120.0246,266.3469 267.5361,266.3469 147.5113,0 267.5358,-118.8353 267.5358,-266.3469 0,-50.8802 -14.5456,-98.6452 -39.2384,-139.1189 44.0942,27.6998 96.2816,45.1839 152.1982,45.1839 55.9163,0 108.1037,-17.4841 152.1979,-45.1839 -24.6928,40.4737 -39.2384,88.2387 -39.2384,139.1189 0,147.5116 120.0246,266.3469 267.5358,266.3469 147.5116,0 267.5361,-118.8353 267.5361,-266.3469 0,-50.8802 -14.5456,-98.6452 -39.2388,-139.1189 44.0946,27.6998 96.282,45.1839 152.1983,45.1839 55.9166,0 108.104,-17.4841 152.1982,-45.1839 -24.6928,40.4737 -39.2384,88.2387 -39.2384,139.1189 0,147.5116 120.0246,266.3469 267.5358,266.3469 147.5112,0 267.5365,-118.8353 267.5365,-266.3469 0,-50.8802 -14.5457,-98.6452 -39.2391,-139.1189 44.0949,27.6998 96.2819,45.1839 152.1985,45.1839 l 0,-573.1215 c -34.1477,0 -67.1329,5.6863 -97.502,16.6466 13.5609,-34.486 21.4029,-71.2817 21.4029,-110.5814 0,-23.571 -3.2549,-46.9334 -8.3232,-68.9648 26.9602,7.2754 55.1622,11.8905 84.4223,11.8905 l 0,-648.0314 c -14.4771,0 -28.8312,1.726 -42.8057,3.5652 3.4244,-19.4492 5.9454,-39.0222 5.9454,-59.4524 0,-4.7438 -0.9997,-9.5719 -1.1899,-14.2686 12.3896,1.2591 25.3278,2.3798 38.0495,2.3798 l 0,-737.2103 c -0.3977,0 -0.7921,0 -1.1899,0 0.1384,-4.0824 1.1899,-7.7766 1.1899,-11.8905 l -760.9915,0 c 0,4.1139 1.0585,7.8081 1.1899,11.8905 -0.3978,0 -0.7921,0 -1.1899,0 -0.3978,0 -0.7921,0 -1.1865,0 0.1384,-4.0824 1.1865,-7.7766 1.1865,-11.8905 l -760.9912,0 c 0,4.1139 1.0619,7.8081 1.1899,11.8905 -0.3978,0 -0.7921,0 -1.1899,0 -0.3978,0 -0.7921,0 -1.1865,0 0.1384,-4.0824 1.1865,-7.7766 1.1865,-11.8905 l -760.9909,0 c 0,4.1139 1.062,7.8081 1.1865,11.8905 -0.3978,0 -0.7921,0 -1.1865,0 -0.3978,0 -0.7921,0 -1.1899,0 0.1384,-4.0824 1.1899,-7.7766 1.1899,-11.8905 l -760.9912,0 c 0,4.1139 1.062,7.8081 1.1865,11.8905 -0.3978,0 -0.7921,0 -1.1865,0 -0.3978,0 -0.7921,0 -1.1899,0 0.1384,-4.0824 1.1899,-7.7766 1.1899,-11.8905 l -760.9912,0 c 0,4.1139 1.0585,7.8081 1.1899,11.8905 -0.3978,0 -0.7921,0 -1.1899,0 -0.3978,0 -0.7921,0 -1.1899,0 0.1384,-4.0824 1.1899,-7.7766 1.1899,-11.8905 l -760.9913,0 c 0,4.1139 1.0602,7.8081 1.1885,11.8905 -0.3981,0 -0.7914,0 -1.1885,0 -0.3981,0 -0.7914,0 -1.1885,0 0.1314,-4.0824 1.1885,-7.7766 1.1885,-11.8905 l -760.9911,0 c 0,4.1139 1.0601,7.8081 1.1885,11.8905 -0.3982,0 -0.7915,0 -1.1885,0 -0.3982,0 -0.7915,0 -1.1886,0 0.1315,-4.0824 1.1886,-7.7766 1.1886,-11.8905 l -760.9913,0 c 0,4.1139 1.0592,7.8081 1.1886,11.8905 -0.3971,0 -0.7915,0 -1.1886,0 -0.3971,0 -0.7928,0 -1.1885,0 0.128,-4.0806 1.1885,-7.7749 1.1885,-11.8887 l -760.9911,0 c 0,4.1138 1.0595,7.8081 1.1892,11.8904 -0.3968,0 -0.7918,0 -1.1892,0 -0.3971,0 -0.7921,0 -1.1889,0 0.128,-4.0823 1.1885,-7.7766 1.1885,-11.8904 l -760.99007,0 z m 368.60507,379.3068 c 3.9599,0.1037 7.9011,1.1864 11.8905,1.1864 3.9895,0 7.9307,-1.0688 11.8905,-1.1864 -10e-4,0.3943 0,0.7921 0,1.1864 0,12.7217 1.1197,24.4707 2.3781,36.8604 -4.6866,-0.173 -9.5353,0 -14.2686,0 -4.7332,0 -9.5819,-0.173 -14.2685,0 1.2584,-12.3897 2.378,-24.1387 2.378,-36.8604 0,-0.3943 10e-4,-0.7921 0,-1.1864 z m 760.9912,0 c 3.9598,0.1037 7.901,1.1864 11.8905,1.1864 3.9894,0 7.9306,-1.0688 11.8905,-1.1864 0,0.3943 0,0.7921 0,1.1864 0,12.7217 1.1197,24.4707 2.3781,36.8604 -4.6867,-0.173 -9.5354,0 -14.2686,0 -4.7333,0 -9.582,-0.173 -14.2686,0 1.2584,-12.3897 2.3781,-24.1387 2.3781,-36.8604 0,-0.3943 0,-0.7921 0,-1.1864 z m 760.9912,0 c 3.9598,0.1037 7.9011,1.1864 11.8905,1.1864 3.9895,0 7.9306,-1.0688 11.8905,-1.1864 0,0.3943 0,0.7921 0,1.1864 0,12.7217 1.12,24.4707 2.3781,36.8604 -4.6866,-0.173 -9.5355,0 -14.2686,0 -4.7333,0 -9.5819,-0.173 -14.2686,0 1.258,-12.3897 2.3781,-24.1387 2.3781,-36.8604 0,-0.3943 0,-0.7921 0,-1.1864 z m 760.9912,0 c 3.9598,0.1037 7.901,1.1864 11.8905,1.1864 3.9895,0 7.9306,-1.0688 11.8905,-1.1864 0,0.3943 0,0.7921 0,1.1864 0,12.7217 1.12,24.4707 2.3781,36.8604 -4.6866,-0.173 -9.5354,0 -14.2686,0 -4.7333,0 -9.582,-0.173 -14.2686,0 1.2581,-12.3897 2.3781,-24.1387 2.3781,-36.8604 0,-0.3943 0,-0.7921 0,-1.1864 z m 760.9912,0 c 3.9598,0.1037 7.901,1.1864 11.8905,1.1864 3.9895,0 7.9307,-1.0688 11.8905,-1.1864 0,0.3943 0,0.7921 0,1.1864 0,12.7217 1.12,24.4707 2.3781,36.8604 -4.6866,-0.173 -9.5354,0 -14.2686,0 -4.7333,0 -9.582,-0.173 -14.2686,0 1.2581,-12.3897 2.3781,-24.1387 2.3781,-36.8604 0,-0.3943 0,-0.7921 0,-1.1864 z m 760.9912,0 c 3.96,0.1037 7.9009,1.1864 11.8905,1.1864 3.9893,0 7.9306,-1.0688 11.8905,-1.1864 0,0.3943 0,0.7921 0,1.1864 0,12.7217 1.1207,24.4707 2.3798,36.8604 -4.6866,-0.173 -9.5352,0 -14.2685,0 -4.7334,0 -9.582,-0.173 -14.2686,0 1.2591,-12.3897 2.3763,-24.1387 2.3763,-36.8604 0,-0.3943 0,-0.7921 0,-1.1864 z m 760.9912,0 c 3.96,0.1037 7.9009,1.1864 11.8905,1.1864 3.9893,0 7.9306,-1.0688 11.8905,-1.1864 0,0.3943 0,0.7921 0,1.1864 0,12.7217 1.1207,24.4707 2.3764,36.8604 -4.6867,-0.173 -9.5352,0 -14.2686,0 -4.7334,0 -9.5819,-0.173 -14.2686,0 1.2591,-12.3897 2.3764,-24.1387 2.3764,-36.8604 0,-0.3943 0,-0.7921 0,-1.1864 z m 760.9912,0 c 3.9596,0.1037 7.9009,1.1864 11.8905,1.1864 3.9894,0 7.9306,-1.0688 11.8905,-1.1864 0,0.3943 0,0.7921 0,1.1864 0,12.7217 1.1207,24.4707 2.3764,36.8604 -4.6867,-0.173 -9.5352,0 -14.2686,0 -4.7334,0 -9.5823,-0.173 -14.2686,0 1.2591,-12.3897 2.3764,-24.1387 2.3764,-36.8604 0,-0.3943 0,-0.7921 0,-1.1864 z m 760.9909,0 c 3.9599,0.1037 7.9012,1.1864 11.8905,1.1864 3.9897,0 7.9309,-1.0688 11.8905,-1.1864 0,0.3943 0,0.7921 0,1.1864 0,12.7217 1.1207,24.4707 2.3763,36.8604 -4.6863,-0.173 -9.5352,0 -14.2685,0 -4.7334,0 -9.582,-0.173 -14.2686,0 1.2591,-12.3897 2.3763,-24.1387 2.3763,-36.8604 0,-0.3943 0,-0.7921 0,-1.1864 z m 760.9912,0 c 3.9599,0.1037 7.9012,1.1864 11.8905,1.1864 3.9897,0 7.9309,-1.0688 11.8905,-1.1864 0,0.3943 0,0.7921 0,1.1864 0,12.7217 1.1207,24.4707 2.3763,36.8604 -4.6863,-0.173 -9.5352,0 -14.2685,0 -4.7334,0 -9.582,-0.173 -14.2686,0 1.2591,-12.3897 2.3763,-24.1387 2.3763,-36.8604 0,-0.3943 0,-0.7921 0,-1.1864 z m -6494.584,367.4159 c 12.3899,1.2591 25.3278,2.3798 38.0496,2.3798 12.7219,0 25.6598,-1.1172 38.0496,-2.3798 -0.1902,4.6967 -1.1892,9.5249 -1.1892,14.2686 0,20.4302 2.5223,40.0036 5.9452,59.4524 -13.9744,-1.8402 -28.3286,-3.5652 -42.8057,-3.5652 -14.4772,0 -28.8314,1.7261 -42.8058,3.5652 3.4231,-19.4488 5.9452,-39.0222 5.9452,-59.4524 0,-4.7437 -0.9983,-9.5719 -1.1892,-14.2686 z m 760.9912,0 c 12.3898,1.2591 25.3277,2.3798 38.0496,2.3798 12.7218,0 25.6596,-1.1172 38.0495,-2.3798 -0.1902,4.6967 -1.1885,9.5249 -1.1885,14.2686 0,20.4302 2.5223,40.0036 5.9452,59.4524 -13.9743,-1.8402 -28.3285,-3.5652 -42.8057,-3.5652 -14.4771,0 -28.8314,1.7261 -42.8058,3.5652 3.4231,-19.4488 5.9453,-39.0222 5.9453,-59.4524 0,-4.7437 -0.9983,-9.5719 -1.1885,-14.2686 z m 760.9913,0 c 12.3898,1.2591 25.3276,2.3798 38.0495,2.3798 12.7218,0 25.6596,-1.1172 38.0495,-2.3798 -0.1902,4.6967 -1.1885,9.5249 -1.1885,14.2686 0,20.4302 2.5223,40.0036 5.9453,59.4524 -13.9745,-1.8402 -28.3287,-3.5652 -42.8058,-3.5652 -14.4771,0 -28.8313,1.7261 -42.8058,3.5652 3.4231,-19.4488 5.9453,-39.0222 5.9453,-59.4524 0,-4.7437 -0.9993,-9.5719 -1.1885,-14.2686 z m 760.9911,0 c 12.3898,1.2591 25.3277,2.3798 38.0496,2.3798 12.7219,0 25.6596,-1.1172 38.0495,-2.3798 -0.1902,4.6967 -1.1885,9.5249 -1.1885,14.2686 0,20.4302 2.5224,40.0036 5.9453,59.4524 -13.9745,-1.8402 -28.3287,-3.5652 -42.8058,-3.5652 -14.4771,0 -28.8313,1.7261 -42.8058,3.5652 3.4231,-19.4488 5.9453,-39.0222 5.9453,-59.4524 0,-4.7437 -0.9993,-9.5719 -1.1885,-14.2686 z m 760.9913,0 c 12.3899,1.2591 25.3278,2.3798 38.0495,2.3798 12.7221,0 25.66,-1.1172 38.0496,-2.3798 -0.2076,4.6967 -1.1899,9.5249 -1.1899,14.2686 0,20.4302 2.5216,40.0036 5.9454,59.4524 -13.9746,-1.8402 -28.3286,-3.5652 -42.8058,-3.5652 -14.4771,0 -28.8312,1.7261 -42.8057,3.5652 3.4244,-19.4488 5.945,-39.0222 5.945,-59.4524 0,-4.7437 -0.9996,-9.5719 -1.1899,-14.2686 z m 760.9912,0 c 12.3896,1.2591 25.3275,2.3798 38.0495,2.3798 12.7217,0 25.66,-1.1172 38.0496,-2.3798 -0.173,4.6967 -1.1899,9.5249 -1.1899,14.2686 0,20.4302 2.5216,40.0036 5.9454,59.4524 -13.9746,-1.8402 -28.3286,-3.5652 -42.8058,-3.5652 -14.4771,0 -28.8315,1.7261 -42.8057,3.5652 3.4244,-19.4488 5.945,-39.0222 5.945,-59.4524 0,-4.7437 -0.9996,-9.5719 -1.1899,-14.2686 z m 760.9912,0 c 12.3896,1.2591 25.3275,2.3798 38.0495,2.3798 12.7217,0 25.66,-1.1172 38.0496,-2.3798 -0.173,4.6967 -1.1899,9.5249 -1.1899,14.2686 0,20.4302 2.5216,40.0036 5.9454,59.4524 -13.9746,-1.8402 -28.3289,-3.5652 -42.8058,-3.5652 -14.4771,0 -28.8315,1.7261 -42.8057,3.5652 3.4244,-19.4488 5.9451,-39.0222 5.9451,-59.4524 0,-4.7437 -0.9997,-9.5719 -1.19,-14.2686 z m 760.9912,0 c 12.3896,1.2591 25.3275,2.3798 38.0495,2.3798 12.7217,0 25.6596,-1.1172 38.0496,-2.3798 -0.173,4.6967 -1.1899,9.5249 -1.1899,14.2686 0,20.4302 2.5216,40.0036 5.945,59.4524 -13.9742,-1.8402 -28.3285,-3.5652 -42.8057,-3.5652 -14.4768,0 -28.8312,1.7261 -42.8058,3.5652 3.4245,-19.4488 5.9455,-39.0222 5.9455,-59.4524 0,-4.7437 -0.9997,-9.5719 -1.19,-14.2686 z m 760.9908,0 c 12.39,1.2591 25.3279,2.3798 38.0496,2.3798 12.722,0 25.6599,-1.1172 38.0495,-2.3798 -0.1729,4.6967 -1.1864,9.5249 -1.1864,14.2686 0,20.4302 2.5216,40.0036 5.9451,59.4524 -13.9746,-1.8402 -28.3286,-3.5652 -42.8058,-3.5652 -14.4772,0 -28.8312,1.7261 -42.8057,3.5652 3.4244,-19.4488 5.9454,-39.0222 5.9454,-59.4524 0,-4.7437 -0.9997,-9.5719 -1.1899,-14.2686 z m -6489.8277,350.7693 c 19.3672,3.3933 39.1133,5.9454 59.4524,5.9454 20.3393,0 40.0853,-2.5528 59.4525,-5.9454 -1.944,14.3495 -2.3781,29.1127 -2.3781,43.9949 0,28.962 3.5687,56.5199 10.7014,83.2335 -21.6936,-4.9074 -44.5984,-7.1343 -67.7758,-7.1343 -23.1774,0 -46.0821,2.2276 -67.77575,7.1343 7.13275,-26.7136 10.70145,-54.2715 10.70145,-83.2335 0,-14.8822 -0.4342,-29.6454 -2.3781,-43.9949 z m 760.9911,0 c 19.3672,3.3933 39.1133,5.9454 59.4525,5.9454 20.3392,0 40.0852,-2.5528 59.4524,-5.9454 -1.944,14.3495 -2.3781,29.1127 -2.3781,43.9949 0,28.962 3.5687,56.5199 10.7015,83.2335 -21.6937,-4.9074 -44.5984,-7.1343 -67.7758,-7.1343 -23.1775,0 -46.0821,2.2276 -67.7758,7.1343 7.1327,-26.7136 10.7014,-54.2715 10.7014,-83.2335 0,-14.8822 -0.4341,-29.6454 -2.3781,-43.9949 z m 760.9913,0 c 19.3672,3.3933 39.1131,5.9454 59.4524,5.9454 20.3391,0 40.0852,-2.5528 59.4524,-5.9454 -1.944,14.3495 -2.3781,29.1127 -2.3781,43.9949 0,28.962 3.5687,56.5199 10.7015,83.2335 -21.6936,-4.9074 -44.5986,-7.1343 -67.7758,-7.1343 -23.1774,0 -46.0821,2.2276 -67.7758,7.1343 7.1328,-26.7136 10.7015,-54.2715 10.7015,-83.2335 0,-14.8822 -0.4338,-29.6454 -2.3781,-43.9949 z m 760.9911,0 c 19.3673,3.3933 39.1132,5.9454 59.4525,5.9454 20.3391,0 40.0852,-2.5528 59.4524,-5.9454 -1.944,14.3495 -2.3781,29.1127 -2.3781,43.9949 0,28.962 3.5687,56.5199 10.7014,83.2335 -21.6936,-4.9074 -44.5982,-7.1343 -67.7757,-7.1343 -23.1775,0 -46.0822,2.2276 -67.7758,7.1343 7.1328,-26.7136 10.7014,-54.2715 10.7014,-83.2335 0,-14.8822 -0.4337,-29.6454 -2.3781,-43.9949 z m 760.9912,0 c 19.3673,3.3933 39.1132,5.9454 59.4525,5.9454 20.3391,0 40.0852,-2.5528 59.4525,-5.9454 -1.944,14.3495 -2.3764,29.1127 -2.3764,43.9949 0,28.962 3.5687,56.5199 10.7016,83.2335 -21.6938,-4.9074 -44.5985,-7.1343 -67.776,-7.1343 -23.1775,0 -46.0822,2.2276 -67.7758,7.1343 7.1328,-26.7136 10.7015,-54.2715 10.7015,-83.2335 0,-14.8822 -0.4338,-29.6454 -2.3781,-43.9949 z m 760.9913,0 c 19.3672,3.3933 39.1129,5.9454 59.4524,5.9454 20.3392,0 40.0852,-2.5528 59.4525,-5.9454 -1.944,14.3495 -2.3764,29.1127 -2.3764,43.9949 0,28.962 3.5687,56.5199 10.7013,83.2335 -21.6935,-4.9074 -44.5983,-7.1343 -67.7756,-7.1343 -23.1774,0 -46.0822,2.2276 -67.7757,7.1343 7.1326,-26.7136 10.7013,-54.2715 10.7013,-83.2335 0,-14.8822 -0.4324,-29.6454 -2.3798,-43.9949 z m 760.9912,0 c 19.3672,3.3933 39.1129,5.9454 59.4524,5.9454 20.3392,0 40.0852,-2.5528 59.4525,-5.9454 -1.944,14.3495 -2.3764,29.1127 -2.3764,43.9949 0,28.962 3.5687,56.5199 10.7013,83.2335 -21.6935,-4.9074 -44.5983,-7.1343 -67.7756,-7.1343 -23.1778,0 -46.0822,2.2276 -67.776,7.1343 7.1329,-26.7136 10.7016,-54.2715 10.7016,-83.2335 0,-14.8822 -0.4324,-29.6454 -2.3764,-43.9949 z m 760.9912,0 c 19.3672,3.3933 39.1129,5.9454 59.4524,5.9454 20.3392,0 40.0852,-2.5528 59.4525,-5.9454 -1.944,14.3495 -2.3764,29.1127 -2.3764,43.9949 0,28.962 3.5687,56.5199 10.7013,83.2335 -21.6935,-4.9074 -44.5983,-7.1343 -67.7756,-7.1343 -23.1778,0 -46.0822,2.2276 -67.776,7.1343 7.1329,-26.7136 10.7016,-54.2715 10.7016,-83.2335 0,-14.8822 -0.4324,-29.6454 -2.3764,-43.9949 z m 760.9908,0 c 19.3673,3.3933 39.1133,5.9454 59.4525,5.9454 20.3396,0 40.0852,-2.5528 59.4524,-5.9454 -1.944,14.3495 -2.3763,29.1127 -2.3763,43.9949 0,28.962 3.5687,56.5199 10.7016,83.2335 -21.6935,-4.9074 -44.5983,-7.1343 -67.776,-7.1343 -23.1774,0 -46.0822,2.2276 -67.7756,7.1343 7.1329,-26.7136 10.7013,-54.2715 10.7013,-83.2335 0,-14.8822 -0.4324,-29.6454 -2.3764,-43.9949 z m 760.9913,0 c 19.3672,3.3933 39.1132,5.9454 59.4524,5.9454 20.3396,0 40.0852,-2.5528 59.4524,-5.9454 -1.944,14.3495 -2.3763,29.1127 -2.3763,43.9949 0,28.962 3.5687,56.5199 10.7016,83.2335 -21.6938,-4.9074 -44.5983,-7.1343 -67.776,-7.1343 -23.1774,0 -46.0821,2.2276 -67.7756,7.1343 7.1326,-26.7136 10.7013,-54.2715 10.7013,-83.2335 0,-14.8822 -0.4324,-29.6454 -2.3764,-43.9949 z m -6493.395,355.5257 c 26.9606,7.2754 55.1622,11.8905 84.4225,11.8905 29.2603,0 57.462,-4.6151 84.4225,-11.8905 -5.0702,22.0314 -8.3233,45.3938 -8.3233,68.9648 0,39.2997 7.842,76.0954 21.4028,110.5814 -30.3687,-10.9603 -63.3542,-16.6466 -97.502,-16.6466 -34.1478,0 -67.1332,5.6863 -97.502,16.6466 13.5608,-34.486 21.4029,-71.2817 21.4029,-110.5814 0,-23.571 -3.2529,-46.9334 -8.3234,-68.9648 z m 760.9912,0 c 26.9605,7.2754 55.1623,11.8905 84.4225,11.8905 29.2604,0 57.4618,-4.6151 84.4224,-11.8905 -5.0702,22.0314 -8.3233,45.3938 -8.3233,68.9648 0,39.2997 7.842,76.0954 21.4029,110.5814 -30.3689,-10.9603 -63.3542,-16.6466 -97.502,-16.6466 -34.1477,0 -67.1333,5.6863 -97.502,16.6466 13.5607,-34.486 21.4029,-71.2817 21.4029,-110.5814 0,-23.571 -3.2533,-46.9334 -8.3234,-68.9648 z m 760.9912,0 c 26.9605,7.2754 55.1621,11.8905 84.4225,11.8905 29.2602,0 57.4618,-4.6151 84.4224,-11.8905 -5.0703,22.0314 -8.3233,45.3938 -8.3233,68.9648 0,39.2997 7.842,76.0954 21.4029,110.5814 -30.3688,-10.9603 -63.3543,-16.6466 -97.502,-16.6466 -34.1478,0 -67.1331,5.6863 -97.502,16.6466 13.5608,-34.486 21.4029,-71.2817 21.4029,-110.5814 0,-23.571 -3.2533,-46.9334 -8.3234,-68.9648 z m 760.9912,0 c 26.9605,7.2754 55.1622,11.8905 84.4225,11.8905 29.2603,0 57.4619,-4.6151 84.4224,-11.8905 -5.0703,22.0314 -8.3233,45.3938 -8.3233,68.9648 0,39.2997 7.842,76.0954 21.4028,110.5814 -30.3688,-10.9603 -63.3542,-16.6466 -97.5019,-16.6466 -34.1479,0 -67.1331,5.6863 -97.502,16.6466 13.5608,-34.486 21.4029,-71.2817 21.4029,-110.5814 0,-23.571 -3.2533,-46.9334 -8.3234,-68.9648 z m 760.9914,0 c 26.9606,7.2754 55.1622,11.8905 84.4223,11.8905 29.2601,0 57.4621,-4.6151 84.4227,-11.8905 -5.0703,22.0314 -8.3236,45.3938 -8.3236,68.9648 0,39.2997 7.8421,76.0954 21.4029,110.5814 -30.3687,-10.9603 -63.3539,-16.6466 -97.502,-16.6466 -34.1477,0 -67.1332,5.6863 -97.502,16.6466 13.5609,-34.486 21.4029,-71.2817 21.4029,-110.5814 0,-23.571 -3.2515,-46.9334 -8.3232,-68.9648 z m 760.9909,0 c 26.9605,7.2754 55.1625,11.8905 84.4226,11.8905 29.2601,0 57.4621,-4.6151 84.4223,-11.8905 -5.0699,22.0314 -8.3232,45.3938 -8.3232,68.9648 0,39.2997 7.8421,76.0954 21.4029,110.5814 -30.3691,-10.9603 -63.3542,-16.6466 -97.502,-16.6466 -34.1481,0 -67.1332,5.6863 -97.502,16.6466 13.5609,-34.486 21.4029,-71.2817 21.4029,-110.5814 0,-23.571 -3.255,-46.9334 -8.3235,-68.9648 z m 760.9912,0 c 26.9605,7.2754 55.1625,11.8905 84.4226,11.8905 29.2601,0 57.4621,-4.6151 84.4223,-11.8905 -5.0699,22.0314 -8.3232,45.3938 -8.3232,68.9648 0,39.2997 7.8421,76.0954 21.4029,110.5814 -30.3691,-10.9603 -63.3542,-16.6466 -97.502,-16.6466 -34.1481,0 -67.1332,5.6863 -97.502,16.6466 13.5609,-34.486 21.4029,-71.2817 21.4029,-110.5814 0,-23.571 -3.255,-46.9334 -8.3235,-68.9648 z m 760.9912,0 c 26.9605,7.2754 55.1625,11.8905 84.4226,11.8905 29.2601,0 57.4618,-4.6151 84.4223,-11.8905 -5.0699,22.0314 -8.3231,45.3938 -8.3231,68.9648 0,39.2997 7.842,76.0954 21.4028,110.5814 -30.3691,-10.9603 -63.3542,-16.6466 -97.502,-16.6466 -34.1481,0 -67.1332,5.6863 -97.502,16.6466 13.5609,-34.486 21.4029,-71.2817 21.4029,-110.5814 0,-23.571 -3.255,-46.9334 -8.3235,-68.9648 z m 760.9912,0 c 26.9602,7.2754 55.1622,11.8905 84.4223,11.8905 29.2601,0 57.4621,-4.6151 84.4226,-11.8905 -5.0703,22.0314 -8.3235,45.3938 -8.3235,68.9648 0,39.2997 7.842,76.0954 21.4029,110.5814 -30.3688,-10.9603 -63.3539,-16.6466 -97.502,-16.6466 -34.1478,0 -67.1329,5.6863 -97.502,16.6466 13.5609,-34.486 21.4029,-71.2817 21.4029,-110.5814 0,-23.571 -3.255,-46.9334 -8.3232,-68.9648 z M 950.52215,-5538.824 c 34.58572,13.6514 72.33305,22.5921 111.77055,22.5921 39.4376,0 77.1849,-8.9407 111.7706,-22.5921 -11.2465,30.7156 -17.8357,64.0796 -17.8357,98.6912 0,55.9169 16.2949,106.9147 43.9948,151.009 -40.2341,-24.2815 -87.5095,-38.0496 -137.9297,-38.0496 -50.4201,0 -97.69554,13.7681 -137.92963,38.0496 27.69989,-44.0943 43.99481,-95.0921 43.99481,-151.009 0,-34.6116 -6.5893,-67.9756 -17.83573,-98.6912 z m 760.99115,0 c 34.5858,13.6514 72.3329,22.5921 111.7706,22.5921 39.4375,0 77.1849,-8.9407 111.7706,-22.5921 -11.2465,30.7156 -17.8358,64.0796 -17.8358,98.6912 0,55.9169 16.295,106.9147 43.9949,151.009 -40.2341,-24.2815 -87.5096,-38.0496 -137.9297,-38.0496 -50.4201,0 -97.6956,13.7681 -137.9297,38.0496 27.6999,-44.0943 43.9948,-95.0921 43.9948,-151.009 0,-34.6116 -6.5893,-67.9756 -17.8357,-98.6912 z m 760.9912,0 c 34.5858,13.6514 72.333,22.5921 111.7706,22.5921 39.4376,0 77.1848,-8.9407 111.7706,-22.5921 -11.2466,30.7156 -17.8358,64.0796 -17.8358,98.6912 0,55.9169 16.2949,106.9147 43.9948,151.009 -40.234,-24.2815 -87.5096,-38.0496 -137.9296,-38.0496 -50.4201,0 -97.6956,13.7681 -137.9296,38.0496 27.6998,-44.0943 43.9948,-95.0921 43.9948,-151.009 0,-34.6116 -6.5894,-67.9756 -17.8358,-98.6912 z m 760.9912,0 c 34.5856,13.6514 72.333,22.5921 111.7706,22.5921 39.4376,0 77.1849,-8.9407 111.7706,-22.5921 -11.2466,30.7156 -17.8358,64.0796 -17.8358,98.6912 0,55.9169 16.2949,106.9147 43.9948,151.009 -40.234,-24.2815 -87.5097,-38.0496 -137.9296,-38.0496 -50.4202,0 -97.6957,13.7681 -137.9297,38.0496 27.6999,-44.0943 43.9948,-95.0921 43.9948,-151.009 0,-34.6116 -6.5892,-67.9756 -17.8357,-98.6912 z m 760.9912,0 c 34.5858,13.6514 72.333,22.5921 111.7706,22.5921 39.4377,0 77.1849,-8.9407 111.7706,-22.5921 -11.2464,30.7156 -17.8356,64.0796 -17.8356,98.6912 0,55.9169 16.2949,106.9147 43.9947,151.009 -40.234,-24.2815 -87.5095,-38.0496 -137.9297,-38.0496 -50.4201,0 -97.6957,13.7681 -137.9297,38.0496 27.6999,-44.0943 43.9948,-95.0921 43.9948,-151.009 0,-34.6116 -6.5892,-67.9756 -17.8357,-98.6912 z m 760.9912,0 c 34.5861,13.6514 72.3329,22.5921 111.7706,22.5921 39.4377,0 77.1846,-8.9407 111.7706,-22.5921 -11.2464,30.7156 -17.8359,64.0796 -17.8359,98.6912 0,55.9169 16.2952,106.9147 43.995,151.009 -40.234,-24.2815 -87.5095,-38.0496 -137.9297,-38.0496 -50.4201,0 -97.6957,13.7681 -137.9296,38.0496 27.6997,-44.0943 43.9949,-95.0921 43.9949,-151.009 0,-34.6116 -6.5895,-67.9756 -17.8359,-98.6912 z m 760.9912,0 c 34.5861,13.6514 72.3329,22.5921 111.7706,22.5921 39.4377,0 77.1846,-8.9407 111.7706,-22.5921 -11.2464,30.7156 -17.8359,64.0796 -17.8359,98.6912 0,55.9169 16.2952,106.9147 43.995,151.009 -40.234,-24.2815 -87.5095,-38.0496 -137.9297,-38.0496 -50.4201,0 -97.6957,13.7681 -137.9296,38.0496 27.6997,-44.0943 43.9946,-95.0921 43.9946,-151.009 0,-34.6116 -6.5891,-67.9756 -17.8356,-98.6912 z m 760.9912,0 c 34.5857,13.6514 72.333,22.5921 111.7706,22.5921 39.4374,0 77.1846,-8.9407 111.7706,-22.5921 -11.2464,30.7156 -17.8359,64.0796 -17.8359,98.6912 0,55.9169 16.2952,106.9147 43.995,151.009 -40.234,-24.2815 -87.5095,-38.0496 -137.9297,-38.0496 -50.4205,0 -97.6957,13.7681 -137.9296,38.0496 27.6997,-44.0943 43.9946,-95.0921 43.9946,-151.009 0,-34.6116 -6.5895,-67.9756 -17.8356,-98.6912 z m 760.9909,0 c 34.586,13.6514 72.3333,22.5921 111.7706,22.5921 39.4377,0 77.1849,-8.9407 111.7706,-22.5921 -11.2461,30.7156 -17.8356,64.0796 -17.8356,98.6912 0,55.9169 16.2953,106.9147 43.9946,151.009 -40.2339,-24.2815 -87.5091,-38.0496 -137.9296,-38.0496 -50.4202,0 -97.6954,13.7681 -137.9297,38.0496 27.6998,-44.0943 43.995,-95.0921 43.995,-151.009 0,-34.6116 -6.5895,-67.9756 -17.8359,-98.6912 z m 760.9912,0 c 34.586,13.6514 72.3329,22.5921 111.7706,22.5921 39.4377,0 77.1849,-8.9407 111.7706,-22.5921 -11.2461,30.7156 -17.8356,64.0796 -17.8356,98.6912 0,55.9169 16.2949,106.9147 43.9946,151.009 -40.2339,-24.2815 -87.5094,-38.0496 -137.9296,-38.0496 -50.4202,0 -97.6957,13.7681 -137.9297,38.0496 27.6998,-44.0943 43.995,-95.0921 43.995,-151.009 0,-34.6116 -6.5895,-67.9756 -17.8359,-98.6912 z m -7117.64547,611.1711 0,495.8331 c 136.7985,0 247.32214,-110.5235 247.32214,-247.3217 0,-136.7983 -110.52364,-248.5114 -247.32214,-248.5114 z m 760.99117,0 c -136.7985,0 -247.3221,111.7131 -247.3221,248.5114 0,136.7982 110.5236,247.3217 247.3221,247.3217 136.798,0 247.3221,-110.5235 247.3221,-247.3217 0,-136.7983 -110.5241,-248.5114 -247.3221,-248.5114 z m 760.9912,0 c -136.798,0 -247.3221,111.7131 -247.3221,248.5114 0,136.7982 110.5241,247.3217 247.3221,247.3217 136.7986,0 247.3221,-110.5235 247.3221,-247.3217 0,-136.7983 -110.5235,-248.5114 -247.3221,-248.5114 z m 760.9912,0 c -136.7985,0 -247.3222,111.7131 -247.3222,248.5114 0,136.7982 110.5237,247.3217 247.3222,247.3217 136.798,0 247.3221,-110.5235 247.3221,-247.3217 0,-136.7983 -110.5241,-248.5114 -247.3221,-248.5114 z m 760.9912,0 c -136.7983,0 -247.3222,111.7131 -247.3222,248.5114 0,136.7982 110.5239,247.3217 247.3222,247.3217 136.7981,0 247.3221,-110.5235 247.3221,-247.3217 0,-136.7983 -110.524,-248.5114 -247.3221,-248.5114 z m 760.9912,0 c -136.7982,0 -247.3221,111.7131 -247.3221,248.5114 0,136.7982 110.5239,247.3217 247.3221,247.3217 136.7982,0 247.3222,-110.5235 247.3222,-247.3217 0,-136.7983 -110.524,-248.5114 -247.3222,-248.5114 z m 760.9912,0 c -136.7982,0 -247.3221,111.7131 -247.3221,248.5114 0,136.7982 110.5239,247.3217 247.3221,247.3217 136.7986,0 247.3222,-110.5235 247.3222,-247.3217 0,-136.7983 -110.5236,-248.5114 -247.3222,-248.5114 z m 760.9912,0 c -136.7982,0 -247.3221,111.7131 -247.3221,248.5114 0,136.7982 110.5239,247.3217 247.3221,247.3217 136.7979,0 247.3222,-110.5235 247.3222,-247.3217 0,-136.7983 -110.5243,-248.5114 -247.3222,-248.5114 z m 760.9912,0 c -136.7985,0 -247.3221,111.7131 -247.3221,248.5114 0,136.7982 110.5236,247.3217 247.3221,247.3217 136.7979,0 247.3218,-110.5235 247.3218,-247.3217 0,-136.7983 -110.5239,-248.5114 -247.3218,-248.5114 z m 760.9909,0 c -136.7979,0 -247.3222,111.7131 -247.3222,248.5114 0,136.7982 110.5243,247.3217 247.3222,247.3217 136.7985,0 247.3221,-110.5235 247.3221,-247.3217 0,-136.7983 -110.5236,-248.5114 -247.3221,-248.5114 z m 760.9915,0 c -136.7989,0 -247.3224,111.7131 -247.3224,248.5114 0,136.7982 110.5235,247.3217 247.3224,247.3217 l 0,-495.8331 z m -7229.4164,398.3315 c -126.9093,0 -229.48638,103.766 -229.48638,230.6751 0,126.9095 102.57708,229.4866 229.48638,229.4866 126.9094,0 229.4864,-102.5771 229.4864,-229.4866 0,-126.9091 -102.577,-230.6751 -229.4864,-230.6751 z m 760.9912,0 c -126.9093,0 -229.4864,103.766 -229.4864,230.6751 0,126.9095 102.5771,229.4866 229.4864,229.4866 126.9088,0 229.4864,-102.5771 229.4864,-229.4866 0,-126.9091 -102.5776,-230.6751 -229.4864,-230.6751 z m 760.9912,0 c -126.9094,0 -229.4864,103.766 -229.4864,230.6751 0,126.9095 102.577,229.4866 229.4864,229.4866 126.9093,0 229.4864,-102.5771 229.4864,-229.4866 0,-126.9091 -102.5771,-230.6751 -229.4864,-230.6751 z m 760.9912,0 c -126.9094,0 -229.4864,103.766 -229.4864,230.6751 0,126.9095 102.577,229.4866 229.4864,229.4866 126.9091,0 229.4864,-102.5771 229.4864,-229.4866 0,-126.9091 -102.5773,-230.6751 -229.4864,-230.6751 z m 760.9912,0 c -126.9091,0 -229.4865,103.766 -229.4865,230.6751 0,126.9095 102.5774,229.4866 229.4865,229.4866 126.9095,0 229.4866,-102.5771 229.4866,-229.4866 0,-126.9091 -102.5771,-230.6751 -229.4866,-230.6751 z m 760.9912,0 c -126.9094,0 -229.4862,103.766 -229.4862,230.6751 0,126.9095 102.5768,229.4866 229.4862,229.4866 126.9095,0 229.4863,-102.5771 229.4863,-229.4866 0,-126.9091 -102.5768,-230.6751 -229.4863,-230.6751 z m 760.9912,0 c -126.9094,0 -229.4866,103.766 -229.4866,230.6751 0,126.9095 102.5772,229.4866 229.4866,229.4866 126.9091,0 229.4863,-102.5771 229.4863,-229.4866 0,-126.9091 -102.5772,-230.6751 -229.4863,-230.6751 z m 760.9912,0 c -126.9094,0 -229.4866,103.766 -229.4866,230.6751 0,126.9095 102.5772,229.4866 229.4866,229.4866 126.9091,0 229.4863,-102.5771 229.4863,-229.4866 0,-126.9091 -102.5772,-230.6751 -229.4863,-230.6751 z m 760.9909,0 c -126.9091,0 -229.4863,103.766 -229.4863,230.6751 0,126.9095 102.5772,229.4866 229.4863,229.4866 126.9095,0 229.4866,-102.5771 229.4866,-229.4866 0,-126.9091 -102.5771,-230.6751 -229.4866,-230.6751 z m 760.9912,0 c -126.9091,0 -229.4862,103.766 -229.4862,230.6751 0,126.9095 102.5771,229.4866 229.4862,229.4866 126.9095,0 229.4866,-102.5771 229.4866,-229.4866 0,-126.9091 -102.5771,-230.6751 -229.4866,-230.6751 z m -7229.41607,400.7093 0,420.9233 c 116.19644,0 210.46163,-94.2658 210.46163,-210.4619 0,-116.196 -94.26519,-210.4614 -210.46163,-210.4614 z m 760.99117,0 c -116.1964,0 -210.4616,94.2654 -210.4616,210.4614 0,116.1961 94.2652,210.4619 210.4616,210.4619 116.1959,0 210.4617,-94.2658 210.4617,-210.4619 0,-116.196 -94.2658,-210.4614 -210.4617,-210.4614 z m 760.9912,0 c -116.1959,0 -210.4616,94.2654 -210.4616,210.4614 0,116.1961 94.2657,210.4619 210.4616,210.4619 116.1963,0 210.4616,-94.2658 210.4616,-210.4619 0,-116.196 -94.2653,-210.4614 -210.4616,-210.4614 z m 760.9912,0 c -116.1965,0 -210.4617,94.2654 -210.4617,210.4614 0,116.1961 94.2652,210.4619 210.4617,210.4619 116.1959,0 210.4616,-94.2658 210.4616,-210.4619 0,-116.196 -94.2657,-210.4614 -210.4616,-210.4614 z m 760.9912,0 c -116.1961,0 -210.4616,94.2654 -210.4616,210.4614 0,116.1961 94.2655,210.4619 210.4616,210.4619 116.1961,0 210.4616,-94.2658 210.4616,-210.4619 0,-116.196 -94.2655,-210.4614 -210.4616,-210.4614 z m 760.9912,0 c -116.1961,0 -210.4614,94.2654 -210.4614,210.4614 0,116.1961 94.2653,210.4619 210.4614,210.4619 116.1961,0 210.4618,-94.2658 210.4618,-210.4619 0,-116.196 -94.2657,-210.4614 -210.4618,-210.4614 z m 760.9912,0 c -116.1961,0 -210.4618,94.2654 -210.4618,210.4614 0,116.1961 94.2657,210.4619 210.4618,210.4619 116.1961,0 210.4615,-94.2658 210.4615,-210.4619 0,-116.196 -94.2654,-210.4614 -210.4615,-210.4614 z m 760.9912,0 c -116.1961,0 -210.4618,94.2654 -210.4618,210.4614 0,116.1961 94.2657,210.4619 210.4618,210.4619 116.1961,0 210.4615,-94.2658 210.4615,-210.4619 0,-116.196 -94.2654,-210.4614 -210.4615,-210.4614 z m 760.9912,0 c -116.1964,0 -210.4618,94.2654 -210.4618,210.4614 0,116.1961 94.2654,210.4619 210.4618,210.4619 116.1961,0 210.4615,-94.2658 210.4615,-210.4619 0,-116.196 -94.2654,-210.4614 -210.4615,-210.4614 z m 760.9909,0 c -116.1961,0 -210.4615,94.2654 -210.4615,210.4614 0,116.1961 94.2654,210.4619 210.4615,210.4619 116.1961,0 210.4618,-94.2658 210.4618,-210.4619 0,-116.196 -94.2657,-210.4614 -210.4618,-210.4614 z m 760.9915,0 c -116.1961,0 -210.4618,94.2654 -210.4618,210.4614 0,116.1961 94.2657,210.4619 210.4618,210.4619 l 0,-420.9233 z m -7229.4164,399.5204 c -105.483,0 -191.43682,85.954 -191.43682,191.4367 0,105.4831 85.95382,190.2478 191.43682,190.2478 105.4831,0 191.4369,-84.7647 191.4369,-190.2478 0,-105.4827 -85.9538,-191.4367 -191.4369,-191.4367 z m 760.9912,0 c -105.4831,0 -191.4368,85.954 -191.4368,191.4367 0,105.4831 85.9537,190.2478 191.4368,190.2478 105.4825,0 191.4369,-84.7647 191.4369,-190.2478 0,-105.4827 -85.9544,-191.4367 -191.4369,-191.4367 z m 760.9912,0 c -105.483,0 -191.4369,85.954 -191.4369,191.4367 0,105.4831 85.9539,190.2478 191.4369,190.2478 105.483,0 191.4368,-84.7647 191.4368,-190.2478 0,-105.4827 -85.9538,-191.4367 -191.4368,-191.4367 z m 760.9912,0 c -105.4832,0 -191.4369,85.954 -191.4369,191.4367 0,105.4831 85.9537,190.2478 191.4369,190.2478 105.4829,0 191.4368,-84.7647 191.4368,-190.2478 0,-105.4827 -85.9539,-191.4367 -191.4368,-191.4367 z m 760.9912,0 c -105.4829,0 -191.4369,85.954 -191.4369,191.4367 0,105.4831 85.954,190.2478 191.4369,190.2478 105.4831,0 191.437,-84.7647 191.437,-190.2478 0,-105.4827 -85.9539,-191.4367 -191.437,-191.4367 z m 760.9912,0 c -105.4827,0 -191.4367,85.954 -191.4367,191.4367 0,105.4831 85.954,190.2478 191.4367,190.2478 105.4827,0 191.4367,-84.7647 191.4367,-190.2478 0,-105.4827 -85.954,-191.4367 -191.4367,-191.4367 z m 760.9912,0 c -105.483,0 -191.437,85.954 -191.437,191.4367 0,105.4831 85.954,190.2478 191.437,190.2478 105.4827,0 191.4367,-84.7647 191.4367,-190.2478 0,-105.4827 -85.954,-191.4367 -191.4367,-191.4367 z m 760.9912,0 c -105.483,0 -191.437,85.954 -191.437,191.4367 0,105.4831 85.954,190.2478 191.437,190.2478 105.4827,0 191.4367,-84.7647 191.4367,-190.2478 0,-105.4827 -85.954,-191.4367 -191.4367,-191.4367 z m 760.9909,0 c -105.4827,0 -191.4367,85.954 -191.4367,191.4367 0,105.4831 85.954,190.2478 191.4367,190.2478 105.4831,0 191.437,-84.7647 191.437,-190.2478 0,-105.4827 -85.9539,-191.4367 -191.437,-191.4367 z m 760.9912,0 c -105.4827,0 -191.4367,85.954 -191.4367,191.4367 0,105.4831 85.954,190.2478 191.4367,190.2478 105.4831,0 191.437,-84.7647 191.437,-190.2478 0,-105.4827 -85.9539,-191.4367 -191.437,-191.4367 z m -7229.41607,399.5204 0,343.6349 c 94.77015,0 171.22302,-76.4529 171.22302,-171.223 0,-94.7697 -76.45287,-172.4119 -171.22302,-172.4119 z m 760.99117,0 c -94.7701,0 -171.223,77.6422 -171.223,172.4119 0,94.7701 76.4529,171.223 171.223,171.223 94.7697,0 171.2231,-76.4529 171.2231,-171.223 0,-94.7697 -76.4534,-172.4119 -171.2231,-172.4119 z m 760.9912,0 c -94.7697,0 -171.223,77.6422 -171.223,172.4119 0,94.7701 76.4533,171.223 171.223,171.223 94.7702,0 171.223,-76.4529 171.223,-171.223 0,-94.7697 -76.4528,-172.4119 -171.223,-172.4119 z m 760.9912,0 c -94.7703,0 -171.223,77.6422 -171.223,172.4119 0,94.7701 76.4527,171.223 171.223,171.223 94.7696,0 171.223,-76.4529 171.223,-171.223 0,-94.7697 -76.4534,-172.4119 -171.223,-172.4119 z m 760.9912,0 c -94.7699,0 -171.223,77.6422 -171.223,172.4119 0,94.7701 76.4531,171.223 171.223,171.223 94.7697,0 171.223,-76.4529 171.223,-171.223 0,-94.7697 -76.4533,-172.4119 -171.223,-172.4119 z m 760.9912,0 c -94.77,0 -171.223,77.6422 -171.223,172.4119 0,94.7701 76.453,171.223 171.223,171.223 94.7701,0 171.223,-76.4529 171.223,-171.223 0,-94.7697 -76.4529,-172.4119 -171.223,-172.4119 z m 760.9912,0 c -94.77,0 -171.223,77.6422 -171.223,172.4119 0,94.7701 76.453,171.223 171.223,171.223 94.7701,0 171.223,-76.4529 171.223,-171.223 0,-94.7697 -76.4529,-172.4119 -171.223,-172.4119 z m 760.9912,0 c -94.77,0 -171.223,77.6422 -171.223,172.4119 0,94.7701 76.453,171.223 171.223,171.223 94.7701,0 171.223,-76.4529 171.223,-171.223 0,-94.7697 -76.4529,-172.4119 -171.223,-172.4119 z m 760.9912,0 c -94.77,0 -171.223,77.6422 -171.223,172.4119 0,94.7701 76.453,171.223 171.223,171.223 94.7701,0 171.2227,-76.4529 171.2227,-171.223 0,-94.7697 -76.4526,-172.4119 -171.2227,-172.4119 z m 760.9909,0 c -94.7701,0 -171.223,77.6422 -171.223,172.4119 0,94.7701 76.4529,171.223 171.223,171.223 94.77,0 171.223,-76.4529 171.223,-171.223 0,-94.7697 -76.453,-172.4119 -171.223,-172.4119 z m 760.9915,0 c -94.77,0 -171.2233,77.6422 -171.2233,172.4119 0,94.7701 76.4533,171.223 171.2233,171.223 l 0,-343.6349 z m -7229.4164,400.7093 c -84.0567,0 -152.19821,68.1416 -152.19821,152.1983 0,84.0566 68.14151,152.1982 152.19821,152.1982 84.0568,0 152.1983,-68.1416 152.1983,-152.1982 0,-84.0567 -68.1415,-152.1983 -152.1983,-152.1983 z m 760.9912,0 c -84.0573,0 -152.1982,68.1416 -152.1982,152.1983 0,84.0566 68.1409,152.1982 152.1982,152.1982 84.0567,0 152.1982,-68.1416 152.1982,-152.1982 0,-84.0567 -68.1415,-152.1983 -152.1982,-152.1983 z m 760.9912,0 c -84.0567,0 -152.1982,68.1416 -152.1982,152.1983 0,84.0566 68.1415,152.1982 152.1982,152.1982 84.0568,0 152.1982,-68.1416 152.1982,-152.1982 0,-84.0567 -68.1414,-152.1983 -152.1982,-152.1983 z m 760.9912,0 c -84.0568,0 -152.1983,68.1416 -152.1983,152.1983 0,84.0566 68.1415,152.1982 152.1983,152.1982 84.0568,0 152.1982,-68.1416 152.1982,-152.1982 0,-84.0567 -68.1414,-152.1983 -152.1982,-152.1983 z m 760.9912,0 c -84.0568,0 -152.1983,68.1416 -152.1983,152.1983 0,84.0566 68.1415,152.1982 152.1983,152.1982 84.057,0 152.1983,-68.1416 152.1983,-152.1982 0,-84.0567 -68.1413,-152.1983 -152.1983,-152.1983 z m 760.9912,0 c -84.0566,0 -152.1982,68.1416 -152.1982,152.1983 0,84.0566 68.1416,152.1982 152.1982,152.1982 84.0567,0 152.1983,-68.1416 152.1983,-152.1982 0,-84.0567 -68.1416,-152.1983 -152.1983,-152.1983 z m 760.9912,0 c -84.057,0 -152.1982,68.1416 -152.1982,152.1983 0,84.0566 68.1412,152.1982 152.1982,152.1982 84.0567,0 152.1983,-68.1416 152.1983,-152.1982 0,-84.0567 -68.1416,-152.1983 -152.1983,-152.1983 z m 760.9912,0 c -84.057,0 -152.1982,68.1416 -152.1982,152.1983 0,84.0566 68.1412,152.1982 152.1982,152.1982 84.0567,0 152.1983,-68.1416 152.1983,-152.1982 0,-84.0567 -68.1416,-152.1983 -152.1983,-152.1983 z m 760.9909,0 c -84.0567,0 -152.1983,68.1416 -152.1983,152.1983 0,84.0566 68.1416,152.1982 152.1983,152.1982 84.057,0 152.1982,-68.1416 152.1982,-152.1982 0,-84.0567 -68.1412,-152.1983 -152.1982,-152.1983 z m 760.9912,0 c -84.0567,0 -152.1983,68.1416 -152.1983,152.1983 0,84.0566 68.1416,152.1982 152.1983,152.1982 84.057,0 152.1982,-68.1416 152.1982,-152.1982 0,-84.0567 -68.1412,-152.1983 -152.1982,-152.1983 z m -7229.41607,398.3315 0,268.7247 c 74.16808,0 134.36251,-60.1948 134.36251,-134.3623 0,-74.1676 -60.19443,-134.3624 -134.36251,-134.3624 z m 760.99117,0 c -74.1681,0 -134.3625,60.1948 -134.3625,134.3624 0,74.1675 60.1944,134.3623 134.3625,134.3623 74.1676,0 134.3625,-60.1948 134.3625,-134.3623 0,-74.1676 -60.1949,-134.3624 -134.3625,-134.3624 z m 760.9912,0 c -74.1676,0 -134.3625,60.1948 -134.3625,134.3624 0,74.1675 60.1949,134.3623 134.3625,134.3623 74.1681,0 134.3625,-60.1948 134.3625,-134.3623 0,-74.1676 -60.1944,-134.3624 -134.3625,-134.3624 z m 760.9912,0 c -74.1681,0 -134.3625,60.1948 -134.3625,134.3624 0,74.1675 60.1944,134.3623 134.3625,134.3623 74.1676,0 134.3625,-60.1948 134.3625,-134.3623 0,-74.1676 -60.1949,-134.3624 -134.3625,-134.3624 z m 760.9912,0 c -74.1677,0 -134.3625,60.1948 -134.3625,134.3624 0,74.1675 60.1948,134.3623 134.3625,134.3623 74.1677,0 134.3625,-60.1948 134.3625,-134.3623 0,-74.1676 -60.1948,-134.3624 -134.3625,-134.3624 z m 760.9912,0 c -74.1676,0 -134.3623,60.1948 -134.3623,134.3624 0,74.1675 60.1947,134.3623 134.3623,134.3623 74.1676,0 134.3627,-60.1948 134.3627,-134.3623 0,-74.1676 -60.1951,-134.3624 -134.3627,-134.3624 z m 760.9912,0 c -74.1676,0 -134.3627,60.1948 -134.3627,134.3624 0,74.1675 60.1951,134.3623 134.3627,134.3623 74.1676,0 134.3624,-60.1948 134.3624,-134.3623 0,-74.1676 -60.1948,-134.3624 -134.3624,-134.3624 z m 760.9912,0 c -74.1679,0 -134.3627,60.1948 -134.3627,134.3624 0,74.1675 60.1948,134.3623 134.3627,134.3623 74.1676,0 134.3624,-60.1948 134.3624,-134.3623 0,-74.1676 -60.1948,-134.3624 -134.3624,-134.3624 z m 760.9912,0 c -74.1679,0 -134.3627,60.1948 -134.3627,134.3624 0,74.1675 60.1948,134.3623 134.3627,134.3623 74.1676,0 134.3624,-60.1948 134.3624,-134.3623 0,-74.1676 -60.1948,-134.3624 -134.3624,-134.3624 z m 760.9909,0 c -74.1676,0 -134.3623,60.1948 -134.3623,134.3624 0,74.1675 60.1947,134.3623 134.3623,134.3623 74.1679,0 134.3627,-60.1948 134.3627,-134.3623 0,-74.1676 -60.1948,-134.3624 -134.3627,-134.3624 z m 760.9915,0 c -74.1675,0 -134.3626,60.1948 -134.3626,134.3624 0,74.1675 60.1951,134.3623 134.3626,134.3623 l 0,-268.7247 z m -7229.4164,399.5201 c -63.45464,0 -115.3377,51.8833 -115.3377,115.3379 0,63.4546 51.88306,114.1487 115.3377,114.1487 63.4547,0 115.3378,-50.6941 115.3378,-114.1487 0,-63.4546 -51.8831,-115.3379 -115.3378,-115.3379 z m 760.9912,0 c -63.4547,0 -115.3377,51.8833 -115.3377,115.3379 0,63.4546 51.883,114.1487 115.3377,114.1487 63.4541,0 115.3377,-50.6941 115.3377,-114.1487 0,-63.4546 -51.8836,-115.3379 -115.3377,-115.3379 z m 760.9912,0 c -63.4548,0 -115.3377,51.8833 -115.3377,115.3379 0,63.4546 51.8829,114.1487 115.3377,114.1487 63.4546,0 115.3377,-50.6941 115.3377,-114.1487 0,-63.4546 -51.8831,-115.3379 -115.3377,-115.3379 z m 760.9912,0 c -63.4548,0 -115.3378,51.8833 -115.3378,115.3379 0,63.4546 51.883,114.1487 115.3378,114.1487 63.4547,0 115.3377,-50.6941 115.3377,-114.1487 0,-63.4546 -51.883,-115.3379 -115.3377,-115.3379 z m 760.9912,0 c -63.4548,0 -115.3377,51.8833 -115.3377,115.3379 0,63.4546 51.8829,114.1487 115.3377,114.1487 63.4549,0 115.3379,-50.6941 115.3379,-114.1487 0,-63.4546 -51.883,-115.3379 -115.3379,-115.3379 z m 760.9912,0 c -63.4545,0 -115.3375,51.8833 -115.3375,115.3379 0,63.4546 51.883,114.1487 115.3375,114.1487 63.4546,0 115.3376,-50.6941 115.3376,-114.1487 0,-63.4546 -51.883,-115.3379 -115.3376,-115.3379 z m 760.9912,0 c -63.4545,0 -115.3379,51.8833 -115.3379,115.3379 0,63.4546 51.8834,114.1487 115.3379,114.1487 63.4546,0 115.3376,-50.6941 115.3376,-114.1487 0,-63.4546 -51.883,-115.3379 -115.3376,-115.3379 z m 760.9912,0 c -63.4545,0 -115.3379,51.8833 -115.3379,115.3379 0,63.4546 51.8834,114.1487 115.3379,114.1487 63.4542,0 115.3376,-50.6941 115.3376,-114.1487 0,-63.4546 -51.8834,-115.3379 -115.3376,-115.3379 z m 760.9909,0 c -63.4542,0 -115.3376,51.8833 -115.3376,115.3379 0,63.4546 51.8834,114.1487 115.3376,114.1487 63.4545,0 115.3379,-50.6941 115.3379,-114.1487 0,-63.4546 -51.8834,-115.3379 -115.3379,-115.3379 z m 760.9912,0 c -63.4546,0 -115.3376,51.8833 -115.3376,115.3379 0,63.4546 51.883,114.1487 115.3376,114.1487 63.4545,0 115.3379,-50.6941 115.3379,-114.1487 0,-63.4546 -51.8834,-115.3379 -115.3379,-115.3379 z m -7229.41607,399.5204 0,191.4374 c 52.74179,0 95.1239,-42.3838 95.1239,-95.1242 0,-52.7405 -42.38211,-96.3132 -95.1239,-96.3132 z m 760.99117,0 c -52.7418,0 -95.1239,43.5727 -95.1239,96.3132 0,52.7404 42.3821,95.1242 95.1239,95.1242 52.7413,0 95.1239,-42.3838 95.1239,-95.1242 0,-52.7405 -42.3826,-96.3132 -95.1239,-96.3132 z m 760.9912,0 c -52.7413,0 -95.1239,43.5727 -95.1239,96.3132 0,52.7404 42.3826,95.1242 95.1239,95.1242 52.7417,0 95.1239,-42.3838 95.1239,-95.1242 0,-52.7405 -42.3822,-96.3132 -95.1239,-96.3132 z m 760.9912,0 c -52.7419,0 -95.1239,43.5727 -95.1239,96.3132 0,52.7404 42.382,95.1242 95.1239,95.1242 52.7414,0 95.1239,-42.3838 95.1239,-95.1242 0,-52.7405 -42.3825,-96.3132 -95.1239,-96.3132 z m 760.9912,0 c -52.7416,0 -95.1239,43.5727 -95.1239,96.3132 0,52.7404 42.3823,95.1242 95.1239,95.1242 52.7415,0 95.1238,-42.3838 95.1238,-95.1242 0,-52.7405 -42.3823,-96.3132 -95.1238,-96.3132 z m 760.9912,0 c -52.7415,0 -95.1239,43.5727 -95.1239,96.3132 0,52.7404 42.3824,95.1242 95.1239,95.1242 52.7416,0 95.1239,-42.3838 95.1239,-95.1242 0,-52.7405 -42.3823,-96.3132 -95.1239,-96.3132 z m 760.9912,0 c -52.7415,0 -95.1239,43.5727 -95.1239,96.3132 0,52.7404 42.3824,95.1242 95.1239,95.1242 52.7416,0 95.1239,-42.3838 95.1239,-95.1242 0,-52.7405 -42.3823,-96.3132 -95.1239,-96.3132 z m 760.9912,0 c -52.7419,0 -95.1239,43.5727 -95.1239,96.3132 0,52.7404 42.382,95.1242 95.1239,95.1242 52.7416,0 95.1239,-42.3838 95.1239,-95.1242 0,-52.7405 -42.3823,-96.3132 -95.1239,-96.3132 z m 760.9912,0 c -52.7418,0 -95.1239,43.5727 -95.1239,96.3132 0,52.7404 42.3821,95.1242 95.1239,95.1242 52.7416,0 95.1239,-42.3838 95.1239,-95.1242 0,-52.7405 -42.3823,-96.3132 -95.1239,-96.3132 z m 760.9909,0 c -52.7415,0 -95.1239,43.5727 -95.1239,96.3132 0,52.7404 42.3824,95.1242 95.1239,95.1242 52.7419,0 95.1239,-42.3838 95.1239,-95.1242 0,-52.7405 -42.382,-96.3132 -95.1239,-96.3132 z m 760.9915,0 c -52.7415,0 -95.1239,43.5727 -95.1239,96.3132 0,52.7404 42.3824,95.1242 95.1239,95.1242 l 0,-191.4374 z m -7229.4164,400.71 c -42.0283,0 -76.09909,34.0682 -76.09909,76.0991 0,42.0275 34.07079,76.0992 76.09909,76.0992 42.0284,0 76.0992,-34.0717 76.0992,-76.0992 0,-42.0309 -34.0708,-76.0991 -76.0992,-76.0991 z m 760.9912,0 c -42.0289,0 -76.0991,34.0682 -76.0991,76.0991 0,42.0275 34.0702,76.0992 76.0991,76.0992 42.0283,0 76.0991,-34.0717 76.0991,-76.0992 0,-42.0309 -34.0708,-76.0991 -76.0991,-76.0991 z m 760.9912,0 c -42.0284,0 -76.0991,34.0682 -76.0991,76.0991 0,42.0275 34.0707,76.0992 76.0991,76.0992 42.0284,0 76.0991,-34.0717 76.0991,-76.0992 0,-42.0309 -34.0707,-76.0991 -76.0991,-76.0991 z m 760.9912,0 c -42.0284,0 -76.0991,34.0682 -76.0991,76.0991 0,42.0275 34.0707,76.0992 76.0991,76.0992 42.0283,0 76.0991,-34.0717 76.0991,-76.0992 0,-42.0309 -34.0708,-76.0991 -76.0991,-76.0991 z m 760.9912,0 c -42.0284,0 -76.0991,34.0682 -76.0991,76.0991 0,42.0275 34.0707,76.0992 76.0991,76.0992 42.0285,0 76.0991,-34.0717 76.0991,-76.0992 0,-42.0309 -34.0706,-76.0991 -76.0991,-76.0991 z m 760.9912,0 c -42.0285,0 -76.0991,34.0682 -76.0991,76.0991 0,42.0275 34.0706,76.0992 76.0991,76.0992 42.0285,0 76.0991,-34.0717 76.0991,-76.0992 0,-42.0309 -34.0706,-76.0991 -76.0991,-76.0991 z m 760.9912,0 c -42.0285,0 -76.0991,34.0682 -76.0991,76.0991 0,42.0275 34.0706,76.0992 76.0991,76.0992 42.0282,0 76.0991,-34.0717 76.0991,-76.0992 0,-42.0309 -34.0709,-76.0991 -76.0991,-76.0991 z m 760.9912,0 c -42.0285,0 -76.0991,34.0682 -76.0991,76.0991 0,42.0275 34.0706,76.0992 76.0991,76.0992 42.0282,0 76.0991,-34.0717 76.0991,-76.0992 0,-42.0309 -34.0709,-76.0991 -76.0991,-76.0991 z m 760.9909,0 c -42.0282,0 -76.0991,34.0682 -76.0991,76.0991 0,42.0275 34.0709,76.0992 76.0991,76.0992 42.0285,0 76.0991,-34.0717 76.0991,-76.0992 0,-42.0309 -34.0706,-76.0991 -76.0991,-76.0991 z m 760.9912,0 c -42.0282,0 -76.0991,34.0682 -76.0991,76.0991 0,42.0275 34.0709,76.0992 76.0991,76.0992 42.0285,0 76.0991,-34.0717 76.0991,-76.0992 0,-42.0309 -34.0706,-76.0991 -76.0991,-76.0991 z m -7229.41607,398.33395 0,116.52159 c 32.13972,0 58.26339,-26.1193 58.26339,-58.2608 0,-32.1415 -26.12367,-58.26079 -58.26339,-58.26079 z m 760.99117,0 c -32.1397,0 -58.2634,26.11929 -58.2634,58.26079 0,32.1415 26.1237,58.2608 58.2634,58.2608 32.1392,0 58.2634,-26.1193 58.2634,-58.2608 0,-32.1415 -26.1242,-58.26079 -58.2634,-58.26079 z m 760.9912,0 c -32.1392,0 -58.2634,26.11929 -58.2634,58.26079 0,32.1415 26.1242,58.2608 58.2634,58.2608 32.1397,0 58.2634,-26.1193 58.2634,-58.2608 0,-32.1415 -26.1237,-58.26079 -58.2634,-58.26079 z m 760.9912,0 c -32.1397,0 -58.2634,26.11929 -58.2634,58.26079 0,32.1415 26.1237,58.2608 58.2634,58.2608 32.1391,0 58.2634,-26.1193 58.2634,-58.2608 0,-32.1415 -26.1243,-58.26079 -58.2634,-58.26079 z m 760.9912,0 c -32.1393,0 -58.2634,26.11929 -58.2634,58.26079 0,32.1415 26.1241,58.2608 58.2634,58.2608 32.1393,0 58.2634,-26.1193 58.2634,-58.2608 0,-32.1415 -26.1241,-58.26079 -58.2634,-58.26079 z m 760.9912,0 c -32.1394,0 -58.2632,26.11929 -58.2632,58.26079 0,32.1415 26.1238,58.2608 58.2632,58.2608 32.1394,0 58.2636,-26.1193 58.2636,-58.2608 0,-32.1415 -26.1242,-58.26079 -58.2636,-58.26079 z m 760.9912,0 c -32.1394,0 -58.2635,26.11929 -58.2635,58.26079 0,32.1415 26.1241,58.2608 58.2635,58.2608 32.1394,0 58.2632,-26.1193 58.2632,-58.2608 0,-32.1415 -26.1238,-58.26079 -58.2632,-58.26079 z m 760.9912,0 c -32.1394,0 -58.2635,26.11929 -58.2635,58.26079 0,32.1415 26.1241,58.2608 58.2635,58.2608 32.1391,0 58.2632,-26.1193 58.2632,-58.2608 0,-32.1415 -26.1241,-58.26079 -58.2632,-58.26079 z m 760.9912,0 c -32.1394,0 -58.2635,26.11929 -58.2635,58.26079 0,32.1415 26.1241,58.2608 58.2635,58.2608 32.1391,0 58.2632,-26.1193 58.2632,-58.2608 0,-32.1415 -26.1241,-58.26079 -58.2632,-58.26079 z m 760.9909,0 c -32.1391,0 -58.2632,26.11929 -58.2632,58.26079 0,32.1415 26.1241,58.2608 58.2632,58.2608 32.1394,0 58.2635,-26.1193 58.2635,-58.2608 0,-32.1415 -26.1241,-58.26079 -58.2635,-58.26079 z m 760.9915,0 c -32.1394,0 -58.2632,26.11929 -58.2632,58.26079 0,32.1415 26.1238,58.2608 58.2632,58.2608 l 0,-116.52159 z m -7229.4164,399.52041 c -21.4263,0 -39.2386,17.81066 -39.2386,39.23602 0,21.42536 17.8123,38.04956 39.2386,38.04956 21.4264,0 39.2386,-16.6242 39.2386,-38.04956 0,-21.42536 -17.8122,-39.23602 -39.2386,-39.23602 z m 760.9912,0 c -21.4263,0 -39.2386,17.81066 -39.2386,39.23602 0,21.42536 17.8123,38.04956 39.2386,38.04956 21.4257,0 39.2386,-16.6242 39.2386,-38.04956 0,-21.42536 -17.8129,-39.23602 -39.2386,-39.23602 z m 760.9912,0 c -21.4264,0 -39.2386,17.81066 -39.2386,39.23602 0,21.42536 17.8122,38.04956 39.2386,38.04956 21.4262,0 39.2386,-16.6242 39.2386,-38.04956 0,-21.42536 -17.8124,-39.23602 -39.2386,-39.23602 z m 760.9912,0 c -21.4264,0 -39.2386,17.81066 -39.2386,39.23602 0,21.42536 17.8122,38.04956 39.2386,38.04956 21.4262,0 39.2386,-16.6242 39.2386,-38.04956 0,-21.42536 -17.8124,-39.23602 -39.2386,-39.23602 z m 760.9912,0 c -21.4264,0 -39.2386,17.81066 -39.2386,39.23602 0,21.42536 17.8122,38.04956 39.2386,38.04956 21.4262,0 39.2388,-16.6242 39.2388,-38.04956 0,-21.42536 -17.8126,-39.23602 -39.2388,-39.23602 z m 760.9912,0 c -21.426,0 -39.2384,17.81066 -39.2384,39.23602 0,21.42536 17.8124,38.04956 39.2384,38.04956 21.4261,0 39.2385,-16.6242 39.2385,-38.04956 0,-21.42536 -17.8124,-39.23602 -39.2385,-39.23602 z m 760.9912,0 c -21.426,0 -39.2388,17.81066 -39.2388,39.23602 0,21.42536 17.8128,38.04956 39.2388,38.04956 21.4261,0 39.2385,-16.6242 39.2385,-38.04956 0,-21.42536 -17.8124,-39.23602 -39.2385,-39.23602 z m 760.9912,0 c -21.426,0 -39.2388,17.81066 -39.2388,39.23602 0,21.42536 17.8128,38.04956 39.2388,38.04956 21.4261,0 39.2385,-16.6242 39.2385,-38.04956 0,-21.42536 -17.8124,-39.23602 -39.2385,-39.23602 z m 760.9909,0 c -21.4261,0 -39.2384,17.81066 -39.2384,39.23602 0,21.42536 17.8123,38.04956 39.2384,38.04956 21.4264,0 39.2388,-16.6242 39.2388,-38.04956 0,-21.42536 -17.8124,-39.23602 -39.2388,-39.23602 z m 760.9912,0 c -21.4261,0 -39.2384,17.81066 -39.2384,39.23602 0,21.42536 17.8123,38.04956 39.2384,38.04956 21.426,0 39.2388,-16.6242 39.2388,-38.04956 0,-21.42536 -17.8128,-39.23602 -39.2388,-39.23602 z"
       id="use19704"
       style="fill:#000000;fill-opacity:1;fill-rule:nonzero;stroke:none"
       inkscape:connector-curvature="0" />
  </g>
</svg>
