<?xml version="1.0" encoding="UTF-8" standalone="no"?>
<!-- Created with Inkscape (http://www.inkscape.org/) -->

<svg
   xmlns:dc="http://purl.org/dc/elements/1.1/"
   xmlns:cc="http://creativecommons.org/ns#"
   xmlns:rdf="http://www.w3.org/1999/02/22-rdf-syntax-ns#"
   xmlns:svg="http://www.w3.org/2000/svg"
   xmlns="http://www.w3.org/2000/svg"
   xmlns:sodipodi="http://sodipodi.sourceforge.net/DTD/sodipodi-0.dtd"
   xmlns:inkscape="http://www.inkscape.org/namespaces/inkscape"
   version="1.1"
   width="40"
   height="40"
   id="svg2"
   inkscape:version="0.48.1 r9760"
   sodipodi:docname="close_inactive.svg">
  <sodipodi:namedview
     pagecolor="#ffffff"
     bordercolor="#666666"
     borderopacity="1"
     objecttolerance="10"
     gridtolerance="10"
     guidetolerance="10"
     inkscape:pageopacity="0"
     inkscape:pageshadow="2"
     inkscape:window-width="1436"
     inkscape:window-height="835"
     id="namedview3138"
     showgrid="false"
     inkscape:zoom="17.879124"
     inkscape:cx="32.774073"
     inkscape:cy="17.166773"
     inkscape:window-x="0"
     inkscape:window-y="39"
     inkscape:window-maximized="0"
     inkscape:current-layer="layer1" />
  <defs
     id="defs4">
    <linearGradient
       id="linearGradient3894">
      <stop
         id="stop3896"
         style="stop-color:#000000;stop-opacity:1"
         offset="0" />
      <stop
         id="stop3898"
         style="stop-color:#000000;stop-opacity:0"
         offset="1" />
    </linearGradient>
  </defs>
  <metadata
     id="metadata7">
    <rdf:RDF>
      <cc:Work
         rdf:about="">
        <dc:format>image/svg+xml</dc:format>
        <dc:type
           rdf:resource="http://purl.org/dc/dcmitype/StillImage" />
        <dc:title />
      </cc:Work>
    </rdf:RDF>
  </metadata>
  <g
     transform="translate(427.30021,-867.9393)"
     id="layer1"
     style="fill:#999999;fill-opacity:1">
    <g
       transform="matrix(0.07217311,0,0,0.07306113,-398.03762,842.64626)"
       id="g4016"
       style="fill:#666666;fill-opacity:1">
      <g
         transform="translate(-441.86463,-41.665507)"
         id="g3835-5-3-82"
         style="stroke:#000000;stroke-width:3;stroke-miterlimit:4;stroke-opacity:1;stroke-dasharray:none;fill:#666666;fill-opacity:1">
        <path
           d="m 441.96875,548.21875 -83.76339,31.09375 c -12.44061,-6.30638 -28.64666,-11.125 -43.54911,-11.125 -31.77192,0 -59.79066,16.14505 -76.25,40.6875 l 0.22321,-1.38393 L 156.25,601.375 223,665.44643 c 1.68849,48.84203 41.55412,85.67098 90.6875,86.17857 l -0.0625,0.34375 38.34375,72.65625 15.71875,-89.84375 c 23.41538,-16.61789 38.6875,-43.97506 38.6875,-74.875 0,-16.58163 -4.39789,-32.14053 -12.09375,-45.5625 l 47.6875,-66.125 z m -127.5625,41.8125 c 39.01716,0 70.65625,31.60784 70.65625,70.625 0,39.01715 -31.63909,70.65625 -70.65625,70.65625 -39.01716,0 -70.65625,-31.6391 -70.65625,-70.65625 0,-39.01716 31.63909,-70.625 70.65625,-70.625 z"
           id="path2841-4-0-1-6-4"
           style="fill:#666666;fill-opacity:1;fill-rule:nonzero;stroke:#000000;stroke-width:3;stroke-miterlimit:4;stroke-opacity:1;stroke-dasharray:none" />
        <path
           d="m 361.875,461.4375 c -46.25766,0 -129.52249,14.91883 -179.875,68.8125 -18.26715,19.55183 93.28125,1.60338 93.28125,30.40625 0,3.57068 -0.7877,10.66696 -0.75,15.53125 -14.21334,6.82421 -26.40415,17.19013 -35.40625,29.96875 2.29759,1.4689 4.51359,3.86925 5.34375,7.8125 2.0203,9.59645 -2.53046,25.25587 0.5,27.78125 0.14928,0.1244 0.30585,0.23364 0.46875,0.34375 7.74007,-30.24019 35.02633,-52.63313 67.59375,-53.03125 1.46317,-3.20169 4.78518,-9.0198 10.21875,-10.46875 4.5116,-1.20309 22.54464,-0.2436 36.46875,0.71875 -13.42499,-7.70057 -28.9754,-12.125 -45.5625,-12.125 -10.03162,0 -10.34039,1.36315 -19.37484,4.34121 23.26465,-50.9708 101.61889,-72.49708 119.13135,-75.34787 54.71339,-13.45671 101.28688,-6.80129 113.34455,-2.64531 C 475.72077,468.25028 418.24832,463.45781 361.875,461.4375 z"
           id="path2816-7-2-5"
           style="fill:#666666;fill-opacity:1;fill-rule:nonzero;stroke:#000000;stroke-width:3;stroke-miterlimit:4;stroke-opacity:1;stroke-dasharray:none" />
        <path
           d="m 473.54938,787.60282 c 19.55835,-41.91946 41.24416,-123.68332 13.69454,-192.10059 -9.9946,-24.82076 -40.89357,83.85512 -66.99523,71.67685 -3.23581,-1.50972 -9.33352,-5.22393 -13.75756,-7.24647 -0.17464,-15.76573 -4.41396,-31.19608 -12.18794,-44.75694 -2.30261,1.46106 -5.41478,2.45434 -9.33923,1.53938 -9.55068,-2.22666 -21.81738,-12.97168 -25.38724,-11.29319 -0.17587,0.0826 -0.34104,0.1784 -0.50972,0.27945 24.13157,19.80015 32.88743,53.99544 19.47826,83.67692 2.28265,2.67978 6.15066,8.15009 5.16635,13.68672 -0.81731,4.59716 -9.31144,20.53332 -16.07084,32.7447 12.65464,-8.91005 23.23907,-21.13139 30.25234,-36.1629 4.24148,-9.09081 5.34337,-12.46045 6.4645,-21.90679 36.35398,42.63396 20.52556,125.25494 15.70449,142.33039 -10.93888,55.27188 -36.66201,94.66353 -45.52639,103.83321 44.70428,-36.01233 73.34742,-86.06851 99.01367,-136.30074 z"
           id="path2816-9-1-4-2"
           style="fill:#666666;fill-opacity:1;fill-rule:nonzero;stroke:#000000;stroke-width:3;stroke-miterlimit:4;stroke-opacity:1;stroke-dasharray:none" />
        <path
           d="m 122.97842,729.26387 c 25.35219,38.69157 83.46532,100.16079 156.14036,112.74024 26.36544,4.56363 -49.78302,-78.90256 -25.69127,-94.68839 2.98664,-1.95697 9.35394,-5.18734 13.40196,-7.88481 13.49784,8.14843 28.8496,12.66408 44.47184,13.19025 -0.0306,-2.72684 0.76262,-5.89593 3.60593,-8.75146 6.91958,-6.94933 22.51178,-11.72528 22.96322,-15.64415 0.0219,-0.19306 0.0277,-0.38388 0.0305,-0.58048 -29.53602,10.09951 -63.22092,-0.45091 -81.40298,-27.47328 -3.47994,0.53071 -10.16708,0.94094 -14.35697,-2.80976 -3.47894,-3.1143 -12.55967,-18.72367 -19.38604,-30.89771 0.91673,15.44955 5.7386,30.88135 14.82941,44.7554 5.49795,8.39082 4.56354,9.26571 12.00596,15.19028 -55.38422,8.4759 -114.08892,-46.62833 -126.07139,-59.71398 -41.242155,-38.38909 -61.2006,-80.99243 -64.332774,-93.35567 7.095856,56.965 34.585879,107.66359 63.792244,155.92352 z"
           id="path2816-9-4-1-5-9"
           style="fill:#666666;fill-opacity:1;fill-rule:nonzero;stroke:#000000;stroke-width:3;stroke-miterlimit:4;stroke-opacity:1;stroke-dasharray:none" />
      </g>
      <path
         d="m 342.85715,666.4693 a 23.75,23.75 0 1 1 -47.5,0 23.75,23.75 0 1 1 47.5,0 z"
         transform="matrix(2.301273,0,0,2.301273,-861.92412,-913.79428)"
         id="path3833-5-8-9"
         style="fill:#666666;fill-opacity:1;fill-rule:nonzero;stroke:#000000;stroke-width:3;stroke-miterlimit:4;stroke-opacity:1;stroke-dasharray:none" />
    </g>
  </g>
</svg>
