<?xml version="1.0" encoding="UTF-8" standalone="no"?>
<!-- Created with Inkscape (http://www.inkscape.org/) -->

<svg
   xmlns:dc="http://purl.org/dc/elements/1.1/"
   xmlns:cc="http://creativecommons.org/ns#"
   xmlns:rdf="http://www.w3.org/1999/02/22-rdf-syntax-ns#"
   xmlns:svg="http://www.w3.org/2000/svg"
   xmlns="http://www.w3.org/2000/svg"
   xmlns:sodipodi="http://sodipodi.sourceforge.net/DTD/sodipodi-0.dtd"
   xmlns:inkscape="http://www.inkscape.org/namespaces/inkscape"
   version="1.1"
   width="40"
   height="40"
   id="svg2"
   xml:space="preserve"
   inkscape:version="0.48.1 r9760"
   sodipodi:docname="maximize_inactive.svg"><sodipodi:namedview
     pagecolor="#ffffff"
     bordercolor="#666666"
     borderopacity="1"
     objecttolerance="10"
     gridtolerance="10"
     guidetolerance="10"
     inkscape:pageopacity="0"
     inkscape:pageshadow="2"
     inkscape:window-width="640"
     inkscape:window-height="480"
     id="namedview9"
     showgrid="false"
     inkscape:zoom="6.325"
     inkscape:cx="20"
     inkscape:cy="20"
     inkscape:window-x="260"
     inkscape:window-y="69"
     inkscape:window-maximized="0"
     inkscape:current-layer="svg2" /><metadata
     id="metadata8"><rdf:RDF><cc:Work
         rdf:about=""><dc:format>image/svg+xml</dc:format><dc:type
           rdf:resource="http://purl.org/dc/dcmitype/StillImage" /><dc:title /></cc:Work></rdf:RDF></metadata><defs
     id="defs6" /><g
     transform="matrix(0.13333461,0,0,-0.13026503,2.0127078,38.018356)"
     id="g10"
     style="fill:#666666;stroke:#000000;stroke-opacity:1"><g
       transform="scale(0.1,0.1)"
       id="g12"
       style="fill:#666666;stroke:#000000;stroke-opacity:1"><path
         d="m 2509.17,2761.01 c 1.92,5.46 -605.46,-775.68 -605.46,-775.68 l 245.4,217.62 c 0,0 19.83,12.01 11.91,-35.49 -7.91,-47.5 -194.04,-969.79 -194.04,-997.5 0.01,-27.71 -23.81,3.97 -23.81,3.97 l -47.4,126.55 c 0,0 -59.37,-122.66 -79.16,-150.37 -19.79,-27.7 -47.38,-35.6 -43.43,7.94 3.96,43.54 31.53,692.79 31.53,692.79 0,0 -59.39,-102.94 -87.1,-91.07 -27.71,11.88 -83.13,79.16 -83.13,79.16 l -3.96,79.16 431.5,-118.86 -708.43,633.25 c 0,0 217.65,-308.74 229.53,-328.53 11.87,-19.79 7.86,-31.49 -19.85,-19.61 -27.71,11.87 -1555.57469,459.05 -1559.53562,459.05 0,0 637.23862,-573.93 645.15662,-573.93 0.246,0 -154.344,198 -154.344,198 0,0 -11.727,47.33 51.605,23.59 63.328,-23.75 957.808,-237.47 957.808,-237.47 l 7.94,-47.4 c 0,0 -126.73,-19.86 -106.94,-23.82 19.79,-3.96 130.52,-87.09 130.52,-87.09 l 7.94,-27.56 -712.4,39.47 35.726,221.59 -558.297,-680.65 c 0,0 261.387,193.87 297.012,217.62 35.621,23.75 43.394,-35.6 31.519,-71.22 C 625.109,1458.9 245.172,6.20703 245.172,6.20703 L 854.836,722.578 c 0,0 35.527,8.113 47.398,-11.676 11.875,-19.789 486.846,-451.351 486.846,-451.351 0,0 -213.7,296.89 -229.53,336.469 -15.83,39.582 8.03,27.765 39.7,19.847 31.66,-7.914 1496.02,-415.625 1496.02,-415.625 l -696.53,589.817 c 0,0 126.6,-198.075 142.44,-221.825 15.83,-23.75 7.81,-39.425 -35.73,-27.55 -43.54,11.875 -886.59,205.711 -886.59,205.711 0,0 -27.75,19.925 -15.88,47.632 11.88,27.707 91.07,23.582 91.07,23.582 l -91.07,79.157 c 0,0 -35.62,43.664 0,43.664 35.63,0 -2.35,-2.227 668.97,-51.602 -82.62,99.981 -98.95,51.516 -83.12,102.973 67.29,158.319 107.05,213.729 146.63,79.159 -19.79,-118.749 -35.72,-186.101 -35.72,-186.101 l -27.79,-189.836 c 0,0 474.94,562.097 558.06,668.977 12.39,15.93 -296.77,-237.71 -296.77,-237.71 0,0 -76.62,-59.29 -43.44,47.64 35.63,114.78 416.37,1578.57 419.37,1587.08 z m -1686.092,-953.83 126.793,-99.01 -110.914,-158.31 -55.34,79.16 39.461,178.16 z m 851.102,-110.92 43.43,-629.27 -641.18,-59.31 -43.43,649.12 641.18,39.46 z M 949.871,1573.68 918.113,833.488 704.465,888.828 862.773,738.453 c 0,0 -225.66,-201.832 -261.281,-233.496 -35.625,-31.664 -51.582,4.047 -43.664,31.754 7.914,27.707 209.914,1021.089 209.914,1021.089 l 63.278,-166.25 118.851,182.13 z m 79.149,-637.219 c 47.5,-47.496 108.89,-62.508 102.75,-87.094 -7.92,-31.664 -14.05,-42.543 -23.59,-67.25 -44.14,10.481 -154.352,35.641 -186.016,47.516 15.832,15.832 79.156,79.121 106.856,106.828"
         id="path14"
         style="fill:#666666;fill-opacity:1;fill-rule:evenodd;stroke:#000000;stroke-opacity:1" /><path
         d="m 2509.17,2761.01 c 1.92,5.46 -605.46,-775.68 -605.46,-775.68 l 245.4,217.62 c 0,0 19.83,12.01 11.91,-35.49 -7.91,-47.5 -194.04,-969.79 -194.04,-997.5 0.01,-27.71 -23.81,3.97 -23.81,3.97 l -47.4,126.55 c 0,0 -59.37,-122.66 -79.16,-150.37 -19.79,-27.7 -47.38,-35.6 -43.43,7.94 3.96,43.54 31.53,692.79 31.53,692.79 0,0 -59.39,-102.94 -87.1,-91.07 -27.71,11.88 -83.13,79.16 -83.13,79.16 l -3.96,79.16 431.5,-118.86 -708.43,633.25 c 0,0 217.65,-308.74 229.53,-328.53 11.87,-19.79 7.86,-31.49 -19.85,-19.61 -27.71,11.87 -1555.57469,459.05 -1559.53562,459.05 0,0 637.23862,-573.93 645.15662,-573.93 0.246,0 -154.344,198 -154.344,198 0,0 -11.727,47.33 51.605,23.59 63.328,-23.75 957.808,-237.47 957.808,-237.47 l 7.94,-47.4 c 0,0 -126.73,-19.86 -106.94,-23.82 19.79,-3.96 130.52,-87.09 130.52,-87.09 l 7.94,-27.56 -712.4,39.47 35.726,221.59 -558.297,-680.65 c 0,0 261.387,193.87 297.012,217.62 35.621,23.75 43.394,-35.6 31.519,-71.22 C 625.109,1458.9 245.172,6.20703 245.172,6.20703 L 854.836,722.578 c 0,0 35.527,8.113 47.398,-11.676 11.875,-19.789 486.846,-451.351 486.846,-451.351 0,0 -213.7,296.89 -229.53,336.469 -15.83,39.582 8.03,27.765 39.7,19.847 31.66,-7.914 1496.02,-415.625 1496.02,-415.625 l -696.53,589.817 c 0,0 126.6,-198.075 142.44,-221.825 15.83,-23.75 7.81,-39.425 -35.73,-27.55 -43.54,11.875 -886.59,205.711 -886.59,205.711 0,0 -27.75,19.925 -15.88,47.632 11.88,27.707 91.07,23.582 91.07,23.582 l -91.07,79.157 c 0,0 -35.62,43.664 0,43.664 35.63,0 -2.35,-2.227 668.97,-51.602 -82.62,99.981 -98.95,51.516 -83.12,102.973 67.29,158.319 107.05,213.729 146.63,79.159 -19.79,-118.749 -35.72,-186.101 -35.72,-186.101 l -27.79,-189.836 c 0,0 474.94,562.097 558.06,668.977 12.39,15.93 -296.77,-237.71 -296.77,-237.71 0,0 -76.62,-59.29 -43.44,47.64 35.63,114.78 416.37,1578.57 419.37,1587.08 z m -1686.092,-953.83 126.793,-99.01 -110.914,-158.31 -55.34,79.16 39.461,178.16 z m 851.102,-110.92 43.43,-629.27 -641.18,-59.31 -43.43,649.12 641.18,39.46 z M 949.871,1573.68 918.113,833.488 704.465,888.828 862.773,738.453 c 0,0 -225.66,-201.832 -261.281,-233.496 -35.625,-31.664 -51.582,4.047 -43.664,31.754 7.914,27.707 209.914,1021.089 209.914,1021.089 l 63.278,-166.25 118.851,182.13 z m 79.149,-637.219 c 47.5,-47.496 108.89,-62.508 102.75,-87.094 -7.92,-31.664 -14.05,-42.543 -23.59,-67.25 -44.14,10.481 -154.352,35.641 -186.016,47.516 15.832,15.832 79.156,79.121 106.856,106.828 z"
         id="path16"
         style="fill:#666666;stroke:#000000;stroke-width:7.47193003000000022;stroke-linecap:butt;stroke-linejoin:miter;stroke-miterlimit:10;stroke-opacity:1;stroke-dasharray:none" /></g></g></svg>