<?xml version="1.0" encoding="UTF-8" standalone="no"?>
<!-- Generator: Adobe Illustrator 12.0.0, SVG Export Plug-In . SVG Version: 6.00 Build 51448)  -->

<svg
   xmlns:dc="http://purl.org/dc/elements/1.1/"
   xmlns:cc="http://creativecommons.org/ns#"
   xmlns:rdf="http://www.w3.org/1999/02/22-rdf-syntax-ns#"
   xmlns:svg="http://www.w3.org/2000/svg"
   xmlns="http://www.w3.org/2000/svg"
   xmlns:sodipodi="http://sodipodi.sourceforge.net/DTD/sodipodi-0.dtd"
   xmlns:inkscape="http://www.inkscape.org/namespaces/inkscape"
   version="1.0"
   id="Layer_1"
   width="40"
   height="40"
   viewBox="0 0 39.999999 40"
   style="overflow:visible"
   xml:space="preserve"
   inkscape:version="0.48.1 r9760"
   sodipodi:docname="minimize_down_1.svg"><metadata
   id="metadata23"><rdf:RDF><cc:Work
       rdf:about=""><dc:format>image/svg+xml</dc:format><dc:type
         rdf:resource="http://purl.org/dc/dcmitype/StillImage" /></cc:Work></rdf:RDF></metadata><defs
   id="defs21" /><sodipodi:namedview
   pagecolor="#ffffff"
   bordercolor="#666666"
   borderopacity="1"
   objecttolerance="10"
   gridtolerance="10"
   guidetolerance="10"
   inkscape:pageopacity="0"
   inkscape:pageshadow="2"
   inkscape:window-width="1436"
   inkscape:window-height="835"
   id="namedview19"
   showgrid="true"
   inkscape:zoom="15.2"
   inkscape:cx="20"
   inkscape:cy="20"
   inkscape:window-x="0"
   inkscape:window-y="39"
   inkscape:window-maximized="0"
   inkscape:current-layer="Layer_1"><inkscape:grid
     type="xygrid"
     id="grid3000"
     empspacing="5"
     visible="true"
     enabled="true"
     snapvisiblegridlinesonly="true" /></sodipodi:namedview>
<g
   id="g3"
   transform="matrix(-0.04592187,0,0,0.04592187,32.99892,11.729047)">
	<polygon
   points="566.179,0 0,0 58.649,41.212 "
   id="polygon5" />
	<polygon
   points="0,0 283.066,330.243 294.4,264.362 "
   id="polygon7" />
	<polygon
   points="283.066,330.243 566.179,0 482.327,39.599 "
   id="polygon9" />
	<polygon
   points="283.066,330.521 254.779,164.892 311.399,164.892 "
   id="polygon11" />
	<path
   d="m 311.399,164.892 c 0,15.641 -12.715,28.333 -28.333,28.333 -15.618,0 -28.333,-12.692 -28.333,-28.333 0,-15.642 12.715,-28.335 28.333,-28.335 15.618,0 28.333,12.693 28.333,28.335 z"
   id="path13"
   inkscape:connector-curvature="0" />
	<polygon
   points="297.211,140.451 0,0 270.951,190.415 "
   id="polygon15" />
	<polygon
   points="268.921,140.451 566.179,0 295.185,190.415 "
   id="polygon17" />
</g>
<rect
   style="opacity:0.48297214999999999;fill:none;stroke:none;stroke-width:0.99800003000000004;stroke-miterlimit:4;stroke-opacity:1;stroke-dasharray:none"
   id="rect3032"
   width="40"
   height="40"
   x="0"
   y="0"
   rx="1.515625"
   ry="1" /></svg>