<?xml version="1.0" encoding="UTF-8" standalone="no"?>
<!-- Created with Inkscape (http://www.inkscape.org/) -->

<svg
   xmlns:dc="http://purl.org/dc/elements/1.1/"
   xmlns:cc="http://creativecommons.org/ns#"
   xmlns:rdf="http://www.w3.org/1999/02/22-rdf-syntax-ns#"
   xmlns:svg="http://www.w3.org/2000/svg"
   xmlns="http://www.w3.org/2000/svg"
   version="1.0"
   width="40"
   height="40"
   viewBox="0 0 39.999999 40"
   id="Layer_1"
   xml:space="preserve"
   style="overflow:visible"><metadata
   id="metadata23"><rdf:RDF><cc:Work
       rdf:about=""><dc:format>image/svg+xml</dc:format><dc:type
         rdf:resource="http://purl.org/dc/dcmitype/StillImage" /><dc:title></dc:title></cc:Work></rdf:RDF></metadata><defs
   id="defs21" />
<g
   transform="matrix(0.06358413,0,0,0.06358413,2.1020966,9.0695454)"
   id="g3">
	<polygon
   points="58.649,41.212 566.179,0 0,0 "
   id="polygon5" />
	<polygon
   points="294.4,264.362 0,0 283.066,330.243 "
   id="polygon7" />
	<polygon
   points="482.327,39.599 283.066,330.243 566.179,0 "
   id="polygon9" />
	<polygon
   points="311.399,164.892 283.066,330.521 254.779,164.892 "
   id="polygon11" />
	<path
   d="m 311.399,164.892 c 0,15.641 -12.715,28.333 -28.333,28.333 -15.618,0 -28.333,-12.692 -28.333,-28.333 0,-15.642 12.715,-28.335 28.333,-28.335 15.618,0 28.333,12.693 28.333,28.335 z"
   id="path13" />
	<polygon
   points="270.951,190.415 297.211,140.451 0,0 "
   id="polygon15" />
	<polygon
   points="295.185,190.415 268.921,140.451 566.179,0 "
   id="polygon17" />
</g>
<rect
   width="40"
   height="40"
   rx="1.515625"
   ry="1"
   x="0"
   y="0"
   id="rect3032"
   style="opacity:0.48297215;fill:none;stroke:none" /></svg>