<?xml version="1.0" encoding="UTF-8" standalone="no"?>
<!-- Created with Inkscape (http://www.inkscape.org/) -->

<svg
   xmlns:dc="http://purl.org/dc/elements/1.1/"
   xmlns:cc="http://creativecommons.org/ns#"
   xmlns:rdf="http://www.w3.org/1999/02/22-rdf-syntax-ns#"
   xmlns:svg="http://www.w3.org/2000/svg"
   xmlns="http://www.w3.org/2000/svg"
   xmlns:xlink="http://www.w3.org/1999/xlink"
   xmlns:sodipodi="http://sodipodi.sourceforge.net/DTD/sodipodi-0.dtd"
   xmlns:inkscape="http://www.inkscape.org/namespaces/inkscape"
   version="1.1"
   width="19"
   height="19"
   id="svg3924"
   inkscape:version="0.48.1 r9760"
   sodipodi:docname="close_inactive.svg">
  <sodipodi:namedview
     pagecolor="#ffffff"
     bordercolor="#666666"
     borderopacity="1"
     objecttolerance="10"
     gridtolerance="10"
     guidetolerance="10"
     inkscape:pageopacity="0"
     inkscape:pageshadow="2"
     inkscape:window-width="640"
     inkscape:window-height="480"
     id="namedview30"
     showgrid="false"
     fit-margin-bottom="1"
     showborder="false"
     inkscape:showpageshadow="false"
     inkscape:zoom="14.055556"
     inkscape:cx="9.5"
     inkscape:cy="9"
     inkscape:window-x="0"
     inkscape:window-y="0"
     inkscape:window-maximized="0"
     inkscape:current-layer="svg3924" />
  <defs
     id="defs3926">
    <linearGradient
       x1="627"
       y1="525.36218"
       x2="627"
       y2="536.04968"
       id="linearGradient3375"
       xlink:href="#linearGradient3694"
       gradientUnits="userSpaceOnUse"
       gradientTransform="matrix(1.3023255,0,0,-1.3846142,-515.55815,756.4238)" />
    <linearGradient
       id="linearGradient3694">
      <stop
         id="stop3696"
         style="stop-color:#6f6f6f;stop-opacity:1"
         offset="0" />
      <stop
         id="stop3698"
         style="stop-color:#4f4f4f;stop-opacity:0.57254905"
         offset="1" />
    </linearGradient>
    <linearGradient
       x1="585.0625"
       y1="526.36218"
       x2="585.0625"
       y2="537.36218"
       id="linearGradient3377"
       xlink:href="#linearGradient3684"
       gradientUnits="userSpaceOnUse"
       gradientTransform="matrix(1.3190841,0,0,1.4545441,-525.74659,-753.61705)" />
    <linearGradient
       id="linearGradient3684">
      <stop
         id="stop3686"
         style="stop-color:#222222;stop-opacity:1"
         offset="0" />
      <stop
         id="stop3688"
         style="stop-color:#4f4f4f;stop-opacity:1"
         offset="1" />
    </linearGradient>
    <linearGradient
       x1="585.0625"
       y1="526.36218"
       x2="585.0625"
       y2="537.36218"
       id="linearGradient3379"
       xlink:href="#linearGradient3731"
       gradientUnits="userSpaceOnUse"
       gradientTransform="matrix(1.3160307,0,0,1.4545441,-523.83514,-753.61705)" />
    <linearGradient
       id="linearGradient3731">
      <stop
         id="stop3733"
         style="stop-color:#635b4f;stop-opacity:0.01315789"
         offset="0" />
      <stop
         id="stop3735"
         style="stop-color:#a9986a;stop-opacity:0"
         offset="1" />
    </linearGradient>
    <radialGradient
       cx="580.3125"
       cy="79.588547"
       r="6.6874995"
       fx="580.3125"
       fy="79.588547"
       id="radialGradient3381"
       xlink:href="#linearGradient4209"
       gradientUnits="userSpaceOnUse" />
    <linearGradient
       id="linearGradient4209">
      <stop
         id="stop4211"
         style="stop-color:#a5a5a5;stop-opacity:1"
         offset="0" />
      <stop
         id="stop4213"
         style="stop-color:#cdcdcd;stop-opacity:0.23571429"
         offset="1" />
    </linearGradient>
  </defs>
  <metadata
     id="metadata3929">
    <rdf:RDF>
      <cc:Work
         rdf:about="">
        <dc:format>image/svg+xml</dc:format>
        <dc:type
           rdf:resource="http://purl.org/dc/dcmitype/StillImage" />
        <dc:title />
      </cc:Work>
    </rdf:RDF>
  </metadata>
  <g
     transform="translate(-179.07143,-486.21933)"
     id="layer1">
    <g
       transform="translate(-102.92857,-527.14287)"
       id="hover-inactive-center">
      <path
         d="m 282,29 10,0 c 4.986,0 9,-4.014005 9,-9 0,-4.985995 -4.014,-9 -9,-9 l -10,0 0,18 z"
         transform="translate(0,1002.3622)"
         id="path3361"
         style="opacity:0.86266097;fill:url(#linearGradient3375);fill-opacity:1;stroke:none"
         inkscape:connector-curvature="0" />
      <path
         d="m 282,28 10,0 c 4.432,0 8,-3.568003 8,-8 0,-4.431997 -3.568,-8 -8,-8 l -10,0 0,16 z"
         transform="translate(0,1002.3622)"
         id="path3363"
         style="fill:url(#linearGradient3377);fill-opacity:1;stroke:none"
         inkscape:connector-curvature="0" />
      <path
         d="m 282,28 10.15625,0 C 296.49759,28 300,24.432 300,20 c 0,-4.432 -3.50241,-8 -7.84375,-8 L 282,12 l 0,1 10.15625,0 c 3.79867,0 6.875,3.122 6.875,7 0,3.878 -3.07633,7 -6.875,7 L 282,27 l 0,1 z"
         transform="translate(0,1002.3622)"
         id="path3365"
         style="fill:url(#linearGradient3379);fill-opacity:1;stroke:none"
         inkscape:connector-curvature="0" />
      <path
         d="m 587,82.375 a 6.6875,6.6875 0 1 1 -13.375,0 6.6875,6.6875 0 1 1 13.375,0 z"
         transform="matrix(1.0467285,0,0,1.0467293,-316.42964,936.13787)"
         id="path3367"
         style="fill:#000000;fill-opacity:0.13551402;stroke:none"
         inkscape:connector-curvature="0" />
      <path
         d="m 587,82.375 a 6.6875,6.6875 0 1 1 -13.375,0 6.6875,6.6875 0 1 1 13.375,0 z"
         transform="matrix(0.89719644,0,0,0.89719713,-229.65432,948.45558)"
         id="path3369"
         style="fill:url(#radialGradient3381);fill-opacity:1;stroke:none"
         inkscape:connector-curvature="0" />
      <path
         d="m 289.06249,1019.3935 -0.75,0.4687 2.125,2.2813 -2.125,2.3125 0.6875,0.5 2.03125,-2.1875 2.03125,2.1875 0.6875,-0.5 -2.125,-2.3125 2.125,-2.2813 -0.75,-0.4687 -1.96875,2.125 -1.96875,-2.125 z"
         id="path3371"
         style="fill:#413e3e;fill-opacity:0.82995959;stroke:none"
         inkscape:connector-curvature="0" />
      <path
         d="m 290.99999,1016.3622 c -3.31371,0 -6,2.6863 -6,6 0,3.3137 2.68629,6 6,6 3.31371,0 6,-2.6863 6,-6 0,-3.3137 -2.68629,-6 -6,-6 z m 0,1 c 2.76143,0 5,2.2386 5,5 0,2.7614 -2.23857,5 -5,5 -2.76143,0 -5,-2.2386 -5,-5 0,-2.7614 2.23857,-5 5,-5 z"
         id="path3373"
         style="fill:#c1c1c1;fill-opacity:0.3372549;stroke:none"
         inkscape:connector-curvature="0" />
    </g>
  </g>
</svg>
