<?xml version="1.0" encoding="UTF-8" standalone="no"?>
<!-- Created with Inkscape (http://www.inkscape.org/) -->

<svg
   xmlns:dc="http://purl.org/dc/elements/1.1/"
   xmlns:cc="http://creativecommons.org/ns#"
   xmlns:rdf="http://www.w3.org/1999/02/22-rdf-syntax-ns#"
   xmlns:svg="http://www.w3.org/2000/svg"
   xmlns="http://www.w3.org/2000/svg"
   xmlns:xlink="http://www.w3.org/1999/xlink"
   version="1.1"
   width="19"
   height="19"
   id="svg3467">
  <defs
     id="defs3469">
    <linearGradient
       x1="627"
       y1="525.36218"
       x2="627"
       y2="536.04968"
       id="linearGradient3227"
       xlink:href="#linearGradient3694"
       gradientUnits="userSpaceOnUse"
       gradientTransform="matrix(1.3023255,0,0,-1.3846142,-515.55815,756.4238)" />
    <linearGradient
       id="linearGradient3694">
      <stop
         id="stop3696"
         style="stop-color:#6f6f6f;stop-opacity:1"
         offset="0" />
      <stop
         id="stop3698"
         style="stop-color:#4f4f4f;stop-opacity:0.57254905"
         offset="1" />
    </linearGradient>
    <linearGradient
       x1="585.0625"
       y1="526.36218"
       x2="585.0625"
       y2="537.36218"
       id="linearGradient3229"
       xlink:href="#linearGradient3684"
       gradientUnits="userSpaceOnUse"
       gradientTransform="matrix(1.3190841,0,0,1.4545441,-525.74659,-753.61705)" />
    <linearGradient
       id="linearGradient3684">
      <stop
         id="stop3686"
         style="stop-color:#222222;stop-opacity:1"
         offset="0" />
      <stop
         id="stop3688"
         style="stop-color:#4f4f4f;stop-opacity:1"
         offset="1" />
    </linearGradient>
    <linearGradient
       x1="585.0625"
       y1="526.36218"
       x2="585.0625"
       y2="537.36218"
       id="linearGradient3231"
       xlink:href="#linearGradient3731"
       gradientUnits="userSpaceOnUse"
       gradientTransform="matrix(1.3160307,0,0,1.4545441,-523.83514,-753.61705)" />
    <linearGradient
       id="linearGradient3731">
      <stop
         id="stop3733"
         style="stop-color:#635b4f;stop-opacity:0.01315789"
         offset="0" />
      <stop
         id="stop3735"
         style="stop-color:#a9986a;stop-opacity:0"
         offset="1" />
    </linearGradient>
    <radialGradient
       cx="580.3125"
       cy="78.752609"
       r="6.6874995"
       fx="580.3125"
       fy="78.752609"
       id="radialGradient3233"
       xlink:href="#linearGradient4209"
       gradientUnits="userSpaceOnUse" />
    <linearGradient
       id="linearGradient4209">
      <stop
         id="stop4211"
         style="stop-color:#a5a5a5;stop-opacity:1"
         offset="0" />
      <stop
         id="stop4213"
         style="stop-color:#cdcdcd;stop-opacity:0.23529412"
         offset="1" />
    </linearGradient>
  </defs>
  <metadata
     id="metadata3472">
    <rdf:RDF>
      <cc:Work
         rdf:about="">
        <dc:format>image/svg+xml</dc:format>
        <dc:type
           rdf:resource="http://purl.org/dc/dcmitype/StillImage" />
        <dc:title></dc:title>
      </cc:Work>
    </rdf:RDF>
  </metadata>
  <g
     transform="translate(-533.35714,-589.07647)"
     id="layer1">
    <g
       transform="translate(288.35714,-424.28573)"
       id="hover-inactive-center">
      <path
         d="m 264,11 -10,0 c -4.986,0 -9,4.014005 -9,9 0,4.985995 4.014,9 9,9 l 10,0 0,-18 z"
         transform="translate(0,1002.3622)"
         id="path3212"
         style="opacity:0.86266097;fill:url(#linearGradient3227);fill-opacity:1;stroke:none" />
      <path
         d="m 264,12 -10,0 c -4.432,0 -8,3.568003 -8,8 0,4.431997 3.568,8 8,8 l 10,0 0,-16 z"
         transform="translate(0,1002.3622)"
         id="path3214"
         style="fill:url(#linearGradient3229);fill-opacity:1;stroke:none" />
      <path
         d="m 264,12 -10.03125,0 c -4.34134,0 -7.84375,3.568 -7.84375,8 0,4.432 3.50241,8 7.84375,8 L 264,28 l 0,-1 -10.03125,0 c -3.79867,0 -6.875,-3.122 -6.875,-7 0,-3.878 3.07633,-7 6.875,-7 L 264,13 l 0,-1 z"
         transform="translate(0,1002.3622)"
         id="path3216"
         style="fill:url(#linearGradient3231);fill-opacity:1;stroke:none" />
      <path
         d="m 587,82.375 a 6.6875,6.6875 0 1 1 -13.375,0 6.6875,6.6875 0 1 1 13.375,0 z"
         transform="matrix(1.0467285,0,0,1.0467293,-352.42964,936.13787)"
         id="path3218"
         style="fill:#000000;fill-opacity:0.13551402;stroke:none" />
      <path
         d="m 587,82.375 a 6.6875,6.6875 0 1 1 -13.375,0 6.6875,6.6875 0 1 1 13.375,0 z"
         transform="matrix(0.89719644,0,0,0.89719713,-265.65432,948.45558)"
         id="path3220"
         style="fill:url(#radialGradient3233);fill-opacity:1;stroke:none" />
      <path
         d="m 254.99999,1025.0497 3.65625,-4 -0.91406,0 -2.74219,3 -2.74218,-3 -0.91407,0 3.65625,4 z"
         id="path3222"
         style="fill:#413e3e;fill-opacity:0.83137255;stroke:none" />
      <path
         d="m 254.99999,1016.3622 c -3.31371,0 -6,2.6863 -6,6 0,3.3137 2.68629,6 6,6 3.31371,0 6,-2.6863 6,-6 0,-3.3137 -2.68629,-6 -6,-6 z m 0,1 c 2.76143,0 5,2.2386 5,5 0,2.7614 -2.23857,5 -5,5 -2.76143,0 -5,-2.2386 -5,-5 0,-2.7614 2.23857,-5 5,-5 z"
         id="path3225"
         style="fill:#c1c1c1;fill-opacity:0.33920707;stroke:none" />
    </g>
  </g>
</svg>
