<?xml version="1.0" encoding="UTF-8" standalone="no"?>
<!-- Created with Inkscape (http://www.inkscape.org/) -->

<svg
   xmlns:dc="http://purl.org/dc/elements/1.1/"
   xmlns:cc="http://creativecommons.org/ns#"
   xmlns:rdf="http://www.w3.org/1999/02/22-rdf-syntax-ns#"
   xmlns:svg="http://www.w3.org/2000/svg"
   xmlns="http://www.w3.org/2000/svg"
   xmlns:xlink="http://www.w3.org/1999/xlink"
   version="1.1"
   width="19"
   height="19"
   id="svg2">
  <defs
     id="defs4">
    <linearGradient
       id="linearGradient3694">
      <stop
         id="stop3696"
         style="stop-color:#6f6f6f;stop-opacity:1"
         offset="0" />
      <stop
         id="stop3698"
         style="stop-color:#4f4f4f;stop-opacity:0.57254905"
         offset="1" />
    </linearGradient>
    <linearGradient
       id="linearGradient3684">
      <stop
         id="stop3686"
         style="stop-color:#222222;stop-opacity:1"
         offset="0" />
      <stop
         id="stop3688"
         style="stop-color:#4f4f4f;stop-opacity:1"
         offset="1" />
    </linearGradient>
    <linearGradient
       id="linearGradient3731">
      <stop
         id="stop3733"
         style="stop-color:#635b4f;stop-opacity:0.01315789"
         offset="0" />
      <stop
         id="stop3735"
         style="stop-color:#a9986a;stop-opacity:0"
         offset="1" />
    </linearGradient>
    <linearGradient
       x1="583.65625"
       y1="539.04968"
       x2="583.65625"
       y2="535.04968"
       id="linearGradient4059"
       xlink:href="#linearGradient4133"
       gradientUnits="userSpaceOnUse"
       gradientTransform="translate(-325.03125,466.31253)" />
    <linearGradient
       id="linearGradient4133">
      <stop
         id="stop4135"
         style="stop-color:#ffffff;stop-opacity:1"
         offset="0" />
      <stop
         id="stop4137"
         style="stop-color:#ffffff;stop-opacity:0"
         offset="1" />
    </linearGradient>
    <linearGradient
       x1="627"
       y1="525.36218"
       x2="627"
       y2="536.04968"
       id="linearGradient3306"
       xlink:href="#linearGradient3694"
       gradientUnits="userSpaceOnUse"
       gradientTransform="matrix(1.3023255,0,0,-1.3846142,-515.55814,735.4238)" />
    <linearGradient
       x1="585.0625"
       y1="526.36218"
       x2="585.0625"
       y2="537.36218"
       id="linearGradient3308"
       xlink:href="#linearGradient3684"
       gradientUnits="userSpaceOnUse"
       gradientTransform="matrix(1.3190841,0,0,1.4545441,-525.74658,-774.61704)" />
    <linearGradient
       x1="585.0625"
       y1="526.36218"
       x2="585.0625"
       y2="537.36218"
       id="linearGradient3310"
       xlink:href="#linearGradient3731"
       gradientUnits="userSpaceOnUse"
       gradientTransform="matrix(1.3160307,0,0,1.4545441,-523.83513,-774.61704)" />
    <linearGradient
       x1="583.65625"
       y1="539.04968"
       x2="583.65625"
       y2="535.04968"
       id="linearGradient3312"
       xlink:href="#linearGradient4133"
       gradientUnits="userSpaceOnUse"
       gradientTransform="translate(-325.03125,466.31253)" />
  </defs>
  <metadata
     id="metadata7">
    <rdf:RDF>
      <cc:Work
         rdf:about="">
        <dc:format>image/svg+xml</dc:format>
        <dc:type
           rdf:resource="http://purl.org/dc/dcmitype/StillImage" />
        <dc:title></dc:title>
      </cc:Work>
    </rdf:RDF>
  </metadata>
  <g
     transform="translate(-324.78571,-326.21933)"
     id="layer1">
    <g
       transform="translate(79.785714,-666.14287)"
       id="hover-center">
      <path
         d="m 264,-10 -10,0 c -4.986,0 -9,4.0140053 -9,9 0,4.9859947 4.014,9 9,9 l 10,0 0,-18 z"
         transform="translate(0,1002.3622)"
         id="path4037"
         style="opacity:0.86266097;fill:url(#linearGradient3306);fill-opacity:1;stroke:none" />
      <path
         d="m 264,-9 -10,0 c -4.432,0 -8,3.5680026 -8,8 0,4.4319974 3.568,8 8,8 l 10,0 0,-16 z"
         transform="translate(0,1002.3622)"
         id="path4039"
         style="fill:url(#linearGradient3308);fill-opacity:1;stroke:none" />
      <path
         d="m 264,-9 -10.03125,0 c -4.34134,0 -7.84375,3.56801 -7.84375,8 0,4.432 3.50241,8 7.84375,8 L 264,7 264,6 253.96875,6 c -3.79867,0 -6.875,-3.122 -6.875,-7 0,-3.87799 3.07633,-7 6.875,-7 L 264,-8 l 0,-1 z"
         transform="translate(0,1002.3622)"
         id="path4041"
         style="fill:url(#linearGradient3310);fill-opacity:1;stroke:none" />
      <path
         d="m 587,82.375 a 6.6875,6.6875 0 1 1 -13.375,0 6.6875,6.6875 0 1 1 13.375,0 z"
         transform="matrix(1.0467285,0,0,1.0467293,-352.42963,915.13788)"
         id="path4043"
         style="fill:#808080;fill-opacity:0.63529412;stroke:none" />
      <path
         d="m 587,82.375 a 6.6875,6.6875 0 1 1 -13.375,0 6.6875,6.6875 0 1 1 13.375,0 z"
         transform="matrix(0.89719644,0,0,0.89719713,-265.65431,927.45559)"
         id="path4045"
         style="fill:#f3f3f3;fill-opacity:1;stroke:none" />
      <path
         d="m 255,1004.0497 3.65625,-4 -0.91406,0 -2.74219,3 -2.74218,-3 -0.91407,0 3.65625,4 z"
         id="path4047"
         style="fill:#6d6d6d;fill-opacity:1;stroke:none" />
      <path
         d="m 254.96875,1005.3622 3.65625,-4 -0.91406,0 -2.74219,3 -2.74218,-3 -0.91407,0 3.65625,4 z"
         id="path4049"
         style="fill:url(#linearGradient3312);fill-opacity:1;stroke:none" />
    </g>
  </g>
</svg>
